<svg aria-roledescription="er" viewBox="0 0 1782.92578125 465" style="max-width: 1782.92578125px;" xmlns:xlink="http://www.w3.org/1999/xlink" xmlns="http://www.w3.org/2000/svg" width="100%" id="mermaid-1675761566312"><style>#mermaid-1675761566312{font-family:"trebuchet ms",verdana,arial,sans-serif;font-size:16px;fill:#333;}#mermaid-1675761566312 .error-icon{fill:#552222;}#mermaid-1675761566312 .error-text{fill:#552222;stroke:#552222;}#mermaid-1675761566312 .edge-thickness-normal{stroke-width:2px;}#mermaid-1675761566312 .edge-thickness-thick{stroke-width:3.5px;}#mermaid-1675761566312 .edge-pattern-solid{stroke-dasharray:0;}#mermaid-1675761566312 .edge-pattern-dashed{stroke-dasharray:3;}#mermaid-1675761566312 .edge-pattern-dotted{stroke-dasharray:2;}#mermaid-1675761566312 .marker{fill:#333333;stroke:#333333;}#mermaid-1675761566312 .marker.cross{stroke:#333333;}#mermaid-1675761566312 svg{font-family:"trebuchet ms",verdana,arial,sans-serif;font-size:16px;}#mermaid-1675761566312 .entityBox{fill:#ECECFF;stroke:#9370DB;}#mermaid-1675761566312 .attributeBoxOdd{fill:#ffffff;stroke:#9370DB;}#mermaid-1675761566312 .attributeBoxEven{fill:#f2f2f2;stroke:#9370DB;}#mermaid-1675761566312 .relationshipLabelBox{fill:hsl(80, 100%, 96.2745098039%);opacity:0.7;background-color:hsl(80, 100%, 96.2745098039%);}#mermaid-1675761566312 .relationshipLabelBox rect{opacity:0.5;}#mermaid-1675761566312 .relationshipLine{stroke:#333333;}#mermaid-1675761566312 .entityTitleText{text-anchor:middle;font-size:18px;fill:#333;}#mermaid-1675761566312 :root{--mermaid-font-family:"trebuchet ms",verdana,arial,sans-serif;}</style><g/><defs><marker orient="auto" markerHeight="18" markerWidth="18" refY="9" refX="0" id="ONLY_ONE_START"><path d="M9,0 L9,18 M15,0 L15,18" fill="none" stroke="gray"/></marker></defs><defs><marker orient="auto" markerHeight="18" markerWidth="18" refY="9" refX="18" id="ONLY_ONE_END"><path d="M3,0 L3,18 M9,0 L9,18" fill="none" stroke="gray"/></marker></defs><defs><marker orient="auto" markerHeight="18" markerWidth="30" refY="9" refX="0" id="ZERO_OR_ONE_START"><circle r="6" cy="9" cx="21" fill="white" stroke="gray"/><path d="M9,0 L9,18" fill="none" stroke="gray"/></marker></defs><defs><marker orient="auto" markerHeight="18" markerWidth="30" refY="9" refX="30" id="ZERO_OR_ONE_END"><circle r="6" cy="9" cx="9" fill="white" stroke="gray"/><path d="M21,0 L21,18" fill="none" stroke="gray"/></marker></defs><defs><marker orient="auto" markerHeight="36" markerWidth="45" refY="18" refX="18" id="ONE_OR_MORE_START"><path d="M0,18 Q 18,0 36,18 Q 18,36 0,18 M42,9 L42,27" fill="none" stroke="gray"/></marker></defs><defs><marker orient="auto" markerHeight="36" markerWidth="45" refY="18" refX="27" id="ONE_OR_MORE_END"><path d="M3,9 L3,27 M9,18 Q27,0 45,18 Q27,36 9,18" fill="none" stroke="gray"/></marker></defs><defs><marker orient="auto" markerHeight="36" markerWidth="57" refY="18" refX="18" id="ZERO_OR_MORE_START"><circle r="6" cy="18" cx="48" fill="white" stroke="gray"/><path d="M0,18 Q18,0 36,18 Q18,36 0,18" fill="none" stroke="gray"/></marker></defs><defs><marker orient="auto" markerHeight="36" markerWidth="57" refY="18" refX="39" id="ZERO_OR_MORE_END"><circle r="6" cy="18" cx="9" fill="white" stroke="gray"/><path d="M21,18 Q39,0 57,18 Q39,36 21,18" fill="none" stroke="gray"/></marker></defs><path style="stroke: gray; fill: none;" marker-start="url(#ONE_OR_MORE_START)" marker-end="url(#ZERO_OR_MORE_END)" d="M1212.92578125,270L1212.92578125,278.3333333333333C1212.92578125,286.6666666666667,1212.92578125,303.3333333333333,1220.9404761904761,320C1228.9551711309523,336.6666666666667,1244.9845610119048,353.3333333333333,1252.999255952381,361.6666666666667L1261.013950892857,370" class="er relationshipLine"/><path style="stroke: gray; fill: none;" marker-start="url(#ZERO_OR_MORE_START)" marker-end="url(#ONLY_ONE_END)" d="M192.83426339285714,270L183.31045386904762,278.3333333333333C173.78664434523807,286.6666666666667,154.73902529761904,303.3333333333333,145.21521577380952,320C135.69140625,336.6666666666667,135.69140625,353.3333333333333,135.69140625,361.6666666666667L135.69140625,370" class="er relationshipLine"/><path style="stroke: gray; fill: none;" marker-start="url(#ZERO_OR_MORE_START)" marker-end="url(#ONLY_ONE_END)" d="M257.11997767857144,270L261.8818824404762,278.3333333333333C266.64378720238096,286.6666666666667,276.1675967261905,303.3333333333333,334.7247488839286,324.2939312092522C393.2819010416667,345.2545290851711,500.8723958333333,370.50905817034214,554.6676432291666,383.1363227129277L608.462890625,395.76358725551324" class="er relationshipLine"/><path style="stroke: gray; fill: none;" marker-start="url(#ZERO_OR_ONE_START)" marker-end="url(#ONLY_ONE_END)" d="M333.68359375,87.837890625L317.3515625,97.36490885416667C301.01953125,106.89192708333333,268.35546875,125.94596354166667,252.0234375,143.80631510416666C235.69140625,161.66666666666666,235.69140625,178.33333333333334,235.69140625,186.66666666666666L235.69140625,195" class="er relationshipLine"/><path style="stroke: gray; fill: none;" marker-start="url(#ONLY_ONE_START)" marker-end="url(#ONLY_ONE_END)" d="M364.26283482142856,95L359.5009300595238,103.33333333333333C354.73902529761904,111.66666666666667,345.21521577380946,128.33333333333334,390.45331101190476,148.69855116057553C435.69140625,169.06376898781772,535.69140625,193.12753797563542,585.69140625,205.1594224695443L635.69140625,217.19130696345314" class="er relationshipLine"/><path style="stroke: gray; fill: none;" marker-start="url(#ZERO_OR_MORE_START)" marker-end="url(#ONLY_ONE_END)" d="M407.11997767857144,95L411.8818824404762,103.33333333333333C416.64378720238096,111.66666666666667,426.16759672619054,128.33333333333334,552.1352306547619,150.31184454764153C678.1028645833334,172.29035576194974,920.5143229166666,199.5807115238995,1041.7200520833333,213.22588940487438L1162.92578125,226.87106728584928" class="er relationshipLine"/><path style="stroke: gray; fill: none;" marker-start="url(#ZERO_OR_MORE_START)" marker-end="url(#ONE_OR_MORE_END)" d="M437.69921875,87.837890625L454.03125,97.36490885416667C470.36328125,106.89192708333333,503.02734375,125.94596354166667,519.359375,150.05631510416666C535.69140625,174.16666666666666,535.69140625,203.33333333333334,535.69140625,232.5C535.69140625,261.6666666666667,535.69140625,290.8333333333333,654.2561848958334,319.0423200480892C772.8209635416666,347.2513067628451,1009.9505208333334,374.50261352569015,1128.5152994791667,388.12826690711273L1247.080078125,401.7539202885353" class="er relationshipLine"/><path style="stroke: gray; fill: none;" marker-start="url(#ZERO_OR_ONE_START)" marker-end="url(#ONLY_ONE_END)" d="M962.92578125,71.4501282913584L918.9895833333334,83.70844024279866C875.0533854166666,95.96675219423894,787.1809895833334,120.48337609711946,674.3763020833334,145.7394650961194C561.5716145833334,170.99555409511933,423.8346354166667,196.99110819023863,354.9661458333333,209.9888852377983L286.09765625,222.986662285358" class="er relationshipLine"/><path style="stroke: gray; fill: none;" marker-start="url(#ZERO_OR_MORE_START)" marker-end="url(#ONLY_ONE_END)" d="M962.92578125,86.66666666666667L946.2591145833334,96.3888888888889C929.5924479166666,106.11111111111113,896.2591145833334,125.55555555555556,879.5924479166666,149.86111111111111C862.92578125,174.16666666666666,862.92578125,203.33333333333334,862.92578125,232.5C862.92578125,261.6666666666667,862.92578125,290.8333333333333,837.1819661458334,316.4337456814889C811.4381510416666,342.03415802964446,759.9505208333334,364.068316059289,734.2067057291666,375.0853950741112L708.462890625,386.1024740889335" class="er relationshipLine"/><path style="stroke: gray; fill: none;" marker-start="url(#ONLY_ONE_START)" marker-end="url(#ONLY_ONE_END)" d="M1012.92578125,95L1012.92578125,103.33333333333333C1012.92578125,111.66666666666667,1012.92578125,128.33333333333334,1012.92578125,145C1012.92578125,161.66666666666666,1012.92578125,178.33333333333334,1012.92578125,186.66666666666666L1012.92578125,195" class="er relationshipLine"/><path style="stroke: gray; fill: none;" marker-start="url(#ZERO_OR_MORE_START)" marker-end="url(#ONLY_ONE_END)" d="M1062.92578125,79.375L1087.92578125,90.3125C1112.92578125,101.25,1162.92578125,123.125,1187.92578125,142.39583333333334C1212.92578125,161.66666666666666,1212.92578125,178.33333333333334,1212.92578125,186.66666666666666L1212.92578125,195" class="er relationshipLine"/><path style="stroke: gray; fill: none;" marker-start="url(#ZERO_OR_MORE_START)" marker-end="url(#ONE_OR_MORE_END)" d="M1062.92578125,70L1112.92578125,82.5C1162.92578125,95,1262.92578125,120,1312.92578125,147.08333333333334C1362.92578125,174.16666666666666,1362.92578125,203.33333333333334,1362.92578125,232.5C1362.92578125,261.6666666666667,1362.92578125,290.8333333333333,1356.654761904762,313.75C1350.3837425595239,336.6666666666667,1337.8417038690475,353.3333333333333,1331.5706845238094,361.6666666666667L1325.2996651785713,370" class="er relationshipLine"/><path style="stroke: gray; fill: none;" marker-start="url(#ZERO_OR_ONE_START)" marker-end="url(#ONLY_ONE_END)" d="M64.26283482142857,95L59.5009300595238,103.33333333333333C54.739025297619044,111.66666666666667,45.21521577380952,128.33333333333334,65.38560267857143,147.57454427083334C85.55598958333333,166.81575520833334,135.42057291666666,188.63151041666666,160.35286458333334,199.53938802083334L185.28515625,210.447265625" class="er relationshipLine"/><path style="stroke: gray; fill: none;" marker-start="url(#ONLY_ONE_START)" marker-end="url(#ONLY_ONE_END)" d="M107.11997767857143,95L111.88188244047619,103.33333333333333C116.64378720238096,111.66666666666667,126.16759672619048,128.33333333333334,214.26283482142858,149.6039347776869C302.3580729166667,170.87453622204046,469.0247395833333,196.74907244408095,552.3580729166666,209.6863405551012L635.69140625,222.62360866612144" class="er relationshipLine"/><path style="stroke: gray; fill: none;" marker-start="url(#ZERO_OR_ONE_START)" marker-end="url(#ONLY_ONE_END)" d="M1548.6400669642858,95L1534.3543526785716,103.33333333333333C1520.068638392857,111.66666666666667,1491.4972098214287,128.33333333333334,1281.073474702381,150.65101812595222C1070.6497395833333,172.96870291857113,678.3736979166666,200.93740583714228,482.2356770833333,214.92175729642784L286.09765625,228.90610875571343" class="er relationshipLine"/><path style="stroke: gray; fill: none;" marker-start="url(#ONLY_ONE_START)" marker-end="url(#ONLY_ONE_END)" d="M1591.4972098214287,95L1586.7353050595239,103.33333333333333C1581.973400297619,111.66666666666667,1572.4495907738094,128.33333333333334,1434.3543526785713,150.17573855121233C1296.2591145833333,172.01814376909135,1029.5924479166667,199.0362875381827,896.2591145833334,212.5453594227284L762.92578125,226.0544313072741" class="er relationshipLine"/><path style="stroke: gray; fill: none;" marker-start="url(#ZERO_OR_MORE_START)" marker-end="url(#ONLY_ONE_END)" d="M1634.3543526785713,95L1639.1162574404761,103.33333333333333C1643.878162202381,111.66666666666667,1653.4019717261906,128.33333333333334,1591.4972098214284,149.62962962962965C1529.5924479166667,170.92592592592595,1396.2591145833333,196.85185185185185,1329.5924479166667,209.8148148148148L1262.92578125,222.77777777777777" class="er relationshipLine"/><path style="stroke: gray; fill: none;" marker-start="url(#ZERO_OR_MORE_START)" marker-end="url(#ONE_OR_MORE_END)" d="M1677.2114955357142,95L1691.4972098214284,103.33333333333333C1705.782924107143,111.66666666666667,1734.3543526785713,128.33333333333334,1748.6400669642856,151.25C1762.92578125,174.16666666666666,1762.92578125,203.33333333333334,1762.92578125,232.5C1762.92578125,261.6666666666667,1762.92578125,290.8333333333333,1693.6181640625,318.43474639397715C1624.310546875,346.03615945462093,1485.6953125,372.07231890924186,1416.3876953125,385.09039863655227L1347.080078125,398.1084783638628" class="er relationshipLine"/><g transform="translate(1162.92578125,195 )" id="entity-DataManager-e179f06a-5e63-4dc3-8a27-215b3956967f"><rect height="75" width="100" y="0" x="0" class="er entityBox"/><text style="dominant-baseline: middle; text-anchor: middle; font-size: 12px;" transform="translate(50,37.5)" y="0" x="0" id="text-entity-DataManager-e179f06a-5e63-4dc3-8a27-215b3956967f" class="er entityLabel">DataManager</text></g><g transform="translate(1247.080078125,370 )" id="entity-DataSample-b9dedeba-09bc-429e-91d9-7e20d9ab822b"><rect height="75" width="100" y="0" x="0" class="er entityBox"/><text style="dominant-baseline: middle; text-anchor: middle; font-size: 12px;" transform="translate(50,37.5)" y="0" x="0" id="text-entity-DataSample-b9dedeba-09bc-429e-91d9-7e20d9ab822b" class="er entityLabel">DataSample</text></g><g transform="translate(185.28515625,195 )" id="entity-ComputeTask-f4b9fd57-cc55-4fce-8534-4814545bd667"><rect height="75" width="100.8125" y="0" x="0" class="er entityBox"/><text style="dominant-baseline: middle; text-anchor: middle; font-size: 12px;" transform="translate(50.40625,37.5)" y="0" x="0" id="text-entity-ComputeTask-f4b9fd57-cc55-4fce-8534-4814545bd667" class="er entityLabel">ComputeTask</text></g><g transform="translate(85.08203125,370 )" id="entity-ComputePlan-8cc43d1f-2da9-44e7-bbc5-1a9e1a35e8e7"><rect height="75" width="101.21875" y="0" x="0" class="er entityBox"/><text style="dominant-baseline: middle; text-anchor: middle; font-size: 12px;" transform="translate(50.609375,37.5)" y="0" x="0" id="text-entity-ComputePlan-8cc43d1f-2da9-44e7-bbc5-1a9e1a35e8e7" class="er entityLabel">ComputePlan</text></g><g transform="translate(608.462890625,370 )" id="entity-Function-159ea29f-5929-4306-97d6-e4b51f2c7819"><rect height="75" width="100" y="0" x="0" class="er entityBox"/><text style="dominant-baseline: middle; text-anchor: middle; font-size: 12px;" transform="translate(50,37.5)" y="0" x="0" id="text-entity-Function-159ea29f-5929-4306-97d6-e4b51f2c7819" class="er entityLabel">Function</text></g><g transform="translate(333.68359375,20 )" id="entity-TrainTaskData-e62b7586-48c8-46a4-94c5-6ecac29d8260"><rect height="75" width="104.015625" y="0" x="0" class="er entityBox"/><text style="dominant-baseline: middle; text-anchor: middle; font-size: 12px;" transform="translate(52.0078125,37.5)" y="0" x="0" id="text-entity-TrainTaskData-e62b7586-48c8-46a4-94c5-6ecac29d8260" class="er entityLabel">TrainTaskData</text></g><g transform="translate(635.69140625,209.5 )" id="entity-Model-8210afd1-1a75-47db-9370-b939f6310afa"><rect height="46" width="127.234375" y="0" x="0" class="er entityBox"/><text style="dominant-baseline: middle; text-anchor: middle; font-size: 12px;" transform="translate(63.6171875,12)" y="0" x="0" id="text-entity-Model-8210afd1-1a75-47db-9370-b939f6310afa" class="er entityLabel">Model</text><rect height="22" width="77.625" y="24" x="0" class="er attributeBoxOdd"/><text style="dominant-baseline: middle; font-size: 10.2px;" transform="translate(5,35)" y="0" x="0" id="text-entity-Model-8210afd1-1a75-47db-9370-b939f6310afa-attr-1-type" class="er entityLabel">ModelCategory</text><rect height="22" width="49.609375" y="24" x="77.625" class="er attributeBoxOdd"/><text style="dominant-baseline: middle; font-size: 10.2px;" transform="translate(82.625,35)" y="0" x="0" id="text-entity-Model-8210afd1-1a75-47db-9370-b939f6310afa-attr-1-name" class="er entityLabel">category</text></g><g transform="translate(962.92578125,20 )" id="entity-TestTaskData-72e89169-0f65-4920-912e-9ec7183024ae"><rect height="75" width="100" y="0" x="0" class="er entityBox"/><text style="dominant-baseline: middle; text-anchor: middle; font-size: 12px;" transform="translate(50,37.5)" y="0" x="0" id="text-entity-TestTaskData-72e89169-0f65-4920-912e-9ec7183024ae" class="er entityLabel">TestTaskData</text></g><g transform="translate(962.92578125,195 )" id="entity-Performance-b48c122a-e944-40ae-9b56-bd99cddd1065"><rect height="75" width="100" y="0" x="0" class="er entityBox"/><text style="dominant-baseline: middle; text-anchor: middle; font-size: 12px;" transform="translate(50,37.5)" y="0" x="0" id="text-entity-Performance-b48c122a-e944-40ae-9b56-bd99cddd1065" class="er entityLabel">Performance</text></g><g transform="translate(20,20 )" id="entity-AggregateTaskData-0930bba6-66c2-44e9-824a-d76282da3ab1"><rect height="75" width="131.3828125" y="0" x="0" class="er entityBox"/><text style="dominant-baseline: middle; text-anchor: middle; font-size: 12px;" transform="translate(65.69140625,37.5)" y="0" x="0" id="text-entity-AggregateTaskData-0930bba6-66c2-44e9-824a-d76282da3ab1" class="er entityLabel">AggregateTaskData</text></g><g transform="translate(1546.07421875,20 )" id="entity-CompositeTaskData-6d078d16-9d4b-49d9-b1fa-fb2ce5d2aef8"><rect height="75" width="133.703125" y="0" x="0" class="er entityBox"/><text style="dominant-baseline: middle; text-anchor: middle; font-size: 12px;" transform="translate(66.8515625,37.5)" y="0" x="0" id="text-entity-CompositeTaskData-6d078d16-9d4b-49d9-b1fa-fb2ce5d2aef8" class="er entityLabel">CompositeTaskData</text></g><rect height="14" width="31.0859375" y="318.8192443847656" x="1208.5040283203125" class="er relationshipLabelBox"/><text style="text-anchor: middle; dominant-baseline: middle; font-size: 12px;" y="325.8192443847656" x="1224.0469970703125" id="rel1" class="er relationshipLabel">opens</text><rect height="14" width="55.4609375" y="305.5645446777344" x="122.32272338867188" class="er relationshipLabelBox"/><text style="text-anchor: middle; dominant-baseline: middle; font-size: 12px;" y="312.5645446777344" x="150.05319213867188" id="rel2" class="er relationshipLabel">belongs to</text><rect height="14" width="42.90625" y="343.8634948730469" x="402.1430358886719" class="er relationshipLabelBox"/><text style="text-anchor: middle; dominant-baseline: middle; font-size: 12px;" y="350.8634948730469" x="423.5961608886719" id="rel3" class="er relationshipLabel">execute</text><rect height="14" width="57.8203125" y="122.17031860351562" x="239.42446899414062" class="er relationshipLabelBox"/><text style="text-anchor: middle; dominant-baseline: middle; font-size: 12px;" y="129.17031860351562" x="268.3346252441406" id="rel4" class="er relationshipLabel">specializes</text><rect height="14" width="48.375" y="170.33485412597656" x="452.24114990234375" class="er relationshipLabelBox"/><text style="text-anchor: middle; dominant-baseline: middle; font-size: 12px;" y="177.33485412597656" x="476.42864990234375" id="rel5" class="er relationshipLabel">produces</text><rect height="14" width="22.8203125" y="175.2666778564453" x="766.147216796875" class="er relationshipLabelBox"/><text style="text-anchor: middle; dominant-baseline: middle; font-size: 12px;" y="182.2666778564453" x="777.557373046875" id="rel6" class="er relationshipLabel">uses</text><rect height="14" width="22.8203125" y="335.2234802246094" x="765.0574951171875" class="er relationshipLabelBox"/><text style="text-anchor: middle; dominant-baseline: middle; font-size: 12px;" y="342.2234802246094" x="776.4676513671875" id="rel7" class="er relationshipLabel">uses</text><rect height="14" width="57.8203125" y="149.18955993652344" x="597.6416015625" class="er relationshipLabelBox"/><text style="text-anchor: middle; dominant-baseline: middle; font-size: 12px;" y="156.18955993652344" x="626.5517578125" id="rel8" class="er relationshipLabel">specializes</text><rect height="14.000015258789062" width="51.2890625" y="248.8047866821289" x="836.7904052734375" class="er relationshipLabelBox"/><text style="text-anchor: middle; dominant-baseline: middle; font-size: 12px;" y="255.80479431152344" x="862.4349365234375" id="rel9" class="er relationshipLabel">evaluates</text><rect height="14" width="48.375" y="138" x="988.73828125" class="er relationshipLabelBox"/><text style="text-anchor: middle; dominant-baseline: middle; font-size: 12px;" y="145" x="1012.92578125" id="rel10" class="er relationshipLabel">produces</text><rect height="14" width="22.8203125" y="114.65750885009766" x="1142.98095703125" class="er relationshipLabelBox"/><text style="text-anchor: middle; dominant-baseline: middle; font-size: 12px;" y="121.65750885009766" x="1154.39111328125" id="rel11" class="er relationshipLabel">uses</text><rect height="14" width="22.8203125" y="137.86582946777344" x="1297.3001708984375" class="er relationshipLabelBox"/><text style="text-anchor: middle; dominant-baseline: middle; font-size: 12px;" y="144.86582946777344" x="1308.7103271484375" id="rel12" class="er relationshipLabel">uses</text><rect height="14" width="57.8203125" y="162.2543182373047" x="68.19932556152344" class="er relationshipLabelBox"/><text style="text-anchor: middle; dominant-baseline: middle; font-size: 12px;" y="169.2543182373047" x="97.10948181152344" id="rel13" class="er relationshipLabel">specializes</text><rect height="14" width="48.375" y="171.98355102539062" x="338.9119567871094" class="er relationshipLabelBox"/><text style="text-anchor: middle; dominant-baseline: middle; font-size: 12px;" y="178.98355102539062" x="363.0994567871094" id="rel14" class="er relationshipLabel">produces</text><rect height="14" width="57.8203125" y="175.41026306152344" x="892.193603515625" class="er relationshipLabelBox"/><text style="text-anchor: middle; dominant-baseline: middle; font-size: 12px;" y="182.41026306152344" x="921.103759765625" id="rel15" class="er relationshipLabel">specializes</text><rect height="14.0078125" width="73.109375" y="175.1424560546875" x="1147.88427734375" class="er relationshipLabelBox"/><text style="text-anchor: middle; dominant-baseline: middle; font-size: 12px;" y="182.1463623046875" x="1184.43896484375" id="rel16" class="er relationshipLabel">produces (x2)</text><rect height="14" width="22.8203125" y="174.1056671142578" x="1458.863037109375" class="er relationshipLabelBox"/><text style="text-anchor: middle; dominant-baseline: middle; font-size: 12px;" y="181.1056671142578" x="1470.273193359375" id="rel17" class="er relationshipLabel">uses</text><rect height="14" width="22.8203125" y="321.5025634765625" x="1653.820556640625" class="er relationshipLabelBox"/><text style="text-anchor: middle; dominant-baseline: middle; font-size: 12px;" y="328.5025634765625" x="1665.230712890625" id="rel18" class="er relationshipLabel">uses</text></svg>