<svg id="mermaid-1650544841487" width="100%" xmlns="http://www.w3.org/2000/svg" height="465" style="max-width: 1782.9296875px;" viewBox="0 0 1782.9296875 465" role="img" aria-labelledby="chart-title-mermaid-1650544841487 chart-desc-mermaid-1650544841487"><title id="chart-title-mermaid-1650544841487"></title><desc id="chart-desc-mermaid-1650544841487"></desc><style>#mermaid-1650544841487 {font-family:"trebuchet ms",verdana,arial,sans-serif;font-size:16px;fill:#333;}#mermaid-1650544841487 .error-icon{fill:#552222;}#mermaid-1650544841487 .error-text{fill:#552222;stroke:#552222;}#mermaid-1650544841487 .edge-thickness-normal{stroke-width:2px;}#mermaid-1650544841487 .edge-thickness-thick{stroke-width:3.5px;}#mermaid-1650544841487 .edge-pattern-solid{stroke-dasharray:0;}#mermaid-1650544841487 .edge-pattern-dashed{stroke-dasharray:3;}#mermaid-1650544841487 .edge-pattern-dotted{stroke-dasharray:2;}#mermaid-1650544841487 .marker{fill:#333333;stroke:#333333;}#mermaid-1650544841487 .marker.cross{stroke:#333333;}#mermaid-1650544841487 svg{font-family:"trebuchet ms",verdana,arial,sans-serif;font-size:16px;}#mermaid-1650544841487 .entityBox{fill:#ECECFF;stroke:#9370DB;}#mermaid-1650544841487 .attributeBoxOdd{fill:#ffffff;stroke:#9370DB;}#mermaid-1650544841487 .attributeBoxEven{fill:#f2f2f2;stroke:#9370DB;}#mermaid-1650544841487 .relationshipLabelBox{fill:hsl(80, 100%, 96.2745098039%);opacity:0.7;background-color:hsl(80, 100%, 96.2745098039%);}#mermaid-1650544841487 .relationshipLabelBox rect{opacity:0.5;}#mermaid-1650544841487 .relationshipLine{stroke:#333333;}#mermaid-1650544841487 :root{--mermaid-font-family:"trebuchet ms",verdana,arial,sans-serif;}</style><g></g><defs><marker id="ONLY_ONE_START" refX="0" refY="9" markerWidth="18" markerHeight="18" orient="auto"><path stroke="gray" fill="none" d="M9,0 L9,18 M15,0 L15,18"></path></marker></defs><defs><marker id="ONLY_ONE_END" refX="18" refY="9" markerWidth="18" markerHeight="18" orient="auto"><path stroke="gray" fill="none" d="M3,0 L3,18 M9,0 L9,18"></path></marker></defs><defs><marker id="ZERO_OR_ONE_START" refX="0" refY="9" markerWidth="30" markerHeight="18" orient="auto"><circle stroke="gray" fill="white" cx="21" cy="9" r="6"></circle><path stroke="gray" fill="none" d="M9,0 L9,18"></path></marker></defs><defs><marker id="ZERO_OR_ONE_END" refX="30" refY="9" markerWidth="30" markerHeight="18" orient="auto"><circle stroke="gray" fill="white" cx="9" cy="9" r="6"></circle><path stroke="gray" fill="none" d="M21,0 L21,18"></path></marker></defs><defs><marker id="ONE_OR_MORE_START" refX="18" refY="18" markerWidth="45" markerHeight="36" orient="auto"><path stroke="gray" fill="none" d="M0,18 Q 18,0 36,18 Q 18,36 0,18 M42,9 L42,27"></path></marker></defs><defs><marker id="ONE_OR_MORE_END" refX="27" refY="18" markerWidth="45" markerHeight="36" orient="auto"><path stroke="gray" fill="none" d="M3,9 L3,27 M9,18 Q27,0 45,18 Q27,36 9,18"></path></marker></defs><defs><marker id="ZERO_OR_MORE_START" refX="18" refY="18" markerWidth="57" markerHeight="36" orient="auto"><circle stroke="gray" fill="white" cx="48" cy="18" r="6"></circle><path stroke="gray" fill="none" d="M0,18 Q18,0 36,18 Q18,36 0,18"></path></marker></defs><defs><marker id="ZERO_OR_MORE_END" refX="39" refY="18" markerWidth="57" markerHeight="36" orient="auto"><circle stroke="gray" fill="white" cx="9" cy="18" r="6"></circle><path stroke="gray" fill="none" d="M21,18 Q39,0 57,18 Q39,36 21,18"></path></marker></defs><path class="er relationshipLine" d="M1212.9296875,270L1212.9296875,278.3333333333333C1212.9296875,286.6666666666667,1212.9296875,303.3333333333333,1221.4181547619048,320C1229.9066220238094,336.6666666666667,1246.883556547619,353.3333333333333,1255.3720238095239,361.6666666666667L1263.8604910714287,370" stroke="gray" fill="none" marker-end="url(#ZERO_OR_MORE_END)" marker-start="url(#ONE_OR_MORE_START)"></path><path class="er relationshipLine" d="M209.35714285714286,255.5458984375L197.08017113095238,266.2882486979167C184.80319940476193,277.0305989583333,160.24925595238096,298.5152994791667,147.97228422619048,317.5909830729167C135.6953125,336.6666666666667,135.6953125,353.3333333333333,135.6953125,361.6666666666667L135.6953125,370" stroke="gray" fill="none" marker-end="url(#ONLY_ONE_END)" marker-start="url(#ZERO_OR_MORE_START)"></path><path class="er relationshipLine" d="M247.55469068254743,255.5458984375L253.08268494378953,266.2882486979167C258.6106792050316,277.0305989583333,269.6666677275158,298.5152994791667,328.9902349054246,321.5567927269816C388.3138020833333,344.5982859747965,495.9049479166667,369.1965719495931,549.7005208333334,381.49571493699136L603.49609375,393.79485792438965" stroke="gray" fill="none" marker-end="url(#ONLY_ONE_END)" marker-start="url(#ZERO_OR_MORE_START)"></path><path class="er relationshipLine" d="M333.6875,87.837890625L317.35546875,97.36490885416667C301.0234375,106.89192708333333,268.359375,125.94596354166667,252.02734375,146.21533203125C235.6953125,166.48470052083334,235.6953125,187.96940104166666,235.6953125,198.71175130208334L235.6953125,209.4541015625" stroke="gray" fill="none" marker-end="url(#ONLY_ONE_END)" marker-start="url(#ZERO_OR_ONE_START)"></path><path class="er relationshipLine" d="M364.26674107142856,95L359.5048363095238,103.33333333333333C354.74293154761904,111.66666666666667,345.21912202380946,128.33333333333334,390.45721726190476,148.69855116057553C435.6953125,169.06376898781772,535.6953125,193.12753797563542,585.6953125,205.1594224695443L635.6953125,217.19130696345314" stroke="gray" fill="none" marker-end="url(#ONLY_ONE_END)" marker-start="url(#ONLY_ONE_START)"></path><path class="er relationshipLine" d="M407.12388392857144,95L411.8857886904762,103.33333333333333C416.64769345238096,111.66666666666667,426.17150297619054,128.33333333333334,552.1391369047619,150.31184454764153C678.1067708333334,172.29035576194974,920.5182291666666,199.5807115238995,1041.7239583333333,213.22588940487438L1162.9296875,226.87106728584928" stroke="gray" fill="none" marker-end="url(#ONLY_ONE_END)" marker-start="url(#ZERO_OR_MORE_START)"></path><path class="er relationshipLine" d="M437.703125,87.837890625L454.03515625,97.36490885416667C470.3671875,106.89192708333333,503.03125,125.94596354166667,519.36328125,150.05631510416666C535.6953125,174.16666666666666,535.6953125,203.33333333333334,535.6953125,232.5C535.6953125,261.6666666666667,535.6953125,290.8333333333333,655.0891927083334,319.0485365302506C774.4830729166666,347.26373972716783,1013.2708333333334,374.52747945433566,1132.6647135416667,388.15934931791963L1252.05859375,401.79121918150355" stroke="gray" fill="none" marker-end="url(#ONE_OR_MORE_END)" marker-start="url(#ZERO_OR_MORE_START)"></path><path class="er relationshipLine" d="M962.9296875,71.4501282913584L918.9934895833334,83.70844024279866C875.0572916666666,95.96675219423894,787.1848958333334,120.48337609711946,679.3515625,144.80120503736492C571.5182291666666,169.11903397761037,443.7239583333333,193.23806795522077,379.8268229166667,205.29758494402597L315.9296875,217.35710193283117" stroke="gray" fill="none" marker-end="url(#ONLY_ONE_END)" marker-start="url(#ZERO_OR_ONE_START)"></path><path class="er relationshipLine" d="M962.9296875,86.66666666666667L946.2630208333334,96.3888888888889C929.5963541666666,106.11111111111113,896.2630208333334,125.55555555555556,879.5963541666666,149.86111111111111C862.9296875,174.16666666666666,862.9296875,203.33333333333334,862.9296875,232.5C862.9296875,261.6666666666667,862.9296875,290.8333333333333,838.4385676138742,316.1590169270833C813.9474477277485,341.4847005208333,764.9652079554967,362.9694010416667,740.4740880693709,373.7117513020833L715.982968183245,384.4541015625" stroke="gray" fill="none" marker-end="url(#ONLY_ONE_END)" marker-start="url(#ZERO_OR_MORE_START)"></path><path class="er relationshipLine" d="M1012.9296875,95L1012.9296875,103.33333333333333C1012.9296875,111.66666666666667,1012.9296875,128.33333333333334,1012.9296875,145C1012.9296875,161.66666666666666,1012.9296875,178.33333333333334,1012.9296875,186.66666666666666L1012.9296875,195" stroke="gray" fill="none" marker-end="url(#ONLY_ONE_END)" marker-start="url(#ONLY_ONE_START)"></path><path class="er relationshipLine" d="M1062.9296875,79.375L1087.9296875,90.3125C1112.9296875,101.25,1162.9296875,123.125,1187.9296875,142.39583333333334C1212.9296875,161.66666666666666,1212.9296875,178.33333333333334,1212.9296875,186.66666666666666L1212.9296875,195" stroke="gray" fill="none" marker-end="url(#ONLY_ONE_END)" marker-start="url(#ZERO_OR_MORE_START)"></path><path class="er relationshipLine" d="M1062.9296875,70L1112.9296875,82.5C1162.9296875,95,1262.9296875,120,1312.9296875,147.08333333333334C1362.9296875,174.16666666666666,1362.9296875,203.33333333333334,1362.9296875,232.5C1362.9296875,261.6666666666667,1362.9296875,290.8333333333333,1357.1324404761906,313.75C1351.335193452381,336.6666666666667,1339.740699404762,353.3333333333333,1333.9434523809525,361.6666666666667L1328.146205357143,370" stroke="gray" fill="none" marker-end="url(#ONE_OR_MORE_END)" marker-start="url(#ZERO_OR_MORE_START)"></path><path class="er relationshipLine" d="M64.26674107142857,95L59.5048363095238,103.33333333333333C54.742931547619044,111.66666666666667,45.21912202380952,128.33333333333334,65.01116071428571,147.40901692708334C84.80319940476191,166.48470052083334,133.91108630952382,187.96940104166666,158.4650297619048,198.71175130208334L183.01897321428572,209.4541015625" stroke="gray" fill="none" marker-end="url(#ONLY_ONE_END)" marker-start="url(#ZERO_OR_ONE_START)"></path><path class="er relationshipLine" d="M107.12388392857143,95L111.88578869047619,103.33333333333333C116.64769345238096,111.66666666666667,126.17150297619048,128.33333333333334,214.26674107142858,149.6039347776869C302.3619791666667,170.87453622204046,469.0286458333333,196.74907244408095,552.3619791666666,209.6863405551012L635.6953125,222.62360866612144" stroke="gray" fill="none" marker-end="url(#ONLY_ONE_END)" marker-start="url(#ONLY_ONE_START)"></path><path class="er relationshipLine" d="M1548.6439732142858,95L1534.3582589285716,103.33333333333333C1520.072544642857,111.66666666666667,1491.5011160714287,128.33333333333334,1286.0487351190477,150.29656790972248C1080.5963541666667,172.25980248611165,698.2630208333334,199.5196049722233,507.0963541666667,213.1495062152791L315.9296875,226.77940745833493" stroke="gray" fill="none" marker-end="url(#ONLY_ONE_END)" marker-start="url(#ZERO_OR_ONE_START)"></path><path class="er relationshipLine" d="M1591.5011160714287,95L1586.7392113095239,103.33333333333333C1581.977306547619,111.66666666666667,1572.4534970238094,128.33333333333334,1434.3582589285713,150.17573855121233C1296.2630208333333,172.01814376909135,1029.5963541666667,199.0362875381827,896.2630208333334,212.5453594227284L762.9296875,226.0544313072741" stroke="gray" fill="none" marker-end="url(#ONLY_ONE_END)" marker-start="url(#ONLY_ONE_START)"></path><path class="er relationshipLine" d="M1634.3582589285713,95L1639.1201636904761,103.33333333333333C1643.882068452381,111.66666666666667,1653.4058779761906,128.33333333333334,1591.5011160714284,149.62962962962965C1529.5963541666667,170.92592592592595,1396.2630208333333,196.85185185185185,1329.5963541666667,209.8148148148148L1262.9296875,222.77777777777777" stroke="gray" fill="none" marker-end="url(#ONLY_ONE_END)" marker-start="url(#ZERO_OR_MORE_START)"></path><path class="er relationshipLine" d="M1677.2154017857142,95L1691.5011160714284,103.33333333333333C1705.786830357143,111.66666666666667,1734.3582589285713,128.33333333333334,1748.6439732142856,151.25C1762.9296875,174.16666666666666,1762.9296875,203.33333333333334,1762.9296875,232.5C1762.9296875,261.6666666666667,1762.9296875,290.8333333333333,1694.451171875,318.4178511593478C1625.97265625,346.00236898536224,1489.015625,372.0047379707246,1420.537109375,385.00592246340574L1352.05859375,398.0071069560869" stroke="gray" fill="none" marker-end="url(#ONE_OR_MORE_END)" marker-start="url(#ZERO_OR_MORE_START)"></path><g id="DataManager" transform="translate(1162.9296875,195 )"><rect class="er entityBox" fill="honeydew" fill-opacity="100%" stroke="gray" x="0" y="0" width="100" height="75"></rect><text class="er entityLabel" id="entity-DataManager" x="0" y="0" dominant-baseline="middle" text-anchor="middle" style="font-family: &quot;trebuchet ms&quot;, verdana, arial, sans-serif;; font-size: 12px" transform="translate(50,37.5)">DataManager</text></g><g id="DataSample" transform="translate(1252.05859375,370 )"><rect class="er entityBox" fill="honeydew" fill-opacity="100%" stroke="gray" x="0" y="0" width="100" height="75"></rect><text class="er entityLabel" id="entity-DataSample" x="0" y="0" dominant-baseline="middle" text-anchor="middle" style="font-family: &quot;trebuchet ms&quot;, verdana, arial, sans-serif;; font-size: 12px" transform="translate(50,37.5)">DataSample</text></g><g id="ComputeTask" transform="translate(155.4609375,209.4541015625 )"><rect class="er entityBox" fill="honeydew" fill-opacity="100%" stroke="gray" x="0" y="0" width="160.46875" height="46.091796875"></rect><text class="er entityLabel" id="entity-ComputeTask" x="0" y="0" dominant-baseline="middle" text-anchor="middle" style="font-family: &quot;trebuchet ms&quot;, verdana, arial, sans-serif;; font-size: 12px" transform="translate(80.234375,12)">ComputeTask</text><rect class="er attributeBoxOdd" fill="honeydew" fill-opacity="100%" stroke="gray" x="0" y="24" width="110.859375" height="22.091796875"></rect><text class="er entityLabel" id="entity-ComputeTask-attr-1-type" x="0" y="0" dominant-baseline="middle" text-anchor="left" style="font-family: &quot;trebuchet ms&quot;, verdana, arial, sans-serif;; font-size: 10.2px" transform="translate(5,35.0458984375)">ComputeTaskCategory</text><rect class="er attributeBoxOdd" fill="honeydew" fill-opacity="100%" stroke="gray" x="110.859375" y="24" width="49.609375" height="22.091796875"></rect><text class="er entityLabel" id="entity-ComputeTask-attr-1-name" x="0" y="0" dominant-baseline="middle" text-anchor="left" style="font-family: &quot;trebuchet ms&quot;, verdana, arial, sans-serif;; font-size: 10.2px" transform="translate(115.859375,35.0458984375)">category</text></g><g id="ComputePlan" transform="translate(85.0859375,370 )"><rect class="er entityBox" fill="honeydew" fill-opacity="100%" stroke="gray" x="0" y="0" width="101.21875" height="75"></rect><text class="er entityLabel" id="entity-ComputePlan" x="0" y="0" dominant-baseline="middle" text-anchor="middle" style="font-family: &quot;trebuchet ms&quot;, verdana, arial, sans-serif;; font-size: 12px" transform="translate(50.609375,37.5)">ComputePlan</text></g><g id="Algo" transform="translate(603.49609375,384.4541015625 )"><rect class="er entityBox" fill="honeydew" fill-opacity="100%" stroke="gray" x="0" y="0" width="119.890625" height="46.091796875"></rect><text class="er entityLabel" id="entity-Algo" x="0" y="0" dominant-baseline="middle" text-anchor="middle" style="font-family: &quot;trebuchet ms&quot;, verdana, arial, sans-serif;; font-size: 12px" transform="translate(59.9453125,12)">Algo</text><rect class="er attributeBoxOdd" fill="honeydew" fill-opacity="100%" stroke="gray" x="0" y="24" width="70.28125" height="22.091796875"></rect><text class="er entityLabel" id="entity-Algo-attr-1-type" x="0" y="0" dominant-baseline="middle" text-anchor="left" style="font-family: &quot;trebuchet ms&quot;, verdana, arial, sans-serif;; font-size: 10.2px" transform="translate(5,35.0458984375)">AlgoCategory</text><rect class="er attributeBoxOdd" fill="honeydew" fill-opacity="100%" stroke="gray" x="70.28125" y="24" width="49.609375" height="22.091796875"></rect><text class="er entityLabel" id="entity-Algo-attr-1-name" x="0" y="0" dominant-baseline="middle" text-anchor="left" style="font-family: &quot;trebuchet ms&quot;, verdana, arial, sans-serif;; font-size: 10.2px" transform="translate(75.28125,35.0458984375)">category</text></g><g id="TrainTaskData" transform="translate(333.6875,20 )"><rect class="er entityBox" fill="honeydew" fill-opacity="100%" stroke="gray" x="0" y="0" width="104.015625" height="75"></rect><text class="er entityLabel" id="entity-TrainTaskData" x="0" y="0" dominant-baseline="middle" text-anchor="middle" style="font-family: &quot;trebuchet ms&quot;, verdana, arial, sans-serif;; font-size: 12px" transform="translate(52.0078125,37.5)">TrainTaskData</text></g><g id="Model" transform="translate(635.6953125,209.4541015625 )"><rect class="er entityBox" fill="honeydew" fill-opacity="100%" stroke="gray" x="0" y="0" width="127.234375" height="46.091796875"></rect><text class="er entityLabel" id="entity-Model" x="0" y="0" dominant-baseline="middle" text-anchor="middle" style="font-family: &quot;trebuchet ms&quot;, verdana, arial, sans-serif;; font-size: 12px" transform="translate(63.6171875,12)">Model</text><rect class="er attributeBoxOdd" fill="honeydew" fill-opacity="100%" stroke="gray" x="0" y="24" width="77.625" height="22.091796875"></rect><text class="er entityLabel" id="entity-Model-attr-1-type" x="0" y="0" dominant-baseline="middle" text-anchor="left" style="font-family: &quot;trebuchet ms&quot;, verdana, arial, sans-serif;; font-size: 10.2px" transform="translate(5,35.0458984375)">ModelCategory</text><rect class="er attributeBoxOdd" fill="honeydew" fill-opacity="100%" stroke="gray" x="77.625" y="24" width="49.609375" height="22.091796875"></rect><text class="er entityLabel" id="entity-Model-attr-1-name" x="0" y="0" dominant-baseline="middle" text-anchor="left" style="font-family: &quot;trebuchet ms&quot;, verdana, arial, sans-serif;; font-size: 10.2px" transform="translate(82.625,35.0458984375)">category</text></g><g id="TestTaskData" transform="translate(962.9296875,20 )"><rect class="er entityBox" fill="honeydew" fill-opacity="100%" stroke="gray" x="0" y="0" width="100" height="75"></rect><text class="er entityLabel" id="entity-TestTaskData" x="0" y="0" dominant-baseline="middle" text-anchor="middle" style="font-family: &quot;trebuchet ms&quot;, verdana, arial, sans-serif;; font-size: 12px" transform="translate(50,37.5)">TestTaskData</text></g><g id="Performance" transform="translate(962.9296875,195 )"><rect class="er entityBox" fill="honeydew" fill-opacity="100%" stroke="gray" x="0" y="0" width="100" height="75"></rect><text class="er entityLabel" id="entity-Performance" x="0" y="0" dominant-baseline="middle" text-anchor="middle" style="font-family: &quot;trebuchet ms&quot;, verdana, arial, sans-serif;; font-size: 12px" transform="translate(50,37.5)">Performance</text></g><g id="AggregateTaskData" transform="translate(20,20 )"><rect class="er entityBox" fill="honeydew" fill-opacity="100%" stroke="gray" x="0" y="0" width="131.390625" height="75"></rect><text class="er entityLabel" id="entity-AggregateTaskData" x="0" y="0" dominant-baseline="middle" text-anchor="middle" style="font-family: &quot;trebuchet ms&quot;, verdana, arial, sans-serif;; font-size: 12px" transform="translate(65.6953125,37.5)">AggregateTaskData</text></g><g id="CompositeTaskData" transform="translate(1546.078125,20 )"><rect class="er entityBox" fill="honeydew" fill-opacity="100%" stroke="gray" x="0" y="0" width="133.703125" height="75"></rect><text class="er entityLabel" id="entity-CompositeTaskData" x="0" y="0" dominant-baseline="middle" text-anchor="middle" style="font-family: &quot;trebuchet ms&quot;, verdana, arial, sans-serif;; font-size: 12px" transform="translate(66.8515625,37.5)">CompositeTaskData</text></g><rect class="er relationshipLabelBox" x="1209.4810791015625" y="319.33203125" width="31.09375" height="14" fill="white" fill-opacity="85%"></rect><text class="er relationshipLabel" id="rel1" x="1225.0279541015625" y="326.33203125" text-anchor="middle" dominant-baseline="middle" style="font-family: &quot;trebuchet ms&quot;, verdana, arial, sans-serif;; font-size: 12px">opens</text><rect class="er relationshipLabelBox" x="130.08453369140625" y="297.52880859375" width="55.46875" height="14" fill="white" fill-opacity="85%"></rect><text class="er relationshipLabel" id="rel2" x="157.81890869140625" y="304.52880859375" text-anchor="middle" dominant-baseline="middle" style="font-family: &quot;trebuchet ms&quot;, verdana, arial, sans-serif;; font-size: 12px">belongs to</text><rect class="er relationshipLabelBox" x="391.37603759765625" y="340.9831848144531" width="42.90625" height="14" fill="white" fill-opacity="85%"></rect><text class="er relationshipLabel" id="rel3" x="412.82916259765625" y="347.9831848144531" text-anchor="middle" dominant-baseline="middle" style="font-family: &quot;trebuchet ms&quot;, verdana, arial, sans-serif;; font-size: 12px">execute</text><rect class="er relationshipLabelBox" x="234.89260864257812" y="127.01292419433594" width="57.828125" height="14" fill="white" fill-opacity="85%"></rect><text class="er relationshipLabel" id="rel4" x="263.8066711425781" y="134.01292419433594" text-anchor="middle" dominant-baseline="middle" style="font-family: &quot;trebuchet ms&quot;, verdana, arial, sans-serif;; font-size: 12px">specializes</text><rect class="er relationshipLabelBox" x="452.24505615234375" y="170.33485412597656" width="48.375" height="14" fill="white" fill-opacity="85%"></rect><text class="er relationshipLabel" id="rel5" x="476.43255615234375" y="177.33485412597656" text-anchor="middle" dominant-baseline="middle" style="font-family: &quot;trebuchet ms&quot;, verdana, arial, sans-serif;; font-size: 12px">produces</text><rect class="er relationshipLabelBox" x="766.147216796875" y="175.2666778564453" width="22.828125" height="14" fill="white" fill-opacity="85%"></rect><text class="er relationshipLabel" id="rel6" x="777.561279296875" y="182.2666778564453" text-anchor="middle" dominant-baseline="middle" style="font-family: &quot;trebuchet ms&quot;, verdana, arial, sans-serif;; font-size: 12px">uses</text><rect class="er relationshipLabelBox" x="767.58349609375" y="335.3708190917969" width="22.828125" height="14" fill="white" fill-opacity="85%"></rect><text class="er relationshipLabel" id="rel7" x="778.99755859375" y="342.3708190917969" text-anchor="middle" dominant-baseline="middle" style="font-family: &quot;trebuchet ms&quot;, verdana, arial, sans-serif;; font-size: 12px">uses</text><rect class="er relationshipLabelBox" x="612.5189819335938" y="146.17547607421875" width="57.828125" height="14" fill="white" fill-opacity="85%"></rect><text class="er relationshipLabel" id="rel8" x="641.4330444335938" y="153.17547607421875" text-anchor="middle" dominant-baseline="middle" style="font-family: &quot;trebuchet ms&quot;, verdana, arial, sans-serif;; font-size: 12px">specializes</text><rect class="er relationshipLabelBox" x="836.9930419921875" y="245.3335189819336" width="51.296875" height="13.999984741210938" fill="white" fill-opacity="85%"></rect><text class="er relationshipLabel" id="rel9" x="862.6414794921875" y="252.33351135253906" text-anchor="middle" dominant-baseline="middle" style="font-family: &quot;trebuchet ms&quot;, verdana, arial, sans-serif;; font-size: 12px">evaluates</text><rect class="er relationshipLabelBox" x="988.7421875" y="138" width="48.375" height="14" fill="white" fill-opacity="85%"></rect><text class="er relationshipLabel" id="rel10" x="1012.9296875" y="145" text-anchor="middle" dominant-baseline="middle" style="font-family: &quot;trebuchet ms&quot;, verdana, arial, sans-serif;; font-size: 12px">produces</text><rect class="er relationshipLabelBox" x="1142.98095703125" y="114.65750885009766" width="22.828125" height="14" fill="white" fill-opacity="85%"></rect><text class="er relationshipLabel" id="rel11" x="1154.39501953125" y="121.65750885009766" text-anchor="middle" dominant-baseline="middle" style="font-family: &quot;trebuchet ms&quot;, verdana, arial, sans-serif;; font-size: 12px">uses</text><rect class="er relationshipLabelBox" x="1296.7503662109375" y="137.5843048095703" width="22.828125" height="14" fill="white" fill-opacity="85%"></rect><text class="er relationshipLabel" id="rel12" x="1308.1644287109375" y="144.5843048095703" text-anchor="middle" dominant-baseline="middle" style="font-family: &quot;trebuchet ms&quot;, verdana, arial, sans-serif;; font-size: 12px">uses</text><rect class="er relationshipLabelBox" x="67.01358032226562" y="161.7024383544922" width="57.828125" height="14" fill="white" fill-opacity="85%"></rect><text class="er relationshipLabel" id="rel13" x="95.92764282226562" y="168.7024383544922" text-anchor="middle" dominant-baseline="middle" style="font-family: &quot;trebuchet ms&quot;, verdana, arial, sans-serif;; font-size: 12px">specializes</text><rect class="er relationshipLabelBox" x="338.9158630371094" y="171.98355102539062" width="48.375" height="14" fill="white" fill-opacity="85%"></rect><text class="er relationshipLabel" id="rel14" x="363.1033630371094" y="178.98355102539062" text-anchor="middle" dominant-baseline="middle" style="font-family: &quot;trebuchet ms&quot;, verdana, arial, sans-serif;; font-size: 12px">produces</text><rect class="er relationshipLabelBox" x="907.122314453125" y="174.33731079101562" width="57.828125" height="14" fill="white" fill-opacity="85%"></rect><text class="er relationshipLabel" id="rel15" x="936.036376953125" y="181.33731079101562" text-anchor="middle" dominant-baseline="middle" style="font-family: &quot;trebuchet ms&quot;, verdana, arial, sans-serif;; font-size: 12px">specializes</text><rect class="er relationshipLabelBox" x="1147.88818359375" y="175.1463623046875" width="73.109375" height="14" fill="white" fill-opacity="85%"></rect><text class="er relationshipLabel" id="rel16" x="1184.44287109375" y="182.1463623046875" text-anchor="middle" dominant-baseline="middle" style="font-family: &quot;trebuchet ms&quot;, verdana, arial, sans-serif;; font-size: 12px">produces (x2)</text><rect class="er relationshipLabelBox" x="1458.863037109375" y="174.1056671142578" width="22.828125" height="14" fill="white" fill-opacity="85%"></rect><text class="er relationshipLabel" id="rel17" x="1470.277099609375" y="181.1056671142578" text-anchor="middle" dominant-baseline="middle" style="font-family: &quot;trebuchet ms&quot;, verdana, arial, sans-serif;; font-size: 12px">uses</text><rect class="er relationshipLabelBox" x="1656.306396484375" y="321.04998779296875" width="22.828125" height="14" fill="white" fill-opacity="85%"></rect><text class="er relationshipLabel" id="rel18" x="1667.720458984375" y="328.04998779296875" text-anchor="middle" dominant-baseline="middle" style="font-family: &quot;trebuchet ms&quot;, verdana, arial, sans-serif;; font-size: 12px">uses</text></svg>