<svg id="mermaid-1633104886663" width="100%" xmlns="http://www.w3.org/2000/svg" height="465" style="max-width: 1923.12109375px;" viewBox="0 0 1923.12109375 465"><style>#mermaid-1633104886663 {font-family:"trebuchet ms",verdana,arial,sans-serif;font-size:16px;fill:#333;}#mermaid-1633104886663 .error-icon{fill:#552222;}#mermaid-1633104886663 .error-text{fill:#552222;stroke:#552222;}#mermaid-1633104886663 .edge-thickness-normal{stroke-width:2px;}#mermaid-1633104886663 .edge-thickness-thick{stroke-width:3.5px;}#mermaid-1633104886663 .edge-pattern-solid{stroke-dasharray:0;}#mermaid-1633104886663 .edge-pattern-dashed{stroke-dasharray:3;}#mermaid-1633104886663 .edge-pattern-dotted{stroke-dasharray:2;}#mermaid-1633104886663 .marker{fill:#333333;stroke:#333333;}#mermaid-1633104886663 .marker.cross{stroke:#333333;}#mermaid-1633104886663 svg{font-family:"trebuchet ms",verdana,arial,sans-serif;font-size:16px;}#mermaid-1633104886663 .entityBox{fill:#ECECFF;stroke:#9370DB;}#mermaid-1633104886663 .attributeBoxOdd{fill:#ffffff;stroke:#9370DB;}#mermaid-1633104886663 .attributeBoxEven{fill:#f2f2f2;stroke:#9370DB;}#mermaid-1633104886663 .relationshipLabelBox{fill:hsl(80, 100%, 96.2745098039%);opacity:0.7;background-color:hsl(80, 100%, 96.2745098039%);}#mermaid-1633104886663 .relationshipLabelBox rect{opacity:0.5;}#mermaid-1633104886663 .relationshipLine{stroke:#333333;}#mermaid-1633104886663 :root{--mermaid-font-family:"trebuchet ms",verdana,arial,sans-serif;}</style><g></g><defs><marker id="ONLY_ONE_START" refX="0" refY="9" markerWidth="18" markerHeight="18" orient="auto"><path stroke="gray" fill="none" d="M9,0 L9,18 M15,0 L15,18"></path></marker></defs><defs><marker id="ONLY_ONE_END" refX="18" refY="9" markerWidth="18" markerHeight="18" orient="auto"><path stroke="gray" fill="none" d="M3,0 L3,18 M9,0 L9,18"></path></marker></defs><defs><marker id="ZERO_OR_ONE_START" refX="0" refY="9" markerWidth="30" markerHeight="18" orient="auto"><circle stroke="gray" fill="white" cx="21" cy="9" r="6"></circle><path stroke="gray" fill="none" d="M9,0 L9,18"></path></marker></defs><defs><marker id="ZERO_OR_ONE_END" refX="30" refY="9" markerWidth="30" markerHeight="18" orient="auto"><circle stroke="gray" fill="white" cx="9" cy="9" r="6"></circle><path stroke="gray" fill="none" d="M21,0 L21,18"></path></marker></defs><defs><marker id="ONE_OR_MORE_START" refX="18" refY="18" markerWidth="45" markerHeight="36" orient="auto"><path stroke="gray" fill="none" d="M0,18 Q 18,0 36,18 Q 18,36 0,18 M42,9 L42,27"></path></marker></defs><defs><marker id="ONE_OR_MORE_END" refX="27" refY="18" markerWidth="45" markerHeight="36" orient="auto"><path stroke="gray" fill="none" d="M3,9 L3,27 M9,18 Q27,0 45,18 Q27,36 9,18"></path></marker></defs><defs><marker id="ZERO_OR_MORE_START" refX="18" refY="18" markerWidth="57" markerHeight="36" orient="auto"><circle stroke="gray" fill="white" cx="48" cy="18" r="6"></circle><path stroke="gray" fill="none" d="M0,18 Q18,0 36,18 Q18,36 0,18"></path></marker></defs><defs><marker id="ZERO_OR_MORE_END" refX="39" refY="18" markerWidth="57" markerHeight="36" orient="auto"><circle stroke="gray" fill="white" cx="9" cy="18" r="6"></circle><path stroke="gray" fill="none" d="M21,18 Q39,0 57,18 Q39,36 21,18"></path></marker></defs><path class="er relationshipLine" d="M1353.12109375,270L1353.12109375,278.3333333333333C1353.12109375,286.6666666666667,1353.12109375,303.3333333333333,1361.7122395833333,320C1370.3033854166667,336.6666666666667,1387.4856770833333,353.3333333333333,1396.0768229166667,361.6666666666667L1404.66796875,370" stroke="gray" fill="none" marker-end="url(#ZERO_OR_MORE_END)" marker-start="url(#ONE_OR_MORE_START)"></path><path class="er relationshipLine" d="M221.78147600446428,255.5625L196.58612583705357,266.3020833333333C171.39077566964284,277.0416666666667,121.00007533482142,298.5208333333333,95.80472516741071,317.59375C70.609375,336.6666666666667,70.609375,353.3333333333333,70.609375,361.6666666666667L70.609375,370" stroke="gray" fill="none" marker-end="url(#ONLY_ONE_END)" marker-start="url(#ZERO_OR_MORE_START)"></path><path class="er relationshipLine" d="M287.75464006696427,255.5625L293.28121047247026,266.3020833333333C298.8077808779762,277.0416666666667,309.86092168898807,298.5208333333333,315.38749209449406,320C320.9140625,341.4791666666667,320.9140625,362.9583333333333,320.9140625,373.6979166666667L320.9140625,384.4375" stroke="gray" fill="none" marker-end="url(#ONLY_ONE_END)" marker-start="url(#ZERO_OR_MORE_START)"></path><path class="er relationshipLine" d="M372.46484375,88.66276041666667L356.3684895833333,98.05230034722223C340.2721354166667,107.44184027777779,308.0794270833333,126.2209201388889,291.9830729166667,146.35004340277777C275.88671875,166.47916666666666,275.88671875,187.95833333333334,275.88671875,198.69791666666666L275.88671875,209.4375" stroke="gray" fill="none" marker-end="url(#ONLY_ONE_END)" marker-start="url(#ZERO_OR_ONE_START)"></path><path class="er relationshipLine" d="M404.45814732142856,95L399.6962425595238,103.33333333333333C394.93433779761904,111.66666666666667,385.41052827380946,128.33333333333334,430.64862351190476,148.69855116057553C475.88671875,169.06376898781772,575.88671875,193.12753797563542,625.88671875,205.1594224695443L675.88671875,217.19130696345314" stroke="gray" fill="none" marker-end="url(#ONLY_ONE_END)" marker-start="url(#ONLY_ONE_START)"></path><path class="er relationshipLine" d="M447.31529017857144,95L452.0771949404762,103.33333333333333C456.83909970238096,111.66666666666667,466.36290922619054,128.33333333333334,608.9972098214286,150.41878922275853C751.6315104166666,172.50424511218375,1027.3763020833333,200.00849022436753,1165.2486979166667,213.7606127804594L1303.12109375,227.51273533655132" stroke="gray" fill="none" marker-end="url(#ONLY_ONE_END)" marker-start="url(#ZERO_OR_MORE_START)"></path><path class="er relationshipLine" d="M479.30859375,88.66276041666667L495.4049479166667,98.05230034722223C511.5013020833333,107.44184027777779,543.6940104166666,126.2209201388889,559.7903645833334,150.19379340277777C575.88671875,174.16666666666666,575.88671875,203.33333333333334,575.88671875,232.5C575.88671875,261.6666666666667,575.88671875,290.8333333333333,712.126953125,319.15940527923505C848.3671875,347.4854772251368,1120.84765625,374.9709544502736,1257.087890625,388.7136930628419L1393.328125,402.45643167541033" stroke="gray" fill="none" marker-end="url(#ONE_OR_MORE_END)" marker-start="url(#ZERO_OR_MORE_START)"></path><path class="er relationshipLine" d="M1102.08984375,68.99005890276018L1045.8255208333333,81.65838241896682C989.5611979166666,94.32670593517345,877.0325520833334,119.66335296758673,752.8098958333334,144.5014370218765C628.5872395833334,169.33952107616628,492.6705729166667,193.67904215233253,424.7122395833333,205.84880269041568L356.75390625,218.0185632284988" stroke="gray" fill="none" marker-end="url(#ONLY_ONE_END)" marker-start="url(#ZERO_OR_ONE_START)"></path><path class="er relationshipLine" d="M1102.08984375,79.826171875L1077.26171875,90.6884765625C1052.43359375,101.55078125,1002.77734375,123.275390625,977.94921875,142.47102864583334C953.12109375,161.66666666666666,953.12109375,178.33333333333334,953.12109375,186.66666666666666L953.12109375,195" stroke="gray" fill="none" marker-end="url(#ONLY_ONE_END)" marker-start="url(#ZERO_OR_MORE_START)"></path><path class="er relationshipLine" d="M1153.12109375,95L1153.12109375,103.33333333333333C1153.12109375,111.66666666666667,1153.12109375,128.33333333333334,1153.12109375,145C1153.12109375,161.66666666666666,1153.12109375,178.33333333333334,1153.12109375,186.66666666666666L1153.12109375,195" stroke="gray" fill="none" marker-end="url(#ONLY_ONE_END)" marker-start="url(#ONLY_ONE_START)"></path><path class="er relationshipLine" d="M1204.15234375,79.826171875L1228.98046875,90.6884765625C1253.80859375,101.55078125,1303.46484375,123.275390625,1328.29296875,142.47102864583334C1353.12109375,161.66666666666666,1353.12109375,178.33333333333334,1353.12109375,186.66666666666666L1353.12109375,195" stroke="gray" fill="none" marker-end="url(#ONLY_ONE_END)" marker-start="url(#ZERO_OR_MORE_START)"></path><path class="er relationshipLine" d="M1204.15234375,70.2578125L1253.98046875,82.71484375C1303.80859375,95.171875,1403.46484375,120.0859375,1453.29296875,147.12630208333334C1503.12109375,174.16666666666666,1503.12109375,203.33333333333334,1503.12109375,232.5C1503.12109375,261.6666666666667,1503.12109375,290.8333333333333,1497.426525297619,313.75C1491.7319568452378,336.6666666666667,1480.3428199404761,353.3333333333333,1474.6482514880952,361.6666666666667L1468.9536830357142,370" stroke="gray" fill="none" marker-end="url(#ONE_OR_MORE_END)" marker-start="url(#ZERO_OR_MORE_START)"></path><path class="er relationshipLine" d="M104.45814732142857,95L99.69624255952381,103.33333333333333C94.93433779761904,111.66666666666667,85.41052827380952,128.33333333333334,105.19624255952381,147.40625C124.98195684523809,166.47916666666666,174.07719494047618,187.95833333333334,198.6248139880952,198.69791666666666L223.17243303571428,209.4375" stroke="gray" fill="none" marker-end="url(#ONLY_ONE_END)" marker-start="url(#ZERO_OR_ONE_START)"></path><path class="er relationshipLine" d="M147.31529017857142,95L152.07719494047618,103.33333333333333C156.83909970238093,111.66666666666667,166.36290922619048,128.33333333333334,254.45814732142858,149.6039347776869C342.5533854166667,170.87453622204046,509.2200520833333,196.74907244408095,592.5533854166666,209.6863405551012L675.88671875,222.62360866612144" stroke="gray" fill="none" marker-end="url(#ONLY_ONE_END)" marker-start="url(#ONLY_ONE_START)"></path><path class="er relationshipLine" d="M1688.8353794642858,95L1674.5496651785716,103.33333333333333C1660.263950892857,111.66666666666667,1631.6925223214287,128.33333333333334,1409.678943452381,150.3614507179324C1187.6653645833333,172.38956810253148,772.2096354166666,199.779136205063,564.4817708333334,213.47392025632874L356.75390625,227.1687043075945" stroke="gray" fill="none" marker-end="url(#ONLY_ONE_END)" marker-start="url(#ZERO_OR_ONE_START)"></path><path class="er relationshipLine" d="M1731.6925223214287,95L1726.9306175595239,103.33333333333333C1722.168712797619,111.66666666666667,1712.6449032738094,128.33333333333334,1557.8829985119048,150.28722073134807C1403.12109375,172.24110812936283,1103.12109375,199.48221625872566,953.12109375,213.10277032340707L803.12109375,226.7233243880885" stroke="gray" fill="none" marker-end="url(#ONLY_ONE_END)" marker-start="url(#ONLY_ONE_START)"></path><path class="er relationshipLine" d="M1774.5496651785713,95L1779.3115699404761,103.33333333333333C1784.073474702381,111.66666666666667,1793.5972842261906,128.33333333333334,1731.6925223214284,149.62962962962965C1669.7877604166667,170.92592592592595,1536.4544270833333,196.85185185185185,1469.7877604166667,209.8148148148148L1403.12109375,222.77777777777777" stroke="gray" fill="none" marker-end="url(#ONLY_ONE_END)" marker-start="url(#ZERO_OR_MORE_START)"></path><path class="er relationshipLine" d="M1817.4068080357142,95L1831.6925223214284,103.33333333333333C1845.978236607143,111.66666666666667,1874.5496651785713,128.33333333333334,1888.8353794642856,151.25C1903.12109375,174.16666666666666,1903.12109375,203.33333333333334,1903.12109375,232.5C1903.12109375,261.6666666666667,1903.12109375,290.8333333333333,1834.822265625,318.4141413283266C1766.5234375,345.9949493233198,1629.92578125,371.9898986466396,1561.626953125,384.9873733082995L1493.328125,397.98484796995933" stroke="gray" fill="none" marker-end="url(#ONE_OR_MORE_END)" marker-start="url(#ZERO_OR_MORE_START)"></path><g id="DataManager" transform="translate(1303.12109375,195 )"><rect class="er entityBox" fill="honeydew" fill-opacity="100%" stroke="gray" x="0" y="0" width="100" height="75"></rect><text class="er entityLabel" id="entity-DataManager" x="0" y="0" dominant-baseline="middle" text-anchor="middle" style="font-family: &quot;trebuchet ms&quot;, verdana, arial, sans-serif;; font-size: 12px" transform="translate(50,37.5)">DataManager</text></g><g id="DataSample" transform="translate(1393.328125,370 )"><rect class="er entityBox" fill="honeydew" fill-opacity="100%" stroke="gray" x="0" y="0" width="100" height="75"></rect><text class="er entityLabel" id="entity-DataSample" x="0" y="0" dominant-baseline="middle" text-anchor="middle" style="font-family: &quot;trebuchet ms&quot;, verdana, arial, sans-serif;; font-size: 12px" transform="translate(50,37.5)">DataSample</text></g><g id="ComputeTask" transform="translate(195.01953125,209.4375 )"><rect class="er entityBox" fill="honeydew" fill-opacity="100%" stroke="gray" x="0" y="0" width="161.734375" height="46.125"></rect><text class="er entityLabel" id="entity-ComputeTask" x="0" y="0" dominant-baseline="middle" text-anchor="middle" style="font-family: &quot;trebuchet ms&quot;, verdana, arial, sans-serif;; font-size: 12px" transform="translate(80.8671875,12.0078125)">ComputeTask</text><rect class="er attributeBoxOdd" fill="honeydew" fill-opacity="100%" stroke="gray" x="0" y="24.015625" width="112.125" height="22.109375"></rect><text class="er entityLabel" id="entity-ComputeTask-attr-1-type" x="0" y="0" dominant-baseline="middle" text-anchor="left" style="font-family: &quot;trebuchet ms&quot;, verdana, arial, sans-serif;; font-size: 10.2px" transform="translate(5,35.0703125)">ComputeTaskCategory</text><rect class="er attributeBoxOdd" fill="honeydew" fill-opacity="100%" stroke="gray" x="0112.125" y="24.015625" width="49.609375" height="22.109375"></rect><text class="er entityLabel" id="entity-ComputeTask-attr-1-name" x="0" y="0" dominant-baseline="middle" text-anchor="left" style="font-family: &quot;trebuchet ms&quot;, verdana, arial, sans-serif;; font-size: 10.2px" transform="translate(117.125,35.0703125)">category</text></g><g id="ComputePlan" transform="translate(20,370 )"><rect class="er entityBox" fill="honeydew" fill-opacity="100%" stroke="gray" x="0" y="0" width="101.21875" height="75"></rect><text class="er entityLabel" id="entity-ComputePlan" x="0" y="0" dominant-baseline="middle" text-anchor="middle" style="font-family: &quot;trebuchet ms&quot;, verdana, arial, sans-serif;; font-size: 12px" transform="translate(50.609375,37.5)">ComputePlan</text></g><g id="Algo" transform="translate(260.96875,384.4375 )"><rect class="er entityBox" fill="honeydew" fill-opacity="100%" stroke="gray" x="0" y="0" width="119.890625" height="46.125"></rect><text class="er entityLabel" id="entity-Algo" x="0" y="0" dominant-baseline="middle" text-anchor="middle" style="font-family: &quot;trebuchet ms&quot;, verdana, arial, sans-serif;; font-size: 12px" transform="translate(59.9453125,12.0078125)">Algo</text><rect class="er attributeBoxOdd" fill="honeydew" fill-opacity="100%" stroke="gray" x="0" y="24.015625" width="70.28125" height="22.109375"></rect><text class="er entityLabel" id="entity-Algo-attr-1-type" x="0" y="0" dominant-baseline="middle" text-anchor="left" style="font-family: &quot;trebuchet ms&quot;, verdana, arial, sans-serif;; font-size: 10.2px" transform="translate(5,35.0703125)">AlgoCategory</text><rect class="er attributeBoxOdd" fill="honeydew" fill-opacity="100%" stroke="gray" x="070.28125" y="24.015625" width="49.609375" height="22.109375"></rect><text class="er entityLabel" id="entity-Algo-attr-1-name" x="0" y="0" dominant-baseline="middle" text-anchor="left" style="font-family: &quot;trebuchet ms&quot;, verdana, arial, sans-serif;; font-size: 10.2px" transform="translate(75.28125,35.0703125)">category</text></g><g id="TrainTaskData" transform="translate(372.46484375,20 )"><rect class="er entityBox" fill="honeydew" fill-opacity="100%" stroke="gray" x="0" y="0" width="106.84375" height="75"></rect><text class="er entityLabel" id="entity-TrainTaskData" x="0" y="0" dominant-baseline="middle" text-anchor="middle" style="font-family: &quot;trebuchet ms&quot;, verdana, arial, sans-serif;; font-size: 12px" transform="translate(53.421875,37.5)">TrainTaskData</text></g><g id="Model" transform="translate(675.88671875,209.4375 )"><rect class="er entityBox" fill="honeydew" fill-opacity="100%" stroke="gray" x="0" y="0" width="127.234375" height="46.125"></rect><text class="er entityLabel" id="entity-Model" x="0" y="0" dominant-baseline="middle" text-anchor="middle" style="font-family: &quot;trebuchet ms&quot;, verdana, arial, sans-serif;; font-size: 12px" transform="translate(63.6171875,12.0078125)">Model</text><rect class="er attributeBoxOdd" fill="honeydew" fill-opacity="100%" stroke="gray" x="0" y="24.015625" width="77.625" height="22.109375"></rect><text class="er entityLabel" id="entity-Model-attr-1-type" x="0" y="0" dominant-baseline="middle" text-anchor="left" style="font-family: &quot;trebuchet ms&quot;, verdana, arial, sans-serif;; font-size: 10.2px" transform="translate(5,35.0703125)">ModelCategory</text><rect class="er attributeBoxOdd" fill="honeydew" fill-opacity="100%" stroke="gray" x="077.625" y="24.015625" width="49.609375" height="22.109375"></rect><text class="er entityLabel" id="entity-Model-attr-1-name" x="0" y="0" dominant-baseline="middle" text-anchor="left" style="font-family: &quot;trebuchet ms&quot;, verdana, arial, sans-serif;; font-size: 10.2px" transform="translate(82.625,35.0703125)">category</text></g><g id="TestTaskData" transform="translate(1102.08984375,20 )"><rect class="er entityBox" fill="honeydew" fill-opacity="100%" stroke="gray" x="0" y="0" width="102.0625" height="75"></rect><text class="er entityLabel" id="entity-TestTaskData" x="0" y="0" dominant-baseline="middle" text-anchor="middle" style="font-family: &quot;trebuchet ms&quot;, verdana, arial, sans-serif;; font-size: 12px" transform="translate(51.03125,37.5)">TestTaskData</text></g><g id="Metric" transform="translate(903.12109375,195 )"><rect class="er entityBox" fill="honeydew" fill-opacity="100%" stroke="gray" x="0" y="0" width="100" height="75"></rect><text class="er entityLabel" id="entity-Metric" x="0" y="0" dominant-baseline="middle" text-anchor="middle" style="font-family: &quot;trebuchet ms&quot;, verdana, arial, sans-serif;; font-size: 12px" transform="translate(50,37.5)">Metric</text></g><g id="Performance" transform="translate(1103.12109375,195 )"><rect class="er entityBox" fill="honeydew" fill-opacity="100%" stroke="gray" x="0" y="0" width="100" height="75"></rect><text class="er entityLabel" id="entity-Performance" x="0" y="0" dominant-baseline="middle" text-anchor="middle" style="font-family: &quot;trebuchet ms&quot;, verdana, arial, sans-serif;; font-size: 12px" transform="translate(50,37.5)">Performance</text></g><g id="AggregateTaskData" transform="translate(59.44921875,20 )"><rect class="er entityBox" fill="honeydew" fill-opacity="100%" stroke="gray" x="0" y="0" width="132.875" height="75"></rect><text class="er entityLabel" id="entity-AggregateTaskData" x="0" y="0" dominant-baseline="middle" text-anchor="middle" style="font-family: &quot;trebuchet ms&quot;, verdana, arial, sans-serif;; font-size: 12px" transform="translate(66.4375,37.5)">AggregateTaskData</text></g><g id="CompositeTaskData" transform="translate(1685.51171875,20 )"><rect class="er entityBox" fill="honeydew" fill-opacity="100%" stroke="gray" x="0" y="0" width="135.21875" height="75"></rect><text class="er entityLabel" id="entity-CompositeTaskData" x="0" y="0" dominant-baseline="middle" text-anchor="middle" style="font-family: &quot;trebuchet ms&quot;, verdana, arial, sans-serif;; font-size: 12px" transform="translate(67.609375,37.5)">CompositeTaskData</text></g><rect class="er relationshipLabelBox" x="1349.8897705078125" y="319.4345397949219" width="31.09375" height="14.015625" fill="white" fill-opacity="85%"></rect><text class="er relationshipLabel" id="rel1" x="1365.4366455078125" y="326.4423522949219" text-anchor="middle" dominant-baseline="middle" style="font-family: &quot;trebuchet ms&quot;, verdana, arial, sans-serif;; font-size: 12px">opens</text><rect class="er relationshipLabelBox" x="101.99867248535156" y="290.0435791015625" width="55.46875" height="14.015625" fill="white" fill-opacity="85%"></rect><text class="er relationshipLabel" id="rel2" x="129.73304748535156" y="297.0513916015625" text-anchor="middle" dominant-baseline="middle" style="font-family: &quot;trebuchet ms&quot;, verdana, arial, sans-serif;; font-size: 12px">belongs to</text><rect class="er relationshipLabelBox" x="293.228759765625" y="310.3842468261719" width="42.921875" height="14.015625" fill="white" fill-opacity="85%"></rect><text class="er relationshipLabel" id="rel3" x="314.689697265625" y="317.3920593261719" text-anchor="middle" dominant-baseline="middle" style="font-family: &quot;trebuchet ms&quot;, verdana, arial, sans-serif;; font-size: 12px">execute</text><rect class="er relationshipLabelBox" x="274.404296875" y="127.48846435546875" width="57.828125" height="14.015625" fill="white" fill-opacity="85%"></rect><text class="er relationshipLabel" id="rel4" x="303.318359375" y="134.49627685546875" text-anchor="middle" dominant-baseline="middle" style="font-family: &quot;trebuchet ms&quot;, verdana, arial, sans-serif;; font-size: 12px">specializes</text><rect class="er relationshipLabelBox" x="492.42864990234375" y="170.3270721435547" width="48.390625" height="14.015625" fill="white" fill-opacity="85%"></rect><text class="er relationshipLabel" id="rel5" x="516.6239624023438" y="177.3348846435547" text-anchor="middle" dominant-baseline="middle" style="font-family: &quot;trebuchet ms&quot;, verdana, arial, sans-serif;; font-size: 12px">produces</text><rect class="er relationshipLabelBox" x="856.6366577148438" y="175.9150848388672" width="22.828125" height="14.015625" fill="white" fill-opacity="85%"></rect><text class="er relationshipLabel" id="rel6" x="868.0507202148438" y="182.9228973388672" text-anchor="middle" dominant-baseline="middle" style="font-family: &quot;trebuchet ms&quot;, verdana, arial, sans-serif;; font-size: 12px">uses</text><rect class="er relationshipLabelBox" x="859.8447265625" y="338.0419616699219" width="22.84375" height="14.015625" fill="white" fill-opacity="85%"></rect><text class="er relationshipLabel" id="rel7" x="871.2666015625" y="345.0497741699219" text-anchor="middle" dominant-baseline="middle" style="font-family: &quot;trebuchet ms&quot;, verdana, arial, sans-serif;; font-size: 12px">uses</text><rect class="er relationshipLabelBox" x="701.5966796875" y="141.92236328125" width="57.828125" height="14.015625" fill="white" fill-opacity="85%"></rect><text class="er relationshipLabel" id="rel8" x="730.5107421875" y="148.93017578125" text-anchor="middle" dominant-baseline="middle" style="font-family: &quot;trebuchet ms&quot;, verdana, arial, sans-serif;; font-size: 12px">specializes</text><rect class="er relationshipLabelBox" x="985.4834594726562" y="114.89067077636719" width="51.296875" height="14.015625" fill="white" fill-opacity="85%"></rect><text class="er relationshipLabel" id="rel9" x="1011.1318969726562" y="121.89848327636719" text-anchor="middle" dominant-baseline="middle" style="font-family: &quot;trebuchet ms&quot;, verdana, arial, sans-serif;; font-size: 12px">evaluates</text><rect class="er relationshipLabelBox" x="1128.92578125" y="137.9921875" width="48.390625" height="14.015625" fill="white" fill-opacity="85%"></rect><text class="er relationshipLabel" id="rel10" x="1153.12109375" y="145" text-anchor="middle" dominant-baseline="middle" style="font-family: &quot;trebuchet ms&quot;, verdana, arial, sans-serif;; font-size: 12px">produces</text><rect class="er relationshipLabelBox" x="1283.6884765625" y="114.89067840576172" width="22.84375" height="14.015625" fill="white" fill-opacity="85%"></rect><text class="er relationshipLabel" id="rel11" x="1295.1103515625" y="121.89849090576172" text-anchor="middle" dominant-baseline="middle" style="font-family: &quot;trebuchet ms&quot;, verdana, arial, sans-serif;; font-size: 12px">uses</text><rect class="er relationshipLabelBox" x="1437.32861328125" y="137.72537231445312" width="22.828125" height="14.015625" fill="white" fill-opacity="85%"></rect><text class="er relationshipLabel" id="rel12" x="1448.74267578125" y="144.73318481445312" text-anchor="middle" dominant-baseline="middle" style="font-family: &quot;trebuchet ms&quot;, verdana, arial, sans-serif;; font-size: 12px">uses</text><rect class="er relationshipLabelBox" x="107.18516540527344" y="161.6853790283203" width="57.828125" height="14.015625" fill="white" fill-opacity="85%"></rect><text class="er relationshipLabel" id="rel13" x="136.09922790527344" y="168.6931915283203" text-anchor="middle" dominant-baseline="middle" style="font-family: &quot;trebuchet ms&quot;, verdana, arial, sans-serif;; font-size: 12px">specializes</text><rect class="er relationshipLabelBox" x="379.0994567871094" y="171.97573852539062" width="48.390625" height="14.015625" fill="white" fill-opacity="85%"></rect><text class="er relationshipLabel" id="rel14" x="403.2947692871094" y="178.98355102539062" text-anchor="middle" dominant-baseline="middle" style="font-family: &quot;trebuchet ms&quot;, verdana, arial, sans-serif;; font-size: 12px">produces</text><rect class="er relationshipLabelBox" x="997.531982421875" y="174.79510498046875" width="57.84375" height="14.015625" fill="white" fill-opacity="85%"></rect><text class="er relationshipLabel" id="rel15" x="1026.453857421875" y="181.80291748046875" text-anchor="middle" dominant-baseline="middle" style="font-family: &quot;trebuchet ms&quot;, verdana, arial, sans-serif;; font-size: 12px">specializes</text><rect class="er relationshipLabelBox" x="1237.8131103515625" y="175.74510192871094" width="73.109375" height="14.015625" fill="white" fill-opacity="85%"></rect><text class="er relationshipLabel" id="rel16" x="1274.3677978515625" y="182.75291442871094" text-anchor="middle" dominant-baseline="middle" style="font-family: &quot;trebuchet ms&quot;, verdana, arial, sans-serif;; font-size: 12px">produces (x2)</text><rect class="er relationshipLabelBox" x="1599.04638671875" y="174.09689331054688" width="22.84375" height="14.015625" fill="white" fill-opacity="85%"></rect><text class="er relationshipLabel" id="rel17" x="1610.46826171875" y="181.10470581054688" text-anchor="middle" dominant-baseline="middle" style="font-family: &quot;trebuchet ms&quot;, verdana, arial, sans-serif;; font-size: 12px">uses</text><rect class="er relationshipLabelBox" x="1797.0360107421875" y="320.9420471191406" width="22.828125" height="14.015625" fill="white" fill-opacity="85%"></rect><text class="er relationshipLabel" id="rel18" x="1808.4500732421875" y="327.9498596191406" text-anchor="middle" dominant-baseline="middle" style="font-family: &quot;trebuchet ms&quot;, verdana, arial, sans-serif;; font-size: 12px">uses</text></svg>