<?xml version="1.0" encoding="UTF-8" standalone="no"?>
<!DOCTYPE svg PUBLIC "-//W3C//DTD SVG 1.1//EN"
 "http://www.w3.org/Graphics/SVG/1.1/DTD/svg11.dtd">
<!-- Generated by graphviz version 2.47.3 (20210619.1520)
 -->
<!-- Title: protodot Pages: 1 -->
<svg width="1013pt" height="687pt"
 viewBox="0.00 0.00 1013.00 687.00" xmlns="http://www.w3.org/2000/svg" xmlns:xlink="http://www.w3.org/1999/xlink">
<g id="graph0" class="graph" transform="scale(1 1) rotate(0) translate(4 683)">
<title>protodot</title>
<g id="a_graph0"><a xlink:title="orchestrator">
<text text-anchor="middle" x="502.5" y="-7.8" font-family="Times,serif" font-size="14.00">orchestrator</text>
</a>
</g>
<g id="clust1" class="cluster">
<title>cluster_308971b5abce</title>
<g id="a_clust1"><a xlink:title="common.proto">
<polygon fill="#caff70" stroke="black" points="651,-31 651,-272 997,-272 997,-31 651,-31"/>
<text text-anchor="middle" x="824" y="-256.8" font-family="Times,serif" font-size="14.00">common.proto</text>
</a>
</g>
</g>
<g id="clust2" class="cluster">
<title>cluster_17479c12eb21</title>
<g id="a_clust2"><a xlink:title="orchestrator">
<polygon fill="#caff70" stroke="black" points="647,-280 647,-671 816,-671 816,-280 647,-280"/>
<text text-anchor="middle" x="731.5" y="-655.8" font-family="Times,serif" font-size="14.00">orchestrator</text>
</a>
</g>
</g>
<!-- Node_Ja_103 -->
<g id="node1" class="node">
<title>Node_Ja_103</title>
<g id="a_node1"><a xlink:title="orchestrator.Permissions">
<polygon fill="#fffaf0" stroke="transparent" points="671.5,-43.5 671.5,-90.5 791.5,-90.5 791.5,-43.5 671.5,-43.5"/>
<polygon fill="#e31a1c" stroke="transparent" points="672.5,-74 672.5,-89 790.5,-89 790.5,-74 672.5,-74"/>
<text text-anchor="start" x="729.5" y="-80" font-family="Ubuntu" font-weight="bold" font-size="10.00">Permissions</text>
<text text-anchor="start" x="678.5" y="-64" font-family="Ubuntu" font-size="10.00">1</text>
<text text-anchor="start" x="688.5" y="-64" font-family="Ubuntu" font-size="10.00">process</text>
<polygon fill="#fb9a99" stroke="transparent" points="732.5,-59 732.5,-74 790.5,-74 790.5,-59 732.5,-59"/>
<text text-anchor="start" x="734.5" y="-65" font-family="Ubuntu" font-weight="bold" font-size="10.00">Permission</text>
<text text-anchor="start" x="678.5" y="-49" font-family="Ubuntu" font-size="10.00">2</text>
<text text-anchor="start" x="688.5" y="-49" font-family="Ubuntu" font-size="10.00">download</text>
<polygon fill="#fb9a99" stroke="transparent" points="732.5,-44 732.5,-59 790.5,-59 790.5,-44 732.5,-44"/>
<text text-anchor="start" x="734.5" y="-50" font-family="Ubuntu" font-weight="bold" font-size="10.00">Permission</text>
<polygon fill="none" stroke="black" points="671.5,-43.5 671.5,-90.5 791.5,-90.5 791.5,-43.5 671.5,-43.5"/>
</a>
</g>
</g>
<!-- Node_Ja_104 -->
<g id="node3" class="node">
<title>Node_Ja_104</title>
<g id="a_node3"><a xlink:title="orchestrator.Permission">
<polygon fill="#fffaf0" stroke="transparent" points="852,-43.5 852,-90.5 981,-90.5 981,-43.5 852,-43.5"/>
<polygon fill="#e31a1c" stroke="transparent" points="853.5,-74 853.5,-89 980.5,-89 980.5,-74 853.5,-74"/>
<text text-anchor="start" x="924.5" y="-80" font-family="Ubuntu" font-weight="bold" font-size="10.00">Permission</text>
<text text-anchor="start" x="875.5" y="-64" font-family="Ubuntu" font-size="10.00">1</text>
<text text-anchor="start" x="885.5" y="-64" font-family="Ubuntu" font-size="10.00">public</text>
<polygon fill="#a6cee3" stroke="transparent" points="951.5,-59 951.5,-74 980.5,-74 980.5,-59 951.5,-59"/>
<text text-anchor="start" x="959.5" y="-65" font-family="Ubuntu" font-style="italic" font-size="10.00">bool</text>
<text text-anchor="start" x="855.5" y="-49" font-family="Ubuntu" font-size="10.00">[...]</text>
<text text-anchor="start" x="875.5" y="-49" font-family="Ubuntu" font-size="10.00">2</text>
<text text-anchor="start" x="885.5" y="-49" font-family="Ubuntu" font-size="10.00">authorized_ids</text>
<polygon fill="#a6cee3" stroke="transparent" points="951.5,-44 951.5,-59 980.5,-59 980.5,-44 951.5,-44"/>
<text text-anchor="start" x="953.5" y="-50" font-family="Ubuntu" font-style="italic" font-size="10.00">string</text>
<polygon fill="none" stroke="black" points="852,-43.5 852,-90.5 981,-90.5 981,-43.5 852,-43.5"/>
</a>
</g>
</g>
<!-- Node_Ja_103&#45;&gt;Node_Ja_104 -->
<g id="edge11" class="edge">
<title>Node_Ja_103:e&#45;&gt;Node_Ja_104:header</title>
<g id="a_edge11"><a xlink:title="Ja_103 &#45;&#45;&gt; Ja_104">
<path fill="none" stroke="#000000" d="M791.5,-51C818.11,-51 821.57,-74.73 842.39,-80.67"/>
<polygon fill="#000000" stroke="#000000" points="842.13,-84.16 852.5,-82 843.04,-77.22 842.13,-84.16"/>
</a>
</g>
</g>
<!-- Node_Ja_103&#45;&gt;Node_Ja_104 -->
<g id="edge16" class="edge">
<title>Node_Ja_103:e&#45;&gt;Node_Ja_104:header</title>
<g id="a_edge16"><a xlink:title="Ja_103 &#45;&#45;&gt; Ja_104">
<path fill="none" stroke="#000000" d="M791.5,-66C815.81,-66 822.75,-78.03 842.45,-81.23"/>
<polygon fill="#000000" stroke="#000000" points="842.26,-84.72 852.5,-82 842.8,-77.74 842.26,-84.72"/>
</a>
</g>
</g>
<!-- Node_Ja_102 -->
<g id="node2" class="node">
<title>Node_Ja_102</title>
<g id="a_node2"><a xlink:title="orchestrator.Addressable">
<polygon fill="#fffaf0" stroke="transparent" points="670.5,-116.5 670.5,-163.5 792.5,-163.5 792.5,-116.5 670.5,-116.5"/>
<polygon fill="#e31a1c" stroke="transparent" points="671.5,-147 671.5,-162 791.5,-162 791.5,-147 671.5,-147"/>
<text text-anchor="start" x="730.5" y="-153" font-family="Ubuntu" font-weight="bold" font-size="10.00">Addressable</text>
<text text-anchor="start" x="677.5" y="-137" font-family="Ubuntu" font-size="10.00">1</text>
<text text-anchor="start" x="687.5" y="-137" font-family="Ubuntu" font-size="10.00">checksum</text>
<polygon fill="#a6cee3" stroke="transparent" points="762.5,-132 762.5,-147 791.5,-147 791.5,-132 762.5,-132"/>
<text text-anchor="start" x="764.5" y="-138" font-family="Ubuntu" font-style="italic" font-size="10.00">string</text>
<text text-anchor="start" x="677.5" y="-122" font-family="Ubuntu" font-size="10.00">2</text>
<text text-anchor="start" x="687.5" y="-122" font-family="Ubuntu" font-size="10.00">storage_address</text>
<polygon fill="#a6cee3" stroke="transparent" points="762.5,-117 762.5,-132 791.5,-132 791.5,-117 762.5,-117"/>
<text text-anchor="start" x="764.5" y="-123" font-family="Ubuntu" font-style="italic" font-size="10.00">string</text>
<polygon fill="none" stroke="black" points="670.5,-116.5 670.5,-163.5 792.5,-163.5 792.5,-116.5 670.5,-116.5"/>
</a>
</g>
</g>
<!-- Node_Ja_105 -->
<g id="node4" class="node">
<title>Node_Ja_105</title>
<g id="a_node4"><a xlink:title="orchestrator.NewPermissions">
<polygon fill="#fffaf0" stroke="transparent" points="667,-189.5 667,-236.5 796,-236.5 796,-189.5 667,-189.5"/>
<polygon fill="#e31a1c" stroke="transparent" points="668.5,-220 668.5,-235 795.5,-235 795.5,-220 668.5,-220"/>
<text text-anchor="start" x="714.5" y="-226" font-family="Ubuntu" font-weight="bold" font-size="10.00">NewPermissions</text>
<text text-anchor="start" x="690.5" y="-210" font-family="Ubuntu" font-size="10.00">1</text>
<text text-anchor="start" x="700.5" y="-210" font-family="Ubuntu" font-size="10.00">public</text>
<polygon fill="#a6cee3" stroke="transparent" points="766.5,-205 766.5,-220 795.5,-220 795.5,-205 766.5,-205"/>
<text text-anchor="start" x="774.5" y="-211" font-family="Ubuntu" font-style="italic" font-size="10.00">bool</text>
<text text-anchor="start" x="670.5" y="-195" font-family="Ubuntu" font-size="10.00">[...]</text>
<text text-anchor="start" x="690.5" y="-195" font-family="Ubuntu" font-size="10.00">2</text>
<text text-anchor="start" x="700.5" y="-195" font-family="Ubuntu" font-size="10.00">authorized_ids</text>
<polygon fill="#a6cee3" stroke="transparent" points="766.5,-190 766.5,-205 795.5,-205 795.5,-190 766.5,-190"/>
<text text-anchor="start" x="768.5" y="-196" font-family="Ubuntu" font-style="italic" font-size="10.00">string</text>
<polygon fill="none" stroke="black" points="667,-189.5 667,-236.5 796,-236.5 796,-189.5 667,-189.5"/>
</a>
</g>
</g>
<!-- Node_Ja_107 -->
<g id="node5" class="node">
<title>Node_Ja_107</title>
<g id="a_node5"><a xlink:title="orchestrator.Algo">
<polygon fill="#fffaf0" stroke="transparent" points="435.5,-44.5 435.5,-181.5 599.5,-181.5 599.5,-44.5 435.5,-44.5"/>
<polygon fill="#e31a1c" stroke="transparent" points="436.5,-165 436.5,-180 598.5,-180 598.5,-165 436.5,-165"/>
<text text-anchor="start" x="573.5" y="-171" font-family="Ubuntu" font-weight="bold" font-size="10.00">Algo</text>
<text text-anchor="start" x="442.5" y="-155" font-family="Ubuntu" font-size="10.00">1</text>
<text text-anchor="start" x="452.5" y="-155" font-family="Ubuntu" font-size="10.00">key</text>
<polygon fill="#a6cee3" stroke="transparent" points="507.5,-150 507.5,-165 598.5,-165 598.5,-150 507.5,-150"/>
<text text-anchor="start" x="571.5" y="-156" font-family="Ubuntu" font-style="italic" font-size="10.00">string</text>
<text text-anchor="start" x="442.5" y="-140" font-family="Ubuntu" font-size="10.00">2</text>
<text text-anchor="start" x="452.5" y="-140" font-family="Ubuntu" font-size="10.00">name</text>
<polygon fill="#a6cee3" stroke="transparent" points="507.5,-135 507.5,-150 598.5,-150 598.5,-135 507.5,-135"/>
<text text-anchor="start" x="571.5" y="-141" font-family="Ubuntu" font-style="italic" font-size="10.00">string</text>
<text text-anchor="start" x="442.5" y="-125" font-family="Ubuntu" font-size="10.00">3</text>
<text text-anchor="start" x="452.5" y="-125" font-family="Ubuntu" font-size="10.00">category</text>
<polygon fill="#b2df8a" stroke="transparent" points="507.5,-120 507.5,-135 598.5,-135 598.5,-120 507.5,-120"/>
<text text-anchor="start" x="536.5" y="-126" font-family="Ubuntu" text-decoration="underline" font-size="10.00">AlgoCategory</text>
<text text-anchor="start" x="442.5" y="-110" font-family="Ubuntu" font-size="10.00">4</text>
<text text-anchor="start" x="452.5" y="-110" font-family="Ubuntu" font-size="10.00">description</text>
<polygon fill="#fb9a99" stroke="transparent" points="507.5,-105 507.5,-120 598.5,-120 598.5,-105 507.5,-105"/>
<text text-anchor="start" x="537.5" y="-111" font-family="Ubuntu" font-weight="bold" font-size="10.00">Addressable</text>
<text text-anchor="start" x="442.5" y="-95" font-family="Ubuntu" font-size="10.00">5</text>
<text text-anchor="start" x="452.5" y="-95" font-family="Ubuntu" font-size="10.00">algorithm</text>
<polygon fill="#fb9a99" stroke="transparent" points="507.5,-90 507.5,-105 598.5,-105 598.5,-90 507.5,-90"/>
<text text-anchor="start" x="537.5" y="-96" font-family="Ubuntu" font-weight="bold" font-size="10.00">Addressable</text>
<text text-anchor="start" x="442.5" y="-80" font-family="Ubuntu" font-size="10.00">6</text>
<text text-anchor="start" x="452.5" y="-80" font-family="Ubuntu" font-size="10.00">permissions</text>
<polygon fill="#fb9a99" stroke="transparent" points="507.5,-75 507.5,-90 598.5,-90 598.5,-75 507.5,-75"/>
<text text-anchor="start" x="537.5" y="-81" font-family="Ubuntu" font-weight="bold" font-size="10.00">Permissions</text>
<text text-anchor="start" x="442.5" y="-65" font-family="Ubuntu" font-size="10.00">7</text>
<text text-anchor="start" x="452.5" y="-65" font-family="Ubuntu" font-size="10.00">metadata</text>
<polygon fill="#a6cee3" stroke="transparent" points="507.5,-60 507.5,-75 598.5,-75 598.5,-60 507.5,-60"/>
<text text-anchor="start" x="509.5" y="-66" font-family="Ubuntu" font-size="10.00">map&lt;string, </text>
<text text-anchor="start" x="564.5" y="-66" font-family="Ubuntu" font-style="italic" font-size="10.00">string</text>
<text text-anchor="start" x="589.5" y="-66" font-family="Ubuntu" font-size="10.00">&gt;</text>
<text text-anchor="start" x="442.5" y="-50" font-family="Ubuntu" font-size="10.00">8</text>
<text text-anchor="start" x="452.5" y="-50" font-family="Ubuntu" font-size="10.00">owner</text>
<polygon fill="#a6cee3" stroke="transparent" points="507.5,-45 507.5,-60 598.5,-60 598.5,-45 507.5,-45"/>
<text text-anchor="start" x="571.5" y="-51" font-family="Ubuntu" font-style="italic" font-size="10.00">string</text>
<polygon fill="none" stroke="black" points="435.5,-44.5 435.5,-181.5 599.5,-181.5 599.5,-44.5 435.5,-44.5"/>
</a>
</g>
</g>
<!-- Node_Ja_107&#45;&gt;Node_Ja_103 -->
<g id="edge18" class="edge">
<title>Node_Ja_107:e&#45;&gt;Node_Ja_103:header</title>
<g id="a_edge18"><a xlink:title="Ja_107 &#45;&#45;&gt; Ja_103">
<path fill="none" stroke="#000000" d="M599.5,-82C627.88,-82 637.38,-82 661.48,-82"/>
<polygon fill="#000000" stroke="#000000" points="661.5,-85.5 671.5,-82 661.5,-78.5 661.5,-85.5"/>
</a>
</g>
</g>
<!-- Node_Ja_107&#45;&gt;Node_Ja_102 -->
<g id="edge7" class="edge">
<title>Node_Ja_107:e&#45;&gt;Node_Ja_102:header</title>
<g id="a_edge7"><a xlink:title="Ja_107 &#45;&#45;&gt; Ja_102">
<path fill="none" stroke="#000000" d="M599.5,-112C632.64,-112 633.76,-146.71 660.4,-153.76"/>
<polygon fill="#000000" stroke="#000000" points="660.15,-157.25 670.5,-155 661,-150.31 660.15,-157.25"/>
</a>
</g>
</g>
<!-- Node_Ja_107&#45;&gt;Node_Ja_102 -->
<g id="edge17" class="edge">
<title>Node_Ja_107:e&#45;&gt;Node_Ja_102:header</title>
<g id="a_edge17"><a xlink:title="Ja_107 &#45;&#45;&gt; Ja_102">
<path fill="none" stroke="#000000" d="M599.5,-97C636.43,-97 631.27,-144.63 660.31,-153.57"/>
<polygon fill="#000000" stroke="#000000" points="660.11,-157.07 670.5,-155 661.08,-150.14 660.11,-157.07"/>
</a>
</g>
</g>
<!-- Node_Ja_106 -->
<g id="node13" class="node">
<title>Node_Ja_106</title>
<g id="a_node13"><a xlink:title="AlgoCategory">
<polygon fill="#b2df8a" stroke="transparent" points="676,-292.5 676,-369.5 787,-369.5 787,-292.5 676,-292.5"/>
<polygon fill="#33a02c" stroke="transparent" points="677.5,-353 677.5,-368 786.5,-368 786.5,-353 677.5,-353"/>
<text text-anchor="start" x="691.5" y="-359" font-family="Ubuntu" font-size="10.00">enum </text>
<text text-anchor="start" x="719.5" y="-359" font-family="Ubuntu" font-weight="bold" font-size="10.00">AlgoCategory</text>
<polygon fill="#b2df8a" stroke="transparent" points="677.5,-338 677.5,-353 776.5,-353 776.5,-338 677.5,-338"/>
<text text-anchor="start" x="679.5" y="-343" font-family="Ubuntu" font-size="10.00">ALGO_UNKNOWN</text>
<polygon fill="#b2df8a" stroke="transparent" points="776.5,-338 776.5,-353 786.5,-353 786.5,-338 776.5,-338"/>
<text text-anchor="start" x="778.5" y="-343" font-family="Ubuntu" font-size="10.00">0</text>
<polygon fill="#b2df8a" stroke="transparent" points="677.5,-323 677.5,-338 776.5,-338 776.5,-323 677.5,-323"/>
<text text-anchor="start" x="679.5" y="-328" font-family="Ubuntu" font-size="10.00">ALGO_SIMPLE</text>
<polygon fill="#b2df8a" stroke="transparent" points="776.5,-323 776.5,-338 786.5,-338 786.5,-323 776.5,-323"/>
<text text-anchor="start" x="778.5" y="-328" font-family="Ubuntu" font-size="10.00">1</text>
<polygon fill="#b2df8a" stroke="transparent" points="677.5,-308 677.5,-323 776.5,-323 776.5,-308 677.5,-308"/>
<text text-anchor="start" x="679.5" y="-313" font-family="Ubuntu" font-size="10.00">ALGO_AGGREGATE</text>
<polygon fill="#b2df8a" stroke="transparent" points="776.5,-308 776.5,-323 786.5,-323 786.5,-308 776.5,-308"/>
<text text-anchor="start" x="778.5" y="-313" font-family="Ubuntu" font-size="10.00">2</text>
<polygon fill="#b2df8a" stroke="transparent" points="677.5,-293 677.5,-308 776.5,-308 776.5,-293 677.5,-293"/>
<text text-anchor="start" x="679.5" y="-298" font-family="Ubuntu" font-size="10.00">ALGO_COMPOSITE</text>
<polygon fill="#b2df8a" stroke="transparent" points="776.5,-293 776.5,-308 786.5,-308 786.5,-293 776.5,-293"/>
<text text-anchor="start" x="778.5" y="-298" font-family="Ubuntu" font-size="10.00">3</text>
<polygon fill="none" stroke="black" points="676,-292.5 676,-369.5 787,-369.5 787,-292.5 676,-292.5"/>
</a>
</g>
</g>
<!-- Node_Ja_107&#45;&gt;Node_Ja_106 -->
<g id="edge6" class="edge">
<title>Node_Ja_107:e&#45;&gt;Node_Ja_106</title>
<g id="a_edge6"><a xlink:title="Ja_107 &#45;&#45;&gt; Ja_106">
<path fill="none" stroke="#008000" d="M599.5,-128C668.58,-128 605.22,-220.98 647,-276 650.79,-280.99 655.17,-285.67 659.9,-290.02"/>
<polygon fill="#008000" stroke="#008000" points="657.71,-292.75 667.58,-296.59 662.26,-287.43 657.71,-292.75"/>
</a>
</g>
</g>
<!-- Node_Ja_109 -->
<g id="node6" class="node">
<title>Node_Ja_109</title>
<g id="a_node6"><a xlink:title="orchestrator.GetAlgoParam">
<polygon fill="#fffaf0" stroke="transparent" points="264.5,-220 264.5,-252 339.5,-252 339.5,-220 264.5,-220"/>
<polygon fill="#e31a1c" stroke="transparent" points="266,-236 266,-251 339,-251 339,-236 266,-236"/>
<text text-anchor="start" x="268" y="-242" font-family="Ubuntu" font-weight="bold" font-size="10.00">GetAlgoParam</text>
<text text-anchor="start" x="279" y="-226" font-family="Ubuntu" font-size="10.00">1</text>
<text text-anchor="start" x="289" y="-226" font-family="Ubuntu" font-size="10.00">key</text>
<polygon fill="#a6cee3" stroke="transparent" points="308,-221 308,-236 339,-236 339,-221 308,-221"/>
<text text-anchor="start" x="312" y="-227" font-family="Ubuntu" font-style="italic" font-size="10.00">string</text>
<polygon fill="none" stroke="black" points="264.5,-220 264.5,-252 339.5,-252 339.5,-220 264.5,-220"/>
</a>
</g>
</g>
<!-- Node_Ja_110 -->
<g id="node7" class="node">
<title>Node_Ja_110</title>
<g id="a_node7"><a xlink:title="orchestrator.QueryAlgosResponse">
<polygon fill="#fffaf0" stroke="transparent" points="232,-70.5 232,-117.5 372,-117.5 372,-70.5 232,-70.5"/>
<polygon fill="#e31a1c" stroke="transparent" points="233,-101 233,-116 371,-116 371,-101 233,-101"/>
<text text-anchor="start" x="266" y="-107" font-family="Ubuntu" font-weight="bold" font-size="10.00">QueryAlgosResponse</text>
<text text-anchor="start" x="235" y="-91" font-family="Ubuntu" font-size="10.00">[...]</text>
<text text-anchor="start" x="255" y="-91" font-family="Ubuntu" font-size="10.00">1</text>
<text text-anchor="start" x="265" y="-91" font-family="Ubuntu" font-size="10.00">Algos</text>
<polygon fill="#fb9a99" stroke="transparent" points="342,-86 342,-101 371,-101 371,-86 342,-86"/>
<text text-anchor="start" x="346" y="-92" font-family="Ubuntu" font-weight="bold" font-size="10.00">Algo</text>
<text text-anchor="start" x="255" y="-76" font-family="Ubuntu" font-size="10.00">2</text>
<text text-anchor="start" x="265" y="-76" font-family="Ubuntu" font-size="10.00">next_page_token</text>
<polygon fill="#a6cee3" stroke="transparent" points="342,-71 342,-86 371,-86 371,-71 342,-71"/>
<text text-anchor="start" x="344" y="-77" font-family="Ubuntu" font-style="italic" font-size="10.00">string</text>
<polygon fill="none" stroke="black" points="232,-70.5 232,-117.5 372,-117.5 372,-70.5 232,-70.5"/>
</a>
</g>
</g>
<!-- Node_Ja_110&#45;&gt;Node_Ja_107 -->
<g id="edge13" class="edge">
<title>Node_Ja_110:e&#45;&gt;Node_Ja_107:header</title>
<g id="a_edge13"><a xlink:title="Ja_110 &#45;&#45;&gt; Ja_107">
<path fill="none" stroke="#000000" d="M372,-93C413.49,-93 394.26,-159.84 425.31,-171.33"/>
<polygon fill="#000000" stroke="#000000" points="425.07,-174.83 435.5,-173 426.2,-167.93 425.07,-174.83"/>
</a>
</g>
</g>
<!-- Node_Ja_112 -->
<g id="node8" class="node">
<title>Node_Ja_112</title>
<g id="a_node8"><a xlink:title="AlgoService">
<polygon fill="#ffd700" stroke="transparent" points="8,-170.5 8,-277.5 180,-277.5 180,-170.5 8,-170.5"/>
<polygon fill="#ff7f50" stroke="transparent" points="9,-261 9,-276 179,-276 179,-261 9,-261"/>
<text text-anchor="start" x="119" y="-267" font-family="Ubuntu" font-weight="bold" font-size="10.00">AlgoService</text>
<text text-anchor="start" x="11" y="-252" font-family="Ubuntu" font-weight="bold" font-size="10.00">RegisterAlgo</text>
<text text-anchor="start" x="137" y="-251" font-family="Ubuntu" font-size="10.00">NewAlgo</text>
<polygon fill="#ff7f50" stroke="transparent" points="75,-231 75,-246 79,-246 79,-231 75,-231"/>
<polygon fill="#ff7f50" stroke="transparent" points="79,-231 79,-246 179,-246 179,-231 79,-231"/>
<text text-anchor="start" x="157" y="-236" font-family="Ubuntu" font-size="10.00">Algo</text>
<text text-anchor="start" x="11" y="-222" font-family="Ubuntu" font-weight="bold" font-size="10.00">GetAlgo</text>
<text text-anchor="start" x="113" y="-221" font-family="Ubuntu" font-size="10.00">GetAlgoParam</text>
<polygon fill="#ff7f50" stroke="transparent" points="75,-201 75,-216 79,-216 79,-201 75,-201"/>
<polygon fill="#ff7f50" stroke="transparent" points="79,-201 79,-216 179,-216 179,-201 79,-201"/>
<text text-anchor="start" x="157" y="-206" font-family="Ubuntu" font-size="10.00">Algo</text>
<text text-anchor="start" x="11" y="-192" font-family="Ubuntu" font-weight="bold" font-size="10.00">QueryAlgos</text>
<text text-anchor="start" x="97" y="-191" font-family="Ubuntu" font-size="10.00">QueryAlgosParam</text>
<polygon fill="#ff7f50" stroke="transparent" points="75,-171 75,-186 79,-186 79,-171 75,-171"/>
<polygon fill="#ff7f50" stroke="transparent" points="79,-171 79,-186 179,-186 179,-171 79,-171"/>
<text text-anchor="start" x="81" y="-176" font-family="Ubuntu" font-size="10.00">QueryAlgosResponse</text>
<polygon fill="none" stroke="black" points="8,-170.5 8,-277.5 180,-277.5 180,-170.5 8,-170.5"/>
</a>
</g>
</g>
<!-- Node_Ja_112&#45;&gt;Node_Ja_107 -->
<g id="edge9" class="edge">
<title>Node_Ja_112:e&#45;&gt;Node_Ja_107:header</title>
<g id="a_edge9"><a xlink:title="Ja_112 &#45;&#45;&gt; Ja_107">
<path fill="none" stroke="#000000" d="M180,-239C202.71,-239 202.09,-259.01 224,-265 290.88,-283.28 320.82,-301.12 380,-265 417.42,-242.17 392.67,-183.73 425.29,-174.29"/>
<polygon fill="#000000" stroke="#000000" points="426.02,-177.73 435.5,-173 425.14,-170.79 426.02,-177.73"/>
</a>
</g>
</g>
<!-- Node_Ja_112&#45;&gt;Node_Ja_107 -->
<g id="edge10" class="edge">
<title>Node_Ja_112:e&#45;&gt;Node_Ja_107:header</title>
<g id="a_edge10"><a xlink:title="Ja_112 &#45;&#45;&gt; Ja_107">
<path fill="none" stroke="#000000" d="M180,-208C291.15,-208 319.21,-175.09 425.33,-173.09"/>
<polygon fill="#000000" stroke="#000000" points="425.53,-176.59 435.5,-173 425.47,-169.59 425.53,-176.59"/>
</a>
</g>
</g>
<!-- Node_Ja_112&#45;&gt;Node_Ja_109 -->
<g id="edge15" class="edge">
<title>Node_Ja_112:e&#45;&gt;Node_Ja_109:header</title>
<g id="a_edge15"><a xlink:title="Ja_112 &#45;&#45;&gt; Ja_109">
<path fill="none" stroke="#000000" d="M180,-223C215.27,-223 224.46,-240.25 254.84,-243.48"/>
<polygon fill="#000000" stroke="#000000" points="254.83,-246.99 265,-244 255.19,-239.99 254.83,-246.99"/>
</a>
</g>
</g>
<!-- Node_Ja_112&#45;&gt;Node_Ja_110 -->
<g id="edge5" class="edge">
<title>Node_Ja_112:e&#45;&gt;Node_Ja_110:header</title>
<g id="a_edge5"><a xlink:title="Ja_112 &#45;&#45;&gt; Ja_110">
<path fill="none" stroke="#000000" d="M180,-178C214.5,-178 197.99,-122.3 222.12,-110.99"/>
<polygon fill="#000000" stroke="#000000" points="222.89,-114.41 232,-109 221.51,-107.54 222.89,-114.41"/>
</a>
</g>
</g>
<!-- Node_Ja_108 -->
<g id="node9" class="node">
<title>Node_Ja_108</title>
<g id="a_node9"><a xlink:title="orchestrator.NewAlgo">
<polygon fill="#fffaf0" stroke="transparent" points="424,-208 424,-330 611,-330 611,-208 424,-208"/>
<polygon fill="#e31a1c" stroke="transparent" points="425.5,-314 425.5,-329 610.5,-329 610.5,-314 425.5,-314"/>
<text text-anchor="start" x="565.5" y="-320" font-family="Ubuntu" font-weight="bold" font-size="10.00">NewAlgo</text>
<text text-anchor="start" x="431.5" y="-304" font-family="Ubuntu" font-size="10.00">1</text>
<text text-anchor="start" x="441.5" y="-304" font-family="Ubuntu" font-size="10.00">key</text>
<polygon fill="#a6cee3" stroke="transparent" points="519.5,-299 519.5,-314 610.5,-314 610.5,-299 519.5,-299"/>
<text text-anchor="start" x="583.5" y="-305" font-family="Ubuntu" font-style="italic" font-size="10.00">string</text>
<text text-anchor="start" x="431.5" y="-289" font-family="Ubuntu" font-size="10.00">2</text>
<text text-anchor="start" x="441.5" y="-289" font-family="Ubuntu" font-size="10.00">name</text>
<polygon fill="#a6cee3" stroke="transparent" points="519.5,-284 519.5,-299 610.5,-299 610.5,-284 519.5,-284"/>
<text text-anchor="start" x="583.5" y="-290" font-family="Ubuntu" font-style="italic" font-size="10.00">string</text>
<text text-anchor="start" x="431.5" y="-274" font-family="Ubuntu" font-size="10.00">3</text>
<text text-anchor="start" x="441.5" y="-274" font-family="Ubuntu" font-size="10.00">category</text>
<polygon fill="#b2df8a" stroke="transparent" points="519.5,-269 519.5,-284 610.5,-284 610.5,-269 519.5,-269"/>
<text text-anchor="start" x="548.5" y="-275" font-family="Ubuntu" text-decoration="underline" font-size="10.00">AlgoCategory</text>
<text text-anchor="start" x="431.5" y="-259" font-family="Ubuntu" font-size="10.00">4</text>
<text text-anchor="start" x="441.5" y="-259" font-family="Ubuntu" font-size="10.00">description</text>
<polygon fill="#fb9a99" stroke="transparent" points="519.5,-254 519.5,-269 610.5,-269 610.5,-254 519.5,-254"/>
<text text-anchor="start" x="549.5" y="-260" font-family="Ubuntu" font-weight="bold" font-size="10.00">Addressable</text>
<text text-anchor="start" x="431.5" y="-244" font-family="Ubuntu" font-size="10.00">5</text>
<text text-anchor="start" x="441.5" y="-244" font-family="Ubuntu" font-size="10.00">algorithm</text>
<polygon fill="#fb9a99" stroke="transparent" points="519.5,-239 519.5,-254 610.5,-254 610.5,-239 519.5,-239"/>
<text text-anchor="start" x="549.5" y="-245" font-family="Ubuntu" font-weight="bold" font-size="10.00">Addressable</text>
<text text-anchor="start" x="431.5" y="-229" font-family="Ubuntu" font-size="10.00">6</text>
<text text-anchor="start" x="441.5" y="-229" font-family="Ubuntu" font-size="10.00">new_permissions</text>
<polygon fill="#fb9a99" stroke="transparent" points="519.5,-224 519.5,-239 610.5,-239 610.5,-224 519.5,-224"/>
<text text-anchor="start" x="529.5" y="-230" font-family="Ubuntu" font-weight="bold" font-size="10.00">NewPermissions</text>
<text text-anchor="start" x="431.5" y="-214" font-family="Ubuntu" font-size="10.00">7</text>
<text text-anchor="start" x="441.5" y="-214" font-family="Ubuntu" font-size="10.00">metadata</text>
<polygon fill="#a6cee3" stroke="transparent" points="519.5,-209 519.5,-224 610.5,-224 610.5,-209 519.5,-209"/>
<text text-anchor="start" x="521.5" y="-215" font-family="Ubuntu" font-size="10.00">map&lt;string, </text>
<text text-anchor="start" x="576.5" y="-215" font-family="Ubuntu" font-style="italic" font-size="10.00">string</text>
<text text-anchor="start" x="601.5" y="-215" font-family="Ubuntu" font-size="10.00">&gt;</text>
<polygon fill="none" stroke="black" points="424,-208 424,-330 611,-330 611,-208 424,-208"/>
</a>
</g>
</g>
<!-- Node_Ja_112&#45;&gt;Node_Ja_108 -->
<g id="edge3" class="edge">
<title>Node_Ja_112:e&#45;&gt;Node_Ja_108:header</title>
<g id="a_edge3"><a xlink:title="Ja_112 &#45;&#45;&gt; Ja_108">
<path fill="none" stroke="#000000" d="M180,-254C207.66,-254 199.12,-285.91 224,-298 301.65,-335.73 332.39,-323.08 414.5,-322.06"/>
<polygon fill="#000000" stroke="#000000" points="414.52,-325.56 424.5,-322 414.48,-318.56 414.52,-325.56"/>
</a>
</g>
</g>
<!-- Node_Ja_111 -->
<g id="node10" class="node">
<title>Node_Ja_111</title>
<g id="a_node10"><a xlink:title="orchestrator.QueryAlgosParam">
<polygon fill="#fffaf0" stroke="transparent" points="450,-356 450,-418 585,-418 585,-356 450,-356"/>
<polygon fill="#e31a1c" stroke="transparent" points="451.5,-402 451.5,-417 584.5,-417 584.5,-402 451.5,-402"/>
<text text-anchor="start" x="496.5" y="-408" font-family="Ubuntu" font-weight="bold" font-size="10.00">QueryAlgosParam</text>
<text text-anchor="start" x="457.5" y="-392" font-family="Ubuntu" font-size="10.00">1</text>
<text text-anchor="start" x="467.5" y="-392" font-family="Ubuntu" font-size="10.00">category</text>
<polygon fill="#b2df8a" stroke="transparent" points="520.5,-387 520.5,-402 584.5,-402 584.5,-387 520.5,-387"/>
<text text-anchor="start" x="522.5" y="-393" font-family="Ubuntu" text-decoration="underline" font-size="10.00">AlgoCategory</text>
<text text-anchor="start" x="457.5" y="-377" font-family="Ubuntu" font-size="10.00">2</text>
<text text-anchor="start" x="467.5" y="-377" font-family="Ubuntu" font-size="10.00">page_token</text>
<polygon fill="#a6cee3" stroke="transparent" points="520.5,-372 520.5,-387 584.5,-387 584.5,-372 520.5,-372"/>
<text text-anchor="start" x="557.5" y="-378" font-family="Ubuntu" font-style="italic" font-size="10.00">string</text>
<text text-anchor="start" x="457.5" y="-362" font-family="Ubuntu" font-size="10.00">3</text>
<text text-anchor="start" x="467.5" y="-362" font-family="Ubuntu" font-size="10.00">page_size</text>
<polygon fill="#a6cee3" stroke="transparent" points="520.5,-357 520.5,-372 584.5,-372 584.5,-357 520.5,-357"/>
<text text-anchor="start" x="555.5" y="-363" font-family="Ubuntu" font-style="italic" font-size="10.00">uint32</text>
<polygon fill="none" stroke="black" points="450,-356 450,-418 585,-418 585,-356 450,-356"/>
</a>
</g>
</g>
<!-- Node_Ja_112&#45;&gt;Node_Ja_111 -->
<g id="edge4" class="edge">
<title>Node_Ja_112:e&#45;&gt;Node_Ja_111:header</title>
<g id="a_edge4"><a xlink:title="Ja_112 &#45;&#45;&gt; Ja_111">
<path fill="none" stroke="#000000" d="M180,-193C269.11,-193 311.33,-150.21 380,-207 450.73,-265.49 362.43,-399.02 440.17,-409.36"/>
<polygon fill="#000000" stroke="#000000" points="440.3,-412.88 450.5,-410 440.73,-405.89 440.3,-412.88"/>
</a>
</g>
</g>
<!-- Node_Ja_108&#45;&gt;Node_Ja_102 -->
<g id="edge8" class="edge">
<title>Node_Ja_108:e&#45;&gt;Node_Ja_102:header</title>
<g id="a_edge8"><a xlink:title="Ja_108 &#45;&#45;&gt; Ja_102">
<path fill="none" stroke="#000000" d="M611.5,-246C655.75,-246 627.86,-169.32 660.27,-156.74"/>
<polygon fill="#000000" stroke="#000000" points="661.23,-160.12 670.5,-155 660.06,-153.22 661.23,-160.12"/>
</a>
</g>
</g>
<!-- Node_Ja_108&#45;&gt;Node_Ja_102 -->
<g id="edge12" class="edge">
<title>Node_Ja_108:e&#45;&gt;Node_Ja_102:header</title>
<g id="a_edge12"><a xlink:title="Ja_108 &#45;&#45;&gt; Ja_102">
<path fill="none" stroke="#000000" d="M611.5,-261C661.63,-261 622.94,-169.38 660.58,-156.5"/>
<polygon fill="#000000" stroke="#000000" points="661.13,-159.95 670.5,-155 660.09,-153.03 661.13,-159.95"/>
</a>
</g>
</g>
<!-- Node_Ja_108&#45;&gt;Node_Ja_105 -->
<g id="edge2" class="edge">
<title>Node_Ja_108:e&#45;&gt;Node_Ja_105:header</title>
<g id="a_edge2"><a xlink:title="Ja_108 &#45;&#45;&gt; Ja_105">
<path fill="none" stroke="#000000" d="M611.5,-231C632.53,-231 640.19,-228.86 657.05,-228.2"/>
<polygon fill="#000000" stroke="#000000" points="657.57,-231.69 667.5,-228 657.44,-224.69 657.57,-231.69"/>
</a>
</g>
</g>
<!-- Node_Ja_108&#45;&gt;Node_Ja_106 -->
<g id="edge1" class="edge">
<title>Node_Ja_108:e&#45;&gt;Node_Ja_106</title>
<g id="a_edge1"><a xlink:title="Ja_108 &#45;&#45;&gt; Ja_106">
<path fill="none" stroke="#008000" d="M611.5,-277C627.47,-277 643.65,-281.08 658.73,-287"/>
<polygon fill="#008000" stroke="#008000" points="657.38,-290.23 667.96,-290.91 660.11,-283.79 657.38,-290.23"/>
</a>
</g>
</g>
<!-- Node_Ja_111&#45;&gt;Node_Ja_106 -->
<g id="edge14" class="edge">
<title>Node_Ja_111:e&#45;&gt;Node_Ja_106</title>
<g id="a_edge14"><a xlink:title="Ja_111 &#45;&#45;&gt; Ja_106">
<path fill="none" stroke="#008000" d="M585.5,-395C610.53,-395 636.08,-386.92 658.62,-376.5"/>
<polygon fill="#008000" stroke="#008000" points="660.28,-379.58 667.76,-372.08 657.23,-373.28 660.28,-379.58"/>
</a>
</g>
</g>
<!-- Node_Ja_100 -->
<g id="node11" class="node">
<title>Node_Ja_100</title>
<g id="a_node11"><a xlink:title="AssetKind">
<polygon fill="#b2df8a" stroke="transparent" points="663,-468.5 663,-635.5 800,-635.5 800,-468.5 663,-468.5"/>
<polygon fill="#33a02c" stroke="transparent" points="664.5,-619 664.5,-634 799.5,-634 799.5,-619 664.5,-619"/>
<text text-anchor="start" x="720.5" y="-625" font-family="Ubuntu" font-size="10.00">enum </text>
<text text-anchor="start" x="748.5" y="-625" font-family="Ubuntu" font-weight="bold" font-size="10.00">AssetKind</text>
<polygon fill="#b2df8a" stroke="transparent" points="664.5,-604 664.5,-619 789.5,-619 789.5,-604 664.5,-604"/>
<text text-anchor="start" x="666.5" y="-609" font-family="Ubuntu" font-size="10.00">ASSET_UNKNOWN</text>
<polygon fill="#b2df8a" stroke="transparent" points="789.5,-604 789.5,-619 799.5,-619 799.5,-604 789.5,-604"/>
<text text-anchor="start" x="791.5" y="-609" font-family="Ubuntu" font-size="10.00">0</text>
<polygon fill="#b2df8a" stroke="transparent" points="664.5,-589 664.5,-604 789.5,-604 789.5,-589 664.5,-589"/>
<text text-anchor="start" x="666.5" y="-594" font-family="Ubuntu" font-size="10.00">ASSET_NODE</text>
<polygon fill="#b2df8a" stroke="transparent" points="789.5,-589 789.5,-604 799.5,-604 799.5,-589 789.5,-589"/>
<text text-anchor="start" x="791.5" y="-594" font-family="Ubuntu" font-size="10.00">1</text>
<polygon fill="#b2df8a" stroke="transparent" points="664.5,-574 664.5,-589 789.5,-589 789.5,-574 664.5,-574"/>
<text text-anchor="start" x="666.5" y="-579" font-family="Ubuntu" font-size="10.00">ASSET_OBJECTIVE</text>
<polygon fill="#b2df8a" stroke="transparent" points="789.5,-574 789.5,-589 799.5,-589 799.5,-574 789.5,-574"/>
<text text-anchor="start" x="791.5" y="-579" font-family="Ubuntu" font-size="10.00">2</text>
<polygon fill="#b2df8a" stroke="transparent" points="664.5,-559 664.5,-574 789.5,-574 789.5,-559 664.5,-559"/>
<text text-anchor="start" x="666.5" y="-564" font-family="Ubuntu" font-size="10.00">ASSET_DATA_SAMPLE</text>
<polygon fill="#b2df8a" stroke="transparent" points="789.5,-559 789.5,-574 799.5,-574 799.5,-559 789.5,-559"/>
<text text-anchor="start" x="791.5" y="-564" font-family="Ubuntu" font-size="10.00">3</text>
<polygon fill="#b2df8a" stroke="transparent" points="664.5,-544 664.5,-559 789.5,-559 789.5,-544 664.5,-544"/>
<text text-anchor="start" x="666.5" y="-549" font-family="Ubuntu" font-size="10.00">ASSET_DATA_MANAGER</text>
<polygon fill="#b2df8a" stroke="transparent" points="789.5,-544 789.5,-559 799.5,-559 799.5,-544 789.5,-544"/>
<text text-anchor="start" x="791.5" y="-549" font-family="Ubuntu" font-size="10.00">4</text>
<polygon fill="#b2df8a" stroke="transparent" points="664.5,-529 664.5,-544 789.5,-544 789.5,-529 664.5,-529"/>
<text text-anchor="start" x="666.5" y="-534" font-family="Ubuntu" font-size="10.00">ASSET_ALGO</text>
<polygon fill="#b2df8a" stroke="transparent" points="789.5,-529 789.5,-544 799.5,-544 799.5,-529 789.5,-529"/>
<text text-anchor="start" x="791.5" y="-534" font-family="Ubuntu" font-size="10.00">5</text>
<polygon fill="#b2df8a" stroke="transparent" points="664.5,-514 664.5,-529 789.5,-529 789.5,-514 664.5,-514"/>
<text text-anchor="start" x="666.5" y="-519" font-family="Ubuntu" font-size="10.00">ASSET_COMPUTE_TASK</text>
<polygon fill="#b2df8a" stroke="transparent" points="789.5,-514 789.5,-529 799.5,-529 799.5,-514 789.5,-514"/>
<text text-anchor="start" x="791.5" y="-519" font-family="Ubuntu" font-size="10.00">6</text>
<polygon fill="#b2df8a" stroke="transparent" points="664.5,-499 664.5,-514 789.5,-514 789.5,-499 664.5,-499"/>
<text text-anchor="start" x="666.5" y="-504" font-family="Ubuntu" font-size="10.00">ASSET_COMPUTE_PLAN</text>
<polygon fill="#b2df8a" stroke="transparent" points="789.5,-499 789.5,-514 799.5,-514 799.5,-499 789.5,-499"/>
<text text-anchor="start" x="791.5" y="-504" font-family="Ubuntu" font-size="10.00">7</text>
<polygon fill="#b2df8a" stroke="transparent" points="664.5,-484 664.5,-499 789.5,-499 789.5,-484 664.5,-484"/>
<text text-anchor="start" x="666.5" y="-489" font-family="Ubuntu" font-size="10.00">ASSET_MODEL</text>
<polygon fill="#b2df8a" stroke="transparent" points="789.5,-484 789.5,-499 799.5,-499 799.5,-484 789.5,-484"/>
<text text-anchor="start" x="791.5" y="-489" font-family="Ubuntu" font-size="10.00">8</text>
<polygon fill="#b2df8a" stroke="transparent" points="664.5,-469 664.5,-484 789.5,-484 789.5,-469 664.5,-469"/>
<text text-anchor="start" x="666.5" y="-474" font-family="Ubuntu" font-size="10.00">ASSET_PERFORMANCE</text>
<polygon fill="#b2df8a" stroke="transparent" points="789.5,-469 789.5,-484 799.5,-484 799.5,-469 789.5,-469"/>
<text text-anchor="start" x="791.5" y="-474" font-family="Ubuntu" font-size="10.00">9</text>
<polygon fill="none" stroke="black" points="663,-468.5 663,-635.5 800,-635.5 800,-468.5 663,-468.5"/>
</a>
</g>
</g>
<!-- Node_Ja_101 -->
<g id="node12" class="node">
<title>Node_Ja_101</title>
<g id="a_node12"><a xlink:title="SortOrder">
<polygon fill="#b2df8a" stroke="transparent" points="689,-395.5 689,-442.5 774,-442.5 774,-395.5 689,-395.5"/>
<polygon fill="#33a02c" stroke="transparent" points="690.5,-426 690.5,-441 773.5,-441 773.5,-426 690.5,-426"/>
<text text-anchor="start" x="697.5" y="-432" font-family="Ubuntu" font-size="10.00">enum </text>
<text text-anchor="start" x="725.5" y="-432" font-family="Ubuntu" font-weight="bold" font-size="10.00">SortOrder</text>
<polygon fill="#b2df8a" stroke="transparent" points="690.5,-411 690.5,-426 763.5,-426 763.5,-411 690.5,-411"/>
<text text-anchor="start" x="692.5" y="-416" font-family="Ubuntu" font-size="10.00">ASCENDING</text>
<polygon fill="#b2df8a" stroke="transparent" points="763.5,-411 763.5,-426 773.5,-426 773.5,-411 763.5,-411"/>
<text text-anchor="start" x="765.5" y="-416" font-family="Ubuntu" font-size="10.00">0</text>
<polygon fill="#b2df8a" stroke="transparent" points="690.5,-396 690.5,-411 763.5,-411 763.5,-396 690.5,-396"/>
<text text-anchor="start" x="692.5" y="-401" font-family="Ubuntu" font-size="10.00">DESCENDING</text>
<polygon fill="#b2df8a" stroke="transparent" points="763.5,-396 763.5,-411 773.5,-411 773.5,-396 763.5,-396"/>
<text text-anchor="start" x="765.5" y="-401" font-family="Ubuntu" font-size="10.00">1</text>
<polygon fill="none" stroke="black" points="689,-395.5 689,-442.5 774,-442.5 774,-395.5 689,-395.5"/>
</a>
</g>
</g>
</g>
</svg>
