<?xml version="1.0" encoding="UTF-8" standalone="no"?>
<!DOCTYPE svg PUBLIC "-//W3C//DTD SVG 1.1//EN"
 "http://www.w3.org/Graphics/SVG/1.1/DTD/svg11.dtd">
<!-- Generated by graphviz version 2.47.3 (20210619.1520)
 -->
<!-- Title: protodot Pages: 1 -->
<svg width="358pt" height="537pt"
 viewBox="0.00 0.00 358.00 536.50" xmlns="http://www.w3.org/2000/svg" xmlns:xlink="http://www.w3.org/1999/xlink">
<g id="graph0" class="graph" transform="scale(1 1) rotate(0) translate(4 532.5)">
<title>protodot</title>
<g id="a_graph0"><a xlink:title="orchestrator">
<text text-anchor="middle" x="175" y="-7.8" font-family="Times,serif" font-size="14.00">orchestrator</text>
</a>
</g>
<g id="clust1" class="cluster">
<title>cluster_17479c12eb21</title>
<g id="a_clust1"><a xlink:title="orchestrator">
<polygon fill="#caff70" stroke="black" points="8,-31 8,-319 177,-319 177,-31 8,-31"/>
<text text-anchor="middle" x="92.5" y="-303.8" font-family="Times,serif" font-size="14.00">orchestrator</text>
</a>
</g>
</g>
<!-- Node_Ja_100 -->
<g id="node1" class="node">
<title>Node_Ja_100</title>
<g id="a_node1"><a xlink:title="AssetKind">
<polygon fill="#b2df8a" stroke="transparent" points="24,-116.5 24,-283.5 161,-283.5 161,-116.5 24,-116.5"/>
<polygon fill="#33a02c" stroke="transparent" points="25.5,-267 25.5,-282 160.5,-282 160.5,-267 25.5,-267"/>
<text text-anchor="start" x="81.5" y="-273" font-family="Ubuntu" font-size="10.00">enum </text>
<text text-anchor="start" x="109.5" y="-273" font-family="Ubuntu" font-weight="bold" font-size="10.00">AssetKind</text>
<polygon fill="#b2df8a" stroke="transparent" points="25.5,-252 25.5,-267 150.5,-267 150.5,-252 25.5,-252"/>
<text text-anchor="start" x="27.5" y="-257" font-family="Ubuntu" font-size="10.00">ASSET_UNKNOWN</text>
<polygon fill="#b2df8a" stroke="transparent" points="150.5,-252 150.5,-267 160.5,-267 160.5,-252 150.5,-252"/>
<text text-anchor="start" x="152.5" y="-257" font-family="Ubuntu" font-size="10.00">0</text>
<polygon fill="#b2df8a" stroke="transparent" points="25.5,-237 25.5,-252 150.5,-252 150.5,-237 25.5,-237"/>
<text text-anchor="start" x="27.5" y="-242" font-family="Ubuntu" font-size="10.00">ASSET_NODE</text>
<polygon fill="#b2df8a" stroke="transparent" points="150.5,-237 150.5,-252 160.5,-252 160.5,-237 150.5,-237"/>
<text text-anchor="start" x="152.5" y="-242" font-family="Ubuntu" font-size="10.00">1</text>
<polygon fill="#b2df8a" stroke="transparent" points="25.5,-222 25.5,-237 150.5,-237 150.5,-222 25.5,-222"/>
<text text-anchor="start" x="27.5" y="-227" font-family="Ubuntu" font-size="10.00">ASSET_OBJECTIVE</text>
<polygon fill="#b2df8a" stroke="transparent" points="150.5,-222 150.5,-237 160.5,-237 160.5,-222 150.5,-222"/>
<text text-anchor="start" x="152.5" y="-227" font-family="Ubuntu" font-size="10.00">2</text>
<polygon fill="#b2df8a" stroke="transparent" points="25.5,-207 25.5,-222 150.5,-222 150.5,-207 25.5,-207"/>
<text text-anchor="start" x="27.5" y="-212" font-family="Ubuntu" font-size="10.00">ASSET_DATA_SAMPLE</text>
<polygon fill="#b2df8a" stroke="transparent" points="150.5,-207 150.5,-222 160.5,-222 160.5,-207 150.5,-207"/>
<text text-anchor="start" x="152.5" y="-212" font-family="Ubuntu" font-size="10.00">3</text>
<polygon fill="#b2df8a" stroke="transparent" points="25.5,-192 25.5,-207 150.5,-207 150.5,-192 25.5,-192"/>
<text text-anchor="start" x="27.5" y="-197" font-family="Ubuntu" font-size="10.00">ASSET_DATA_MANAGER</text>
<polygon fill="#b2df8a" stroke="transparent" points="150.5,-192 150.5,-207 160.5,-207 160.5,-192 150.5,-192"/>
<text text-anchor="start" x="152.5" y="-197" font-family="Ubuntu" font-size="10.00">4</text>
<polygon fill="#b2df8a" stroke="transparent" points="25.5,-177 25.5,-192 150.5,-192 150.5,-177 25.5,-177"/>
<text text-anchor="start" x="27.5" y="-182" font-family="Ubuntu" font-size="10.00">ASSET_ALGO</text>
<polygon fill="#b2df8a" stroke="transparent" points="150.5,-177 150.5,-192 160.5,-192 160.5,-177 150.5,-177"/>
<text text-anchor="start" x="152.5" y="-182" font-family="Ubuntu" font-size="10.00">5</text>
<polygon fill="#b2df8a" stroke="transparent" points="25.5,-162 25.5,-177 150.5,-177 150.5,-162 25.5,-162"/>
<text text-anchor="start" x="27.5" y="-167" font-family="Ubuntu" font-size="10.00">ASSET_COMPUTE_TASK</text>
<polygon fill="#b2df8a" stroke="transparent" points="150.5,-162 150.5,-177 160.5,-177 160.5,-162 150.5,-162"/>
<text text-anchor="start" x="152.5" y="-167" font-family="Ubuntu" font-size="10.00">6</text>
<polygon fill="#b2df8a" stroke="transparent" points="25.5,-147 25.5,-162 150.5,-162 150.5,-147 25.5,-147"/>
<text text-anchor="start" x="27.5" y="-152" font-family="Ubuntu" font-size="10.00">ASSET_COMPUTE_PLAN</text>
<polygon fill="#b2df8a" stroke="transparent" points="150.5,-147 150.5,-162 160.5,-162 160.5,-147 150.5,-147"/>
<text text-anchor="start" x="152.5" y="-152" font-family="Ubuntu" font-size="10.00">7</text>
<polygon fill="#b2df8a" stroke="transparent" points="25.5,-132 25.5,-147 150.5,-147 150.5,-132 25.5,-132"/>
<text text-anchor="start" x="27.5" y="-137" font-family="Ubuntu" font-size="10.00">ASSET_MODEL</text>
<polygon fill="#b2df8a" stroke="transparent" points="150.5,-132 150.5,-147 160.5,-147 160.5,-132 150.5,-132"/>
<text text-anchor="start" x="152.5" y="-137" font-family="Ubuntu" font-size="10.00">8</text>
<polygon fill="#b2df8a" stroke="transparent" points="25.5,-117 25.5,-132 150.5,-132 150.5,-117 25.5,-117"/>
<text text-anchor="start" x="27.5" y="-122" font-family="Ubuntu" font-size="10.00">ASSET_PERFORMANCE</text>
<polygon fill="#b2df8a" stroke="transparent" points="150.5,-117 150.5,-132 160.5,-132 160.5,-117 150.5,-117"/>
<text text-anchor="start" x="152.5" y="-122" font-family="Ubuntu" font-size="10.00">9</text>
<polygon fill="none" stroke="black" points="24,-116.5 24,-283.5 161,-283.5 161,-116.5 24,-116.5"/>
</a>
</g>
</g>
<!-- Node_Ja_101 -->
<g id="node2" class="node">
<title>Node_Ja_101</title>
<g id="a_node2"><a xlink:title="SortOrder">
<polygon fill="#b2df8a" stroke="transparent" points="50,-43.5 50,-90.5 135,-90.5 135,-43.5 50,-43.5"/>
<polygon fill="#33a02c" stroke="transparent" points="51.5,-74 51.5,-89 134.5,-89 134.5,-74 51.5,-74"/>
<text text-anchor="start" x="58.5" y="-80" font-family="Ubuntu" font-size="10.00">enum </text>
<text text-anchor="start" x="86.5" y="-80" font-family="Ubuntu" font-weight="bold" font-size="10.00">SortOrder</text>
<polygon fill="#b2df8a" stroke="transparent" points="51.5,-59 51.5,-74 124.5,-74 124.5,-59 51.5,-59"/>
<text text-anchor="start" x="53.5" y="-64" font-family="Ubuntu" font-size="10.00">ASCENDING</text>
<polygon fill="#b2df8a" stroke="transparent" points="124.5,-59 124.5,-74 134.5,-74 134.5,-59 124.5,-59"/>
<text text-anchor="start" x="126.5" y="-64" font-family="Ubuntu" font-size="10.00">0</text>
<polygon fill="#b2df8a" stroke="transparent" points="51.5,-44 51.5,-59 124.5,-59 124.5,-44 51.5,-44"/>
<text text-anchor="start" x="53.5" y="-49" font-family="Ubuntu" font-size="10.00">DESCENDING</text>
<polygon fill="#b2df8a" stroke="transparent" points="124.5,-44 124.5,-59 134.5,-59 134.5,-44 124.5,-44"/>
<text text-anchor="start" x="126.5" y="-49" font-family="Ubuntu" font-size="10.00">1</text>
<polygon fill="none" stroke="black" points="50,-43.5 50,-90.5 135,-90.5 135,-43.5 50,-43.5"/>
</a>
</g>
</g>
<!-- Node_Ja_102 -->
<g id="node3" class="node">
<title>Node_Ja_102</title>
<g id="a_node3"><a xlink:title="orchestrator.Addressable">
<polygon fill="#fffaf0" stroke="transparent" points="31.5,-331.5 31.5,-378.5 153.5,-378.5 153.5,-331.5 31.5,-331.5"/>
<polygon fill="#e31a1c" stroke="transparent" points="32.5,-362 32.5,-377 152.5,-377 152.5,-362 32.5,-362"/>
<text text-anchor="start" x="91.5" y="-368" font-family="Ubuntu" font-weight="bold" font-size="10.00">Addressable</text>
<text text-anchor="start" x="38.5" y="-352" font-family="Ubuntu" font-size="10.00">1</text>
<text text-anchor="start" x="48.5" y="-352" font-family="Ubuntu" font-size="10.00">checksum</text>
<polygon fill="#a6cee3" stroke="transparent" points="123.5,-347 123.5,-362 152.5,-362 152.5,-347 123.5,-347"/>
<text text-anchor="start" x="125.5" y="-353" font-family="Ubuntu" font-style="italic" font-size="10.00">string</text>
<text text-anchor="start" x="38.5" y="-337" font-family="Ubuntu" font-size="10.00">2</text>
<text text-anchor="start" x="48.5" y="-337" font-family="Ubuntu" font-size="10.00">storage_address</text>
<polygon fill="#a6cee3" stroke="transparent" points="123.5,-332 123.5,-347 152.5,-347 152.5,-332 123.5,-332"/>
<text text-anchor="start" x="125.5" y="-338" font-family="Ubuntu" font-style="italic" font-size="10.00">string</text>
<polygon fill="none" stroke="black" points="31.5,-331.5 31.5,-378.5 153.5,-378.5 153.5,-331.5 31.5,-331.5"/>
</a>
</g>
</g>
<!-- Node_Ja_103 -->
<g id="node4" class="node">
<title>Node_Ja_103</title>
<g id="a_node4"><a xlink:title="orchestrator.Permissions">
<polygon fill="#fffaf0" stroke="transparent" points="32.5,-404.5 32.5,-451.5 152.5,-451.5 152.5,-404.5 32.5,-404.5"/>
<polygon fill="#e31a1c" stroke="transparent" points="33.5,-435 33.5,-450 151.5,-450 151.5,-435 33.5,-435"/>
<text text-anchor="start" x="90.5" y="-441" font-family="Ubuntu" font-weight="bold" font-size="10.00">Permissions</text>
<text text-anchor="start" x="39.5" y="-425" font-family="Ubuntu" font-size="10.00">1</text>
<text text-anchor="start" x="49.5" y="-425" font-family="Ubuntu" font-size="10.00">process</text>
<polygon fill="#fb9a99" stroke="transparent" points="93.5,-420 93.5,-435 151.5,-435 151.5,-420 93.5,-420"/>
<text text-anchor="start" x="95.5" y="-426" font-family="Ubuntu" font-weight="bold" font-size="10.00">Permission</text>
<text text-anchor="start" x="39.5" y="-410" font-family="Ubuntu" font-size="10.00">2</text>
<text text-anchor="start" x="49.5" y="-410" font-family="Ubuntu" font-size="10.00">download</text>
<polygon fill="#fb9a99" stroke="transparent" points="93.5,-405 93.5,-420 151.5,-420 151.5,-405 93.5,-405"/>
<text text-anchor="start" x="95.5" y="-411" font-family="Ubuntu" font-weight="bold" font-size="10.00">Permission</text>
<polygon fill="none" stroke="black" points="32.5,-404.5 32.5,-451.5 152.5,-451.5 152.5,-404.5 32.5,-404.5"/>
</a>
</g>
</g>
<!-- Node_Ja_104 -->
<g id="node5" class="node">
<title>Node_Ja_104</title>
<g id="a_node5"><a xlink:title="orchestrator.Permission">
<polygon fill="#fffaf0" stroke="transparent" points="213,-380.5 213,-427.5 342,-427.5 342,-380.5 213,-380.5"/>
<polygon fill="#e31a1c" stroke="transparent" points="214.5,-411 214.5,-426 341.5,-426 341.5,-411 214.5,-411"/>
<text text-anchor="start" x="285.5" y="-417" font-family="Ubuntu" font-weight="bold" font-size="10.00">Permission</text>
<text text-anchor="start" x="236.5" y="-401" font-family="Ubuntu" font-size="10.00">1</text>
<text text-anchor="start" x="246.5" y="-401" font-family="Ubuntu" font-size="10.00">public</text>
<polygon fill="#a6cee3" stroke="transparent" points="312.5,-396 312.5,-411 341.5,-411 341.5,-396 312.5,-396"/>
<text text-anchor="start" x="320.5" y="-402" font-family="Ubuntu" font-style="italic" font-size="10.00">bool</text>
<text text-anchor="start" x="216.5" y="-386" font-family="Ubuntu" font-size="10.00">[...]</text>
<text text-anchor="start" x="236.5" y="-386" font-family="Ubuntu" font-size="10.00">2</text>
<text text-anchor="start" x="246.5" y="-386" font-family="Ubuntu" font-size="10.00">authorized_ids</text>
<polygon fill="#a6cee3" stroke="transparent" points="312.5,-381 312.5,-396 341.5,-396 341.5,-381 312.5,-381"/>
<text text-anchor="start" x="314.5" y="-387" font-family="Ubuntu" font-style="italic" font-size="10.00">string</text>
<polygon fill="none" stroke="black" points="213,-380.5 213,-427.5 342,-427.5 342,-380.5 213,-380.5"/>
</a>
</g>
</g>
<!-- Node_Ja_103&#45;&gt;Node_Ja_104 -->
<g id="edge1" class="edge">
<title>Node_Ja_103:e&#45;&gt;Node_Ja_104:header</title>
<g id="a_edge1"><a xlink:title="Ja_103 &#45;&#45;&gt; Ja_104">
<path fill="none" stroke="#000000" d="M152.5,-427C176.1,-427 184.04,-421.04 203.36,-419.41"/>
<polygon fill="#000000" stroke="#000000" points="203.65,-422.9 213.5,-419 203.37,-415.9 203.65,-422.9"/>
</a>
</g>
</g>
<!-- Node_Ja_103&#45;&gt;Node_Ja_104 -->
<g id="edge2" class="edge">
<title>Node_Ja_103:e&#45;&gt;Node_Ja_104:header</title>
<g id="a_edge2"><a xlink:title="Ja_103 &#45;&#45;&gt; Ja_104">
<path fill="none" stroke="#000000" d="M152.5,-412C176.06,-412 184.06,-417.22 203.37,-418.64"/>
<polygon fill="#000000" stroke="#000000" points="203.38,-422.15 213.5,-419 203.63,-415.15 203.38,-422.15"/>
</a>
</g>
</g>
<!-- Node_Ja_105 -->
<g id="node6" class="node">
<title>Node_Ja_105</title>
<g id="a_node6"><a xlink:title="orchestrator.NewPermissions">
<polygon fill="#fffaf0" stroke="transparent" points="28,-477.5 28,-524.5 157,-524.5 157,-477.5 28,-477.5"/>
<polygon fill="#e31a1c" stroke="transparent" points="29.5,-508 29.5,-523 156.5,-523 156.5,-508 29.5,-508"/>
<text text-anchor="start" x="75.5" y="-514" font-family="Ubuntu" font-weight="bold" font-size="10.00">NewPermissions</text>
<text text-anchor="start" x="51.5" y="-498" font-family="Ubuntu" font-size="10.00">1</text>
<text text-anchor="start" x="61.5" y="-498" font-family="Ubuntu" font-size="10.00">public</text>
<polygon fill="#a6cee3" stroke="transparent" points="127.5,-493 127.5,-508 156.5,-508 156.5,-493 127.5,-493"/>
<text text-anchor="start" x="135.5" y="-499" font-family="Ubuntu" font-style="italic" font-size="10.00">bool</text>
<text text-anchor="start" x="31.5" y="-483" font-family="Ubuntu" font-size="10.00">[...]</text>
<text text-anchor="start" x="51.5" y="-483" font-family="Ubuntu" font-size="10.00">2</text>
<text text-anchor="start" x="61.5" y="-483" font-family="Ubuntu" font-size="10.00">authorized_ids</text>
<polygon fill="#a6cee3" stroke="transparent" points="127.5,-478 127.5,-493 156.5,-493 156.5,-478 127.5,-478"/>
<text text-anchor="start" x="129.5" y="-484" font-family="Ubuntu" font-style="italic" font-size="10.00">string</text>
<polygon fill="none" stroke="black" points="28,-477.5 28,-524.5 157,-524.5 157,-477.5 28,-477.5"/>
</a>
</g>
</g>
</g>
</svg>
