<?xml version="1.0" encoding="UTF-8" standalone="no"?>
<!DOCTYPE svg PUBLIC "-//W3C//DTD SVG 1.1//EN"
 "http://www.w3.org/Graphics/SVG/1.1/DTD/svg11.dtd">
<!-- Generated by graphviz version 2.47.3 (20210619.1520)
 -->
<!-- Title: protodot Pages: 1 -->
<svg width="1022pt" height="489pt"
 viewBox="0.00 0.00 1022.00 489.00" xmlns="http://www.w3.org/2000/svg" xmlns:xlink="http://www.w3.org/1999/xlink">
<g id="graph0" class="graph" transform="scale(1 1) rotate(0) translate(4 485)">
<title>protodot</title>
<g id="a_graph0"><a xlink:title="orchestrator">
<text text-anchor="middle" x="507" y="-7.8" font-family="Times,serif" font-size="14.00">orchestrator</text>
</a>
</g>
<g id="clust1" class="cluster">
<title>cluster_17479c12eb21</title>
<g id="a_clust1"><a xlink:title="orchestrator">
<polygon fill="#caff70" stroke="black" points="826,-72.5 826,-315.5 1006,-315.5 1006,-72.5 826,-72.5"/>
<text text-anchor="middle" x="916" y="-300.3" font-family="Times,serif" font-size="14.00">orchestrator</text>
</a>
</g>
</g>
<!-- Node_Ja_102 -->
<g id="node1" class="node">
<title>Node_Ja_102</title>
<g id="a_node1"><a xlink:title="orchestrator.NewComputePlan">
<polygon fill="#fffaf0" stroke="transparent" points="271,-400 271,-477 504,-477 504,-400 271,-400"/>
<polygon fill="#e31a1c" stroke="transparent" points="272.5,-460.5 272.5,-475.5 503.5,-475.5 503.5,-460.5 272.5,-460.5"/>
<text text-anchor="start" x="416.5" y="-466.5" font-family="Ubuntu" font-weight="bold" font-size="10.00">NewComputePlan</text>
<text text-anchor="start" x="278.5" y="-450.5" font-family="Ubuntu" font-size="10.00">1</text>
<text text-anchor="start" x="288.5" y="-450.5" font-family="Ubuntu" font-size="10.00">key</text>
<polygon fill="#a6cee3" stroke="transparent" points="412.5,-445.5 412.5,-460.5 503.5,-460.5 503.5,-445.5 412.5,-445.5"/>
<text text-anchor="start" x="476.5" y="-451.5" font-family="Ubuntu" font-style="italic" font-size="10.00">string</text>
<text text-anchor="start" x="278.5" y="-435.5" font-family="Ubuntu" font-size="10.00">2</text>
<text text-anchor="start" x="288.5" y="-435.5" font-family="Ubuntu" font-size="10.00">tag</text>
<polygon fill="#a6cee3" stroke="transparent" points="412.5,-430.5 412.5,-445.5 503.5,-445.5 503.5,-430.5 412.5,-430.5"/>
<text text-anchor="start" x="476.5" y="-436.5" font-family="Ubuntu" font-style="italic" font-size="10.00">string</text>
<text text-anchor="start" x="278.5" y="-420.5" font-family="Ubuntu" font-size="10.00">3</text>
<text text-anchor="start" x="288.5" y="-420.5" font-family="Ubuntu" font-size="10.00">metadata</text>
<polygon fill="#a6cee3" stroke="transparent" points="412.5,-415.5 412.5,-430.5 503.5,-430.5 503.5,-415.5 412.5,-415.5"/>
<text text-anchor="start" x="414.5" y="-421.5" font-family="Ubuntu" font-size="10.00">map&lt;string, </text>
<text text-anchor="start" x="469.5" y="-421.5" font-family="Ubuntu" font-style="italic" font-size="10.00">string</text>
<text text-anchor="start" x="494.5" y="-421.5" font-family="Ubuntu" font-size="10.00">&gt;</text>
<text text-anchor="start" x="278.5" y="-405.5" font-family="Ubuntu" font-size="10.00">4</text>
<text text-anchor="start" x="288.5" y="-405.5" font-family="Ubuntu" font-size="10.00">delete_intermediary_models</text>
<polygon fill="#a6cee3" stroke="transparent" points="412.5,-400.5 412.5,-415.5 503.5,-415.5 503.5,-400.5 412.5,-400.5"/>
<text text-anchor="start" x="482.5" y="-406.5" font-family="Ubuntu" font-style="italic" font-size="10.00">bool</text>
<polygon fill="none" stroke="black" points="271,-400 271,-477 504,-477 504,-400 271,-400"/>
</a>
</g>
</g>
<!-- Node_Ja_103 -->
<g id="node2" class="node">
<title>Node_Ja_103</title>
<g id="a_node2"><a xlink:title="orchestrator.GetComputePlanParam">
<polygon fill="#fffaf0" stroke="transparent" points="329.5,-303.5 329.5,-335.5 445.5,-335.5 445.5,-303.5 329.5,-303.5"/>
<polygon fill="#e31a1c" stroke="transparent" points="330.5,-319.5 330.5,-334.5 444.5,-334.5 444.5,-319.5 330.5,-319.5"/>
<text text-anchor="start" x="332.5" y="-325.5" font-family="Ubuntu" font-weight="bold" font-size="10.00">GetComputePlanParam</text>
<text text-anchor="start" x="374.5" y="-309.5" font-family="Ubuntu" font-size="10.00">1</text>
<text text-anchor="start" x="384.5" y="-309.5" font-family="Ubuntu" font-size="10.00">key</text>
<polygon fill="#a6cee3" stroke="transparent" points="408.5,-304.5 408.5,-319.5 444.5,-319.5 444.5,-304.5 408.5,-304.5"/>
<text text-anchor="start" x="417.5" y="-310.5" font-family="Ubuntu" font-style="italic" font-size="10.00">string</text>
<polygon fill="none" stroke="black" points="329.5,-303.5 329.5,-335.5 445.5,-335.5 445.5,-303.5 329.5,-303.5"/>
</a>
</g>
</g>
<!-- Node_Ja_101 -->
<g id="node3" class="node">
<title>Node_Ja_101</title>
<g id="a_node3"><a xlink:title="orchestrator.ComputePlan">
<polygon fill="#fffaf0" stroke="transparent" points="556,-191 556,-328 790,-328 790,-191 556,-191"/>
<polygon fill="#e31a1c" stroke="transparent" points="557,-311.5 557,-326.5 789,-326.5 789,-311.5 557,-311.5"/>
<text text-anchor="start" x="723" y="-317.5" font-family="Ubuntu" font-weight="bold" font-size="10.00">ComputePlan</text>
<text text-anchor="start" x="563" y="-301.5" font-family="Ubuntu" font-size="10.00">1</text>
<text text-anchor="start" x="573" y="-301.5" font-family="Ubuntu" font-size="10.00">key</text>
<polygon fill="#a6cee3" stroke="transparent" points="697,-296.5 697,-311.5 789,-311.5 789,-296.5 697,-296.5"/>
<text text-anchor="start" x="762" y="-302.5" font-family="Ubuntu" font-style="italic" font-size="10.00">string</text>
<text text-anchor="start" x="563" y="-286.5" font-family="Ubuntu" font-size="10.00">2</text>
<text text-anchor="start" x="573" y="-286.5" font-family="Ubuntu" font-size="10.00">tag</text>
<polygon fill="#a6cee3" stroke="transparent" points="697,-281.5 697,-296.5 789,-296.5 789,-281.5 697,-281.5"/>
<text text-anchor="start" x="762" y="-287.5" font-family="Ubuntu" font-style="italic" font-size="10.00">string</text>
<text text-anchor="start" x="563" y="-271.5" font-family="Ubuntu" font-size="10.00">3</text>
<text text-anchor="start" x="573" y="-271.5" font-family="Ubuntu" font-size="10.00">owner</text>
<polygon fill="#a6cee3" stroke="transparent" points="697,-266.5 697,-281.5 789,-281.5 789,-266.5 697,-266.5"/>
<text text-anchor="start" x="762" y="-272.5" font-family="Ubuntu" font-style="italic" font-size="10.00">string</text>
<text text-anchor="start" x="563" y="-256.5" font-family="Ubuntu" font-size="10.00">4</text>
<text text-anchor="start" x="573" y="-256.5" font-family="Ubuntu" font-size="10.00">metadata</text>
<polygon fill="#a6cee3" stroke="transparent" points="697,-251.5 697,-266.5 789,-266.5 789,-251.5 697,-251.5"/>
<text text-anchor="start" x="700" y="-257.5" font-family="Ubuntu" font-size="10.00">map&lt;string, </text>
<text text-anchor="start" x="755" y="-257.5" font-family="Ubuntu" font-style="italic" font-size="10.00">string</text>
<text text-anchor="start" x="780" y="-257.5" font-family="Ubuntu" font-size="10.00">&gt;</text>
<text text-anchor="start" x="563" y="-241.5" font-family="Ubuntu" font-size="10.00">5</text>
<text text-anchor="start" x="573" y="-241.5" font-family="Ubuntu" font-size="10.00">done_count</text>
<polygon fill="#a6cee3" stroke="transparent" points="697,-236.5 697,-251.5 789,-251.5 789,-236.5 697,-236.5"/>
<text text-anchor="start" x="760" y="-242.5" font-family="Ubuntu" font-style="italic" font-size="10.00">uint32</text>
<text text-anchor="start" x="563" y="-226.5" font-family="Ubuntu" font-size="10.00">6</text>
<text text-anchor="start" x="573" y="-226.5" font-family="Ubuntu" font-size="10.00">task_count</text>
<polygon fill="#a6cee3" stroke="transparent" points="697,-221.5 697,-236.5 789,-236.5 789,-221.5 697,-221.5"/>
<text text-anchor="start" x="760" y="-227.5" font-family="Ubuntu" font-style="italic" font-size="10.00">uint32</text>
<text text-anchor="start" x="563" y="-211.5" font-family="Ubuntu" font-size="10.00">8</text>
<text text-anchor="start" x="573" y="-211.5" font-family="Ubuntu" font-size="10.00">status</text>
<polygon fill="#b2df8a" stroke="transparent" points="697,-206.5 697,-221.5 789,-221.5 789,-206.5 697,-206.5"/>
<text text-anchor="start" x="699" y="-212.5" font-family="Ubuntu" text-decoration="underline" font-size="10.00">ComputePlanStatus</text>
<text text-anchor="start" x="563" y="-196.5" font-family="Ubuntu" font-size="10.00">7</text>
<text text-anchor="start" x="573" y="-196.5" font-family="Ubuntu" font-size="10.00">delete_intermediary_models</text>
<polygon fill="#a6cee3" stroke="transparent" points="697,-191.5 697,-206.5 789,-206.5 789,-191.5 697,-191.5"/>
<text text-anchor="start" x="768" y="-197.5" font-family="Ubuntu" font-style="italic" font-size="10.00">bool</text>
<polygon fill="none" stroke="black" points="556,-191 556,-328 790,-328 790,-191 556,-191"/>
</a>
</g>
</g>
<!-- Node_Ja_100 -->
<g id="node10" class="node">
<title>Node_Ja_100</title>
<g id="a_node10"><a xlink:title="ComputePlanStatus">
<polygon fill="#b2df8a" stroke="transparent" points="842,-158.5 842,-280.5 990,-280.5 990,-158.5 842,-158.5"/>
<polygon fill="#33a02c" stroke="transparent" points="843,-264.5 843,-279.5 989,-279.5 989,-264.5 843,-264.5"/>
<text text-anchor="start" x="865" y="-270.5" font-family="Ubuntu" font-size="10.00">enum </text>
<text text-anchor="start" x="893" y="-270.5" font-family="Ubuntu" font-weight="bold" font-size="10.00">ComputePlanStatus</text>
<polygon fill="#b2df8a" stroke="transparent" points="843,-249.5 843,-264.5 979,-264.5 979,-249.5 843,-249.5"/>
<text text-anchor="start" x="845" y="-254.5" font-family="Ubuntu" font-size="10.00">PLAN_STATUS_UNKNOWN</text>
<polygon fill="#b2df8a" stroke="transparent" points="979,-249.5 979,-264.5 989,-264.5 989,-249.5 979,-249.5"/>
<text text-anchor="start" x="981" y="-254.5" font-family="Ubuntu" font-size="10.00">0</text>
<polygon fill="#b2df8a" stroke="transparent" points="843,-234.5 843,-249.5 979,-249.5 979,-234.5 843,-234.5"/>
<text text-anchor="start" x="845" y="-239.5" font-family="Ubuntu" font-size="10.00">PLAN_STATUS_WAITING</text>
<polygon fill="#b2df8a" stroke="transparent" points="979,-234.5 979,-249.5 989,-249.5 989,-234.5 979,-234.5"/>
<text text-anchor="start" x="981" y="-239.5" font-family="Ubuntu" font-size="10.00">1</text>
<polygon fill="#b2df8a" stroke="transparent" points="843,-219.5 843,-234.5 979,-234.5 979,-219.5 843,-219.5"/>
<text text-anchor="start" x="845" y="-224.5" font-family="Ubuntu" font-size="10.00">PLAN_STATUS_TODO</text>
<polygon fill="#b2df8a" stroke="transparent" points="979,-219.5 979,-234.5 989,-234.5 989,-219.5 979,-219.5"/>
<text text-anchor="start" x="981" y="-224.5" font-family="Ubuntu" font-size="10.00">2</text>
<polygon fill="#b2df8a" stroke="transparent" points="843,-204.5 843,-219.5 979,-219.5 979,-204.5 843,-204.5"/>
<text text-anchor="start" x="845" y="-209.5" font-family="Ubuntu" font-size="10.00">PLAN_STATUS_DOING</text>
<polygon fill="#b2df8a" stroke="transparent" points="979,-204.5 979,-219.5 989,-219.5 989,-204.5 979,-204.5"/>
<text text-anchor="start" x="981" y="-209.5" font-family="Ubuntu" font-size="10.00">3</text>
<polygon fill="#b2df8a" stroke="transparent" points="843,-189.5 843,-204.5 979,-204.5 979,-189.5 843,-189.5"/>
<text text-anchor="start" x="845" y="-194.5" font-family="Ubuntu" font-size="10.00">PLAN_STATUS_DONE</text>
<polygon fill="#b2df8a" stroke="transparent" points="979,-189.5 979,-204.5 989,-204.5 989,-189.5 979,-189.5"/>
<text text-anchor="start" x="981" y="-194.5" font-family="Ubuntu" font-size="10.00">4</text>
<polygon fill="#b2df8a" stroke="transparent" points="843,-174.5 843,-189.5 979,-189.5 979,-174.5 843,-174.5"/>
<text text-anchor="start" x="845" y="-179.5" font-family="Ubuntu" font-size="10.00">PLAN_STATUS_CANCELED</text>
<polygon fill="#b2df8a" stroke="transparent" points="979,-174.5 979,-189.5 989,-189.5 989,-174.5 979,-174.5"/>
<text text-anchor="start" x="981" y="-179.5" font-family="Ubuntu" font-size="10.00">5</text>
<polygon fill="#b2df8a" stroke="transparent" points="843,-159.5 843,-174.5 979,-174.5 979,-159.5 843,-159.5"/>
<text text-anchor="start" x="845" y="-164.5" font-family="Ubuntu" font-size="10.00">PLAN_STATUS_FAILED</text>
<polygon fill="#b2df8a" stroke="transparent" points="979,-159.5 979,-174.5 989,-174.5 989,-159.5 979,-159.5"/>
<text text-anchor="start" x="981" y="-164.5" font-family="Ubuntu" font-size="10.00">6</text>
<polygon fill="none" stroke="black" points="842,-158.5 842,-280.5 990,-280.5 990,-158.5 842,-158.5"/>
</a>
</g>
</g>
<!-- Node_Ja_101&#45;&gt;Node_Ja_100 -->
<g id="edge7" class="edge">
<title>Node_Ja_101:e&#45;&gt;Node_Ja_100</title>
<g id="a_edge7"><a xlink:title="Ja_101 &#45;&#45;&gt; Ja_100">
<path fill="none" stroke="#008000" d="M790,-213.5C800.81,-213.5 812.14,-213.73 823.39,-214.09"/>
<polygon fill="#008000" stroke="#008000" points="823.55,-217.6 833.67,-214.46 823.8,-210.6 823.55,-217.6"/>
</a>
</g>
</g>
<!-- Node_Ja_106 -->
<g id="node4" class="node">
<title>Node_Ja_106</title>
<g id="a_node4"><a xlink:title="orchestrator.ApplyPlanActionResponse">
<polygon fill="#fffaf0" stroke="transparent" points="320.5,-179 320.5,-196 454.5,-196 454.5,-179 320.5,-179"/>
<polygon fill="#e31a1c" stroke="transparent" points="321.5,-179.5 321.5,-194.5 453.5,-194.5 453.5,-179.5 321.5,-179.5"/>
<text text-anchor="start" x="324.5" y="-185.5" font-family="Ubuntu" font-weight="bold" font-size="10.00">ApplyPlanActionResponse</text>
<polygon fill="none" stroke="black" points="320.5,-179 320.5,-196 454.5,-196 454.5,-179 320.5,-179"/>
</a>
</g>
</g>
<!-- Node_Ja_107 -->
<g id="node5" class="node">
<title>Node_Ja_107</title>
<g id="a_node5"><a xlink:title="orchestrator.QueryPlansParam">
<polygon fill="#fffaf0" stroke="transparent" points="336.5,-100 336.5,-147 438.5,-147 438.5,-100 336.5,-100"/>
<polygon fill="#e31a1c" stroke="transparent" points="337.5,-130.5 337.5,-145.5 437.5,-145.5 437.5,-130.5 337.5,-130.5"/>
<text text-anchor="start" x="350.5" y="-136.5" font-family="Ubuntu" font-weight="bold" font-size="10.00">QueryPlansParam</text>
<text text-anchor="start" x="343.5" y="-120.5" font-family="Ubuntu" font-size="10.00">1</text>
<text text-anchor="start" x="353.5" y="-120.5" font-family="Ubuntu" font-size="10.00">page_token</text>
<polygon fill="#a6cee3" stroke="transparent" points="406.5,-115.5 406.5,-130.5 437.5,-130.5 437.5,-115.5 406.5,-115.5"/>
<text text-anchor="start" x="410.5" y="-121.5" font-family="Ubuntu" font-style="italic" font-size="10.00">string</text>
<text text-anchor="start" x="343.5" y="-105.5" font-family="Ubuntu" font-size="10.00">2</text>
<text text-anchor="start" x="353.5" y="-105.5" font-family="Ubuntu" font-size="10.00">page_size</text>
<polygon fill="#a6cee3" stroke="transparent" points="406.5,-100.5 406.5,-115.5 437.5,-115.5 437.5,-100.5 406.5,-100.5"/>
<text text-anchor="start" x="408.5" y="-106.5" font-family="Ubuntu" font-style="italic" font-size="10.00">uint32</text>
<polygon fill="none" stroke="black" points="336.5,-100 336.5,-147 438.5,-147 438.5,-100 336.5,-100"/>
</a>
</g>
</g>
<!-- Node_Ja_108 -->
<g id="node6" class="node">
<title>Node_Ja_108</title>
<g id="a_node6"><a xlink:title="orchestrator.QueryPlansResponse">
<polygon fill="#fffaf0" stroke="transparent" points="298,-27 298,-74 477,-74 477,-27 298,-27"/>
<polygon fill="#e31a1c" stroke="transparent" points="299.5,-57.5 299.5,-72.5 476.5,-72.5 476.5,-57.5 299.5,-57.5"/>
<text text-anchor="start" x="373.5" y="-63.5" font-family="Ubuntu" font-weight="bold" font-size="10.00">QueryPlansResponse</text>
<text text-anchor="start" x="301.5" y="-47.5" font-family="Ubuntu" font-size="10.00">[...]</text>
<text text-anchor="start" x="321.5" y="-47.5" font-family="Ubuntu" font-size="10.00">1</text>
<text text-anchor="start" x="331.5" y="-47.5" font-family="Ubuntu" font-size="10.00">plans</text>
<polygon fill="#fb9a99" stroke="transparent" points="408.5,-42.5 408.5,-57.5 476.5,-57.5 476.5,-42.5 408.5,-42.5"/>
<text text-anchor="start" x="410.5" y="-48.5" font-family="Ubuntu" font-weight="bold" font-size="10.00">ComputePlan</text>
<text text-anchor="start" x="321.5" y="-32.5" font-family="Ubuntu" font-size="10.00">2</text>
<text text-anchor="start" x="331.5" y="-32.5" font-family="Ubuntu" font-size="10.00">next_page_token</text>
<polygon fill="#a6cee3" stroke="transparent" points="408.5,-27.5 408.5,-42.5 476.5,-42.5 476.5,-27.5 408.5,-27.5"/>
<text text-anchor="start" x="449.5" y="-33.5" font-family="Ubuntu" font-style="italic" font-size="10.00">string</text>
<polygon fill="none" stroke="black" points="298,-27 298,-74 477,-74 477,-27 298,-27"/>
</a>
</g>
</g>
<!-- Node_Ja_108&#45;&gt;Node_Ja_101 -->
<g id="edge2" class="edge">
<title>Node_Ja_108:e&#45;&gt;Node_Ja_101:header</title>
<g id="a_edge2"><a xlink:title="Ja_108 &#45;&#45;&gt; Ja_101">
<path fill="none" stroke="#000000" d="M477.5,-49.5C499.98,-49.5 501.85,-66.44 512,-86.5 534.12,-130.21 507.6,-294.03 546.1,-316.85"/>
<polygon fill="#000000" stroke="#000000" points="545.44,-320.3 556,-319.5 547.24,-313.54 545.44,-320.3"/>
</a>
</g>
</g>
<!-- Node_Ja_105 -->
<g id="node7" class="node">
<title>Node_Ja_105</title>
<g id="a_node7"><a xlink:title="orchestrator.ApplyPlanActionParam">
<polygon fill="#fffaf0" stroke="transparent" points="603.5,-112 603.5,-159 742.5,-159 742.5,-112 603.5,-112"/>
<polygon fill="#e31a1c" stroke="transparent" points="605,-142.5 605,-157.5 742,-157.5 742,-142.5 605,-142.5"/>
<text text-anchor="start" x="630" y="-148.5" font-family="Ubuntu" font-weight="bold" font-size="10.00">ApplyPlanActionParam</text>
<text text-anchor="start" x="611" y="-132.5" font-family="Ubuntu" font-size="10.00">1</text>
<text text-anchor="start" x="621" y="-132.5" font-family="Ubuntu" font-size="10.00">key</text>
<polygon fill="#a6cee3" stroke="transparent" points="650,-127.5 650,-142.5 742,-142.5 742,-127.5 650,-127.5"/>
<text text-anchor="start" x="715" y="-133.5" font-family="Ubuntu" font-style="italic" font-size="10.00">string</text>
<text text-anchor="start" x="611" y="-117.5" font-family="Ubuntu" font-size="10.00">2</text>
<text text-anchor="start" x="621" y="-117.5" font-family="Ubuntu" font-size="10.00">action</text>
<polygon fill="#b2df8a" stroke="transparent" points="650,-112.5 650,-127.5 742,-127.5 742,-112.5 650,-112.5"/>
<text text-anchor="start" x="652" y="-118.5" font-family="Ubuntu" text-decoration="underline" font-size="10.00">ComputePlanAction</text>
<polygon fill="none" stroke="black" points="603.5,-112 603.5,-159 742.5,-159 742.5,-112 603.5,-112"/>
</a>
</g>
</g>
<!-- Node_Ja_104 -->
<g id="node9" class="node">
<title>Node_Ja_104</title>
<g id="a_node9"><a xlink:title="ComputePlanAction">
<polygon fill="#b2df8a" stroke="transparent" points="842.5,-85 842.5,-132 989.5,-132 989.5,-85 842.5,-85"/>
<polygon fill="#33a02c" stroke="transparent" points="844,-115.5 844,-130.5 989,-130.5 989,-115.5 844,-115.5"/>
<text text-anchor="start" x="864" y="-121.5" font-family="Ubuntu" font-size="10.00">enum </text>
<text text-anchor="start" x="892" y="-121.5" font-family="Ubuntu" font-weight="bold" font-size="10.00">ComputePlanAction</text>
<polygon fill="#b2df8a" stroke="transparent" points="844,-100.5 844,-115.5 979,-115.5 979,-100.5 844,-100.5"/>
<text text-anchor="start" x="846" y="-105.5" font-family="Ubuntu" font-size="10.00">PLAN_ACTION_UNKNOWN</text>
<polygon fill="#b2df8a" stroke="transparent" points="979,-100.5 979,-115.5 989,-115.5 989,-100.5 979,-100.5"/>
<text text-anchor="start" x="981" y="-105.5" font-family="Ubuntu" font-size="10.00">0</text>
<polygon fill="#b2df8a" stroke="transparent" points="844,-85.5 844,-100.5 979,-100.5 979,-85.5 844,-85.5"/>
<text text-anchor="start" x="846" y="-90.5" font-family="Ubuntu" font-size="10.00">PLAN_ACTION_CANCELED</text>
<polygon fill="#b2df8a" stroke="transparent" points="979,-85.5 979,-100.5 989,-100.5 989,-85.5 979,-85.5"/>
<text text-anchor="start" x="981" y="-90.5" font-family="Ubuntu" font-size="10.00">1</text>
<polygon fill="none" stroke="black" points="842.5,-85 842.5,-132 989.5,-132 989.5,-85 842.5,-85"/>
</a>
</g>
</g>
<!-- Node_Ja_105&#45;&gt;Node_Ja_104 -->
<g id="edge8" class="edge">
<title>Node_Ja_105:e&#45;&gt;Node_Ja_104</title>
<g id="a_edge8"><a xlink:title="Ja_105 &#45;&#45;&gt; Ja_104">
<path fill="none" stroke="#008000" d="M743,-119.5C769.28,-119.5 797.78,-118.2 823.88,-116.5"/>
<polygon fill="#008000" stroke="#008000" points="824.39,-119.98 834.13,-115.81 823.92,-112.99 824.39,-119.98"/>
</a>
</g>
</g>
<!-- Node_Ja_109 -->
<g id="node8" class="node">
<title>Node_Ja_109</title>
<g id="a_node8"><a xlink:title="ComputePlanService">
<polygon fill="#ffd700" stroke="transparent" points="8,-192 8,-329 219,-329 219,-192 8,-192"/>
<polygon fill="#ff7f50" stroke="transparent" points="9.5,-312.5 9.5,-327.5 218.5,-327.5 218.5,-312.5 9.5,-312.5"/>
<text text-anchor="start" x="117.5" y="-318.5" font-family="Ubuntu" font-weight="bold" font-size="10.00">ComputePlanService</text>
<text text-anchor="start" x="11.5" y="-303.5" font-family="Ubuntu" font-weight="bold" font-size="10.00">RegisterPlan</text>
<text text-anchor="start" x="136.5" y="-302.5" font-family="Ubuntu" font-size="10.00">NewComputePlan</text>
<polygon fill="#ff7f50" stroke="transparent" points="93.5,-282.5 93.5,-297.5 97.5,-297.5 97.5,-282.5 93.5,-282.5"/>
<polygon fill="#ff7f50" stroke="transparent" points="97.5,-282.5 97.5,-297.5 218.5,-297.5 218.5,-282.5 97.5,-282.5"/>
<text text-anchor="start" x="156.5" y="-287.5" font-family="Ubuntu" font-size="10.00">ComputePlan</text>
<text text-anchor="start" x="11.5" y="-273.5" font-family="Ubuntu" font-weight="bold" font-size="10.00">GetPlan</text>
<text text-anchor="start" x="112.5" y="-272.5" font-family="Ubuntu" font-size="10.00">GetComputePlanParam</text>
<polygon fill="#ff7f50" stroke="transparent" points="93.5,-252.5 93.5,-267.5 97.5,-267.5 97.5,-252.5 93.5,-252.5"/>
<polygon fill="#ff7f50" stroke="transparent" points="97.5,-252.5 97.5,-267.5 218.5,-267.5 218.5,-252.5 97.5,-252.5"/>
<text text-anchor="start" x="156.5" y="-257.5" font-family="Ubuntu" font-size="10.00">ComputePlan</text>
<text text-anchor="start" x="11.5" y="-243.5" font-family="Ubuntu" font-weight="bold" font-size="10.00">ApplyPlanAction</text>
<text text-anchor="start" x="115.5" y="-242.5" font-family="Ubuntu" font-size="10.00">ApplyPlanActionParam</text>
<polygon fill="#ff7f50" stroke="transparent" points="93.5,-222.5 93.5,-237.5 97.5,-237.5 97.5,-222.5 93.5,-222.5"/>
<polygon fill="#ff7f50" stroke="transparent" points="97.5,-222.5 97.5,-237.5 218.5,-237.5 218.5,-222.5 97.5,-222.5"/>
<text text-anchor="start" x="99.5" y="-227.5" font-family="Ubuntu" font-size="10.00">ApplyPlanActionResponse</text>
<text text-anchor="start" x="11.5" y="-213.5" font-family="Ubuntu" font-weight="bold" font-size="10.00">QueryPlans</text>
<text text-anchor="start" x="136.5" y="-212.5" font-family="Ubuntu" font-size="10.00">QueryPlansParam</text>
<polygon fill="#ff7f50" stroke="transparent" points="93.5,-192.5 93.5,-207.5 97.5,-207.5 97.5,-192.5 93.5,-192.5"/>
<polygon fill="#ff7f50" stroke="transparent" points="97.5,-192.5 97.5,-207.5 218.5,-207.5 218.5,-192.5 97.5,-192.5"/>
<text text-anchor="start" x="120.5" y="-197.5" font-family="Ubuntu" font-size="10.00">QueryPlansResponse</text>
<polygon fill="none" stroke="black" points="8,-192 8,-329 219,-329 219,-192 8,-192"/>
</a>
</g>
</g>
<!-- Node_Ja_109&#45;&gt;Node_Ja_102 -->
<g id="edge9" class="edge">
<title>Node_Ja_109:e&#45;&gt;Node_Ja_102:header</title>
<g id="a_edge9"><a xlink:title="Ja_109 &#45;&#45;&gt; Ja_102">
<path fill="none" stroke="#000000" d="M219.5,-305.5C291.68,-305.5 205.17,-452.37 261.23,-467.28"/>
<polygon fill="#000000" stroke="#000000" points="261.16,-470.8 271.5,-468.5 261.98,-463.85 261.16,-470.8"/>
</a>
</g>
</g>
<!-- Node_Ja_109&#45;&gt;Node_Ja_103 -->
<g id="edge4" class="edge">
<title>Node_Ja_109:e&#45;&gt;Node_Ja_103:header</title>
<g id="a_edge4"><a xlink:title="Ja_109 &#45;&#45;&gt; Ja_103">
<path fill="none" stroke="#000000" d="M219.5,-275.5C269.99,-275.5 274.95,-320.82 319.39,-326.84"/>
<polygon fill="#000000" stroke="#000000" points="319.29,-330.34 329.5,-327.5 319.75,-323.36 319.29,-330.34"/>
</a>
</g>
</g>
<!-- Node_Ja_109&#45;&gt;Node_Ja_101 -->
<g id="edge3" class="edge">
<title>Node_Ja_109:e&#45;&gt;Node_Ja_101:header</title>
<g id="a_edge3"><a xlink:title="Ja_109 &#45;&#45;&gt; Ja_101">
<path fill="none" stroke="#000000" d="M219.5,-290.5C251.72,-290.5 234.18,-334.09 263,-348.5 361.98,-397.99 406,-380.29 512,-348.5 530.58,-342.93 532.5,-326.7 545.91,-321.28"/>
<polygon fill="#000000" stroke="#000000" points="546.76,-324.69 556,-319.5 545.54,-317.79 546.76,-324.69"/>
</a>
</g>
</g>
<!-- Node_Ja_109&#45;&gt;Node_Ja_101 -->
<g id="edge5" class="edge">
<title>Node_Ja_109:e&#45;&gt;Node_Ja_101:header</title>
<g id="a_edge5"><a xlink:title="Ja_109 &#45;&#45;&gt; Ja_101">
<path fill="none" stroke="#000000" d="M219.5,-259.5C350.23,-259.5 388.94,-246.39 512,-290.5 530.26,-297.04 532.39,-312.64 545.88,-317.8"/>
<polygon fill="#000000" stroke="#000000" points="545.56,-321.3 556,-319.5 546.72,-314.4 545.56,-321.3"/>
</a>
</g>
</g>
<!-- Node_Ja_109&#45;&gt;Node_Ja_106 -->
<g id="edge6" class="edge">
<title>Node_Ja_109:e&#45;&gt;Node_Ja_106:header</title>
<g id="a_edge6"><a xlink:title="Ja_109 &#45;&#45;&gt; Ja_106">
<path fill="none" stroke="#000000" d="M219.5,-229.5C225.96,-229.5 299.72,-209.93 347.03,-197.19"/>
<polygon fill="#000000" stroke="#000000" points="347.94,-200.57 356.69,-194.59 346.12,-193.81 347.94,-200.57"/>
</a>
</g>
</g>
<!-- Node_Ja_109&#45;&gt;Node_Ja_107 -->
<g id="edge1" class="edge">
<title>Node_Ja_109:e&#45;&gt;Node_Ja_107:header</title>
<g id="a_edge1"><a xlink:title="Ja_109 &#45;&#45;&gt; Ja_107">
<path fill="none" stroke="#000000" d="M219.5,-214.5C250.32,-214.5 237.42,-177.69 263,-160.5 288.32,-143.49 299.87,-139.31 326.43,-138.61"/>
<polygon fill="#000000" stroke="#000000" points="326.54,-142.11 336.5,-138.5 326.46,-135.11 326.54,-142.11"/>
</a>
</g>
</g>
<!-- Node_Ja_109&#45;&gt;Node_Ja_108 -->
<g id="edge11" class="edge">
<title>Node_Ja_109:e&#45;&gt;Node_Ja_108:header</title>
<g id="a_edge11"><a xlink:title="Ja_109 &#45;&#45;&gt; Ja_108">
<path fill="none" stroke="#000000" d="M219.5,-199.5C273.31,-199.5 228.25,-127.59 263,-86.5 272.34,-75.46 277.63,-68.77 288.45,-66.43"/>
<polygon fill="#000000" stroke="#000000" points="288.87,-69.91 298.5,-65.5 288.22,-62.94 288.87,-69.91"/>
</a>
</g>
</g>
<!-- Node_Ja_109&#45;&gt;Node_Ja_105 -->
<g id="edge10" class="edge">
<title>Node_Ja_109:e&#45;&gt;Node_Ja_105:header</title>
<g id="a_edge10"><a xlink:title="Ja_109 &#45;&#45;&gt; Ja_105">
<path fill="none" stroke="#000000" d="M219.5,-244.5C350.18,-244.5 394.36,-271.42 512,-214.5 532.65,-204.51 529.38,-190.91 548,-177.5 567.36,-163.56 574.43,-153.57 593.79,-151.09"/>
<polygon fill="#000000" stroke="#000000" points="594.22,-154.58 604,-150.5 593.81,-147.59 594.22,-154.58"/>
</a>
</g>
</g>
</g>
</svg>
