<?xml version="1.0" encoding="UTF-8" standalone="no"?>
<!DOCTYPE svg PUBLIC "-//W3C//DTD SVG 1.1//EN"
 "http://www.w3.org/Graphics/SVG/1.1/DTD/svg11.dtd">
<!-- Generated by graphviz version 2.47.3 (20210619.1520)
 -->
<!-- Title: protodot Pages: 1 -->
<svg width="1118pt" height="654pt"
 viewBox="0.00 0.00 1118.00 653.50" xmlns="http://www.w3.org/2000/svg" xmlns:xlink="http://www.w3.org/1999/xlink">
<g id="graph0" class="graph" transform="scale(1 1) rotate(0) translate(4 649.5)">
<title>protodot</title>
<g id="a_graph0"><a xlink:title="orchestrator">
<text text-anchor="middle" x="555" y="-7.8" font-family="Times,serif" font-size="14.00">orchestrator</text>
</a>
</g>
<g id="clust1" class="cluster">
<title>cluster_17479c12eb21</title>
<g id="a_clust1"><a xlink:title="orchestrator">
<polygon fill="#caff70" stroke="black" points="48,-349.5 48,-637.5 217,-637.5 217,-349.5 48,-349.5"/>
<text text-anchor="middle" x="132.5" y="-622.3" font-family="Times,serif" font-size="14.00">orchestrator</text>
</a>
</g>
</g>
<g id="clust2" class="cluster">
<title>cluster_308971b5abce</title>
<g id="a_clust2"><a xlink:title="common.proto">
<polygon fill="#caff70" stroke="black" points="760,-134.5 760,-375.5 1102,-375.5 1102,-134.5 760,-134.5"/>
<text text-anchor="middle" x="931" y="-360.3" font-family="Times,serif" font-size="14.00">common.proto</text>
</a>
</g>
</g>
<!-- Node_Ja_107 -->
<g id="node1" class="node">
<title>Node_Ja_107</title>
<g id="a_node1"><a xlink:title="orchestrator.NewDataManager">
<polygon fill="#fffaf0" stroke="transparent" points="537,-264 537,-401 724,-401 724,-264 537,-264"/>
<polygon fill="#e31a1c" stroke="transparent" points="538.5,-384.5 538.5,-399.5 723.5,-399.5 723.5,-384.5 538.5,-384.5"/>
<text text-anchor="start" x="639.5" y="-390.5" font-family="Ubuntu" font-weight="bold" font-size="10.00">NewDataManager</text>
<text text-anchor="start" x="544.5" y="-374.5" font-family="Ubuntu" font-size="10.00">1</text>
<text text-anchor="start" x="554.5" y="-374.5" font-family="Ubuntu" font-size="10.00">key</text>
<polygon fill="#a6cee3" stroke="transparent" points="632.5,-369.5 632.5,-384.5 723.5,-384.5 723.5,-369.5 632.5,-369.5"/>
<text text-anchor="start" x="696.5" y="-375.5" font-family="Ubuntu" font-style="italic" font-size="10.00">string</text>
<text text-anchor="start" x="544.5" y="-359.5" font-family="Ubuntu" font-size="10.00">2</text>
<text text-anchor="start" x="554.5" y="-359.5" font-family="Ubuntu" font-size="10.00">name</text>
<polygon fill="#a6cee3" stroke="transparent" points="632.5,-354.5 632.5,-369.5 723.5,-369.5 723.5,-354.5 632.5,-354.5"/>
<text text-anchor="start" x="696.5" y="-360.5" font-family="Ubuntu" font-style="italic" font-size="10.00">string</text>
<text text-anchor="start" x="544.5" y="-344.5" font-family="Ubuntu" font-size="10.00">3</text>
<text text-anchor="start" x="554.5" y="-344.5" font-family="Ubuntu" font-size="10.00">new_permissions</text>
<polygon fill="#fb9a99" stroke="transparent" points="632.5,-339.5 632.5,-354.5 723.5,-354.5 723.5,-339.5 632.5,-339.5"/>
<text text-anchor="start" x="642.5" y="-345.5" font-family="Ubuntu" font-weight="bold" font-size="10.00">NewPermissions</text>
<text text-anchor="start" x="544.5" y="-329.5" font-family="Ubuntu" font-size="10.00">4</text>
<text text-anchor="start" x="554.5" y="-329.5" font-family="Ubuntu" font-size="10.00">objective_key</text>
<polygon fill="#a6cee3" stroke="transparent" points="632.5,-324.5 632.5,-339.5 723.5,-339.5 723.5,-324.5 632.5,-324.5"/>
<text text-anchor="start" x="696.5" y="-330.5" font-family="Ubuntu" font-style="italic" font-size="10.00">string</text>
<text text-anchor="start" x="544.5" y="-314.5" font-family="Ubuntu" font-size="10.00">5</text>
<text text-anchor="start" x="554.5" y="-314.5" font-family="Ubuntu" font-size="10.00">description</text>
<polygon fill="#fb9a99" stroke="transparent" points="632.5,-309.5 632.5,-324.5 723.5,-324.5 723.5,-309.5 632.5,-309.5"/>
<text text-anchor="start" x="662.5" y="-315.5" font-family="Ubuntu" font-weight="bold" font-size="10.00">Addressable</text>
<text text-anchor="start" x="544.5" y="-299.5" font-family="Ubuntu" font-size="10.00">6</text>
<text text-anchor="start" x="554.5" y="-299.5" font-family="Ubuntu" font-size="10.00">opener</text>
<polygon fill="#fb9a99" stroke="transparent" points="632.5,-294.5 632.5,-309.5 723.5,-309.5 723.5,-294.5 632.5,-294.5"/>
<text text-anchor="start" x="662.5" y="-300.5" font-family="Ubuntu" font-weight="bold" font-size="10.00">Addressable</text>
<text text-anchor="start" x="544.5" y="-284.5" font-family="Ubuntu" font-size="10.00">7</text>
<text text-anchor="start" x="554.5" y="-284.5" font-family="Ubuntu" font-size="10.00">metadata</text>
<polygon fill="#a6cee3" stroke="transparent" points="632.5,-279.5 632.5,-294.5 723.5,-294.5 723.5,-279.5 632.5,-279.5"/>
<text text-anchor="start" x="634.5" y="-285.5" font-family="Ubuntu" font-size="10.00">map&lt;string, </text>
<text text-anchor="start" x="689.5" y="-285.5" font-family="Ubuntu" font-style="italic" font-size="10.00">string</text>
<text text-anchor="start" x="714.5" y="-285.5" font-family="Ubuntu" font-size="10.00">&gt;</text>
<text text-anchor="start" x="544.5" y="-269.5" font-family="Ubuntu" font-size="10.00">8</text>
<text text-anchor="start" x="554.5" y="-269.5" font-family="Ubuntu" font-size="10.00">type</text>
<polygon fill="#a6cee3" stroke="transparent" points="632.5,-264.5 632.5,-279.5 723.5,-279.5 723.5,-264.5 632.5,-264.5"/>
<text text-anchor="start" x="696.5" y="-270.5" font-family="Ubuntu" font-style="italic" font-size="10.00">string</text>
<polygon fill="none" stroke="black" points="537,-264 537,-401 724,-401 724,-264 537,-264"/>
</a>
</g>
</g>
<!-- Node_Ja_102 -->
<g id="node11" class="node">
<title>Node_Ja_102</title>
<g id="a_node11"><a xlink:title="orchestrator.Addressable">
<polygon fill="#fffaf0" stroke="transparent" points="779.5,-220 779.5,-267 901.5,-267 901.5,-220 779.5,-220"/>
<polygon fill="#e31a1c" stroke="transparent" points="780.5,-250.5 780.5,-265.5 900.5,-265.5 900.5,-250.5 780.5,-250.5"/>
<text text-anchor="start" x="839.5" y="-256.5" font-family="Ubuntu" font-weight="bold" font-size="10.00">Addressable</text>
<text text-anchor="start" x="786.5" y="-240.5" font-family="Ubuntu" font-size="10.00">1</text>
<text text-anchor="start" x="796.5" y="-240.5" font-family="Ubuntu" font-size="10.00">checksum</text>
<polygon fill="#a6cee3" stroke="transparent" points="871.5,-235.5 871.5,-250.5 900.5,-250.5 900.5,-235.5 871.5,-235.5"/>
<text text-anchor="start" x="873.5" y="-241.5" font-family="Ubuntu" font-style="italic" font-size="10.00">string</text>
<text text-anchor="start" x="786.5" y="-225.5" font-family="Ubuntu" font-size="10.00">2</text>
<text text-anchor="start" x="796.5" y="-225.5" font-family="Ubuntu" font-size="10.00">storage_address</text>
<polygon fill="#a6cee3" stroke="transparent" points="871.5,-220.5 871.5,-235.5 900.5,-235.5 900.5,-220.5 871.5,-220.5"/>
<text text-anchor="start" x="873.5" y="-226.5" font-family="Ubuntu" font-style="italic" font-size="10.00">string</text>
<polygon fill="none" stroke="black" points="779.5,-220 779.5,-267 901.5,-267 901.5,-220 779.5,-220"/>
</a>
</g>
</g>
<!-- Node_Ja_107&#45;&gt;Node_Ja_102 -->
<g id="edge5" class="edge">
<title>Node_Ja_107:e&#45;&gt;Node_Ja_102:header</title>
<g id="a_edge5"><a xlink:title="Ja_107 &#45;&#45;&gt; Ja_102">
<path fill="none" stroke="#000000" d="M724.5,-316.5C756.14,-316.5 746.87,-270.49 769.56,-260.43"/>
<polygon fill="#000000" stroke="#000000" points="770.35,-263.84 779.5,-258.5 769.02,-256.97 770.35,-263.84"/>
</a>
</g>
</g>
<!-- Node_Ja_107&#45;&gt;Node_Ja_102 -->
<g id="edge14" class="edge">
<title>Node_Ja_107:e&#45;&gt;Node_Ja_102:header</title>
<g id="a_edge14"><a xlink:title="Ja_107 &#45;&#45;&gt; Ja_102">
<path fill="none" stroke="#000000" d="M724.5,-301.5C751.65,-301.5 749.64,-268.58 769.5,-260.35"/>
<polygon fill="#000000" stroke="#000000" points="770.3,-263.76 779.5,-258.5 769.03,-256.88 770.3,-263.76"/>
</a>
</g>
</g>
<!-- Node_Ja_105 -->
<g id="node14" class="node">
<title>Node_Ja_105</title>
<g id="a_node14"><a xlink:title="orchestrator.NewPermissions">
<polygon fill="#fffaf0" stroke="transparent" points="776,-293 776,-340 905,-340 905,-293 776,-293"/>
<polygon fill="#e31a1c" stroke="transparent" points="777.5,-323.5 777.5,-338.5 904.5,-338.5 904.5,-323.5 777.5,-323.5"/>
<text text-anchor="start" x="823.5" y="-329.5" font-family="Ubuntu" font-weight="bold" font-size="10.00">NewPermissions</text>
<text text-anchor="start" x="799.5" y="-313.5" font-family="Ubuntu" font-size="10.00">1</text>
<text text-anchor="start" x="809.5" y="-313.5" font-family="Ubuntu" font-size="10.00">public</text>
<polygon fill="#a6cee3" stroke="transparent" points="875.5,-308.5 875.5,-323.5 904.5,-323.5 904.5,-308.5 875.5,-308.5"/>
<text text-anchor="start" x="883.5" y="-314.5" font-family="Ubuntu" font-style="italic" font-size="10.00">bool</text>
<text text-anchor="start" x="779.5" y="-298.5" font-family="Ubuntu" font-size="10.00">[...]</text>
<text text-anchor="start" x="799.5" y="-298.5" font-family="Ubuntu" font-size="10.00">2</text>
<text text-anchor="start" x="809.5" y="-298.5" font-family="Ubuntu" font-size="10.00">authorized_ids</text>
<polygon fill="#a6cee3" stroke="transparent" points="875.5,-293.5 875.5,-308.5 904.5,-308.5 904.5,-293.5 875.5,-293.5"/>
<text text-anchor="start" x="877.5" y="-299.5" font-family="Ubuntu" font-style="italic" font-size="10.00">string</text>
<polygon fill="none" stroke="black" points="776,-293 776,-340 905,-340 905,-293 776,-293"/>
</a>
</g>
</g>
<!-- Node_Ja_107&#45;&gt;Node_Ja_105 -->
<g id="edge10" class="edge">
<title>Node_Ja_107:e&#45;&gt;Node_Ja_105:header</title>
<g id="a_edge10"><a xlink:title="Ja_107 &#45;&#45;&gt; Ja_105">
<path fill="none" stroke="#000000" d="M724.5,-347.5C744.9,-347.5 750.68,-336.11 766.51,-332.55"/>
<polygon fill="#000000" stroke="#000000" points="766.92,-336.03 776.5,-331.5 766.19,-329.06 766.92,-336.03"/>
</a>
</g>
</g>
<!-- Node_Ja_109 -->
<g id="node2" class="node">
<title>Node_Ja_109</title>
<g id="a_node2"><a xlink:title="orchestrator.DataManagerUpdateResponse">
<polygon fill="#fffaf0" stroke="transparent" points="322,-275 322,-292 472,-292 472,-275 322,-275"/>
<polygon fill="#e31a1c" stroke="transparent" points="323,-275.5 323,-290.5 471,-290.5 471,-275.5 323,-275.5"/>
<text text-anchor="start" x="328" y="-281.5" font-family="Ubuntu" font-weight="bold" font-size="10.00">DataManagerUpdateResponse</text>
<polygon fill="none" stroke="black" points="322,-275 322,-292 472,-292 472,-275 322,-275"/>
</a>
</g>
</g>
<!-- Node_Ja_113 -->
<g id="node3" class="node">
<title>Node_Ja_113</title>
<g id="a_node3"><a xlink:title="DataManagerService">
<polygon fill="#ffd700" stroke="transparent" points="8,-199 8,-336 257,-336 257,-199 8,-199"/>
<polygon fill="#ff7f50" stroke="transparent" points="9.5,-319.5 9.5,-334.5 256.5,-334.5 256.5,-319.5 9.5,-319.5"/>
<text text-anchor="start" x="158.5" y="-325.5" font-family="Ubuntu" font-weight="bold" font-size="10.00">DataManagerService</text>
<text text-anchor="start" x="11.5" y="-310.5" font-family="Ubuntu" font-weight="bold" font-size="10.00">RegisterDataManager</text>
<text text-anchor="start" x="175.5" y="-309.5" font-family="Ubuntu" font-size="10.00">NewDataManager</text>
<polygon fill="#ff7f50" stroke="transparent" points="113.5,-289.5 113.5,-304.5 117.5,-304.5 117.5,-289.5 113.5,-289.5"/>
<polygon fill="#ff7f50" stroke="transparent" points="117.5,-289.5 117.5,-304.5 256.5,-304.5 256.5,-289.5 117.5,-289.5"/>
<text text-anchor="start" x="195.5" y="-294.5" font-family="Ubuntu" font-size="10.00">DataManager</text>
<text text-anchor="start" x="11.5" y="-280.5" font-family="Ubuntu" font-weight="bold" font-size="10.00">UpdateDataManager</text>
<text text-anchor="start" x="135.5" y="-279.5" font-family="Ubuntu" font-size="10.00">DataManagerUpdateParam</text>
<polygon fill="#ff7f50" stroke="transparent" points="113.5,-259.5 113.5,-274.5 117.5,-274.5 117.5,-259.5 113.5,-259.5"/>
<polygon fill="#ff7f50" stroke="transparent" points="117.5,-259.5 117.5,-274.5 256.5,-274.5 256.5,-259.5 117.5,-259.5"/>
<text text-anchor="start" x="119.5" y="-264.5" font-family="Ubuntu" font-size="10.00">DataManagerUpdateResponse</text>
<text text-anchor="start" x="11.5" y="-250.5" font-family="Ubuntu" font-weight="bold" font-size="10.00">GetDataManager</text>
<text text-anchor="start" x="151.5" y="-249.5" font-family="Ubuntu" font-size="10.00">GetDataManagerParam</text>
<polygon fill="#ff7f50" stroke="transparent" points="113.5,-229.5 113.5,-244.5 117.5,-244.5 117.5,-229.5 113.5,-229.5"/>
<polygon fill="#ff7f50" stroke="transparent" points="117.5,-229.5 117.5,-244.5 256.5,-244.5 256.5,-229.5 117.5,-229.5"/>
<text text-anchor="start" x="195.5" y="-234.5" font-family="Ubuntu" font-size="10.00">DataManager</text>
<text text-anchor="start" x="11.5" y="-220.5" font-family="Ubuntu" font-weight="bold" font-size="10.00">QueryDataManagers</text>
<text text-anchor="start" x="135.5" y="-219.5" font-family="Ubuntu" font-size="10.00">QueryDataManagersParam</text>
<polygon fill="#ff7f50" stroke="transparent" points="113.5,-199.5 113.5,-214.5 117.5,-214.5 117.5,-199.5 113.5,-199.5"/>
<polygon fill="#ff7f50" stroke="transparent" points="117.5,-199.5 117.5,-214.5 256.5,-214.5 256.5,-199.5 117.5,-199.5"/>
<text text-anchor="start" x="119.5" y="-204.5" font-family="Ubuntu" font-size="10.00">QueryDataManagersResponse</text>
<polygon fill="none" stroke="black" points="8,-199 8,-336 257,-336 257,-199 8,-199"/>
</a>
</g>
</g>
<!-- Node_Ja_113&#45;&gt;Node_Ja_107 -->
<g id="edge15" class="edge">
<title>Node_Ja_113:e&#45;&gt;Node_Ja_107:header</title>
<g id="a_edge15"><a xlink:title="Ja_113 &#45;&#45;&gt; Ja_107">
<path fill="none" stroke="#000000" d="M257.5,-312.5C308.01,-312.5 259,-389.44 301,-417.5 371.95,-464.91 410.45,-439.1 493,-417.5 511.17,-412.74 514.21,-398.72 527.6,-394.04"/>
<polygon fill="#000000" stroke="#000000" points="528.16,-397.5 537.5,-392.5 527.08,-390.58 528.16,-397.5"/>
</a>
</g>
</g>
<!-- Node_Ja_113&#45;&gt;Node_Ja_109 -->
<g id="edge17" class="edge">
<title>Node_Ja_113:e&#45;&gt;Node_Ja_109:header</title>
<g id="a_edge17"><a xlink:title="Ja_113 &#45;&#45;&gt; Ja_109">
<path fill="none" stroke="#000000" d="M257.5,-266.5C287.1,-266.5 320.01,-270.15 346.33,-273.96"/>
<polygon fill="#000000" stroke="#000000" points="346.03,-277.46 356.44,-275.48 347.07,-270.53 346.03,-277.46"/>
</a>
</g>
</g>
<!-- Node_Ja_110 -->
<g id="node4" class="node">
<title>Node_Ja_110</title>
<g id="a_node4"><a xlink:title="orchestrator.GetDataManagerParam">
<polygon fill="#fffaf0" stroke="transparent" points="340.5,-211.5 340.5,-243.5 453.5,-243.5 453.5,-211.5 340.5,-211.5"/>
<polygon fill="#e31a1c" stroke="transparent" points="342,-227.5 342,-242.5 453,-242.5 453,-227.5 342,-227.5"/>
<text text-anchor="start" x="344" y="-233.5" font-family="Ubuntu" font-weight="bold" font-size="10.00">GetDataManagerParam</text>
<text text-anchor="start" x="384" y="-217.5" font-family="Ubuntu" font-size="10.00">1</text>
<text text-anchor="start" x="394" y="-217.5" font-family="Ubuntu" font-size="10.00">key</text>
<polygon fill="#a6cee3" stroke="transparent" points="418,-212.5 418,-227.5 453,-227.5 453,-212.5 418,-212.5"/>
<text text-anchor="start" x="426" y="-218.5" font-family="Ubuntu" font-style="italic" font-size="10.00">string</text>
<polygon fill="none" stroke="black" points="340.5,-211.5 340.5,-243.5 453.5,-243.5 453.5,-211.5 340.5,-211.5"/>
</a>
</g>
</g>
<!-- Node_Ja_113&#45;&gt;Node_Ja_110 -->
<g id="edge1" class="edge">
<title>Node_Ja_113:e&#45;&gt;Node_Ja_110:header</title>
<g id="a_edge1"><a xlink:title="Ja_113 &#45;&#45;&gt; Ja_110">
<path fill="none" stroke="#000000" d="M257.5,-251.5C291.6,-251.5 301.38,-238.47 330.73,-235.93"/>
<polygon fill="#000000" stroke="#000000" points="331.15,-239.41 341,-235.5 330.86,-232.42 331.15,-239.41"/>
</a>
</g>
</g>
<!-- Node_Ja_112 -->
<g id="node5" class="node">
<title>Node_Ja_112</title>
<g id="a_node5"><a xlink:title="orchestrator.QueryDataManagersResponse">
<polygon fill="#fffaf0" stroke="transparent" points="309,-27 309,-74 485,-74 485,-27 309,-27"/>
<polygon fill="#e31a1c" stroke="transparent" points="310,-57.5 310,-72.5 484,-72.5 484,-57.5 310,-57.5"/>
<text text-anchor="start" x="341" y="-63.5" font-family="Ubuntu" font-weight="bold" font-size="10.00">QueryDataManagersResponse</text>
<text text-anchor="start" x="312" y="-47.5" font-family="Ubuntu" font-size="10.00">[...]</text>
<text text-anchor="start" x="332" y="-47.5" font-family="Ubuntu" font-size="10.00">1</text>
<text text-anchor="start" x="342" y="-47.5" font-family="Ubuntu" font-size="10.00">data_managers</text>
<polygon fill="#fb9a99" stroke="transparent" points="419,-42.5 419,-57.5 484,-57.5 484,-42.5 419,-42.5"/>
<text text-anchor="start" x="421" y="-48.5" font-family="Ubuntu" font-weight="bold" font-size="10.00">DataManager</text>
<text text-anchor="start" x="332" y="-32.5" font-family="Ubuntu" font-size="10.00">2</text>
<text text-anchor="start" x="342" y="-32.5" font-family="Ubuntu" font-size="10.00">next_page_token</text>
<polygon fill="#a6cee3" stroke="transparent" points="419,-27.5 419,-42.5 484,-42.5 484,-27.5 419,-27.5"/>
<text text-anchor="start" x="457" y="-33.5" font-family="Ubuntu" font-style="italic" font-size="10.00">string</text>
<polygon fill="none" stroke="black" points="309,-27 309,-74 485,-74 485,-27 309,-27"/>
</a>
</g>
</g>
<!-- Node_Ja_113&#45;&gt;Node_Ja_112 -->
<g id="edge3" class="edge">
<title>Node_Ja_113:e&#45;&gt;Node_Ja_112:header</title>
<g id="a_edge3"><a xlink:title="Ja_113 &#45;&#45;&gt; Ja_112">
<path fill="none" stroke="#000000" d="M257.5,-206.5C320.44,-206.5 251.09,-81.02 299.04,-66.81"/>
<polygon fill="#000000" stroke="#000000" points="299.54,-70.27 309,-65.5 298.63,-63.33 299.54,-70.27"/>
</a>
</g>
</g>
<!-- Node_Ja_111 -->
<g id="node6" class="node">
<title>Node_Ja_111</title>
<g id="a_node6"><a xlink:title="orchestrator.QueryDataManagersParam">
<polygon fill="#fffaf0" stroke="transparent" points="332,-100 332,-147 462,-147 462,-100 332,-100"/>
<polygon fill="#e31a1c" stroke="transparent" points="333,-130.5 333,-145.5 461,-145.5 461,-130.5 333,-130.5"/>
<text text-anchor="start" x="335" y="-136.5" font-family="Ubuntu" font-weight="bold" font-size="10.00">QueryDataManagersParam</text>
<text text-anchor="start" x="360" y="-120.5" font-family="Ubuntu" font-size="10.00">1</text>
<text text-anchor="start" x="370" y="-120.5" font-family="Ubuntu" font-size="10.00">page_token</text>
<polygon fill="#a6cee3" stroke="transparent" points="426,-115.5 426,-130.5 461,-130.5 461,-115.5 426,-115.5"/>
<text text-anchor="start" x="434" y="-121.5" font-family="Ubuntu" font-style="italic" font-size="10.00">string</text>
<text text-anchor="start" x="360" y="-105.5" font-family="Ubuntu" font-size="10.00">2</text>
<text text-anchor="start" x="370" y="-105.5" font-family="Ubuntu" font-size="10.00">page_size</text>
<polygon fill="#a6cee3" stroke="transparent" points="426,-100.5 426,-115.5 461,-115.5 461,-100.5 426,-100.5"/>
<text text-anchor="start" x="432" y="-106.5" font-family="Ubuntu" font-style="italic" font-size="10.00">uint32</text>
<polygon fill="none" stroke="black" points="332,-100 332,-147 462,-147 462,-100 332,-100"/>
</a>
</g>
</g>
<!-- Node_Ja_113&#45;&gt;Node_Ja_111 -->
<g id="edge2" class="edge">
<title>Node_Ja_113:e&#45;&gt;Node_Ja_111:header</title>
<g id="a_edge2"><a xlink:title="Ja_113 &#45;&#45;&gt; Ja_111">
<path fill="none" stroke="#000000" d="M257.5,-221.5C303.2,-221.5 285.83,-150.96 321.67,-139.94"/>
<polygon fill="#000000" stroke="#000000" points="322.58,-143.35 332,-138.5 321.61,-136.41 322.58,-143.35"/>
</a>
</g>
</g>
<!-- Node_Ja_106 -->
<g id="node7" class="node">
<title>Node_Ja_106</title>
<g id="a_node7"><a xlink:title="orchestrator.DataManager">
<polygon fill="#fffaf0" stroke="transparent" points="544.5,-85.5 544.5,-237.5 716.5,-237.5 716.5,-85.5 544.5,-85.5"/>
<polygon fill="#e31a1c" stroke="transparent" points="545.5,-221.5 545.5,-236.5 715.5,-236.5 715.5,-221.5 545.5,-221.5"/>
<text text-anchor="start" x="652.5" y="-227.5" font-family="Ubuntu" font-weight="bold" font-size="10.00">DataManager</text>
<text text-anchor="start" x="551.5" y="-211.5" font-family="Ubuntu" font-size="10.00">1</text>
<text text-anchor="start" x="561.5" y="-211.5" font-family="Ubuntu" font-size="10.00">key</text>
<polygon fill="#a6cee3" stroke="transparent" points="624.5,-206.5 624.5,-221.5 715.5,-221.5 715.5,-206.5 624.5,-206.5"/>
<text text-anchor="start" x="688.5" y="-212.5" font-family="Ubuntu" font-style="italic" font-size="10.00">string</text>
<text text-anchor="start" x="551.5" y="-196.5" font-family="Ubuntu" font-size="10.00">2</text>
<text text-anchor="start" x="561.5" y="-196.5" font-family="Ubuntu" font-size="10.00">name</text>
<polygon fill="#a6cee3" stroke="transparent" points="624.5,-191.5 624.5,-206.5 715.5,-206.5 715.5,-191.5 624.5,-191.5"/>
<text text-anchor="start" x="688.5" y="-197.5" font-family="Ubuntu" font-style="italic" font-size="10.00">string</text>
<text text-anchor="start" x="551.5" y="-181.5" font-family="Ubuntu" font-size="10.00">3</text>
<text text-anchor="start" x="561.5" y="-181.5" font-family="Ubuntu" font-size="10.00">owner</text>
<polygon fill="#a6cee3" stroke="transparent" points="624.5,-176.5 624.5,-191.5 715.5,-191.5 715.5,-176.5 624.5,-176.5"/>
<text text-anchor="start" x="688.5" y="-182.5" font-family="Ubuntu" font-style="italic" font-size="10.00">string</text>
<text text-anchor="start" x="551.5" y="-166.5" font-family="Ubuntu" font-size="10.00">4</text>
<text text-anchor="start" x="561.5" y="-166.5" font-family="Ubuntu" font-size="10.00">permissions</text>
<polygon fill="#fb9a99" stroke="transparent" points="624.5,-161.5 624.5,-176.5 715.5,-176.5 715.5,-161.5 624.5,-161.5"/>
<text text-anchor="start" x="654.5" y="-167.5" font-family="Ubuntu" font-weight="bold" font-size="10.00">Permissions</text>
<text text-anchor="start" x="551.5" y="-151.5" font-family="Ubuntu" font-size="10.00">5</text>
<text text-anchor="start" x="561.5" y="-151.5" font-family="Ubuntu" font-size="10.00">objective_key</text>
<polygon fill="#a6cee3" stroke="transparent" points="624.5,-146.5 624.5,-161.5 715.5,-161.5 715.5,-146.5 624.5,-146.5"/>
<text text-anchor="start" x="688.5" y="-152.5" font-family="Ubuntu" font-style="italic" font-size="10.00">string</text>
<text text-anchor="start" x="551.5" y="-136.5" font-family="Ubuntu" font-size="10.00">6</text>
<text text-anchor="start" x="561.5" y="-136.5" font-family="Ubuntu" font-size="10.00">description</text>
<polygon fill="#fb9a99" stroke="transparent" points="624.5,-131.5 624.5,-146.5 715.5,-146.5 715.5,-131.5 624.5,-131.5"/>
<text text-anchor="start" x="654.5" y="-137.5" font-family="Ubuntu" font-weight="bold" font-size="10.00">Addressable</text>
<text text-anchor="start" x="551.5" y="-121.5" font-family="Ubuntu" font-size="10.00">7</text>
<text text-anchor="start" x="561.5" y="-121.5" font-family="Ubuntu" font-size="10.00">opener</text>
<polygon fill="#fb9a99" stroke="transparent" points="624.5,-116.5 624.5,-131.5 715.5,-131.5 715.5,-116.5 624.5,-116.5"/>
<text text-anchor="start" x="654.5" y="-122.5" font-family="Ubuntu" font-weight="bold" font-size="10.00">Addressable</text>
<text text-anchor="start" x="551.5" y="-106.5" font-family="Ubuntu" font-size="10.00">8</text>
<text text-anchor="start" x="561.5" y="-106.5" font-family="Ubuntu" font-size="10.00">metadata</text>
<polygon fill="#a6cee3" stroke="transparent" points="624.5,-101.5 624.5,-116.5 715.5,-116.5 715.5,-101.5 624.5,-101.5"/>
<text text-anchor="start" x="626.5" y="-107.5" font-family="Ubuntu" font-size="10.00">map&lt;string, </text>
<text text-anchor="start" x="681.5" y="-107.5" font-family="Ubuntu" font-style="italic" font-size="10.00">string</text>
<text text-anchor="start" x="706.5" y="-107.5" font-family="Ubuntu" font-size="10.00">&gt;</text>
<text text-anchor="start" x="551.5" y="-91.5" font-family="Ubuntu" font-size="10.00">9</text>
<text text-anchor="start" x="561.5" y="-91.5" font-family="Ubuntu" font-size="10.00">type</text>
<polygon fill="#a6cee3" stroke="transparent" points="624.5,-86.5 624.5,-101.5 715.5,-101.5 715.5,-86.5 624.5,-86.5"/>
<text text-anchor="start" x="688.5" y="-92.5" font-family="Ubuntu" font-style="italic" font-size="10.00">string</text>
<polygon fill="none" stroke="black" points="544.5,-85.5 544.5,-237.5 716.5,-237.5 716.5,-85.5 544.5,-85.5"/>
</a>
</g>
</g>
<!-- Node_Ja_113&#45;&gt;Node_Ja_106 -->
<g id="edge7" class="edge">
<title>Node_Ja_113:e&#45;&gt;Node_Ja_106:header</title>
<g id="a_edge7"><a xlink:title="Ja_113 &#45;&#45;&gt; Ja_106">
<path fill="none" stroke="#000000" d="M257.5,-236.5C283.17,-236.5 276.97,-207.52 301,-198.5 380.89,-168.52 410.78,-175.66 493,-198.5 514.92,-204.59 517.48,-222.79 534.25,-228.06"/>
<polygon fill="#000000" stroke="#000000" points="534.11,-231.57 544.5,-229.5 535.09,-224.64 534.11,-231.57"/>
</a>
</g>
</g>
<!-- Node_Ja_113&#45;&gt;Node_Ja_106 -->
<g id="edge11" class="edge">
<title>Node_Ja_113:e&#45;&gt;Node_Ja_106:header</title>
<g id="a_edge11"><a xlink:title="Ja_113 &#45;&#45;&gt; Ja_106">
<path fill="none" stroke="#000000" d="M257.5,-297.5C300.33,-297.5 264.51,-361.07 301,-383.5 337.35,-405.85 459.12,-409.43 493,-383.5 547.29,-341.95 480.18,-240.93 534.29,-230.39"/>
<polygon fill="#000000" stroke="#000000" points="534.84,-233.86 544.5,-229.5 534.23,-226.88 534.84,-233.86"/>
</a>
</g>
</g>
<!-- Node_Ja_108 -->
<g id="node8" class="node">
<title>Node_Ja_108</title>
<g id="a_node8"><a xlink:title="orchestrator.DataManagerUpdateParam">
<polygon fill="#fffaf0" stroke="transparent" points="332,-324 332,-371 462,-371 462,-324 332,-324"/>
<polygon fill="#e31a1c" stroke="transparent" points="333,-354.5 333,-369.5 461,-369.5 461,-354.5 333,-354.5"/>
<text text-anchor="start" x="335" y="-360.5" font-family="Ubuntu" font-weight="bold" font-size="10.00">DataManagerUpdateParam</text>
<text text-anchor="start" x="354" y="-344.5" font-family="Ubuntu" font-size="10.00">1</text>
<text text-anchor="start" x="364" y="-344.5" font-family="Ubuntu" font-size="10.00">key</text>
<polygon fill="#a6cee3" stroke="transparent" points="429,-339.5 429,-354.5 461,-354.5 461,-339.5 429,-339.5"/>
<text text-anchor="start" x="434" y="-345.5" font-family="Ubuntu" font-style="italic" font-size="10.00">string</text>
<text text-anchor="start" x="354" y="-329.5" font-family="Ubuntu" font-size="10.00">2</text>
<text text-anchor="start" x="364" y="-329.5" font-family="Ubuntu" font-size="10.00">objective_key</text>
<polygon fill="#a6cee3" stroke="transparent" points="429,-324.5 429,-339.5 461,-339.5 461,-324.5 429,-324.5"/>
<text text-anchor="start" x="434" y="-330.5" font-family="Ubuntu" font-style="italic" font-size="10.00">string</text>
<polygon fill="none" stroke="black" points="332,-324 332,-371 462,-371 462,-324 332,-324"/>
</a>
</g>
</g>
<!-- Node_Ja_113&#45;&gt;Node_Ja_108 -->
<g id="edge12" class="edge">
<title>Node_Ja_113:e&#45;&gt;Node_Ja_108:header</title>
<g id="a_edge12"><a xlink:title="Ja_113 &#45;&#45;&gt; Ja_108">
<path fill="none" stroke="#000000" d="M257.5,-282.5C302.29,-282.5 286.52,-350.49 321.85,-361.11"/>
<polygon fill="#000000" stroke="#000000" points="321.62,-364.61 332,-362.5 322.57,-357.68 321.62,-364.61"/>
</a>
</g>
</g>
<!-- Node_Ja_112&#45;&gt;Node_Ja_106 -->
<g id="edge6" class="edge">
<title>Node_Ja_112:e&#45;&gt;Node_Ja_106:header</title>
<g id="a_edge6"><a xlink:title="Ja_112 &#45;&#45;&gt; Ja_106">
<path fill="none" stroke="#000000" d="M485,-49.5C565.47,-49.5 469.65,-213.69 534.28,-228.44"/>
<polygon fill="#000000" stroke="#000000" points="534.19,-231.95 544.5,-229.5 534.91,-224.99 534.19,-231.95"/>
</a>
</g>
</g>
<!-- Node_Ja_106&#45;&gt;Node_Ja_102 -->
<g id="edge4" class="edge">
<title>Node_Ja_106:e&#45;&gt;Node_Ja_102:header</title>
<g id="a_edge4"><a xlink:title="Ja_106 &#45;&#45;&gt; Ja_102">
<path fill="none" stroke="#000000" d="M716.5,-138.5C772.97,-138.5 725.99,-243.97 769.53,-257.15"/>
<polygon fill="#000000" stroke="#000000" points="769.12,-260.63 779.5,-258.5 770.06,-253.69 769.12,-260.63"/>
</a>
</g>
</g>
<!-- Node_Ja_106&#45;&gt;Node_Ja_102 -->
<g id="edge9" class="edge">
<title>Node_Ja_106:e&#45;&gt;Node_Ja_102:header</title>
<g id="a_edge9"><a xlink:title="Ja_106 &#45;&#45;&gt; Ja_102">
<path fill="none" stroke="#000000" d="M716.5,-123.5C778.96,-123.5 720.72,-243.64 769.51,-257.25"/>
<polygon fill="#000000" stroke="#000000" points="769.14,-260.73 779.5,-258.5 770.01,-253.79 769.14,-260.73"/>
</a>
</g>
</g>
<!-- Node_Ja_103 -->
<g id="node12" class="node">
<title>Node_Ja_103</title>
<g id="a_node12"><a xlink:title="orchestrator.Permissions">
<polygon fill="#fffaf0" stroke="transparent" points="780.5,-147 780.5,-194 900.5,-194 900.5,-147 780.5,-147"/>
<polygon fill="#e31a1c" stroke="transparent" points="781.5,-177.5 781.5,-192.5 899.5,-192.5 899.5,-177.5 781.5,-177.5"/>
<text text-anchor="start" x="838.5" y="-183.5" font-family="Ubuntu" font-weight="bold" font-size="10.00">Permissions</text>
<text text-anchor="start" x="787.5" y="-167.5" font-family="Ubuntu" font-size="10.00">1</text>
<text text-anchor="start" x="797.5" y="-167.5" font-family="Ubuntu" font-size="10.00">process</text>
<polygon fill="#fb9a99" stroke="transparent" points="841.5,-162.5 841.5,-177.5 899.5,-177.5 899.5,-162.5 841.5,-162.5"/>
<text text-anchor="start" x="843.5" y="-168.5" font-family="Ubuntu" font-weight="bold" font-size="10.00">Permission</text>
<text text-anchor="start" x="787.5" y="-152.5" font-family="Ubuntu" font-size="10.00">2</text>
<text text-anchor="start" x="797.5" y="-152.5" font-family="Ubuntu" font-size="10.00">download</text>
<polygon fill="#fb9a99" stroke="transparent" points="841.5,-147.5 841.5,-162.5 899.5,-162.5 899.5,-147.5 841.5,-147.5"/>
<text text-anchor="start" x="843.5" y="-153.5" font-family="Ubuntu" font-weight="bold" font-size="10.00">Permission</text>
<polygon fill="none" stroke="black" points="780.5,-147 780.5,-194 900.5,-194 900.5,-147 780.5,-147"/>
</a>
</g>
</g>
<!-- Node_Ja_106&#45;&gt;Node_Ja_103 -->
<g id="edge13" class="edge">
<title>Node_Ja_106:e&#45;&gt;Node_Ja_103:header</title>
<g id="a_edge13"><a xlink:title="Ja_106 &#45;&#45;&gt; Ja_103">
<path fill="none" stroke="#000000" d="M716.5,-169.5C742.04,-169.5 749.4,-181.64 770.25,-184.77"/>
<polygon fill="#000000" stroke="#000000" points="770.28,-188.28 780.5,-185.5 770.77,-181.3 770.28,-188.28"/>
</a>
</g>
</g>
<!-- Node_Ja_100 -->
<g id="node9" class="node">
<title>Node_Ja_100</title>
<g id="a_node9"><a xlink:title="AssetKind">
<polygon fill="#b2df8a" stroke="transparent" points="64,-435 64,-602 201,-602 201,-435 64,-435"/>
<polygon fill="#33a02c" stroke="transparent" points="65.5,-585.5 65.5,-600.5 200.5,-600.5 200.5,-585.5 65.5,-585.5"/>
<text text-anchor="start" x="121.5" y="-591.5" font-family="Ubuntu" font-size="10.00">enum </text>
<text text-anchor="start" x="149.5" y="-591.5" font-family="Ubuntu" font-weight="bold" font-size="10.00">AssetKind</text>
<polygon fill="#b2df8a" stroke="transparent" points="65.5,-570.5 65.5,-585.5 190.5,-585.5 190.5,-570.5 65.5,-570.5"/>
<text text-anchor="start" x="67.5" y="-575.5" font-family="Ubuntu" font-size="10.00">ASSET_UNKNOWN</text>
<polygon fill="#b2df8a" stroke="transparent" points="190.5,-570.5 190.5,-585.5 200.5,-585.5 200.5,-570.5 190.5,-570.5"/>
<text text-anchor="start" x="192.5" y="-575.5" font-family="Ubuntu" font-size="10.00">0</text>
<polygon fill="#b2df8a" stroke="transparent" points="65.5,-555.5 65.5,-570.5 190.5,-570.5 190.5,-555.5 65.5,-555.5"/>
<text text-anchor="start" x="67.5" y="-560.5" font-family="Ubuntu" font-size="10.00">ASSET_NODE</text>
<polygon fill="#b2df8a" stroke="transparent" points="190.5,-555.5 190.5,-570.5 200.5,-570.5 200.5,-555.5 190.5,-555.5"/>
<text text-anchor="start" x="192.5" y="-560.5" font-family="Ubuntu" font-size="10.00">1</text>
<polygon fill="#b2df8a" stroke="transparent" points="65.5,-540.5 65.5,-555.5 190.5,-555.5 190.5,-540.5 65.5,-540.5"/>
<text text-anchor="start" x="67.5" y="-545.5" font-family="Ubuntu" font-size="10.00">ASSET_OBJECTIVE</text>
<polygon fill="#b2df8a" stroke="transparent" points="190.5,-540.5 190.5,-555.5 200.5,-555.5 200.5,-540.5 190.5,-540.5"/>
<text text-anchor="start" x="192.5" y="-545.5" font-family="Ubuntu" font-size="10.00">2</text>
<polygon fill="#b2df8a" stroke="transparent" points="65.5,-525.5 65.5,-540.5 190.5,-540.5 190.5,-525.5 65.5,-525.5"/>
<text text-anchor="start" x="67.5" y="-530.5" font-family="Ubuntu" font-size="10.00">ASSET_DATA_SAMPLE</text>
<polygon fill="#b2df8a" stroke="transparent" points="190.5,-525.5 190.5,-540.5 200.5,-540.5 200.5,-525.5 190.5,-525.5"/>
<text text-anchor="start" x="192.5" y="-530.5" font-family="Ubuntu" font-size="10.00">3</text>
<polygon fill="#b2df8a" stroke="transparent" points="65.5,-510.5 65.5,-525.5 190.5,-525.5 190.5,-510.5 65.5,-510.5"/>
<text text-anchor="start" x="67.5" y="-515.5" font-family="Ubuntu" font-size="10.00">ASSET_DATA_MANAGER</text>
<polygon fill="#b2df8a" stroke="transparent" points="190.5,-510.5 190.5,-525.5 200.5,-525.5 200.5,-510.5 190.5,-510.5"/>
<text text-anchor="start" x="192.5" y="-515.5" font-family="Ubuntu" font-size="10.00">4</text>
<polygon fill="#b2df8a" stroke="transparent" points="65.5,-495.5 65.5,-510.5 190.5,-510.5 190.5,-495.5 65.5,-495.5"/>
<text text-anchor="start" x="67.5" y="-500.5" font-family="Ubuntu" font-size="10.00">ASSET_ALGO</text>
<polygon fill="#b2df8a" stroke="transparent" points="190.5,-495.5 190.5,-510.5 200.5,-510.5 200.5,-495.5 190.5,-495.5"/>
<text text-anchor="start" x="192.5" y="-500.5" font-family="Ubuntu" font-size="10.00">5</text>
<polygon fill="#b2df8a" stroke="transparent" points="65.5,-480.5 65.5,-495.5 190.5,-495.5 190.5,-480.5 65.5,-480.5"/>
<text text-anchor="start" x="67.5" y="-485.5" font-family="Ubuntu" font-size="10.00">ASSET_COMPUTE_TASK</text>
<polygon fill="#b2df8a" stroke="transparent" points="190.5,-480.5 190.5,-495.5 200.5,-495.5 200.5,-480.5 190.5,-480.5"/>
<text text-anchor="start" x="192.5" y="-485.5" font-family="Ubuntu" font-size="10.00">6</text>
<polygon fill="#b2df8a" stroke="transparent" points="65.5,-465.5 65.5,-480.5 190.5,-480.5 190.5,-465.5 65.5,-465.5"/>
<text text-anchor="start" x="67.5" y="-470.5" font-family="Ubuntu" font-size="10.00">ASSET_COMPUTE_PLAN</text>
<polygon fill="#b2df8a" stroke="transparent" points="190.5,-465.5 190.5,-480.5 200.5,-480.5 200.5,-465.5 190.5,-465.5"/>
<text text-anchor="start" x="192.5" y="-470.5" font-family="Ubuntu" font-size="10.00">7</text>
<polygon fill="#b2df8a" stroke="transparent" points="65.5,-450.5 65.5,-465.5 190.5,-465.5 190.5,-450.5 65.5,-450.5"/>
<text text-anchor="start" x="67.5" y="-455.5" font-family="Ubuntu" font-size="10.00">ASSET_MODEL</text>
<polygon fill="#b2df8a" stroke="transparent" points="190.5,-450.5 190.5,-465.5 200.5,-465.5 200.5,-450.5 190.5,-450.5"/>
<text text-anchor="start" x="192.5" y="-455.5" font-family="Ubuntu" font-size="10.00">8</text>
<polygon fill="#b2df8a" stroke="transparent" points="65.5,-435.5 65.5,-450.5 190.5,-450.5 190.5,-435.5 65.5,-435.5"/>
<text text-anchor="start" x="67.5" y="-440.5" font-family="Ubuntu" font-size="10.00">ASSET_PERFORMANCE</text>
<polygon fill="#b2df8a" stroke="transparent" points="190.5,-435.5 190.5,-450.5 200.5,-450.5 200.5,-435.5 190.5,-435.5"/>
<text text-anchor="start" x="192.5" y="-440.5" font-family="Ubuntu" font-size="10.00">9</text>
<polygon fill="none" stroke="black" points="64,-435 64,-602 201,-602 201,-435 64,-435"/>
</a>
</g>
</g>
<!-- Node_Ja_101 -->
<g id="node10" class="node">
<title>Node_Ja_101</title>
<g id="a_node10"><a xlink:title="SortOrder">
<polygon fill="#b2df8a" stroke="transparent" points="90,-362 90,-409 175,-409 175,-362 90,-362"/>
<polygon fill="#33a02c" stroke="transparent" points="91.5,-392.5 91.5,-407.5 174.5,-407.5 174.5,-392.5 91.5,-392.5"/>
<text text-anchor="start" x="98.5" y="-398.5" font-family="Ubuntu" font-size="10.00">enum </text>
<text text-anchor="start" x="126.5" y="-398.5" font-family="Ubuntu" font-weight="bold" font-size="10.00">SortOrder</text>
<polygon fill="#b2df8a" stroke="transparent" points="91.5,-377.5 91.5,-392.5 164.5,-392.5 164.5,-377.5 91.5,-377.5"/>
<text text-anchor="start" x="93.5" y="-382.5" font-family="Ubuntu" font-size="10.00">ASCENDING</text>
<polygon fill="#b2df8a" stroke="transparent" points="164.5,-377.5 164.5,-392.5 174.5,-392.5 174.5,-377.5 164.5,-377.5"/>
<text text-anchor="start" x="166.5" y="-382.5" font-family="Ubuntu" font-size="10.00">0</text>
<polygon fill="#b2df8a" stroke="transparent" points="91.5,-362.5 91.5,-377.5 164.5,-377.5 164.5,-362.5 91.5,-362.5"/>
<text text-anchor="start" x="93.5" y="-367.5" font-family="Ubuntu" font-size="10.00">DESCENDING</text>
<polygon fill="#b2df8a" stroke="transparent" points="164.5,-362.5 164.5,-377.5 174.5,-377.5 174.5,-362.5 164.5,-362.5"/>
<text text-anchor="start" x="166.5" y="-367.5" font-family="Ubuntu" font-size="10.00">1</text>
<polygon fill="none" stroke="black" points="90,-362 90,-409 175,-409 175,-362 90,-362"/>
</a>
</g>
</g>
<!-- Node_Ja_104 -->
<g id="node13" class="node">
<title>Node_Ja_104</title>
<g id="a_node13"><a xlink:title="orchestrator.Permission">
<polygon fill="#fffaf0" stroke="transparent" points="957,-147 957,-194 1086,-194 1086,-147 957,-147"/>
<polygon fill="#e31a1c" stroke="transparent" points="958.5,-177.5 958.5,-192.5 1085.5,-192.5 1085.5,-177.5 958.5,-177.5"/>
<text text-anchor="start" x="1029.5" y="-183.5" font-family="Ubuntu" font-weight="bold" font-size="10.00">Permission</text>
<text text-anchor="start" x="980.5" y="-167.5" font-family="Ubuntu" font-size="10.00">1</text>
<text text-anchor="start" x="990.5" y="-167.5" font-family="Ubuntu" font-size="10.00">public</text>
<polygon fill="#a6cee3" stroke="transparent" points="1056.5,-162.5 1056.5,-177.5 1085.5,-177.5 1085.5,-162.5 1056.5,-162.5"/>
<text text-anchor="start" x="1064.5" y="-168.5" font-family="Ubuntu" font-style="italic" font-size="10.00">bool</text>
<text text-anchor="start" x="960.5" y="-152.5" font-family="Ubuntu" font-size="10.00">[...]</text>
<text text-anchor="start" x="980.5" y="-152.5" font-family="Ubuntu" font-size="10.00">2</text>
<text text-anchor="start" x="990.5" y="-152.5" font-family="Ubuntu" font-size="10.00">authorized_ids</text>
<polygon fill="#a6cee3" stroke="transparent" points="1056.5,-147.5 1056.5,-162.5 1085.5,-162.5 1085.5,-147.5 1056.5,-147.5"/>
<text text-anchor="start" x="1058.5" y="-153.5" font-family="Ubuntu" font-style="italic" font-size="10.00">string</text>
<polygon fill="none" stroke="black" points="957,-147 957,-194 1086,-194 1086,-147 957,-147"/>
</a>
</g>
</g>
<!-- Node_Ja_103&#45;&gt;Node_Ja_104 -->
<g id="edge8" class="edge">
<title>Node_Ja_103:e&#45;&gt;Node_Ja_104:header</title>
<g id="a_edge8"><a xlink:title="Ja_103 &#45;&#45;&gt; Ja_104">
<path fill="none" stroke="#000000" d="M900.5,-154.5C925.51,-154.5 928.32,-177.81 947.43,-184"/>
<polygon fill="#000000" stroke="#000000" points="947.09,-187.49 957.5,-185.5 948.12,-180.57 947.09,-187.49"/>
</a>
</g>
</g>
<!-- Node_Ja_103&#45;&gt;Node_Ja_104 -->
<g id="edge16" class="edge">
<title>Node_Ja_103:e&#45;&gt;Node_Ja_104:header</title>
<g id="a_edge16"><a xlink:title="Ja_103 &#45;&#45;&gt; Ja_104">
<path fill="none" stroke="#000000" d="M900.5,-169.5C922.91,-169.5 929.41,-181.1 947.09,-184.55"/>
<polygon fill="#000000" stroke="#000000" points="947.22,-188.07 957.5,-185.5 947.86,-181.1 947.22,-188.07"/>
</a>
</g>
</g>
</g>
</svg>
