<?xml version="1.0" encoding="UTF-8" standalone="no"?>
<!DOCTYPE svg PUBLIC "-//W3C//DTD SVG 1.1//EN"
 "http://www.w3.org/Graphics/SVG/1.1/DTD/svg11.dtd">
<!-- Generated by graphviz version 2.47.3 (20210619.1520)
 -->
<!-- Title: protodot Pages: 1 -->
<svg width="1150pt" height="1031pt"
 viewBox="0.00 0.00 1150.00 1031.00" xmlns="http://www.w3.org/2000/svg" xmlns:xlink="http://www.w3.org/1999/xlink">
<g id="graph0" class="graph" transform="scale(1 1) rotate(0) translate(4 1027)">
<title>protodot</title>
<g id="a_graph0"><a xlink:title="orchestrator">
<text text-anchor="middle" x="571" y="-7.8" font-family="Times,serif" font-size="14.00">orchestrator</text>
</a>
</g>
<g id="clust1" class="cluster">
<title>cluster_a8cc5fbfdea0</title>
<g id="a_clust1"><a xlink:title="datamanager.proto">
<polygon fill="#caff70" stroke="black" points="8,-161 8,-719 772,-719 772,-161 8,-161"/>
<text text-anchor="middle" x="390" y="-703.8" font-family="Times,serif" font-size="14.00">datamanager.proto</text>
</a>
</g>
</g>
<g id="clust2" class="cluster">
<title>cluster_17479c12eb21</title>
<g id="a_clust2"><a xlink:title="orchestrator">
<polygon fill="#caff70" stroke="black" points="64,-727 64,-1015 233,-1015 233,-727 64,-727"/>
<text text-anchor="middle" x="148.5" y="-999.8" font-family="Times,serif" font-size="14.00">orchestrator</text>
</a>
</g>
</g>
<g id="clust3" class="cluster">
<title>cluster_308971b5abce</title>
<g id="a_clust3"><a xlink:title="common.proto">
<polygon fill="#caff70" stroke="black" points="792,-402 792,-643 1134,-643 1134,-402 792,-402"/>
<text text-anchor="middle" x="963" y="-627.8" font-family="Times,serif" font-size="14.00">common.proto</text>
</a>
</g>
</g>
<!-- Node_Ja_113 -->
<g id="node1" class="node">
<title>Node_Ja_113</title>
<g id="a_node1"><a xlink:title="DataManagerService">
<polygon fill="#ffd700" stroke="transparent" points="24,-327.5 24,-464.5 273,-464.5 273,-327.5 24,-327.5"/>
<polygon fill="#ff7f50" stroke="transparent" points="25.5,-448 25.5,-463 272.5,-463 272.5,-448 25.5,-448"/>
<text text-anchor="start" x="174.5" y="-454" font-family="Ubuntu" font-weight="bold" font-size="10.00">DataManagerService</text>
<text text-anchor="start" x="27.5" y="-439" font-family="Ubuntu" font-weight="bold" font-size="10.00">RegisterDataManager</text>
<text text-anchor="start" x="191.5" y="-438" font-family="Ubuntu" font-size="10.00">NewDataManager</text>
<polygon fill="#ff7f50" stroke="transparent" points="129.5,-418 129.5,-433 133.5,-433 133.5,-418 129.5,-418"/>
<polygon fill="#ff7f50" stroke="transparent" points="133.5,-418 133.5,-433 272.5,-433 272.5,-418 133.5,-418"/>
<text text-anchor="start" x="211.5" y="-423" font-family="Ubuntu" font-size="10.00">DataManager</text>
<text text-anchor="start" x="27.5" y="-409" font-family="Ubuntu" font-weight="bold" font-size="10.00">UpdateDataManager</text>
<text text-anchor="start" x="151.5" y="-408" font-family="Ubuntu" font-size="10.00">DataManagerUpdateParam</text>
<polygon fill="#ff7f50" stroke="transparent" points="129.5,-388 129.5,-403 133.5,-403 133.5,-388 129.5,-388"/>
<polygon fill="#ff7f50" stroke="transparent" points="133.5,-388 133.5,-403 272.5,-403 272.5,-388 133.5,-388"/>
<text text-anchor="start" x="135.5" y="-393" font-family="Ubuntu" font-size="10.00">DataManagerUpdateResponse</text>
<text text-anchor="start" x="27.5" y="-379" font-family="Ubuntu" font-weight="bold" font-size="10.00">GetDataManager</text>
<text text-anchor="start" x="167.5" y="-378" font-family="Ubuntu" font-size="10.00">GetDataManagerParam</text>
<polygon fill="#ff7f50" stroke="transparent" points="129.5,-358 129.5,-373 133.5,-373 133.5,-358 129.5,-358"/>
<polygon fill="#ff7f50" stroke="transparent" points="133.5,-358 133.5,-373 272.5,-373 272.5,-358 133.5,-358"/>
<text text-anchor="start" x="211.5" y="-363" font-family="Ubuntu" font-size="10.00">DataManager</text>
<text text-anchor="start" x="27.5" y="-349" font-family="Ubuntu" font-weight="bold" font-size="10.00">QueryDataManagers</text>
<text text-anchor="start" x="151.5" y="-348" font-family="Ubuntu" font-size="10.00">QueryDataManagersParam</text>
<polygon fill="#ff7f50" stroke="transparent" points="129.5,-328 129.5,-343 133.5,-343 133.5,-328 129.5,-328"/>
<polygon fill="#ff7f50" stroke="transparent" points="133.5,-328 133.5,-343 272.5,-343 272.5,-328 133.5,-328"/>
<text text-anchor="start" x="135.5" y="-333" font-family="Ubuntu" font-size="10.00">QueryDataManagersResponse</text>
<polygon fill="none" stroke="black" points="24,-327.5 24,-464.5 273,-464.5 273,-327.5 24,-327.5"/>
</a>
</g>
</g>
<!-- Node_Ja_108 -->
<g id="node2" class="node">
<title>Node_Ja_108</title>
<g id="a_node2"><a xlink:title="orchestrator.DataManagerUpdateParam">
<polygon fill="#fffaf0" stroke="transparent" points="363.5,-452.5 363.5,-499.5 493.5,-499.5 493.5,-452.5 363.5,-452.5"/>
<polygon fill="#e31a1c" stroke="transparent" points="364.5,-483 364.5,-498 492.5,-498 492.5,-483 364.5,-483"/>
<text text-anchor="start" x="366.5" y="-489" font-family="Ubuntu" font-weight="bold" font-size="10.00">DataManagerUpdateParam</text>
<text text-anchor="start" x="385.5" y="-473" font-family="Ubuntu" font-size="10.00">1</text>
<text text-anchor="start" x="395.5" y="-473" font-family="Ubuntu" font-size="10.00">key</text>
<polygon fill="#a6cee3" stroke="transparent" points="460.5,-468 460.5,-483 492.5,-483 492.5,-468 460.5,-468"/>
<text text-anchor="start" x="465.5" y="-474" font-family="Ubuntu" font-style="italic" font-size="10.00">string</text>
<text text-anchor="start" x="385.5" y="-458" font-family="Ubuntu" font-size="10.00">2</text>
<text text-anchor="start" x="395.5" y="-458" font-family="Ubuntu" font-size="10.00">objective_key</text>
<polygon fill="#a6cee3" stroke="transparent" points="460.5,-453 460.5,-468 492.5,-468 492.5,-453 460.5,-453"/>
<text text-anchor="start" x="465.5" y="-459" font-family="Ubuntu" font-style="italic" font-size="10.00">string</text>
<polygon fill="none" stroke="black" points="363.5,-452.5 363.5,-499.5 493.5,-499.5 493.5,-452.5 363.5,-452.5"/>
</a>
</g>
</g>
<!-- Node_Ja_113&#45;&gt;Node_Ja_108 -->
<g id="edge7" class="edge">
<title>Node_Ja_113:e&#45;&gt;Node_Ja_108:header</title>
<g id="a_edge7"><a xlink:title="Ja_113 &#45;&#45;&gt; Ja_108">
<path fill="none" stroke="#000000" d="M273.5,-411C323.36,-411 311.98,-480.44 353.47,-489.93"/>
<polygon fill="#000000" stroke="#000000" points="353.19,-493.42 363.5,-491 353.93,-486.46 353.19,-493.42"/>
</a>
</g>
</g>
<!-- Node_Ja_107 -->
<g id="node3" class="node">
<title>Node_Ja_107</title>
<g id="a_node3"><a xlink:title="orchestrator.NewDataManager">
<polygon fill="#fffaf0" stroke="transparent" points="335,-546.5 335,-683.5 522,-683.5 522,-546.5 335,-546.5"/>
<polygon fill="#e31a1c" stroke="transparent" points="336.5,-667 336.5,-682 521.5,-682 521.5,-667 336.5,-667"/>
<text text-anchor="start" x="437.5" y="-673" font-family="Ubuntu" font-weight="bold" font-size="10.00">NewDataManager</text>
<text text-anchor="start" x="342.5" y="-657" font-family="Ubuntu" font-size="10.00">1</text>
<text text-anchor="start" x="352.5" y="-657" font-family="Ubuntu" font-size="10.00">key</text>
<polygon fill="#a6cee3" stroke="transparent" points="430.5,-652 430.5,-667 521.5,-667 521.5,-652 430.5,-652"/>
<text text-anchor="start" x="494.5" y="-658" font-family="Ubuntu" font-style="italic" font-size="10.00">string</text>
<text text-anchor="start" x="342.5" y="-642" font-family="Ubuntu" font-size="10.00">2</text>
<text text-anchor="start" x="352.5" y="-642" font-family="Ubuntu" font-size="10.00">name</text>
<polygon fill="#a6cee3" stroke="transparent" points="430.5,-637 430.5,-652 521.5,-652 521.5,-637 430.5,-637"/>
<text text-anchor="start" x="494.5" y="-643" font-family="Ubuntu" font-style="italic" font-size="10.00">string</text>
<text text-anchor="start" x="342.5" y="-627" font-family="Ubuntu" font-size="10.00">3</text>
<text text-anchor="start" x="352.5" y="-627" font-family="Ubuntu" font-size="10.00">new_permissions</text>
<polygon fill="#fb9a99" stroke="transparent" points="430.5,-622 430.5,-637 521.5,-637 521.5,-622 430.5,-622"/>
<text text-anchor="start" x="440.5" y="-628" font-family="Ubuntu" font-weight="bold" font-size="10.00">NewPermissions</text>
<text text-anchor="start" x="342.5" y="-612" font-family="Ubuntu" font-size="10.00">4</text>
<text text-anchor="start" x="352.5" y="-612" font-family="Ubuntu" font-size="10.00">objective_key</text>
<polygon fill="#a6cee3" stroke="transparent" points="430.5,-607 430.5,-622 521.5,-622 521.5,-607 430.5,-607"/>
<text text-anchor="start" x="494.5" y="-613" font-family="Ubuntu" font-style="italic" font-size="10.00">string</text>
<text text-anchor="start" x="342.5" y="-597" font-family="Ubuntu" font-size="10.00">5</text>
<text text-anchor="start" x="352.5" y="-597" font-family="Ubuntu" font-size="10.00">description</text>
<polygon fill="#fb9a99" stroke="transparent" points="430.5,-592 430.5,-607 521.5,-607 521.5,-592 430.5,-592"/>
<text text-anchor="start" x="460.5" y="-598" font-family="Ubuntu" font-weight="bold" font-size="10.00">Addressable</text>
<text text-anchor="start" x="342.5" y="-582" font-family="Ubuntu" font-size="10.00">6</text>
<text text-anchor="start" x="352.5" y="-582" font-family="Ubuntu" font-size="10.00">opener</text>
<polygon fill="#fb9a99" stroke="transparent" points="430.5,-577 430.5,-592 521.5,-592 521.5,-577 430.5,-577"/>
<text text-anchor="start" x="460.5" y="-583" font-family="Ubuntu" font-weight="bold" font-size="10.00">Addressable</text>
<text text-anchor="start" x="342.5" y="-567" font-family="Ubuntu" font-size="10.00">7</text>
<text text-anchor="start" x="352.5" y="-567" font-family="Ubuntu" font-size="10.00">metadata</text>
<polygon fill="#a6cee3" stroke="transparent" points="430.5,-562 430.5,-577 521.5,-577 521.5,-562 430.5,-562"/>
<text text-anchor="start" x="432.5" y="-568" font-family="Ubuntu" font-size="10.00">map&lt;string, </text>
<text text-anchor="start" x="487.5" y="-568" font-family="Ubuntu" font-style="italic" font-size="10.00">string</text>
<text text-anchor="start" x="512.5" y="-568" font-family="Ubuntu" font-size="10.00">&gt;</text>
<text text-anchor="start" x="342.5" y="-552" font-family="Ubuntu" font-size="10.00">8</text>
<text text-anchor="start" x="352.5" y="-552" font-family="Ubuntu" font-size="10.00">type</text>
<polygon fill="#a6cee3" stroke="transparent" points="430.5,-547 430.5,-562 521.5,-562 521.5,-547 430.5,-547"/>
<text text-anchor="start" x="494.5" y="-553" font-family="Ubuntu" font-style="italic" font-size="10.00">string</text>
<polygon fill="none" stroke="black" points="335,-546.5 335,-683.5 522,-683.5 522,-546.5 335,-546.5"/>
</a>
</g>
</g>
<!-- Node_Ja_113&#45;&gt;Node_Ja_107 -->
<g id="edge10" class="edge">
<title>Node_Ja_113:e&#45;&gt;Node_Ja_107:header</title>
<g id="a_edge10"><a xlink:title="Ja_113 &#45;&#45;&gt; Ja_107">
<path fill="none" stroke="#000000" d="M273.5,-441C377.41,-441 238.08,-659.28 325.36,-674.2"/>
<polygon fill="#000000" stroke="#000000" points="325.26,-677.7 335.5,-675 325.81,-670.72 325.26,-677.7"/>
</a>
</g>
</g>
<!-- Node_Ja_111 -->
<g id="node4" class="node">
<title>Node_Ja_111</title>
<g id="a_node4"><a xlink:title="orchestrator.QueryDataManagersParam">
<polygon fill="#fffaf0" stroke="transparent" points="363.5,-246.5 363.5,-293.5 493.5,-293.5 493.5,-246.5 363.5,-246.5"/>
<polygon fill="#e31a1c" stroke="transparent" points="364.5,-277 364.5,-292 492.5,-292 492.5,-277 364.5,-277"/>
<text text-anchor="start" x="366.5" y="-283" font-family="Ubuntu" font-weight="bold" font-size="10.00">QueryDataManagersParam</text>
<text text-anchor="start" x="391.5" y="-267" font-family="Ubuntu" font-size="10.00">1</text>
<text text-anchor="start" x="401.5" y="-267" font-family="Ubuntu" font-size="10.00">page_token</text>
<polygon fill="#a6cee3" stroke="transparent" points="457.5,-262 457.5,-277 492.5,-277 492.5,-262 457.5,-262"/>
<text text-anchor="start" x="465.5" y="-268" font-family="Ubuntu" font-style="italic" font-size="10.00">string</text>
<text text-anchor="start" x="391.5" y="-252" font-family="Ubuntu" font-size="10.00">2</text>
<text text-anchor="start" x="401.5" y="-252" font-family="Ubuntu" font-size="10.00">page_size</text>
<polygon fill="#a6cee3" stroke="transparent" points="457.5,-247 457.5,-262 492.5,-262 492.5,-247 457.5,-247"/>
<text text-anchor="start" x="463.5" y="-253" font-family="Ubuntu" font-style="italic" font-size="10.00">uint32</text>
<polygon fill="none" stroke="black" points="363.5,-246.5 363.5,-293.5 493.5,-293.5 493.5,-246.5 363.5,-246.5"/>
</a>
</g>
</g>
<!-- Node_Ja_113&#45;&gt;Node_Ja_111 -->
<g id="edge12" class="edge">
<title>Node_Ja_113:e&#45;&gt;Node_Ja_111:header</title>
<g id="a_edge12"><a xlink:title="Ja_113 &#45;&#45;&gt; Ja_111">
<path fill="none" stroke="#000000" d="M273.5,-350C299.17,-350 296.14,-326.96 317,-312 333.24,-300.36 338.12,-289.31 353.25,-286"/>
<polygon fill="#000000" stroke="#000000" points="353.89,-289.46 363.5,-285 353.21,-282.49 353.89,-289.46"/>
</a>
</g>
</g>
<!-- Node_Ja_106 -->
<g id="node5" class="node">
<title>Node_Ja_106</title>
<g id="a_node5"><a xlink:title="orchestrator.DataManager">
<polygon fill="#fffaf0" stroke="transparent" points="584,-370 584,-522 756,-522 756,-370 584,-370"/>
<polygon fill="#e31a1c" stroke="transparent" points="585,-506 585,-521 755,-521 755,-506 585,-506"/>
<text text-anchor="start" x="692" y="-512" font-family="Ubuntu" font-weight="bold" font-size="10.00">DataManager</text>
<text text-anchor="start" x="591" y="-496" font-family="Ubuntu" font-size="10.00">1</text>
<text text-anchor="start" x="601" y="-496" font-family="Ubuntu" font-size="10.00">key</text>
<polygon fill="#a6cee3" stroke="transparent" points="664,-491 664,-506 755,-506 755,-491 664,-491"/>
<text text-anchor="start" x="728" y="-497" font-family="Ubuntu" font-style="italic" font-size="10.00">string</text>
<text text-anchor="start" x="591" y="-481" font-family="Ubuntu" font-size="10.00">2</text>
<text text-anchor="start" x="601" y="-481" font-family="Ubuntu" font-size="10.00">name</text>
<polygon fill="#a6cee3" stroke="transparent" points="664,-476 664,-491 755,-491 755,-476 664,-476"/>
<text text-anchor="start" x="728" y="-482" font-family="Ubuntu" font-style="italic" font-size="10.00">string</text>
<text text-anchor="start" x="591" y="-466" font-family="Ubuntu" font-size="10.00">3</text>
<text text-anchor="start" x="601" y="-466" font-family="Ubuntu" font-size="10.00">owner</text>
<polygon fill="#a6cee3" stroke="transparent" points="664,-461 664,-476 755,-476 755,-461 664,-461"/>
<text text-anchor="start" x="728" y="-467" font-family="Ubuntu" font-style="italic" font-size="10.00">string</text>
<text text-anchor="start" x="591" y="-451" font-family="Ubuntu" font-size="10.00">4</text>
<text text-anchor="start" x="601" y="-451" font-family="Ubuntu" font-size="10.00">permissions</text>
<polygon fill="#fb9a99" stroke="transparent" points="664,-446 664,-461 755,-461 755,-446 664,-446"/>
<text text-anchor="start" x="694" y="-452" font-family="Ubuntu" font-weight="bold" font-size="10.00">Permissions</text>
<text text-anchor="start" x="591" y="-436" font-family="Ubuntu" font-size="10.00">5</text>
<text text-anchor="start" x="601" y="-436" font-family="Ubuntu" font-size="10.00">objective_key</text>
<polygon fill="#a6cee3" stroke="transparent" points="664,-431 664,-446 755,-446 755,-431 664,-431"/>
<text text-anchor="start" x="728" y="-437" font-family="Ubuntu" font-style="italic" font-size="10.00">string</text>
<text text-anchor="start" x="591" y="-421" font-family="Ubuntu" font-size="10.00">6</text>
<text text-anchor="start" x="601" y="-421" font-family="Ubuntu" font-size="10.00">description</text>
<polygon fill="#fb9a99" stroke="transparent" points="664,-416 664,-431 755,-431 755,-416 664,-416"/>
<text text-anchor="start" x="694" y="-422" font-family="Ubuntu" font-weight="bold" font-size="10.00">Addressable</text>
<text text-anchor="start" x="591" y="-406" font-family="Ubuntu" font-size="10.00">7</text>
<text text-anchor="start" x="601" y="-406" font-family="Ubuntu" font-size="10.00">opener</text>
<polygon fill="#fb9a99" stroke="transparent" points="664,-401 664,-416 755,-416 755,-401 664,-401"/>
<text text-anchor="start" x="694" y="-407" font-family="Ubuntu" font-weight="bold" font-size="10.00">Addressable</text>
<text text-anchor="start" x="591" y="-391" font-family="Ubuntu" font-size="10.00">8</text>
<text text-anchor="start" x="601" y="-391" font-family="Ubuntu" font-size="10.00">metadata</text>
<polygon fill="#a6cee3" stroke="transparent" points="664,-386 664,-401 755,-401 755,-386 664,-386"/>
<text text-anchor="start" x="666" y="-392" font-family="Ubuntu" font-size="10.00">map&lt;string, </text>
<text text-anchor="start" x="721" y="-392" font-family="Ubuntu" font-style="italic" font-size="10.00">string</text>
<text text-anchor="start" x="746" y="-392" font-family="Ubuntu" font-size="10.00">&gt;</text>
<text text-anchor="start" x="591" y="-376" font-family="Ubuntu" font-size="10.00">9</text>
<text text-anchor="start" x="601" y="-376" font-family="Ubuntu" font-size="10.00">type</text>
<polygon fill="#a6cee3" stroke="transparent" points="664,-371 664,-386 755,-386 755,-371 664,-371"/>
<text text-anchor="start" x="728" y="-377" font-family="Ubuntu" font-style="italic" font-size="10.00">string</text>
<polygon fill="none" stroke="black" points="584,-370 584,-522 756,-522 756,-370 584,-370"/>
</a>
</g>
</g>
<!-- Node_Ja_113&#45;&gt;Node_Ja_106 -->
<g id="edge11" class="edge">
<title>Node_Ja_113:e&#45;&gt;Node_Ja_106:header</title>
<g id="a_edge11"><a xlink:title="Ja_113 &#45;&#45;&gt; Ja_106">
<path fill="none" stroke="#000000" d="M273.5,-426C316.73,-426 280.27,-490.2 317,-513 364.76,-542.64 508.38,-517.02 573.83,-514.24"/>
<polygon fill="#000000" stroke="#000000" points="574.09,-517.73 584,-514 573.92,-510.74 574.09,-517.73"/>
</a>
</g>
</g>
<!-- Node_Ja_113&#45;&gt;Node_Ja_106 -->
<g id="edge17" class="edge">
<title>Node_Ja_113:e&#45;&gt;Node_Ja_106:header</title>
<g id="a_edge17"><a xlink:title="Ja_113 &#45;&#45;&gt; Ja_106">
<path fill="none" stroke="#000000" d="M273.5,-365C299.17,-365 292.97,-336.02 317,-327 363.4,-309.59 501.15,-296.23 540,-327 603.92,-377.63 508,-502.13 573.63,-513.21"/>
<polygon fill="#000000" stroke="#000000" points="573.76,-516.73 584,-514 574.3,-509.75 573.76,-516.73"/>
</a>
</g>
</g>
<!-- Node_Ja_110 -->
<g id="node6" class="node">
<title>Node_Ja_110</title>
<g id="a_node6"><a xlink:title="orchestrator.GetDataManagerParam">
<polygon fill="#fffaf0" stroke="transparent" points="372,-340 372,-372 485,-372 485,-340 372,-340"/>
<polygon fill="#e31a1c" stroke="transparent" points="373.5,-356 373.5,-371 484.5,-371 484.5,-356 373.5,-356"/>
<text text-anchor="start" x="375.5" y="-362" font-family="Ubuntu" font-weight="bold" font-size="10.00">GetDataManagerParam</text>
<text text-anchor="start" x="415.5" y="-346" font-family="Ubuntu" font-size="10.00">1</text>
<text text-anchor="start" x="425.5" y="-346" font-family="Ubuntu" font-size="10.00">key</text>
<polygon fill="#a6cee3" stroke="transparent" points="449.5,-341 449.5,-356 484.5,-356 484.5,-341 449.5,-341"/>
<text text-anchor="start" x="457.5" y="-347" font-family="Ubuntu" font-style="italic" font-size="10.00">string</text>
<polygon fill="none" stroke="black" points="372,-340 372,-372 485,-372 485,-340 372,-340"/>
</a>
</g>
</g>
<!-- Node_Ja_113&#45;&gt;Node_Ja_110 -->
<g id="edge3" class="edge">
<title>Node_Ja_113:e&#45;&gt;Node_Ja_110:header</title>
<g id="a_edge3"><a xlink:title="Ja_113 &#45;&#45;&gt; Ja_110">
<path fill="none" stroke="#000000" d="M273.5,-380C314.41,-380 326.08,-366.52 362.19,-364.31"/>
<polygon fill="#000000" stroke="#000000" points="362.61,-367.79 372.5,-364 362.4,-360.8 362.61,-367.79"/>
</a>
</g>
</g>
<!-- Node_Ja_109 -->
<g id="node7" class="node">
<title>Node_Ja_109</title>
<g id="a_node7"><a xlink:title="orchestrator.DataManagerUpdateResponse">
<polygon fill="#fffaf0" stroke="transparent" points="353.5,-403.5 353.5,-420.5 503.5,-420.5 503.5,-403.5 353.5,-403.5"/>
<polygon fill="#e31a1c" stroke="transparent" points="354.5,-404 354.5,-419 502.5,-419 502.5,-404 354.5,-404"/>
<text text-anchor="start" x="359.5" y="-410" font-family="Ubuntu" font-weight="bold" font-size="10.00">DataManagerUpdateResponse</text>
<polygon fill="none" stroke="black" points="353.5,-403.5 353.5,-420.5 503.5,-420.5 503.5,-403.5 353.5,-403.5"/>
</a>
</g>
</g>
<!-- Node_Ja_113&#45;&gt;Node_Ja_109 -->
<g id="edge2" class="edge">
<title>Node_Ja_113:e&#45;&gt;Node_Ja_109:header</title>
<g id="a_edge2"><a xlink:title="Ja_113 &#45;&#45;&gt; Ja_109">
<path fill="none" stroke="#000000" d="M273.5,-395C306.8,-395 343.94,-398.75 373.4,-402.62"/>
<polygon fill="#000000" stroke="#000000" points="373.1,-406.11 383.48,-403.98 374.04,-399.17 373.1,-406.11"/>
</a>
</g>
</g>
<!-- Node_Ja_112 -->
<g id="node8" class="node">
<title>Node_Ja_112</title>
<g id="a_node8"><a xlink:title="orchestrator.QueryDataManagersResponse">
<polygon fill="#fffaf0" stroke="transparent" points="340.5,-173.5 340.5,-220.5 516.5,-220.5 516.5,-173.5 340.5,-173.5"/>
<polygon fill="#e31a1c" stroke="transparent" points="341.5,-204 341.5,-219 515.5,-219 515.5,-204 341.5,-204"/>
<text text-anchor="start" x="372.5" y="-210" font-family="Ubuntu" font-weight="bold" font-size="10.00">QueryDataManagersResponse</text>
<text text-anchor="start" x="343.5" y="-194" font-family="Ubuntu" font-size="10.00">[...]</text>
<text text-anchor="start" x="363.5" y="-194" font-family="Ubuntu" font-size="10.00">1</text>
<text text-anchor="start" x="373.5" y="-194" font-family="Ubuntu" font-size="10.00">data_managers</text>
<polygon fill="#fb9a99" stroke="transparent" points="450.5,-189 450.5,-204 515.5,-204 515.5,-189 450.5,-189"/>
<text text-anchor="start" x="452.5" y="-195" font-family="Ubuntu" font-weight="bold" font-size="10.00">DataManager</text>
<text text-anchor="start" x="363.5" y="-179" font-family="Ubuntu" font-size="10.00">2</text>
<text text-anchor="start" x="373.5" y="-179" font-family="Ubuntu" font-size="10.00">next_page_token</text>
<polygon fill="#a6cee3" stroke="transparent" points="450.5,-174 450.5,-189 515.5,-189 515.5,-174 450.5,-174"/>
<text text-anchor="start" x="488.5" y="-180" font-family="Ubuntu" font-style="italic" font-size="10.00">string</text>
<polygon fill="none" stroke="black" points="340.5,-173.5 340.5,-220.5 516.5,-220.5 516.5,-173.5 340.5,-173.5"/>
</a>
</g>
</g>
<!-- Node_Ja_113&#45;&gt;Node_Ja_112 -->
<g id="edge18" class="edge">
<title>Node_Ja_113:e&#45;&gt;Node_Ja_112:header</title>
<g id="a_edge18"><a xlink:title="Ja_113 &#45;&#45;&gt; Ja_112">
<path fill="none" stroke="#000000" d="M273.5,-335C331.98,-335 284.77,-226.44 330.46,-213.3"/>
<polygon fill="#000000" stroke="#000000" points="331.03,-216.75 340.5,-212 330.13,-209.81 331.03,-216.75"/>
</a>
</g>
</g>
<!-- Node_Ja_105 -->
<g id="node12" class="node">
<title>Node_Ja_105</title>
<g id="a_node12"><a xlink:title="orchestrator.NewPermissions">
<polygon fill="#fffaf0" stroke="transparent" points="808,-560.5 808,-607.5 937,-607.5 937,-560.5 808,-560.5"/>
<polygon fill="#e31a1c" stroke="transparent" points="809.5,-591 809.5,-606 936.5,-606 936.5,-591 809.5,-591"/>
<text text-anchor="start" x="855.5" y="-597" font-family="Ubuntu" font-weight="bold" font-size="10.00">NewPermissions</text>
<text text-anchor="start" x="831.5" y="-581" font-family="Ubuntu" font-size="10.00">1</text>
<text text-anchor="start" x="841.5" y="-581" font-family="Ubuntu" font-size="10.00">public</text>
<polygon fill="#a6cee3" stroke="transparent" points="907.5,-576 907.5,-591 936.5,-591 936.5,-576 907.5,-576"/>
<text text-anchor="start" x="915.5" y="-582" font-family="Ubuntu" font-style="italic" font-size="10.00">bool</text>
<text text-anchor="start" x="811.5" y="-566" font-family="Ubuntu" font-size="10.00">[...]</text>
<text text-anchor="start" x="831.5" y="-566" font-family="Ubuntu" font-size="10.00">2</text>
<text text-anchor="start" x="841.5" y="-566" font-family="Ubuntu" font-size="10.00">authorized_ids</text>
<polygon fill="#a6cee3" stroke="transparent" points="907.5,-561 907.5,-576 936.5,-576 936.5,-561 907.5,-561"/>
<text text-anchor="start" x="909.5" y="-567" font-family="Ubuntu" font-style="italic" font-size="10.00">string</text>
<polygon fill="none" stroke="black" points="808,-560.5 808,-607.5 937,-607.5 937,-560.5 808,-560.5"/>
</a>
</g>
</g>
<!-- Node_Ja_107&#45;&gt;Node_Ja_105 -->
<g id="edge6" class="edge">
<title>Node_Ja_107:e&#45;&gt;Node_Ja_105:header</title>
<g id="a_edge6"><a xlink:title="Ja_107 &#45;&#45;&gt; Ja_105">
<path fill="none" stroke="#000000" d="M522.5,-630C633.9,-630 661.73,-621.84 772,-606 784.39,-604.22 789.48,-601.12 798.4,-599.72"/>
<polygon fill="#000000" stroke="#000000" points="798.77,-603.2 808.5,-599 798.28,-596.22 798.77,-603.2"/>
</a>
</g>
</g>
<!-- Node_Ja_102 -->
<g id="node13" class="node">
<title>Node_Ja_102</title>
<g id="a_node13"><a xlink:title="orchestrator.Addressable">
<polygon fill="#fffaf0" stroke="transparent" points="811.5,-414.5 811.5,-461.5 933.5,-461.5 933.5,-414.5 811.5,-414.5"/>
<polygon fill="#e31a1c" stroke="transparent" points="812.5,-445 812.5,-460 932.5,-460 932.5,-445 812.5,-445"/>
<text text-anchor="start" x="871.5" y="-451" font-family="Ubuntu" font-weight="bold" font-size="10.00">Addressable</text>
<text text-anchor="start" x="818.5" y="-435" font-family="Ubuntu" font-size="10.00">1</text>
<text text-anchor="start" x="828.5" y="-435" font-family="Ubuntu" font-size="10.00">checksum</text>
<polygon fill="#a6cee3" stroke="transparent" points="903.5,-430 903.5,-445 932.5,-445 932.5,-430 903.5,-430"/>
<text text-anchor="start" x="905.5" y="-436" font-family="Ubuntu" font-style="italic" font-size="10.00">string</text>
<text text-anchor="start" x="818.5" y="-420" font-family="Ubuntu" font-size="10.00">2</text>
<text text-anchor="start" x="828.5" y="-420" font-family="Ubuntu" font-size="10.00">storage_address</text>
<polygon fill="#a6cee3" stroke="transparent" points="903.5,-415 903.5,-430 932.5,-430 932.5,-415 903.5,-415"/>
<text text-anchor="start" x="905.5" y="-421" font-family="Ubuntu" font-style="italic" font-size="10.00">string</text>
<polygon fill="none" stroke="black" points="811.5,-414.5 811.5,-461.5 933.5,-461.5 933.5,-414.5 811.5,-414.5"/>
</a>
</g>
</g>
<!-- Node_Ja_107&#45;&gt;Node_Ja_102 -->
<g id="edge1" class="edge">
<title>Node_Ja_107:e&#45;&gt;Node_Ja_102:header</title>
<g id="a_edge1"><a xlink:title="Ja_107 &#45;&#45;&gt; Ja_102">
<path fill="none" stroke="#000000" d="M522.5,-599C578.37,-599 730.79,-605.73 772,-568 808.9,-534.22 765.01,-464.42 801.18,-454.25"/>
<polygon fill="#000000" stroke="#000000" points="801.99,-457.68 811.5,-453 801.15,-450.73 801.99,-457.68"/>
</a>
</g>
</g>
<!-- Node_Ja_107&#45;&gt;Node_Ja_102 -->
<g id="edge9" class="edge">
<title>Node_Ja_107:e&#45;&gt;Node_Ja_102:header</title>
<g id="a_edge9"><a xlink:title="Ja_107 &#45;&#45;&gt; Ja_102">
<path fill="none" stroke="#000000" d="M522.5,-584C547.32,-584 551.83,-573.63 576,-568 662.04,-547.97 704.89,-592.44 772,-535 799.73,-511.26 776.64,-463.6 801.59,-454.51"/>
<polygon fill="#000000" stroke="#000000" points="802.14,-457.97 811.5,-453 801.09,-451.05 802.14,-457.97"/>
</a>
</g>
</g>
<!-- Node_Ja_106&#45;&gt;Node_Ja_102 -->
<g id="edge15" class="edge">
<title>Node_Ja_106:e&#45;&gt;Node_Ja_102:header</title>
<g id="a_edge15"><a xlink:title="Ja_106 &#45;&#45;&gt; Ja_102">
<path fill="none" stroke="#000000" d="M756,-423C780.1,-423 783.06,-445.16 801.21,-451.39"/>
<polygon fill="#000000" stroke="#000000" points="801.08,-454.91 811.5,-453 802.16,-447.99 801.08,-454.91"/>
</a>
</g>
</g>
<!-- Node_Ja_106&#45;&gt;Node_Ja_102 -->
<g id="edge20" class="edge">
<title>Node_Ja_106:e&#45;&gt;Node_Ja_102:header</title>
<g id="a_edge20"><a xlink:title="Ja_106 &#45;&#45;&gt; Ja_102">
<path fill="none" stroke="#000000" d="M756,-408C783.91,-408 781.1,-442.76 801.57,-451.18"/>
<polygon fill="#000000" stroke="#000000" points="801.03,-454.64 811.5,-453 802.29,-447.75 801.03,-454.64"/>
</a>
</g>
</g>
<!-- Node_Ja_103 -->
<g id="node14" class="node">
<title>Node_Ja_103</title>
<g id="a_node14"><a xlink:title="orchestrator.Permissions">
<polygon fill="#fffaf0" stroke="transparent" points="812.5,-487.5 812.5,-534.5 932.5,-534.5 932.5,-487.5 812.5,-487.5"/>
<polygon fill="#e31a1c" stroke="transparent" points="813.5,-518 813.5,-533 931.5,-533 931.5,-518 813.5,-518"/>
<text text-anchor="start" x="870.5" y="-524" font-family="Ubuntu" font-weight="bold" font-size="10.00">Permissions</text>
<text text-anchor="start" x="819.5" y="-508" font-family="Ubuntu" font-size="10.00">1</text>
<text text-anchor="start" x="829.5" y="-508" font-family="Ubuntu" font-size="10.00">process</text>
<polygon fill="#fb9a99" stroke="transparent" points="873.5,-503 873.5,-518 931.5,-518 931.5,-503 873.5,-503"/>
<text text-anchor="start" x="875.5" y="-509" font-family="Ubuntu" font-weight="bold" font-size="10.00">Permission</text>
<text text-anchor="start" x="819.5" y="-493" font-family="Ubuntu" font-size="10.00">2</text>
<text text-anchor="start" x="829.5" y="-493" font-family="Ubuntu" font-size="10.00">download</text>
<polygon fill="#fb9a99" stroke="transparent" points="873.5,-488 873.5,-503 931.5,-503 931.5,-488 873.5,-488"/>
<text text-anchor="start" x="875.5" y="-494" font-family="Ubuntu" font-weight="bold" font-size="10.00">Permission</text>
<polygon fill="none" stroke="black" points="812.5,-487.5 812.5,-534.5 932.5,-534.5 932.5,-487.5 812.5,-487.5"/>
</a>
</g>
</g>
<!-- Node_Ja_106&#45;&gt;Node_Ja_103 -->
<g id="edge14" class="edge">
<title>Node_Ja_106:e&#45;&gt;Node_Ja_103:header</title>
<g id="a_edge14"><a xlink:title="Ja_106 &#45;&#45;&gt; Ja_103">
<path fill="none" stroke="#000000" d="M756,-454C792.7,-454 776.05,-512.62 802.34,-524.07"/>
<polygon fill="#000000" stroke="#000000" points="802.02,-527.58 812.5,-526 803.33,-520.7 802.02,-527.58"/>
</a>
</g>
</g>
<!-- Node_Ja_112&#45;&gt;Node_Ja_106 -->
<g id="edge16" class="edge">
<title>Node_Ja_112:e&#45;&gt;Node_Ja_106:header</title>
<g id="a_edge16"><a xlink:title="Ja_112 &#45;&#45;&gt; Ja_106">
<path fill="none" stroke="#000000" d="M516.5,-196C585.07,-196 519.19,-482.52 574.11,-511.62"/>
<polygon fill="#000000" stroke="#000000" points="573.46,-515.07 584,-514 575.09,-508.26 573.46,-515.07"/>
</a>
</g>
</g>
<!-- Node_Ja_100 -->
<g id="node9" class="node">
<title>Node_Ja_100</title>
<g id="a_node9"><a xlink:title="AssetKind">
<polygon fill="#b2df8a" stroke="transparent" points="80,-812.5 80,-979.5 217,-979.5 217,-812.5 80,-812.5"/>
<polygon fill="#33a02c" stroke="transparent" points="81.5,-963 81.5,-978 216.5,-978 216.5,-963 81.5,-963"/>
<text text-anchor="start" x="137.5" y="-969" font-family="Ubuntu" font-size="10.00">enum </text>
<text text-anchor="start" x="165.5" y="-969" font-family="Ubuntu" font-weight="bold" font-size="10.00">AssetKind</text>
<polygon fill="#b2df8a" stroke="transparent" points="81.5,-948 81.5,-963 206.5,-963 206.5,-948 81.5,-948"/>
<text text-anchor="start" x="83.5" y="-953" font-family="Ubuntu" font-size="10.00">ASSET_UNKNOWN</text>
<polygon fill="#b2df8a" stroke="transparent" points="206.5,-948 206.5,-963 216.5,-963 216.5,-948 206.5,-948"/>
<text text-anchor="start" x="208.5" y="-953" font-family="Ubuntu" font-size="10.00">0</text>
<polygon fill="#b2df8a" stroke="transparent" points="81.5,-933 81.5,-948 206.5,-948 206.5,-933 81.5,-933"/>
<text text-anchor="start" x="83.5" y="-938" font-family="Ubuntu" font-size="10.00">ASSET_NODE</text>
<polygon fill="#b2df8a" stroke="transparent" points="206.5,-933 206.5,-948 216.5,-948 216.5,-933 206.5,-933"/>
<text text-anchor="start" x="208.5" y="-938" font-family="Ubuntu" font-size="10.00">1</text>
<polygon fill="#b2df8a" stroke="transparent" points="81.5,-918 81.5,-933 206.5,-933 206.5,-918 81.5,-918"/>
<text text-anchor="start" x="83.5" y="-923" font-family="Ubuntu" font-size="10.00">ASSET_OBJECTIVE</text>
<polygon fill="#b2df8a" stroke="transparent" points="206.5,-918 206.5,-933 216.5,-933 216.5,-918 206.5,-918"/>
<text text-anchor="start" x="208.5" y="-923" font-family="Ubuntu" font-size="10.00">2</text>
<polygon fill="#b2df8a" stroke="transparent" points="81.5,-903 81.5,-918 206.5,-918 206.5,-903 81.5,-903"/>
<text text-anchor="start" x="83.5" y="-908" font-family="Ubuntu" font-size="10.00">ASSET_DATA_SAMPLE</text>
<polygon fill="#b2df8a" stroke="transparent" points="206.5,-903 206.5,-918 216.5,-918 216.5,-903 206.5,-903"/>
<text text-anchor="start" x="208.5" y="-908" font-family="Ubuntu" font-size="10.00">3</text>
<polygon fill="#b2df8a" stroke="transparent" points="81.5,-888 81.5,-903 206.5,-903 206.5,-888 81.5,-888"/>
<text text-anchor="start" x="83.5" y="-893" font-family="Ubuntu" font-size="10.00">ASSET_DATA_MANAGER</text>
<polygon fill="#b2df8a" stroke="transparent" points="206.5,-888 206.5,-903 216.5,-903 216.5,-888 206.5,-888"/>
<text text-anchor="start" x="208.5" y="-893" font-family="Ubuntu" font-size="10.00">4</text>
<polygon fill="#b2df8a" stroke="transparent" points="81.5,-873 81.5,-888 206.5,-888 206.5,-873 81.5,-873"/>
<text text-anchor="start" x="83.5" y="-878" font-family="Ubuntu" font-size="10.00">ASSET_ALGO</text>
<polygon fill="#b2df8a" stroke="transparent" points="206.5,-873 206.5,-888 216.5,-888 216.5,-873 206.5,-873"/>
<text text-anchor="start" x="208.5" y="-878" font-family="Ubuntu" font-size="10.00">5</text>
<polygon fill="#b2df8a" stroke="transparent" points="81.5,-858 81.5,-873 206.5,-873 206.5,-858 81.5,-858"/>
<text text-anchor="start" x="83.5" y="-863" font-family="Ubuntu" font-size="10.00">ASSET_COMPUTE_TASK</text>
<polygon fill="#b2df8a" stroke="transparent" points="206.5,-858 206.5,-873 216.5,-873 216.5,-858 206.5,-858"/>
<text text-anchor="start" x="208.5" y="-863" font-family="Ubuntu" font-size="10.00">6</text>
<polygon fill="#b2df8a" stroke="transparent" points="81.5,-843 81.5,-858 206.5,-858 206.5,-843 81.5,-843"/>
<text text-anchor="start" x="83.5" y="-848" font-family="Ubuntu" font-size="10.00">ASSET_COMPUTE_PLAN</text>
<polygon fill="#b2df8a" stroke="transparent" points="206.5,-843 206.5,-858 216.5,-858 216.5,-843 206.5,-843"/>
<text text-anchor="start" x="208.5" y="-848" font-family="Ubuntu" font-size="10.00">7</text>
<polygon fill="#b2df8a" stroke="transparent" points="81.5,-828 81.5,-843 206.5,-843 206.5,-828 81.5,-828"/>
<text text-anchor="start" x="83.5" y="-833" font-family="Ubuntu" font-size="10.00">ASSET_MODEL</text>
<polygon fill="#b2df8a" stroke="transparent" points="206.5,-828 206.5,-843 216.5,-843 216.5,-828 206.5,-828"/>
<text text-anchor="start" x="208.5" y="-833" font-family="Ubuntu" font-size="10.00">8</text>
<polygon fill="#b2df8a" stroke="transparent" points="81.5,-813 81.5,-828 206.5,-828 206.5,-813 81.5,-813"/>
<text text-anchor="start" x="83.5" y="-818" font-family="Ubuntu" font-size="10.00">ASSET_PERFORMANCE</text>
<polygon fill="#b2df8a" stroke="transparent" points="206.5,-813 206.5,-828 216.5,-828 216.5,-813 206.5,-813"/>
<text text-anchor="start" x="208.5" y="-818" font-family="Ubuntu" font-size="10.00">9</text>
<polygon fill="none" stroke="black" points="80,-812.5 80,-979.5 217,-979.5 217,-812.5 80,-812.5"/>
</a>
</g>
</g>
<!-- Node_Ja_101 -->
<g id="node10" class="node">
<title>Node_Ja_101</title>
<g id="a_node10"><a xlink:title="SortOrder">
<polygon fill="#b2df8a" stroke="transparent" points="106,-739.5 106,-786.5 191,-786.5 191,-739.5 106,-739.5"/>
<polygon fill="#33a02c" stroke="transparent" points="107.5,-770 107.5,-785 190.5,-785 190.5,-770 107.5,-770"/>
<text text-anchor="start" x="114.5" y="-776" font-family="Ubuntu" font-size="10.00">enum </text>
<text text-anchor="start" x="142.5" y="-776" font-family="Ubuntu" font-weight="bold" font-size="10.00">SortOrder</text>
<polygon fill="#b2df8a" stroke="transparent" points="107.5,-755 107.5,-770 180.5,-770 180.5,-755 107.5,-755"/>
<text text-anchor="start" x="109.5" y="-760" font-family="Ubuntu" font-size="10.00">ASCENDING</text>
<polygon fill="#b2df8a" stroke="transparent" points="180.5,-755 180.5,-770 190.5,-770 190.5,-755 180.5,-755"/>
<text text-anchor="start" x="182.5" y="-760" font-family="Ubuntu" font-size="10.00">0</text>
<polygon fill="#b2df8a" stroke="transparent" points="107.5,-740 107.5,-755 180.5,-755 180.5,-740 107.5,-740"/>
<text text-anchor="start" x="109.5" y="-745" font-family="Ubuntu" font-size="10.00">DESCENDING</text>
<polygon fill="#b2df8a" stroke="transparent" points="180.5,-740 180.5,-755 190.5,-755 190.5,-740 180.5,-740"/>
<text text-anchor="start" x="182.5" y="-745" font-family="Ubuntu" font-size="10.00">1</text>
<polygon fill="none" stroke="black" points="106,-739.5 106,-786.5 191,-786.5 191,-739.5 106,-739.5"/>
</a>
</g>
</g>
<!-- Node_Ja_104 -->
<g id="node11" class="node">
<title>Node_Ja_104</title>
<g id="a_node11"><a xlink:title="orchestrator.Permission">
<polygon fill="#fffaf0" stroke="transparent" points="989,-463.5 989,-510.5 1118,-510.5 1118,-463.5 989,-463.5"/>
<polygon fill="#e31a1c" stroke="transparent" points="990.5,-494 990.5,-509 1117.5,-509 1117.5,-494 990.5,-494"/>
<text text-anchor="start" x="1061.5" y="-500" font-family="Ubuntu" font-weight="bold" font-size="10.00">Permission</text>
<text text-anchor="start" x="1012.5" y="-484" font-family="Ubuntu" font-size="10.00">1</text>
<text text-anchor="start" x="1022.5" y="-484" font-family="Ubuntu" font-size="10.00">public</text>
<polygon fill="#a6cee3" stroke="transparent" points="1088.5,-479 1088.5,-494 1117.5,-494 1117.5,-479 1088.5,-479"/>
<text text-anchor="start" x="1096.5" y="-485" font-family="Ubuntu" font-style="italic" font-size="10.00">bool</text>
<text text-anchor="start" x="992.5" y="-469" font-family="Ubuntu" font-size="10.00">[...]</text>
<text text-anchor="start" x="1012.5" y="-469" font-family="Ubuntu" font-size="10.00">2</text>
<text text-anchor="start" x="1022.5" y="-469" font-family="Ubuntu" font-size="10.00">authorized_ids</text>
<polygon fill="#a6cee3" stroke="transparent" points="1088.5,-464 1088.5,-479 1117.5,-479 1117.5,-464 1088.5,-464"/>
<text text-anchor="start" x="1090.5" y="-470" font-family="Ubuntu" font-style="italic" font-size="10.00">string</text>
<polygon fill="none" stroke="black" points="989,-463.5 989,-510.5 1118,-510.5 1118,-463.5 989,-463.5"/>
</a>
</g>
</g>
<!-- Node_Ja_103&#45;&gt;Node_Ja_104 -->
<g id="edge5" class="edge">
<title>Node_Ja_103:e&#45;&gt;Node_Ja_104:header</title>
<g id="a_edge5"><a xlink:title="Ja_103 &#45;&#45;&gt; Ja_104">
<path fill="none" stroke="#000000" d="M932.5,-510C954.28,-510 961.75,-504.2 979.28,-502.48"/>
<polygon fill="#000000" stroke="#000000" points="979.67,-505.96 989.5,-502 979.35,-498.97 979.67,-505.96"/>
</a>
</g>
</g>
<!-- Node_Ja_103&#45;&gt;Node_Ja_104 -->
<g id="edge19" class="edge">
<title>Node_Ja_103:e&#45;&gt;Node_Ja_104:header</title>
<g id="a_edge19"><a xlink:title="Ja_103 &#45;&#45;&gt; Ja_104">
<path fill="none" stroke="#000000" d="M932.5,-495C954.23,-495 961.78,-500.08 979.3,-501.58"/>
<polygon fill="#000000" stroke="#000000" points="979.37,-505.09 989.5,-502 979.65,-498.09 979.37,-505.09"/>
</a>
</g>
</g>
<!-- Node_Ja_118 -->
<g id="node15" class="node">
<title>Node_Ja_118</title>
<g id="a_node15"><a xlink:title="orchestrator.Dataset">
<polygon fill="#fffaf0" stroke="transparent" points="325,-27 325,-89 532,-89 532,-27 325,-27"/>
<polygon fill="#e31a1c" stroke="transparent" points="326.5,-73 326.5,-88 531.5,-88 531.5,-73 326.5,-73"/>
<text text-anchor="start" x="494.5" y="-79" font-family="Ubuntu" font-weight="bold" font-size="10.00">Dataset</text>
<text text-anchor="start" x="348.5" y="-63" font-family="Ubuntu" font-size="10.00">1</text>
<text text-anchor="start" x="358.5" y="-63" font-family="Ubuntu" font-size="10.00">data_manager</text>
<polygon fill="#fb9a99" stroke="transparent" points="466.5,-58 466.5,-73 531.5,-73 531.5,-58 466.5,-58"/>
<text text-anchor="start" x="468.5" y="-64" font-family="Ubuntu" font-weight="bold" font-size="10.00">DataManager</text>
<text text-anchor="start" x="328.5" y="-48" font-family="Ubuntu" font-size="10.00">[...]</text>
<text text-anchor="start" x="348.5" y="-48" font-family="Ubuntu" font-size="10.00">2</text>
<text text-anchor="start" x="358.5" y="-48" font-family="Ubuntu" font-size="10.00">train_data_sample_keys</text>
<polygon fill="#a6cee3" stroke="transparent" points="466.5,-43 466.5,-58 531.5,-58 531.5,-43 466.5,-43"/>
<text text-anchor="start" x="504.5" y="-49" font-family="Ubuntu" font-style="italic" font-size="10.00">string</text>
<text text-anchor="start" x="328.5" y="-33" font-family="Ubuntu" font-size="10.00">[...]</text>
<text text-anchor="start" x="348.5" y="-33" font-family="Ubuntu" font-size="10.00">3</text>
<text text-anchor="start" x="358.5" y="-33" font-family="Ubuntu" font-size="10.00">test_data_sample_keys</text>
<polygon fill="#a6cee3" stroke="transparent" points="466.5,-28 466.5,-43 531.5,-43 531.5,-28 466.5,-28"/>
<text text-anchor="start" x="504.5" y="-34" font-family="Ubuntu" font-style="italic" font-size="10.00">string</text>
<polygon fill="none" stroke="black" points="325,-27 325,-89 532,-89 532,-27 325,-27"/>
</a>
</g>
</g>
<!-- Node_Ja_118&#45;&gt;Node_Ja_106 -->
<g id="edge8" class="edge">
<title>Node_Ja_118:e&#45;&gt;Node_Ja_106:header</title>
<g id="a_edge8"><a xlink:title="Ja_118 &#45;&#45;&gt; Ja_106">
<path fill="none" stroke="#000000" d="M532.5,-66C628.99,-66 494.5,-481.37 573.85,-512.19"/>
<polygon fill="#000000" stroke="#000000" points="573.54,-515.7 584,-514 574.77,-508.8 573.54,-515.7"/>
</a>
</g>
</g>
<!-- Node_Ja_119 -->
<g id="node16" class="node">
<title>Node_Ja_119</title>
<g id="a_node16"><a xlink:title="orchestrator.GetDatasetParam">
<polygon fill="#fffaf0" stroke="transparent" points="385,-115 385,-147 472,-147 472,-115 385,-115"/>
<polygon fill="#e31a1c" stroke="transparent" points="386.5,-131 386.5,-146 471.5,-146 471.5,-131 386.5,-131"/>
<text text-anchor="start" x="388.5" y="-137" font-family="Ubuntu" font-weight="bold" font-size="10.00">GetDatasetParam</text>
<text text-anchor="start" x="408.5" y="-121" font-family="Ubuntu" font-size="10.00">1</text>
<text text-anchor="start" x="418.5" y="-121" font-family="Ubuntu" font-size="10.00">key</text>
<polygon fill="#a6cee3" stroke="transparent" points="439.5,-116 439.5,-131 471.5,-131 471.5,-116 439.5,-116"/>
<text text-anchor="start" x="444.5" y="-122" font-family="Ubuntu" font-style="italic" font-size="10.00">string</text>
<polygon fill="none" stroke="black" points="385,-115 385,-147 472,-147 472,-115 385,-115"/>
</a>
</g>
</g>
<!-- Node_Ja_120 -->
<g id="node17" class="node">
<title>Node_Ja_120</title>
<g id="a_node17"><a xlink:title="DatasetService">
<polygon fill="#ffd700" stroke="transparent" points="76.5,-87.5 76.5,-134.5 220.5,-134.5 220.5,-87.5 76.5,-87.5"/>
<polygon fill="#ff7f50" stroke="transparent" points="77.5,-118 77.5,-133 219.5,-133 219.5,-118 77.5,-118"/>
<text text-anchor="start" x="147.5" y="-124" font-family="Ubuntu" font-weight="bold" font-size="10.00">DatasetService</text>
<text text-anchor="start" x="79.5" y="-109" font-family="Ubuntu" font-weight="bold" font-size="10.00">GetDataset</text>
<text text-anchor="start" x="138.5" y="-108" font-family="Ubuntu" font-size="10.00">GetDatasetParam</text>
<polygon fill="#ff7f50" stroke="transparent" points="132.5,-88 132.5,-103 136.5,-103 136.5,-88 132.5,-88"/>
<polygon fill="#ff7f50" stroke="transparent" points="136.5,-88 136.5,-103 219.5,-103 219.5,-88 136.5,-88"/>
<text text-anchor="start" x="182.5" y="-93" font-family="Ubuntu" font-size="10.00">Dataset</text>
<polygon fill="none" stroke="black" points="76.5,-87.5 76.5,-134.5 220.5,-134.5 220.5,-87.5 76.5,-87.5"/>
</a>
</g>
</g>
<!-- Node_Ja_120&#45;&gt;Node_Ja_118 -->
<g id="edge13" class="edge">
<title>Node_Ja_120:e&#45;&gt;Node_Ja_118:header</title>
<g id="a_edge13"><a xlink:title="Ja_120 &#45;&#45;&gt; Ja_118">
<path fill="none" stroke="#000000" d="M220.5,-95C263.9,-95 276.51,-83.1 315.09,-81.24"/>
<polygon fill="#000000" stroke="#000000" points="315.58,-84.73 325.5,-81 315.42,-77.73 315.58,-84.73"/>
</a>
</g>
</g>
<!-- Node_Ja_120&#45;&gt;Node_Ja_119 -->
<g id="edge4" class="edge">
<title>Node_Ja_120:e&#45;&gt;Node_Ja_119:header</title>
<g id="a_edge4"><a xlink:title="Ja_120 &#45;&#45;&gt; Ja_119">
<path fill="none" stroke="#000000" d="M220.5,-110C291.47,-110 309.41,-136.34 375.4,-138.81"/>
<polygon fill="#000000" stroke="#000000" points="375.44,-142.32 385.5,-139 375.57,-135.32 375.44,-142.32"/>
</a>
</g>
</g>
</g>
</svg>
