<?xml version="1.0" encoding="UTF-8" standalone="no"?>
<!DOCTYPE svg PUBLIC "-//W3C//DTD SVG 1.1//EN"
 "http://www.w3.org/Graphics/SVG/1.1/DTD/svg11.dtd">
<!-- Generated by graphviz version 2.47.3 (20210619.1520)
 -->
<!-- Title: protodot Pages: 1 -->
<svg width="709pt" height="461pt"
 viewBox="0.00 0.00 709.00 461.00" xmlns="http://www.w3.org/2000/svg" xmlns:xlink="http://www.w3.org/1999/xlink">
<g id="graph0" class="graph" transform="scale(1 1) rotate(0) translate(4 457)">
<title>protodot</title>
<g id="a_graph0"><a xlink:title="orchestrator">
<text text-anchor="middle" x="350.5" y="-7.8" font-family="Times,serif" font-size="14.00">orchestrator</text>
</a>
</g>
<!-- Node_Ja_100 -->
<g id="node1" class="node">
<title>Node_Ja_100</title>
<g id="a_node1"><a xlink:title="orchestrator.DataSample">
<polygon fill="#fffaf0" stroke="transparent" points="540,-27 540,-119 693,-119 693,-27 540,-27"/>
<polygon fill="#e31a1c" stroke="transparent" points="541.5,-103 541.5,-118 692.5,-118 692.5,-103 541.5,-103"/>
<text text-anchor="start" x="633.5" y="-109" font-family="Ubuntu" font-weight="bold" font-size="10.00">DataSample</text>
<text text-anchor="start" x="563.5" y="-93" font-family="Ubuntu" font-size="10.00">1</text>
<text text-anchor="start" x="573.5" y="-93" font-family="Ubuntu" font-size="10.00">key</text>
<polygon fill="#a6cee3" stroke="transparent" points="663.5,-88 663.5,-103 692.5,-103 692.5,-88 663.5,-88"/>
<text text-anchor="start" x="665.5" y="-94" font-family="Ubuntu" font-style="italic" font-size="10.00">string</text>
<text text-anchor="start" x="543.5" y="-78" font-family="Ubuntu" font-size="10.00">[...]</text>
<text text-anchor="start" x="563.5" y="-78" font-family="Ubuntu" font-size="10.00">2</text>
<text text-anchor="start" x="573.5" y="-78" font-family="Ubuntu" font-size="10.00">data_manager_keys</text>
<polygon fill="#a6cee3" stroke="transparent" points="663.5,-73 663.5,-88 692.5,-88 692.5,-73 663.5,-73"/>
<text text-anchor="start" x="665.5" y="-79" font-family="Ubuntu" font-style="italic" font-size="10.00">string</text>
<text text-anchor="start" x="563.5" y="-63" font-family="Ubuntu" font-size="10.00">3</text>
<text text-anchor="start" x="573.5" y="-63" font-family="Ubuntu" font-size="10.00">owner</text>
<polygon fill="#a6cee3" stroke="transparent" points="663.5,-58 663.5,-73 692.5,-73 692.5,-58 663.5,-58"/>
<text text-anchor="start" x="665.5" y="-64" font-family="Ubuntu" font-style="italic" font-size="10.00">string</text>
<text text-anchor="start" x="563.5" y="-48" font-family="Ubuntu" font-size="10.00">4</text>
<text text-anchor="start" x="573.5" y="-48" font-family="Ubuntu" font-size="10.00">test_only</text>
<polygon fill="#a6cee3" stroke="transparent" points="663.5,-43 663.5,-58 692.5,-58 692.5,-43 663.5,-43"/>
<text text-anchor="start" x="671.5" y="-49" font-family="Ubuntu" font-style="italic" font-size="10.00">bool</text>
<text text-anchor="start" x="563.5" y="-33" font-family="Ubuntu" font-size="10.00">5</text>
<text text-anchor="start" x="573.5" y="-33" font-family="Ubuntu" font-size="10.00">checksum</text>
<polygon fill="#a6cee3" stroke="transparent" points="663.5,-28 663.5,-43 692.5,-43 692.5,-28 663.5,-28"/>
<text text-anchor="start" x="665.5" y="-34" font-family="Ubuntu" font-style="italic" font-size="10.00">string</text>
<polygon fill="none" stroke="black" points="540,-27 540,-119 693,-119 693,-27 540,-27"/>
</a>
</g>
</g>
<!-- Node_Ja_101 -->
<g id="node2" class="node">
<title>Node_Ja_101</title>
<g id="a_node2"><a xlink:title="orchestrator.NewDataSample">
<polygon fill="#fffaf0" stroke="transparent" points="540,-356.5 540,-433.5 693,-433.5 693,-356.5 540,-356.5"/>
<polygon fill="#e31a1c" stroke="transparent" points="541.5,-417 541.5,-432 692.5,-432 692.5,-417 541.5,-417"/>
<text text-anchor="start" x="613.5" y="-423" font-family="Ubuntu" font-weight="bold" font-size="10.00">NewDataSample</text>
<text text-anchor="start" x="563.5" y="-407" font-family="Ubuntu" font-size="10.00">1</text>
<text text-anchor="start" x="573.5" y="-407" font-family="Ubuntu" font-size="10.00">key</text>
<polygon fill="#a6cee3" stroke="transparent" points="663.5,-402 663.5,-417 692.5,-417 692.5,-402 663.5,-402"/>
<text text-anchor="start" x="665.5" y="-408" font-family="Ubuntu" font-style="italic" font-size="10.00">string</text>
<text text-anchor="start" x="543.5" y="-392" font-family="Ubuntu" font-size="10.00">[...]</text>
<text text-anchor="start" x="563.5" y="-392" font-family="Ubuntu" font-size="10.00">2</text>
<text text-anchor="start" x="573.5" y="-392" font-family="Ubuntu" font-size="10.00">data_manager_keys</text>
<polygon fill="#a6cee3" stroke="transparent" points="663.5,-387 663.5,-402 692.5,-402 692.5,-387 663.5,-387"/>
<text text-anchor="start" x="665.5" y="-393" font-family="Ubuntu" font-style="italic" font-size="10.00">string</text>
<text text-anchor="start" x="563.5" y="-377" font-family="Ubuntu" font-size="10.00">3</text>
<text text-anchor="start" x="573.5" y="-377" font-family="Ubuntu" font-size="10.00">test_only</text>
<polygon fill="#a6cee3" stroke="transparent" points="663.5,-372 663.5,-387 692.5,-387 692.5,-372 663.5,-372"/>
<text text-anchor="start" x="671.5" y="-378" font-family="Ubuntu" font-style="italic" font-size="10.00">bool</text>
<text text-anchor="start" x="563.5" y="-362" font-family="Ubuntu" font-size="10.00">4</text>
<text text-anchor="start" x="573.5" y="-362" font-family="Ubuntu" font-size="10.00">checksum</text>
<polygon fill="#a6cee3" stroke="transparent" points="663.5,-357 663.5,-372 692.5,-372 692.5,-357 663.5,-357"/>
<text text-anchor="start" x="665.5" y="-363" font-family="Ubuntu" font-style="italic" font-size="10.00">string</text>
<polygon fill="none" stroke="black" points="540,-356.5 540,-433.5 693,-433.5 693,-356.5 540,-356.5"/>
</a>
</g>
</g>
<!-- Node_Ja_102 -->
<g id="node3" class="node">
<title>Node_Ja_102</title>
<g id="a_node3"><a xlink:title="orchestrator.RegisterDataSamplesParam">
<polygon fill="#fffaf0" stroke="transparent" points="325,-417 325,-449 479,-449 479,-417 325,-417"/>
<polygon fill="#e31a1c" stroke="transparent" points="326,-433 326,-448 478,-448 478,-433 326,-433"/>
<text text-anchor="start" x="345" y="-439" font-family="Ubuntu" font-weight="bold" font-size="10.00">RegisterDataSamplesParam</text>
<text text-anchor="start" x="328" y="-423" font-family="Ubuntu" font-size="10.00">[...]</text>
<text text-anchor="start" x="348" y="-423" font-family="Ubuntu" font-size="10.00">1</text>
<text text-anchor="start" x="358" y="-423" font-family="Ubuntu" font-size="10.00">samples</text>
<polygon fill="#fb9a99" stroke="transparent" points="397,-418 397,-433 478,-433 478,-418 397,-418"/>
<text text-anchor="start" x="399" y="-424" font-family="Ubuntu" font-weight="bold" font-size="10.00">NewDataSample</text>
<polygon fill="none" stroke="black" points="325,-417 325,-449 479,-449 479,-417 325,-417"/>
</a>
</g>
</g>
<!-- Node_Ja_102&#45;&gt;Node_Ja_101 -->
<g id="edge7" class="edge">
<title>Node_Ja_102:e&#45;&gt;Node_Ja_101:header</title>
<g id="a_edge7"><a xlink:title="Ja_102 &#45;&#45;&gt; Ja_101">
<path fill="none" stroke="#000000" d="M479,-425C502.6,-425 510.91,-425 530.33,-425"/>
<polygon fill="#000000" stroke="#000000" points="530.5,-428.5 540.5,-425 530.5,-421.5 530.5,-428.5"/>
</a>
</g>
</g>
<!-- Node_Ja_105 -->
<g id="node4" class="node">
<title>Node_Ja_105</title>
<g id="a_node4"><a xlink:title="orchestrator.UpdateDataSamplesResponse">
<polygon fill="#fffaf0" stroke="transparent" points="327,-240.5 327,-257.5 477,-257.5 477,-240.5 327,-240.5"/>
<polygon fill="#e31a1c" stroke="transparent" points="328,-241 328,-256 476,-256 476,-241 328,-241"/>
<text text-anchor="start" x="332" y="-247" font-family="Ubuntu" font-weight="bold" font-size="10.00">UpdateDataSamplesResponse</text>
<polygon fill="none" stroke="black" points="327,-240.5 327,-257.5 477,-257.5 477,-240.5 327,-240.5"/>
</a>
</g>
</g>
<!-- Node_Ja_106 -->
<g id="node5" class="node">
<title>Node_Ja_106</title>
<g id="a_node5"><a xlink:title="orchestrator.QueryDataSamplesParam">
<polygon fill="#fffaf0" stroke="transparent" points="339,-161.5 339,-208.5 465,-208.5 465,-161.5 339,-161.5"/>
<polygon fill="#e31a1c" stroke="transparent" points="340,-192 340,-207 464,-207 464,-192 340,-192"/>
<text text-anchor="start" x="342" y="-198" font-family="Ubuntu" font-weight="bold" font-size="10.00">QueryDataSamplesParam</text>
<text text-anchor="start" x="364" y="-182" font-family="Ubuntu" font-size="10.00">1</text>
<text text-anchor="start" x="374" y="-182" font-family="Ubuntu" font-size="10.00">page_token</text>
<polygon fill="#a6cee3" stroke="transparent" points="430,-177 430,-192 464,-192 464,-177 430,-177"/>
<text text-anchor="start" x="437" y="-183" font-family="Ubuntu" font-style="italic" font-size="10.00">string</text>
<text text-anchor="start" x="364" y="-167" font-family="Ubuntu" font-size="10.00">2</text>
<text text-anchor="start" x="374" y="-167" font-family="Ubuntu" font-size="10.00">page_size</text>
<polygon fill="#a6cee3" stroke="transparent" points="430,-162 430,-177 464,-177 464,-162 430,-162"/>
<text text-anchor="start" x="435" y="-168" font-family="Ubuntu" font-style="italic" font-size="10.00">uint32</text>
<polygon fill="none" stroke="black" points="339,-161.5 339,-208.5 465,-208.5 465,-161.5 339,-161.5"/>
</a>
</g>
</g>
<!-- Node_Ja_103 -->
<g id="node6" class="node">
<title>Node_Ja_103</title>
<g id="a_node6"><a xlink:title="orchestrator.RegisterDataSamplesResponse">
<polygon fill="#fffaf0" stroke="transparent" points="325,-368.5 325,-385.5 479,-385.5 479,-368.5 325,-368.5"/>
<polygon fill="#e31a1c" stroke="transparent" points="326,-369 326,-384 478,-384 478,-369 326,-369"/>
<text text-anchor="start" x="328" y="-375" font-family="Ubuntu" font-weight="bold" font-size="10.00">RegisterDataSamplesResponse</text>
<polygon fill="none" stroke="black" points="325,-368.5 325,-385.5 479,-385.5 479,-368.5 325,-368.5"/>
</a>
</g>
</g>
<!-- Node_Ja_104 -->
<g id="node7" class="node">
<title>Node_Ja_104</title>
<g id="a_node7"><a xlink:title="orchestrator.UpdateDataSamplesParam">
<polygon fill="#fffaf0" stroke="transparent" points="325.5,-289.5 325.5,-336.5 478.5,-336.5 478.5,-289.5 325.5,-289.5"/>
<polygon fill="#e31a1c" stroke="transparent" points="327,-320 327,-335 478,-335 478,-320 327,-320"/>
<text text-anchor="start" x="351" y="-326" font-family="Ubuntu" font-weight="bold" font-size="10.00">UpdateDataSamplesParam</text>
<text text-anchor="start" x="329" y="-310" font-family="Ubuntu" font-size="10.00">[...]</text>
<text text-anchor="start" x="349" y="-310" font-family="Ubuntu" font-size="10.00">1</text>
<text text-anchor="start" x="359" y="-310" font-family="Ubuntu" font-size="10.00">keys</text>
<polygon fill="#a6cee3" stroke="transparent" points="449,-305 449,-320 478,-320 478,-305 449,-305"/>
<text text-anchor="start" x="451" y="-311" font-family="Ubuntu" font-style="italic" font-size="10.00">string</text>
<text text-anchor="start" x="329" y="-295" font-family="Ubuntu" font-size="10.00">[...]</text>
<text text-anchor="start" x="349" y="-295" font-family="Ubuntu" font-size="10.00">2</text>
<text text-anchor="start" x="359" y="-295" font-family="Ubuntu" font-size="10.00">data_manager_keys</text>
<polygon fill="#a6cee3" stroke="transparent" points="449,-290 449,-305 478,-305 478,-290 449,-290"/>
<text text-anchor="start" x="451" y="-296" font-family="Ubuntu" font-style="italic" font-size="10.00">string</text>
<polygon fill="none" stroke="black" points="325.5,-289.5 325.5,-336.5 478.5,-336.5 478.5,-289.5 325.5,-289.5"/>
</a>
</g>
</g>
<!-- Node_Ja_107 -->
<g id="node8" class="node">
<title>Node_Ja_107</title>
<g id="a_node8"><a xlink:title="orchestrator.QueryDataSamplesResponse">
<polygon fill="#fffaf0" stroke="transparent" points="316,-88.5 316,-135.5 488,-135.5 488,-88.5 316,-88.5"/>
<polygon fill="#e31a1c" stroke="transparent" points="317,-119 317,-134 487,-134 487,-119 317,-119"/>
<text text-anchor="start" x="349" y="-125" font-family="Ubuntu" font-weight="bold" font-size="10.00">QueryDataSamplesResponse</text>
<text text-anchor="start" x="319" y="-109" font-family="Ubuntu" font-size="10.00">[...]</text>
<text text-anchor="start" x="339" y="-109" font-family="Ubuntu" font-size="10.00">1</text>
<text text-anchor="start" x="349" y="-109" font-family="Ubuntu" font-size="10.00">data_samples</text>
<polygon fill="#fb9a99" stroke="transparent" points="426,-104 426,-119 487,-119 487,-104 426,-104"/>
<text text-anchor="start" x="428" y="-110" font-family="Ubuntu" font-weight="bold" font-size="10.00">DataSample</text>
<text text-anchor="start" x="339" y="-94" font-family="Ubuntu" font-size="10.00">2</text>
<text text-anchor="start" x="349" y="-94" font-family="Ubuntu" font-size="10.00">next_page_token</text>
<polygon fill="#a6cee3" stroke="transparent" points="426,-89 426,-104 487,-104 487,-89 426,-89"/>
<text text-anchor="start" x="460" y="-95" font-family="Ubuntu" font-style="italic" font-size="10.00">string</text>
<polygon fill="none" stroke="black" points="316,-88.5 316,-135.5 488,-135.5 488,-88.5 316,-88.5"/>
</a>
</g>
</g>
<!-- Node_Ja_107&#45;&gt;Node_Ja_100 -->
<g id="edge8" class="edge">
<title>Node_Ja_107:e&#45;&gt;Node_Ja_100:header</title>
<g id="a_edge8"><a xlink:title="Ja_107 &#45;&#45;&gt; Ja_100">
<path fill="none" stroke="#000000" d="M488,-111C507.51,-111 514.78,-111 530.27,-111"/>
<polygon fill="#000000" stroke="#000000" points="530.5,-114.5 540.5,-111 530.5,-107.5 530.5,-114.5"/>
</a>
</g>
</g>
<!-- Node_Ja_108 -->
<g id="node9" class="node">
<title>Node_Ja_108</title>
<g id="a_node9"><a xlink:title="DataSampleService">
<polygon fill="#ffd700" stroke="transparent" points="8,-242.5 8,-349.5 264,-349.5 264,-242.5 8,-242.5"/>
<polygon fill="#ff7f50" stroke="transparent" points="9,-333 9,-348 263,-348 263,-333 9,-333"/>
<text text-anchor="start" x="170" y="-339" font-family="Ubuntu" font-weight="bold" font-size="10.00">DataSampleService</text>
<text text-anchor="start" x="11" y="-324" font-family="Ubuntu" font-weight="bold" font-size="10.00">RegisterDataSamples</text>
<text text-anchor="start" x="136" y="-323" font-family="Ubuntu" font-size="10.00">RegisterDataSamplesParam</text>
<polygon fill="#ff7f50" stroke="transparent" points="114,-303 114,-318 118,-318 118,-303 114,-303"/>
<polygon fill="#ff7f50" stroke="transparent" points="118,-303 118,-318 263,-318 263,-303 118,-303"/>
<text text-anchor="start" x="120" y="-308" font-family="Ubuntu" font-size="10.00">RegisterDataSamplesResponse</text>
<text text-anchor="start" x="11" y="-294" font-family="Ubuntu" font-weight="bold" font-size="10.00">UpdateDataSamples</text>
<text text-anchor="start" x="141" y="-293" font-family="Ubuntu" font-size="10.00">UpdateDataSamplesParam</text>
<polygon fill="#ff7f50" stroke="transparent" points="114,-273 114,-288 118,-288 118,-273 114,-273"/>
<polygon fill="#ff7f50" stroke="transparent" points="118,-273 118,-288 263,-288 263,-273 118,-273"/>
<text text-anchor="start" x="125" y="-278" font-family="Ubuntu" font-size="10.00">UpdateDataSamplesResponse</text>
<text text-anchor="start" x="11" y="-264" font-family="Ubuntu" font-weight="bold" font-size="10.00">QueryDataSamples</text>
<text text-anchor="start" x="146" y="-263" font-family="Ubuntu" font-size="10.00">QueryDataSamplesParam</text>
<polygon fill="#ff7f50" stroke="transparent" points="114,-243 114,-258 118,-258 118,-243 114,-243"/>
<polygon fill="#ff7f50" stroke="transparent" points="118,-243 118,-258 263,-258 263,-243 118,-243"/>
<text text-anchor="start" x="131" y="-248" font-family="Ubuntu" font-size="10.00">QueryDataSamplesResponse</text>
<polygon fill="none" stroke="black" points="8,-242.5 8,-349.5 264,-349.5 264,-242.5 8,-242.5"/>
</a>
</g>
</g>
<!-- Node_Ja_108&#45;&gt;Node_Ja_102 -->
<g id="edge1" class="edge">
<title>Node_Ja_108:e&#45;&gt;Node_Ja_102:header</title>
<g id="a_edge1"><a xlink:title="Ja_108 &#45;&#45;&gt; Ja_102">
<path fill="none" stroke="#000000" d="M264,-326C318.01,-326 273.91,-426.23 314.9,-439.55"/>
<polygon fill="#000000" stroke="#000000" points="314.6,-443.04 325,-441 315.6,-436.11 314.6,-443.04"/>
</a>
</g>
</g>
<!-- Node_Ja_108&#45;&gt;Node_Ja_105 -->
<g id="edge4" class="edge">
<title>Node_Ja_108:e&#45;&gt;Node_Ja_105:header</title>
<g id="a_edge4"><a xlink:title="Ja_108 &#45;&#45;&gt; Ja_105">
<path fill="none" stroke="#000000" d="M264,-280C301.25,-280 342.74,-268.64 370.2,-259.46"/>
<polygon fill="#000000" stroke="#000000" points="371.69,-262.65 380,-256.07 369.4,-256.03 371.69,-262.65"/>
</a>
</g>
</g>
<!-- Node_Ja_108&#45;&gt;Node_Ja_106 -->
<g id="edge5" class="edge">
<title>Node_Ja_108:e&#45;&gt;Node_Ja_106:header</title>
<g id="a_edge5"><a xlink:title="Ja_108 &#45;&#45;&gt; Ja_106">
<path fill="none" stroke="#000000" d="M264,-265C304.32,-265 296.74,-210.69 328.83,-201.36"/>
<polygon fill="#000000" stroke="#000000" points="329.55,-204.79 339,-200 328.62,-197.85 329.55,-204.79"/>
</a>
</g>
</g>
<!-- Node_Ja_108&#45;&gt;Node_Ja_103 -->
<g id="edge2" class="edge">
<title>Node_Ja_108:e&#45;&gt;Node_Ja_103:header</title>
<g id="a_edge2"><a xlink:title="Ja_108 &#45;&#45;&gt; Ja_103">
<path fill="none" stroke="#000000" d="M264,-311C290.13,-311 285.05,-337.5 308,-350 321.28,-357.23 336.74,-362.6 351.2,-366.51"/>
<polygon fill="#000000" stroke="#000000" points="350.46,-369.94 361.02,-369 352.18,-363.15 350.46,-369.94"/>
</a>
</g>
</g>
<!-- Node_Ja_108&#45;&gt;Node_Ja_104 -->
<g id="edge3" class="edge">
<title>Node_Ja_108:e&#45;&gt;Node_Ja_104:header</title>
<g id="a_edge3"><a xlink:title="Ja_108 &#45;&#45;&gt; Ja_104">
<path fill="none" stroke="#000000" d="M264,-295C291.44,-295 294.42,-320.49 315.94,-326.67"/>
<polygon fill="#000000" stroke="#000000" points="315.63,-330.15 326,-328 316.55,-323.22 315.63,-330.15"/>
</a>
</g>
</g>
<!-- Node_Ja_108&#45;&gt;Node_Ja_107 -->
<g id="edge6" class="edge">
<title>Node_Ja_108:e&#45;&gt;Node_Ja_107:header</title>
<g id="a_edge6"><a xlink:title="Ja_108 &#45;&#45;&gt; Ja_107">
<path fill="none" stroke="#000000" d="M264,-250C319.53,-250 264.72,-142.34 306.03,-128.47"/>
<polygon fill="#000000" stroke="#000000" points="306.62,-131.92 316,-127 305.6,-124.99 306.62,-131.92"/>
</a>
</g>
</g>
</g>
</svg>
