<?xml version="1.0" encoding="UTF-8" standalone="no"?>
<!DOCTYPE svg PUBLIC "-//W3C//DTD SVG 1.1//EN"
 "http://www.w3.org/Graphics/SVG/1.1/DTD/svg11.dtd">
<!-- Generated by graphviz version 2.47.3 (20210619.1520)
 -->
<!-- Title: protodot Pages: 1 -->
<svg width="829pt" height="636pt"
 viewBox="0.00 0.00 829.00 636.00" xmlns="http://www.w3.org/2000/svg" xmlns:xlink="http://www.w3.org/1999/xlink">
<g id="graph0" class="graph" transform="scale(1 1) rotate(0) translate(4 632)">
<title>protodot</title>
<g id="a_graph0"><a xlink:title="orchestrator">
<text text-anchor="middle" x="410.5" y="-7.8" font-family="Times,serif" font-size="14.00">orchestrator</text>
</a>
</g>
<g id="clust1" class="cluster">
<title>cluster_308971b5abce</title>
<g id="a_clust1"><a xlink:title="common.proto">
<polygon fill="#caff70" stroke="black" points="15.5,-379 15.5,-620 393.5,-620 393.5,-379 15.5,-379"/>
<text text-anchor="middle" x="204.5" y="-604.8" font-family="Times,serif" font-size="14.00">common.proto</text>
</a>
</g>
</g>
<g id="clust2" class="cluster">
<title>cluster_17479c12eb21</title>
<g id="a_clust2"><a xlink:title="orchestrator">
<polygon fill="#caff70" stroke="black" points="637,-31 637,-422 813,-422 813,-31 637,-31"/>
<text text-anchor="middle" x="725" y="-406.8" font-family="Times,serif" font-size="14.00">orchestrator</text>
</a>
</g>
</g>
<!-- Node_Ja_107 -->
<g id="node1" class="node">
<title>Node_Ja_107</title>
<g id="a_node1"><a xlink:title="orchestrator.Event">
<polygon fill="#fffaf0" stroke="transparent" points="442,-117 442,-239 601,-239 601,-117 442,-117"/>
<polygon fill="#e31a1c" stroke="transparent" points="443.5,-223 443.5,-238 600.5,-238 600.5,-223 443.5,-223"/>
<text text-anchor="start" x="571.5" y="-229" font-family="Ubuntu" font-weight="bold" font-size="10.00">Event</text>
<text text-anchor="start" x="449.5" y="-213" font-family="Ubuntu" font-size="10.00">1</text>
<text text-anchor="start" x="459.5" y="-213" font-family="Ubuntu" font-size="10.00">id</text>
<polygon fill="#a6cee3" stroke="transparent" points="509.5,-208 509.5,-223 600.5,-223 600.5,-208 509.5,-208"/>
<text text-anchor="start" x="573.5" y="-214" font-family="Ubuntu" font-style="italic" font-size="10.00">string</text>
<text text-anchor="start" x="449.5" y="-198" font-family="Ubuntu" font-size="10.00">2</text>
<text text-anchor="start" x="459.5" y="-198" font-family="Ubuntu" font-size="10.00">asset_key</text>
<polygon fill="#a6cee3" stroke="transparent" points="509.5,-193 509.5,-208 600.5,-208 600.5,-193 509.5,-193"/>
<text text-anchor="start" x="573.5" y="-199" font-family="Ubuntu" font-style="italic" font-size="10.00">string</text>
<text text-anchor="start" x="449.5" y="-183" font-family="Ubuntu" font-size="10.00">3</text>
<text text-anchor="start" x="459.5" y="-183" font-family="Ubuntu" font-size="10.00">asset_kind</text>
<polygon fill="#b2df8a" stroke="transparent" points="509.5,-178 509.5,-193 600.5,-193 600.5,-178 509.5,-178"/>
<text text-anchor="start" x="552.5" y="-184" font-family="Ubuntu" text-decoration="underline" font-size="10.00">AssetKind</text>
<text text-anchor="start" x="449.5" y="-168" font-family="Ubuntu" font-size="10.00">4</text>
<text text-anchor="start" x="459.5" y="-168" font-family="Ubuntu" font-size="10.00">event_kind</text>
<polygon fill="#b2df8a" stroke="transparent" points="509.5,-163 509.5,-178 600.5,-178 600.5,-163 509.5,-163"/>
<text text-anchor="start" x="552.5" y="-169" font-family="Ubuntu" text-decoration="underline" font-size="10.00">EventKind</text>
<text text-anchor="start" x="449.5" y="-153" font-family="Ubuntu" font-size="10.00">5</text>
<text text-anchor="start" x="459.5" y="-153" font-family="Ubuntu" font-size="10.00">channel</text>
<polygon fill="#a6cee3" stroke="transparent" points="509.5,-148 509.5,-163 600.5,-163 600.5,-148 509.5,-148"/>
<text text-anchor="start" x="573.5" y="-154" font-family="Ubuntu" font-style="italic" font-size="10.00">string</text>
<text text-anchor="start" x="449.5" y="-138" font-family="Ubuntu" font-size="10.00">6</text>
<text text-anchor="start" x="459.5" y="-138" font-family="Ubuntu" font-size="10.00">metadata</text>
<polygon fill="#a6cee3" stroke="transparent" points="509.5,-133 509.5,-148 600.5,-148 600.5,-133 509.5,-133"/>
<text text-anchor="start" x="511.5" y="-139" font-family="Ubuntu" font-size="10.00">map&lt;string, </text>
<text text-anchor="start" x="566.5" y="-139" font-family="Ubuntu" font-style="italic" font-size="10.00">string</text>
<text text-anchor="start" x="591.5" y="-139" font-family="Ubuntu" font-size="10.00">&gt;</text>
<text text-anchor="start" x="449.5" y="-123" font-family="Ubuntu" font-size="10.00">7</text>
<text text-anchor="start" x="459.5" y="-123" font-family="Ubuntu" font-size="10.00">timestamp</text>
<polygon fill="#a6cee3" stroke="transparent" points="509.5,-118 509.5,-133 600.5,-133 600.5,-118 509.5,-118"/>
<text text-anchor="start" x="571.5" y="-124" font-family="Ubuntu" font-style="italic" font-size="10.00">uint64</text>
<polygon fill="none" stroke="black" points="442,-117 442,-239 601,-239 601,-117 442,-117"/>
</a>
</g>
</g>
<!-- Node_Ja_106 -->
<g id="node10" class="node">
<title>Node_Ja_106</title>
<g id="a_node10"><a xlink:title="EventKind">
<polygon fill="#b2df8a" stroke="transparent" points="653,-116.5 653,-193.5 797,-193.5 797,-116.5 653,-116.5"/>
<polygon fill="#33a02c" stroke="transparent" points="654,-177 654,-192 796,-192 796,-177 654,-177"/>
<text text-anchor="start" x="717" y="-183" font-family="Ubuntu" font-size="10.00">enum </text>
<text text-anchor="start" x="745" y="-183" font-family="Ubuntu" font-weight="bold" font-size="10.00">EventKind</text>
<polygon fill="#b2df8a" stroke="transparent" points="654,-162 654,-177 786,-177 786,-162 654,-162"/>
<text text-anchor="start" x="656" y="-167" font-family="Ubuntu" font-size="10.00">EVENT_UNKNOWN</text>
<polygon fill="#b2df8a" stroke="transparent" points="786,-162 786,-177 796,-177 796,-162 786,-162"/>
<text text-anchor="start" x="788" y="-167" font-family="Ubuntu" font-size="10.00">0</text>
<polygon fill="#b2df8a" stroke="transparent" points="654,-147 654,-162 786,-162 786,-147 654,-147"/>
<text text-anchor="start" x="656" y="-152" font-family="Ubuntu" font-size="10.00">EVENT_ASSET_CREATED</text>
<polygon fill="#b2df8a" stroke="transparent" points="786,-147 786,-162 796,-162 796,-147 786,-147"/>
<text text-anchor="start" x="788" y="-152" font-family="Ubuntu" font-size="10.00">1</text>
<polygon fill="#b2df8a" stroke="transparent" points="654,-132 654,-147 786,-147 786,-132 654,-132"/>
<text text-anchor="start" x="656" y="-137" font-family="Ubuntu" font-size="10.00">EVENT_ASSET_UPDATED</text>
<polygon fill="#b2df8a" stroke="transparent" points="786,-132 786,-147 796,-147 796,-132 786,-132"/>
<text text-anchor="start" x="788" y="-137" font-family="Ubuntu" font-size="10.00">2</text>
<polygon fill="#b2df8a" stroke="transparent" points="654,-117 654,-132 786,-132 786,-117 654,-117"/>
<text text-anchor="start" x="656" y="-122" font-family="Ubuntu" font-size="10.00">EVENT_ASSET_DISABLED</text>
<polygon fill="#b2df8a" stroke="transparent" points="786,-117 786,-132 796,-132 796,-117 786,-117"/>
<text text-anchor="start" x="788" y="-122" font-family="Ubuntu" font-size="10.00">3</text>
<polygon fill="none" stroke="black" points="653,-116.5 653,-193.5 797,-193.5 797,-116.5 653,-116.5"/>
</a>
</g>
</g>
<!-- Node_Ja_107&#45;&gt;Node_Ja_106 -->
<g id="edge5" class="edge">
<title>Node_Ja_107:e&#45;&gt;Node_Ja_106</title>
<g id="a_edge5"><a xlink:title="Ja_107 &#45;&#45;&gt; Ja_106">
<path fill="none" stroke="#008000" d="M601.5,-170C612.24,-170 623.48,-169.42 634.6,-168.5"/>
<polygon fill="#008000" stroke="#008000" points="635.13,-171.96 644.77,-167.56 634.49,-164.99 635.13,-171.96"/>
</a>
</g>
</g>
<!-- Node_Ja_100 -->
<g id="node11" class="node">
<title>Node_Ja_100</title>
<g id="a_node11"><a xlink:title="AssetKind">
<polygon fill="#b2df8a" stroke="transparent" points="656.5,-219.5 656.5,-386.5 793.5,-386.5 793.5,-219.5 656.5,-219.5"/>
<polygon fill="#33a02c" stroke="transparent" points="658,-370 658,-385 793,-385 793,-370 658,-370"/>
<text text-anchor="start" x="714" y="-376" font-family="Ubuntu" font-size="10.00">enum </text>
<text text-anchor="start" x="742" y="-376" font-family="Ubuntu" font-weight="bold" font-size="10.00">AssetKind</text>
<polygon fill="#b2df8a" stroke="transparent" points="658,-355 658,-370 783,-370 783,-355 658,-355"/>
<text text-anchor="start" x="660" y="-360" font-family="Ubuntu" font-size="10.00">ASSET_UNKNOWN</text>
<polygon fill="#b2df8a" stroke="transparent" points="783,-355 783,-370 793,-370 793,-355 783,-355"/>
<text text-anchor="start" x="785" y="-360" font-family="Ubuntu" font-size="10.00">0</text>
<polygon fill="#b2df8a" stroke="transparent" points="658,-340 658,-355 783,-355 783,-340 658,-340"/>
<text text-anchor="start" x="660" y="-345" font-family="Ubuntu" font-size="10.00">ASSET_NODE</text>
<polygon fill="#b2df8a" stroke="transparent" points="783,-340 783,-355 793,-355 793,-340 783,-340"/>
<text text-anchor="start" x="785" y="-345" font-family="Ubuntu" font-size="10.00">1</text>
<polygon fill="#b2df8a" stroke="transparent" points="658,-325 658,-340 783,-340 783,-325 658,-325"/>
<text text-anchor="start" x="660" y="-330" font-family="Ubuntu" font-size="10.00">ASSET_OBJECTIVE</text>
<polygon fill="#b2df8a" stroke="transparent" points="783,-325 783,-340 793,-340 793,-325 783,-325"/>
<text text-anchor="start" x="785" y="-330" font-family="Ubuntu" font-size="10.00">2</text>
<polygon fill="#b2df8a" stroke="transparent" points="658,-310 658,-325 783,-325 783,-310 658,-310"/>
<text text-anchor="start" x="660" y="-315" font-family="Ubuntu" font-size="10.00">ASSET_DATA_SAMPLE</text>
<polygon fill="#b2df8a" stroke="transparent" points="783,-310 783,-325 793,-325 793,-310 783,-310"/>
<text text-anchor="start" x="785" y="-315" font-family="Ubuntu" font-size="10.00">3</text>
<polygon fill="#b2df8a" stroke="transparent" points="658,-295 658,-310 783,-310 783,-295 658,-295"/>
<text text-anchor="start" x="660" y="-300" font-family="Ubuntu" font-size="10.00">ASSET_DATA_MANAGER</text>
<polygon fill="#b2df8a" stroke="transparent" points="783,-295 783,-310 793,-310 793,-295 783,-295"/>
<text text-anchor="start" x="785" y="-300" font-family="Ubuntu" font-size="10.00">4</text>
<polygon fill="#b2df8a" stroke="transparent" points="658,-280 658,-295 783,-295 783,-280 658,-280"/>
<text text-anchor="start" x="660" y="-285" font-family="Ubuntu" font-size="10.00">ASSET_ALGO</text>
<polygon fill="#b2df8a" stroke="transparent" points="783,-280 783,-295 793,-295 793,-280 783,-280"/>
<text text-anchor="start" x="785" y="-285" font-family="Ubuntu" font-size="10.00">5</text>
<polygon fill="#b2df8a" stroke="transparent" points="658,-265 658,-280 783,-280 783,-265 658,-265"/>
<text text-anchor="start" x="660" y="-270" font-family="Ubuntu" font-size="10.00">ASSET_COMPUTE_TASK</text>
<polygon fill="#b2df8a" stroke="transparent" points="783,-265 783,-280 793,-280 793,-265 783,-265"/>
<text text-anchor="start" x="785" y="-270" font-family="Ubuntu" font-size="10.00">6</text>
<polygon fill="#b2df8a" stroke="transparent" points="658,-250 658,-265 783,-265 783,-250 658,-250"/>
<text text-anchor="start" x="660" y="-255" font-family="Ubuntu" font-size="10.00">ASSET_COMPUTE_PLAN</text>
<polygon fill="#b2df8a" stroke="transparent" points="783,-250 783,-265 793,-265 793,-250 783,-250"/>
<text text-anchor="start" x="785" y="-255" font-family="Ubuntu" font-size="10.00">7</text>
<polygon fill="#b2df8a" stroke="transparent" points="658,-235 658,-250 783,-250 783,-235 658,-235"/>
<text text-anchor="start" x="660" y="-240" font-family="Ubuntu" font-size="10.00">ASSET_MODEL</text>
<polygon fill="#b2df8a" stroke="transparent" points="783,-235 783,-250 793,-250 793,-235 783,-235"/>
<text text-anchor="start" x="785" y="-240" font-family="Ubuntu" font-size="10.00">8</text>
<polygon fill="#b2df8a" stroke="transparent" points="658,-220 658,-235 783,-235 783,-220 658,-220"/>
<text text-anchor="start" x="660" y="-225" font-family="Ubuntu" font-size="10.00">ASSET_PERFORMANCE</text>
<polygon fill="#b2df8a" stroke="transparent" points="783,-220 783,-235 793,-235 793,-220 783,-220"/>
<text text-anchor="start" x="785" y="-225" font-family="Ubuntu" font-size="10.00">9</text>
<polygon fill="none" stroke="black" points="656.5,-219.5 656.5,-386.5 793.5,-386.5 793.5,-219.5 656.5,-219.5"/>
</a>
</g>
</g>
<!-- Node_Ja_107&#45;&gt;Node_Ja_100 -->
<g id="edge9" class="edge">
<title>Node_Ja_107:e&#45;&gt;Node_Ja_100</title>
<g id="a_edge9"><a xlink:title="Ja_107 &#45;&#45;&gt; Ja_100">
<path fill="none" stroke="#008000" d="M601.5,-186C607.7,-186 623.1,-198.69 640.97,-215.71"/>
<polygon fill="#008000" stroke="#008000" points="638.58,-218.27 648.2,-222.7 643.44,-213.23 638.58,-218.27"/>
</a>
</g>
</g>
<!-- Node_Ja_108 -->
<g id="node2" class="node">
<title>Node_Ja_108</title>
<g id="a_node2"><a xlink:title="orchestrator.QueryEventsParam">
<polygon fill="#fffaf0" stroke="transparent" points="236,-303 236,-365 390,-365 390,-303 236,-303"/>
<polygon fill="#e31a1c" stroke="transparent" points="237,-349 237,-364 389,-364 389,-349 237,-349"/>
<text text-anchor="start" x="297" y="-355" font-family="Ubuntu" font-weight="bold" font-size="10.00">QueryEventsParam</text>
<text text-anchor="start" x="243" y="-339" font-family="Ubuntu" font-size="10.00">1</text>
<text text-anchor="start" x="253" y="-339" font-family="Ubuntu" font-size="10.00">page_token</text>
<polygon fill="#a6cee3" stroke="transparent" points="306,-334 306,-349 389,-349 389,-334 306,-334"/>
<text text-anchor="start" x="362" y="-340" font-family="Ubuntu" font-style="italic" font-size="10.00">string</text>
<text text-anchor="start" x="243" y="-324" font-family="Ubuntu" font-size="10.00">2</text>
<text text-anchor="start" x="253" y="-324" font-family="Ubuntu" font-size="10.00">page_size</text>
<polygon fill="#a6cee3" stroke="transparent" points="306,-319 306,-334 389,-334 389,-319 306,-319"/>
<text text-anchor="start" x="360" y="-325" font-family="Ubuntu" font-style="italic" font-size="10.00">uint32</text>
<text text-anchor="start" x="243" y="-309" font-family="Ubuntu" font-size="10.00">3</text>
<text text-anchor="start" x="253" y="-309" font-family="Ubuntu" font-size="10.00">filter</text>
<polygon fill="#fb9a99" stroke="transparent" points="306,-304 306,-319 389,-319 389,-304 306,-304"/>
<text text-anchor="start" x="308" y="-310" font-family="Ubuntu" font-weight="bold" font-size="10.00">EventQueryFilter</text>
<polygon fill="none" stroke="black" points="236,-303 236,-365 390,-365 390,-303 236,-303"/>
</a>
</g>
</g>
<!-- Node_Ja_109 -->
<g id="node3" class="node">
<title>Node_Ja_109</title>
<g id="a_node3"><a xlink:title="orchestrator.EventQueryFilter">
<polygon fill="#fffaf0" stroke="transparent" points="462.5,-265 462.5,-327 580.5,-327 580.5,-265 462.5,-265"/>
<polygon fill="#e31a1c" stroke="transparent" points="463.5,-311 463.5,-326 579.5,-326 579.5,-311 463.5,-311"/>
<text text-anchor="start" x="498.5" y="-317" font-family="Ubuntu" font-weight="bold" font-size="10.00">EventQueryFilter</text>
<text text-anchor="start" x="469.5" y="-301" font-family="Ubuntu" font-size="10.00">1</text>
<text text-anchor="start" x="479.5" y="-301" font-family="Ubuntu" font-size="10.00">asset_key</text>
<polygon fill="#a6cee3" stroke="transparent" points="529.5,-296 529.5,-311 579.5,-311 579.5,-296 529.5,-296"/>
<text text-anchor="start" x="552.5" y="-302" font-family="Ubuntu" font-style="italic" font-size="10.00">string</text>
<text text-anchor="start" x="469.5" y="-286" font-family="Ubuntu" font-size="10.00">2</text>
<text text-anchor="start" x="479.5" y="-286" font-family="Ubuntu" font-size="10.00">asset_kind</text>
<polygon fill="#b2df8a" stroke="transparent" points="529.5,-281 529.5,-296 579.5,-296 579.5,-281 529.5,-281"/>
<text text-anchor="start" x="531.5" y="-287" font-family="Ubuntu" text-decoration="underline" font-size="10.00">AssetKind</text>
<text text-anchor="start" x="469.5" y="-271" font-family="Ubuntu" font-size="10.00">3</text>
<text text-anchor="start" x="479.5" y="-271" font-family="Ubuntu" font-size="10.00">event_kind</text>
<polygon fill="#b2df8a" stroke="transparent" points="529.5,-266 529.5,-281 579.5,-281 579.5,-266 529.5,-266"/>
<text text-anchor="start" x="531.5" y="-272" font-family="Ubuntu" text-decoration="underline" font-size="10.00">EventKind</text>
<polygon fill="none" stroke="black" points="462.5,-265 462.5,-327 580.5,-327 580.5,-265 462.5,-265"/>
</a>
</g>
</g>
<!-- Node_Ja_108&#45;&gt;Node_Ja_109 -->
<g id="edge6" class="edge">
<title>Node_Ja_108:e&#45;&gt;Node_Ja_109:header</title>
<g id="a_edge6"><a xlink:title="Ja_108 &#45;&#45;&gt; Ja_109">
<path fill="none" stroke="#000000" d="M390,-311C418.75,-311 428.03,-317.29 452.36,-318.72"/>
<polygon fill="#000000" stroke="#000000" points="452.41,-322.22 462.5,-319 452.6,-315.22 452.41,-322.22"/>
</a>
</g>
</g>
<!-- Node_Ja_109&#45;&gt;Node_Ja_106 -->
<g id="edge8" class="edge">
<title>Node_Ja_109:e&#45;&gt;Node_Ja_106</title>
<g id="a_edge8"><a xlink:title="Ja_109 &#45;&#45;&gt; Ja_106">
<path fill="none" stroke="#008000" d="M580.5,-273C619.45,-273 609.23,-233.31 637,-206 637.45,-205.56 637.9,-205.12 638.36,-204.68"/>
<polygon fill="#008000" stroke="#008000" points="640.94,-207.07 646.12,-197.82 636.31,-201.83 640.94,-207.07"/>
</a>
</g>
</g>
<!-- Node_Ja_109&#45;&gt;Node_Ja_100 -->
<g id="edge7" class="edge">
<title>Node_Ja_109:e&#45;&gt;Node_Ja_100</title>
<g id="a_edge7"><a xlink:title="Ja_109 &#45;&#45;&gt; Ja_100">
<path fill="none" stroke="#008000" d="M580.5,-288C599.18,-288 619.16,-289.27 638.1,-291.08"/>
<polygon fill="#008000" stroke="#008000" points="637.89,-294.58 648.19,-292.1 638.59,-287.61 637.89,-294.58"/>
</a>
</g>
</g>
<!-- Node_Ja_110 -->
<g id="node4" class="node">
<title>Node_Ja_110</title>
<g id="a_node4"><a xlink:title="orchestrator.QueryEventsResponse">
<polygon fill="#fffaf0" stroke="transparent" points="242,-215.5 242,-262.5 384,-262.5 384,-215.5 242,-215.5"/>
<polygon fill="#e31a1c" stroke="transparent" points="243,-246 243,-261 383,-261 383,-246 243,-246"/>
<text text-anchor="start" x="275" y="-252" font-family="Ubuntu" font-weight="bold" font-size="10.00">QueryEventsResponse</text>
<text text-anchor="start" x="245" y="-236" font-family="Ubuntu" font-size="10.00">[...]</text>
<text text-anchor="start" x="265" y="-236" font-family="Ubuntu" font-size="10.00">1</text>
<text text-anchor="start" x="275" y="-236" font-family="Ubuntu" font-size="10.00">events</text>
<polygon fill="#fb9a99" stroke="transparent" points="352,-231 352,-246 383,-246 383,-231 352,-231"/>
<text text-anchor="start" x="354" y="-237" font-family="Ubuntu" font-weight="bold" font-size="10.00">Event</text>
<text text-anchor="start" x="265" y="-221" font-family="Ubuntu" font-size="10.00">2</text>
<text text-anchor="start" x="275" y="-221" font-family="Ubuntu" font-size="10.00">next_page_token</text>
<polygon fill="#a6cee3" stroke="transparent" points="352,-216 352,-231 383,-231 383,-216 352,-216"/>
<text text-anchor="start" x="356" y="-222" font-family="Ubuntu" font-style="italic" font-size="10.00">string</text>
<polygon fill="none" stroke="black" points="242,-215.5 242,-262.5 384,-262.5 384,-215.5 242,-215.5"/>
</a>
</g>
</g>
<!-- Node_Ja_110&#45;&gt;Node_Ja_107 -->
<g id="edge1" class="edge">
<title>Node_Ja_110:e&#45;&gt;Node_Ja_107:header</title>
<g id="a_edge1"><a xlink:title="Ja_110 &#45;&#45;&gt; Ja_107">
<path fill="none" stroke="#000000" d="M384,-238C406.3,-238 414.05,-232.92 432.03,-231.42"/>
<polygon fill="#000000" stroke="#000000" points="432.65,-234.9 442.5,-231 432.37,-227.9 432.65,-234.9"/>
</a>
</g>
</g>
<!-- Node_Ja_111 -->
<g id="node5" class="node">
<title>Node_Ja_111</title>
<g id="a_node5"><a xlink:title="EventService">
<polygon fill="#ffd700" stroke="transparent" points="8,-282.5 8,-329.5 184,-329.5 184,-282.5 8,-282.5"/>
<polygon fill="#ff7f50" stroke="transparent" points="9,-313 9,-328 183,-328 183,-313 9,-313"/>
<text text-anchor="start" x="120" y="-319" font-family="Ubuntu" font-weight="bold" font-size="10.00">EventService</text>
<text text-anchor="start" x="11" y="-304" font-family="Ubuntu" font-weight="bold" font-size="10.00">QueryEvents</text>
<text text-anchor="start" x="95" y="-303" font-family="Ubuntu" font-size="10.00">QueryEventsParam</text>
<polygon fill="#ff7f50" stroke="transparent" points="73,-283 73,-298 77,-298 77,-283 73,-283"/>
<polygon fill="#ff7f50" stroke="transparent" points="77,-283 77,-298 183,-298 183,-283 77,-283"/>
<text text-anchor="start" x="79" y="-288" font-family="Ubuntu" font-size="10.00">QueryEventsResponse</text>
<polygon fill="none" stroke="black" points="8,-282.5 8,-329.5 184,-329.5 184,-282.5 8,-282.5"/>
</a>
</g>
</g>
<!-- Node_Ja_111&#45;&gt;Node_Ja_108 -->
<g id="edge2" class="edge">
<title>Node_Ja_111:e&#45;&gt;Node_Ja_108:header</title>
<g id="a_edge2"><a xlink:title="Ja_111 &#45;&#45;&gt; Ja_108">
<path fill="none" stroke="#000000" d="M184,-305C212.73,-305 205.88,-345.17 225.99,-354.9"/>
<polygon fill="#000000" stroke="#000000" points="225.49,-358.37 236,-357 226.93,-351.52 225.49,-358.37"/>
</a>
</g>
</g>
<!-- Node_Ja_111&#45;&gt;Node_Ja_110 -->
<g id="edge10" class="edge">
<title>Node_Ja_111:e&#45;&gt;Node_Ja_110:header</title>
<g id="a_edge10"><a xlink:title="Ja_111 &#45;&#45;&gt; Ja_110">
<path fill="none" stroke="#000000" d="M184,-290C210.55,-290 211.81,-262.44 232.04,-255.55"/>
<polygon fill="#000000" stroke="#000000" points="232.66,-258.99 242,-254 231.58,-252.08 232.66,-258.99"/>
</a>
</g>
</g>
<!-- Node_Ja_105 -->
<g id="node6" class="node">
<title>Node_Ja_105</title>
<g id="a_node6"><a xlink:title="orchestrator.NewPermissions">
<polygon fill="#fffaf0" stroke="transparent" points="31.5,-537.5 31.5,-584.5 160.5,-584.5 160.5,-537.5 31.5,-537.5"/>
<polygon fill="#e31a1c" stroke="transparent" points="33,-568 33,-583 160,-583 160,-568 33,-568"/>
<text text-anchor="start" x="79" y="-574" font-family="Ubuntu" font-weight="bold" font-size="10.00">NewPermissions</text>
<text text-anchor="start" x="55" y="-558" font-family="Ubuntu" font-size="10.00">1</text>
<text text-anchor="start" x="65" y="-558" font-family="Ubuntu" font-size="10.00">public</text>
<polygon fill="#a6cee3" stroke="transparent" points="131,-553 131,-568 160,-568 160,-553 131,-553"/>
<text text-anchor="start" x="139" y="-559" font-family="Ubuntu" font-style="italic" font-size="10.00">bool</text>
<text text-anchor="start" x="35" y="-543" font-family="Ubuntu" font-size="10.00">[...]</text>
<text text-anchor="start" x="55" y="-543" font-family="Ubuntu" font-size="10.00">2</text>
<text text-anchor="start" x="65" y="-543" font-family="Ubuntu" font-size="10.00">authorized_ids</text>
<polygon fill="#a6cee3" stroke="transparent" points="131,-538 131,-553 160,-553 160,-538 131,-538"/>
<text text-anchor="start" x="133" y="-544" font-family="Ubuntu" font-style="italic" font-size="10.00">string</text>
<polygon fill="none" stroke="black" points="31.5,-537.5 31.5,-584.5 160.5,-584.5 160.5,-537.5 31.5,-537.5"/>
</a>
</g>
</g>
<!-- Node_Ja_102 -->
<g id="node7" class="node">
<title>Node_Ja_102</title>
<g id="a_node7"><a xlink:title="orchestrator.Addressable">
<polygon fill="#fffaf0" stroke="transparent" points="35,-464.5 35,-511.5 157,-511.5 157,-464.5 35,-464.5"/>
<polygon fill="#e31a1c" stroke="transparent" points="36,-495 36,-510 156,-510 156,-495 36,-495"/>
<text text-anchor="start" x="95" y="-501" font-family="Ubuntu" font-weight="bold" font-size="10.00">Addressable</text>
<text text-anchor="start" x="42" y="-485" font-family="Ubuntu" font-size="10.00">1</text>
<text text-anchor="start" x="52" y="-485" font-family="Ubuntu" font-size="10.00">checksum</text>
<polygon fill="#a6cee3" stroke="transparent" points="127,-480 127,-495 156,-495 156,-480 127,-480"/>
<text text-anchor="start" x="129" y="-486" font-family="Ubuntu" font-style="italic" font-size="10.00">string</text>
<text text-anchor="start" x="42" y="-470" font-family="Ubuntu" font-size="10.00">2</text>
<text text-anchor="start" x="52" y="-470" font-family="Ubuntu" font-size="10.00">storage_address</text>
<polygon fill="#a6cee3" stroke="transparent" points="127,-465 127,-480 156,-480 156,-465 127,-465"/>
<text text-anchor="start" x="129" y="-471" font-family="Ubuntu" font-style="italic" font-size="10.00">string</text>
<polygon fill="none" stroke="black" points="35,-464.5 35,-511.5 157,-511.5 157,-464.5 35,-464.5"/>
</a>
</g>
</g>
<!-- Node_Ja_103 -->
<g id="node8" class="node">
<title>Node_Ja_103</title>
<g id="a_node8"><a xlink:title="orchestrator.Permissions">
<polygon fill="#fffaf0" stroke="transparent" points="36,-391.5 36,-438.5 156,-438.5 156,-391.5 36,-391.5"/>
<polygon fill="#e31a1c" stroke="transparent" points="37,-422 37,-437 155,-437 155,-422 37,-422"/>
<text text-anchor="start" x="94" y="-428" font-family="Ubuntu" font-weight="bold" font-size="10.00">Permissions</text>
<text text-anchor="start" x="43" y="-412" font-family="Ubuntu" font-size="10.00">1</text>
<text text-anchor="start" x="53" y="-412" font-family="Ubuntu" font-size="10.00">process</text>
<polygon fill="#fb9a99" stroke="transparent" points="97,-407 97,-422 155,-422 155,-407 97,-407"/>
<text text-anchor="start" x="99" y="-413" font-family="Ubuntu" font-weight="bold" font-size="10.00">Permission</text>
<text text-anchor="start" x="43" y="-397" font-family="Ubuntu" font-size="10.00">2</text>
<text text-anchor="start" x="53" y="-397" font-family="Ubuntu" font-size="10.00">download</text>
<polygon fill="#fb9a99" stroke="transparent" points="97,-392 97,-407 155,-407 155,-392 97,-392"/>
<text text-anchor="start" x="99" y="-398" font-family="Ubuntu" font-weight="bold" font-size="10.00">Permission</text>
<polygon fill="none" stroke="black" points="36,-391.5 36,-438.5 156,-438.5 156,-391.5 36,-391.5"/>
</a>
</g>
</g>
<!-- Node_Ja_104 -->
<g id="node9" class="node">
<title>Node_Ja_104</title>
<g id="a_node9"><a xlink:title="orchestrator.Permission">
<polygon fill="#fffaf0" stroke="transparent" points="248.5,-391.5 248.5,-438.5 377.5,-438.5 377.5,-391.5 248.5,-391.5"/>
<polygon fill="#e31a1c" stroke="transparent" points="250,-422 250,-437 377,-437 377,-422 250,-422"/>
<text text-anchor="start" x="321" y="-428" font-family="Ubuntu" font-weight="bold" font-size="10.00">Permission</text>
<text text-anchor="start" x="272" y="-412" font-family="Ubuntu" font-size="10.00">1</text>
<text text-anchor="start" x="282" y="-412" font-family="Ubuntu" font-size="10.00">public</text>
<polygon fill="#a6cee3" stroke="transparent" points="348,-407 348,-422 377,-422 377,-407 348,-407"/>
<text text-anchor="start" x="356" y="-413" font-family="Ubuntu" font-style="italic" font-size="10.00">bool</text>
<text text-anchor="start" x="252" y="-397" font-family="Ubuntu" font-size="10.00">[...]</text>
<text text-anchor="start" x="272" y="-397" font-family="Ubuntu" font-size="10.00">2</text>
<text text-anchor="start" x="282" y="-397" font-family="Ubuntu" font-size="10.00">authorized_ids</text>
<polygon fill="#a6cee3" stroke="transparent" points="348,-392 348,-407 377,-407 377,-392 348,-392"/>
<text text-anchor="start" x="350" y="-398" font-family="Ubuntu" font-style="italic" font-size="10.00">string</text>
<polygon fill="none" stroke="black" points="248.5,-391.5 248.5,-438.5 377.5,-438.5 377.5,-391.5 248.5,-391.5"/>
</a>
</g>
</g>
<!-- Node_Ja_103&#45;&gt;Node_Ja_104 -->
<g id="edge3" class="edge">
<title>Node_Ja_103:e&#45;&gt;Node_Ja_104:header</title>
<g id="a_edge3"><a xlink:title="Ja_103 &#45;&#45;&gt; Ja_104">
<path fill="none" stroke="#000000" d="M156,-414C194.34,-414 205.25,-427.37 238.87,-429.67"/>
<polygon fill="#000000" stroke="#000000" points="238.89,-433.17 249,-430 239.12,-426.17 238.89,-433.17"/>
</a>
</g>
</g>
<!-- Node_Ja_103&#45;&gt;Node_Ja_104 -->
<g id="edge4" class="edge">
<title>Node_Ja_103:e&#45;&gt;Node_Ja_104:header</title>
<g id="a_edge4"><a xlink:title="Ja_103 &#45;&#45;&gt; Ja_104">
<path fill="none" stroke="#000000" d="M156,-399C196,-399 204.22,-425.12 239,-429.41"/>
<polygon fill="#000000" stroke="#000000" points="238.81,-432.9 249,-430 239.22,-425.92 238.81,-432.9"/>
</a>
</g>
</g>
<!-- Node_Ja_101 -->
<g id="node12" class="node">
<title>Node_Ja_101</title>
<g id="a_node12"><a xlink:title="SortOrder">
<polygon fill="#b2df8a" stroke="transparent" points="682.5,-43.5 682.5,-90.5 767.5,-90.5 767.5,-43.5 682.5,-43.5"/>
<polygon fill="#33a02c" stroke="transparent" points="684,-74 684,-89 767,-89 767,-74 684,-74"/>
<text text-anchor="start" x="691" y="-80" font-family="Ubuntu" font-size="10.00">enum </text>
<text text-anchor="start" x="719" y="-80" font-family="Ubuntu" font-weight="bold" font-size="10.00">SortOrder</text>
<polygon fill="#b2df8a" stroke="transparent" points="684,-59 684,-74 757,-74 757,-59 684,-59"/>
<text text-anchor="start" x="686" y="-64" font-family="Ubuntu" font-size="10.00">ASCENDING</text>
<polygon fill="#b2df8a" stroke="transparent" points="757,-59 757,-74 767,-74 767,-59 757,-59"/>
<text text-anchor="start" x="759" y="-64" font-family="Ubuntu" font-size="10.00">0</text>
<polygon fill="#b2df8a" stroke="transparent" points="684,-44 684,-59 757,-59 757,-44 684,-44"/>
<text text-anchor="start" x="686" y="-49" font-family="Ubuntu" font-size="10.00">DESCENDING</text>
<polygon fill="#b2df8a" stroke="transparent" points="757,-44 757,-59 767,-59 767,-44 757,-44"/>
<text text-anchor="start" x="759" y="-49" font-family="Ubuntu" font-size="10.00">1</text>
<polygon fill="none" stroke="black" points="682.5,-43.5 682.5,-90.5 767.5,-90.5 767.5,-43.5 682.5,-43.5"/>
</a>
</g>
</g>
</g>
</svg>
