<?xml version="1.0" encoding="UTF-8" standalone="no"?>
<!DOCTYPE svg PUBLIC "-//W3C//DTD SVG 1.1//EN"
 "http://www.w3.org/Graphics/SVG/1.1/DTD/svg11.dtd">
<!-- Generated by graphviz version 2.47.3 (20210619.1520)
 -->
<!-- Title: protodot Pages: 1 -->
<svg width="1168pt" height="791pt"
 viewBox="0.00 0.00 1168.00 791.00" xmlns="http://www.w3.org/2000/svg" xmlns:xlink="http://www.w3.org/1999/xlink">
<g id="graph0" class="graph" transform="scale(1 1) rotate(0) translate(4 787)">
<title>protodot</title>
<g id="a_graph0"><a xlink:title="orchestrator">
<text text-anchor="middle" x="580" y="-7.8" font-family="Times,serif" font-size="14.00">orchestrator</text>
</a>
</g>
<g id="clust1" class="cluster">
<title>cluster_308971b5abce</title>
<g id="a_clust1"><a xlink:title="common.proto">
<polygon fill="#caff70" stroke="black" points="806,-135 806,-376 1152,-376 1152,-135 806,-135"/>
<text text-anchor="middle" x="979" y="-360.8" font-family="Times,serif" font-size="14.00">common.proto</text>
</a>
</g>
</g>
<g id="clust2" class="cluster">
<title>cluster_17479c12eb21</title>
<g id="a_clust2"><a xlink:title="orchestrator">
<polygon fill="#caff70" stroke="black" points="802,-384 802,-775 971,-775 971,-384 802,-384"/>
<text text-anchor="middle" x="886.5" y="-759.8" font-family="Times,serif" font-size="14.00">orchestrator</text>
</a>
</g>
</g>
<!-- Node_Ja_104 -->
<g id="node1" class="node">
<title>Node_Ja_104</title>
<g id="a_node1"><a xlink:title="orchestrator.Permission">
<polygon fill="#fffaf0" stroke="transparent" points="1007,-147.5 1007,-194.5 1136,-194.5 1136,-147.5 1007,-147.5"/>
<polygon fill="#e31a1c" stroke="transparent" points="1008.5,-178 1008.5,-193 1135.5,-193 1135.5,-178 1008.5,-178"/>
<text text-anchor="start" x="1079.5" y="-184" font-family="Ubuntu" font-weight="bold" font-size="10.00">Permission</text>
<text text-anchor="start" x="1030.5" y="-168" font-family="Ubuntu" font-size="10.00">1</text>
<text text-anchor="start" x="1040.5" y="-168" font-family="Ubuntu" font-size="10.00">public</text>
<polygon fill="#a6cee3" stroke="transparent" points="1106.5,-163 1106.5,-178 1135.5,-178 1135.5,-163 1106.5,-163"/>
<text text-anchor="start" x="1114.5" y="-169" font-family="Ubuntu" font-style="italic" font-size="10.00">bool</text>
<text text-anchor="start" x="1010.5" y="-153" font-family="Ubuntu" font-size="10.00">[...]</text>
<text text-anchor="start" x="1030.5" y="-153" font-family="Ubuntu" font-size="10.00">2</text>
<text text-anchor="start" x="1040.5" y="-153" font-family="Ubuntu" font-size="10.00">authorized_ids</text>
<polygon fill="#a6cee3" stroke="transparent" points="1106.5,-148 1106.5,-163 1135.5,-163 1135.5,-148 1106.5,-148"/>
<text text-anchor="start" x="1108.5" y="-154" font-family="Ubuntu" font-style="italic" font-size="10.00">string</text>
<polygon fill="none" stroke="black" points="1007,-147.5 1007,-194.5 1136,-194.5 1136,-147.5 1007,-147.5"/>
</a>
</g>
</g>
<!-- Node_Ja_103 -->
<g id="node2" class="node">
<title>Node_Ja_103</title>
<g id="a_node2"><a xlink:title="orchestrator.Permissions">
<polygon fill="#fffaf0" stroke="transparent" points="826.5,-147.5 826.5,-194.5 946.5,-194.5 946.5,-147.5 826.5,-147.5"/>
<polygon fill="#e31a1c" stroke="transparent" points="827.5,-178 827.5,-193 945.5,-193 945.5,-178 827.5,-178"/>
<text text-anchor="start" x="884.5" y="-184" font-family="Ubuntu" font-weight="bold" font-size="10.00">Permissions</text>
<text text-anchor="start" x="833.5" y="-168" font-family="Ubuntu" font-size="10.00">1</text>
<text text-anchor="start" x="843.5" y="-168" font-family="Ubuntu" font-size="10.00">process</text>
<polygon fill="#fb9a99" stroke="transparent" points="887.5,-163 887.5,-178 945.5,-178 945.5,-163 887.5,-163"/>
<text text-anchor="start" x="889.5" y="-169" font-family="Ubuntu" font-weight="bold" font-size="10.00">Permission</text>
<text text-anchor="start" x="833.5" y="-153" font-family="Ubuntu" font-size="10.00">2</text>
<text text-anchor="start" x="843.5" y="-153" font-family="Ubuntu" font-size="10.00">download</text>
<polygon fill="#fb9a99" stroke="transparent" points="887.5,-148 887.5,-163 945.5,-163 945.5,-148 887.5,-148"/>
<text text-anchor="start" x="889.5" y="-154" font-family="Ubuntu" font-weight="bold" font-size="10.00">Permission</text>
<polygon fill="none" stroke="black" points="826.5,-147.5 826.5,-194.5 946.5,-194.5 946.5,-147.5 826.5,-147.5"/>
</a>
</g>
</g>
<!-- Node_Ja_103&#45;&gt;Node_Ja_104 -->
<g id="edge1" class="edge">
<title>Node_Ja_103:e&#45;&gt;Node_Ja_104:header</title>
<g id="a_edge1"><a xlink:title="Ja_103 &#45;&#45;&gt; Ja_104">
<path fill="none" stroke="#000000" d="M946.5,-170C970.81,-170 977.75,-182.03 997.45,-185.23"/>
<polygon fill="#000000" stroke="#000000" points="997.26,-188.72 1007.5,-186 997.8,-181.74 997.26,-188.72"/>
</a>
</g>
</g>
<!-- Node_Ja_103&#45;&gt;Node_Ja_104 -->
<g id="edge7" class="edge">
<title>Node_Ja_103:e&#45;&gt;Node_Ja_104:header</title>
<g id="a_edge7"><a xlink:title="Ja_103 &#45;&#45;&gt; Ja_104">
<path fill="none" stroke="#000000" d="M946.5,-155C973.11,-155 976.57,-178.73 997.39,-184.67"/>
<polygon fill="#000000" stroke="#000000" points="997.13,-188.16 1007.5,-186 998.04,-181.22 997.13,-188.16"/>
</a>
</g>
</g>
<!-- Node_Ja_105 -->
<g id="node3" class="node">
<title>Node_Ja_105</title>
<g id="a_node3"><a xlink:title="orchestrator.NewPermissions">
<polygon fill="#fffaf0" stroke="transparent" points="822,-220.5 822,-267.5 951,-267.5 951,-220.5 822,-220.5"/>
<polygon fill="#e31a1c" stroke="transparent" points="823.5,-251 823.5,-266 950.5,-266 950.5,-251 823.5,-251"/>
<text text-anchor="start" x="869.5" y="-257" font-family="Ubuntu" font-weight="bold" font-size="10.00">NewPermissions</text>
<text text-anchor="start" x="845.5" y="-241" font-family="Ubuntu" font-size="10.00">1</text>
<text text-anchor="start" x="855.5" y="-241" font-family="Ubuntu" font-size="10.00">public</text>
<polygon fill="#a6cee3" stroke="transparent" points="921.5,-236 921.5,-251 950.5,-251 950.5,-236 921.5,-236"/>
<text text-anchor="start" x="929.5" y="-242" font-family="Ubuntu" font-style="italic" font-size="10.00">bool</text>
<text text-anchor="start" x="825.5" y="-226" font-family="Ubuntu" font-size="10.00">[...]</text>
<text text-anchor="start" x="845.5" y="-226" font-family="Ubuntu" font-size="10.00">2</text>
<text text-anchor="start" x="855.5" y="-226" font-family="Ubuntu" font-size="10.00">authorized_ids</text>
<polygon fill="#a6cee3" stroke="transparent" points="921.5,-221 921.5,-236 950.5,-236 950.5,-221 921.5,-221"/>
<text text-anchor="start" x="923.5" y="-227" font-family="Ubuntu" font-style="italic" font-size="10.00">string</text>
<polygon fill="none" stroke="black" points="822,-220.5 822,-267.5 951,-267.5 951,-220.5 822,-220.5"/>
</a>
</g>
</g>
<!-- Node_Ja_102 -->
<g id="node4" class="node">
<title>Node_Ja_102</title>
<g id="a_node4"><a xlink:title="orchestrator.Addressable">
<polygon fill="#fffaf0" stroke="transparent" points="825.5,-293.5 825.5,-340.5 947.5,-340.5 947.5,-293.5 825.5,-293.5"/>
<polygon fill="#e31a1c" stroke="transparent" points="826.5,-324 826.5,-339 946.5,-339 946.5,-324 826.5,-324"/>
<text text-anchor="start" x="885.5" y="-330" font-family="Ubuntu" font-weight="bold" font-size="10.00">Addressable</text>
<text text-anchor="start" x="832.5" y="-314" font-family="Ubuntu" font-size="10.00">1</text>
<text text-anchor="start" x="842.5" y="-314" font-family="Ubuntu" font-size="10.00">checksum</text>
<polygon fill="#a6cee3" stroke="transparent" points="917.5,-309 917.5,-324 946.5,-324 946.5,-309 917.5,-309"/>
<text text-anchor="start" x="919.5" y="-315" font-family="Ubuntu" font-style="italic" font-size="10.00">string</text>
<text text-anchor="start" x="832.5" y="-299" font-family="Ubuntu" font-size="10.00">2</text>
<text text-anchor="start" x="842.5" y="-299" font-family="Ubuntu" font-size="10.00">storage_address</text>
<polygon fill="#a6cee3" stroke="transparent" points="917.5,-294 917.5,-309 946.5,-309 946.5,-294 917.5,-294"/>
<text text-anchor="start" x="919.5" y="-300" font-family="Ubuntu" font-style="italic" font-size="10.00">string</text>
<polygon fill="none" stroke="black" points="825.5,-293.5 825.5,-340.5 947.5,-340.5 947.5,-293.5 825.5,-293.5"/>
</a>
</g>
</g>
<!-- Node_Ja_106 -->
<g id="node5" class="node">
<title>Node_Ja_106</title>
<g id="a_node5"><a xlink:title="ModelCategory">
<polygon fill="#b2df8a" stroke="transparent" points="831,-662.5 831,-739.5 942,-739.5 942,-662.5 831,-662.5"/>
<polygon fill="#33a02c" stroke="transparent" points="832.5,-723 832.5,-738 941.5,-738 941.5,-723 832.5,-723"/>
<text text-anchor="start" x="840.5" y="-729" font-family="Ubuntu" font-size="10.00">enum </text>
<text text-anchor="start" x="868.5" y="-729" font-family="Ubuntu" font-weight="bold" font-size="10.00">ModelCategory</text>
<polygon fill="#b2df8a" stroke="transparent" points="832.5,-708 832.5,-723 931.5,-723 931.5,-708 832.5,-708"/>
<text text-anchor="start" x="834.5" y="-713" font-family="Ubuntu" font-size="10.00">MODEL_UNKNOWN</text>
<polygon fill="#b2df8a" stroke="transparent" points="931.5,-708 931.5,-723 941.5,-723 941.5,-708 931.5,-708"/>
<text text-anchor="start" x="933.5" y="-713" font-family="Ubuntu" font-size="10.00">0</text>
<polygon fill="#b2df8a" stroke="transparent" points="832.5,-693 832.5,-708 931.5,-708 931.5,-693 832.5,-693"/>
<text text-anchor="start" x="834.5" y="-698" font-family="Ubuntu" font-size="10.00">MODEL_SIMPLE</text>
<polygon fill="#b2df8a" stroke="transparent" points="931.5,-693 931.5,-708 941.5,-708 941.5,-693 931.5,-693"/>
<text text-anchor="start" x="933.5" y="-698" font-family="Ubuntu" font-size="10.00">1</text>
<polygon fill="#b2df8a" stroke="transparent" points="832.5,-678 832.5,-693 931.5,-693 931.5,-678 832.5,-678"/>
<text text-anchor="start" x="834.5" y="-683" font-family="Ubuntu" font-size="10.00">MODEL_HEAD</text>
<polygon fill="#b2df8a" stroke="transparent" points="931.5,-678 931.5,-693 941.5,-693 941.5,-678 931.5,-678"/>
<text text-anchor="start" x="933.5" y="-683" font-family="Ubuntu" font-size="10.00">2</text>
<polygon fill="#b2df8a" stroke="transparent" points="832.5,-663 832.5,-678 931.5,-678 931.5,-663 832.5,-663"/>
<text text-anchor="start" x="834.5" y="-668" font-family="Ubuntu" font-size="10.00">MODEL_TRUNK</text>
<polygon fill="#b2df8a" stroke="transparent" points="931.5,-663 931.5,-678 941.5,-678 941.5,-663 931.5,-663"/>
<text text-anchor="start" x="933.5" y="-668" font-family="Ubuntu" font-size="10.00">3</text>
<polygon fill="none" stroke="black" points="831,-662.5 831,-739.5 942,-739.5 942,-662.5 831,-662.5"/>
</a>
</g>
</g>
<!-- Node_Ja_101 -->
<g id="node6" class="node">
<title>Node_Ja_101</title>
<g id="a_node6"><a xlink:title="SortOrder">
<polygon fill="#b2df8a" stroke="transparent" points="844,-589.5 844,-636.5 929,-636.5 929,-589.5 844,-589.5"/>
<polygon fill="#33a02c" stroke="transparent" points="845.5,-620 845.5,-635 928.5,-635 928.5,-620 845.5,-620"/>
<text text-anchor="start" x="852.5" y="-626" font-family="Ubuntu" font-size="10.00">enum </text>
<text text-anchor="start" x="880.5" y="-626" font-family="Ubuntu" font-weight="bold" font-size="10.00">SortOrder</text>
<polygon fill="#b2df8a" stroke="transparent" points="845.5,-605 845.5,-620 918.5,-620 918.5,-605 845.5,-605"/>
<text text-anchor="start" x="847.5" y="-610" font-family="Ubuntu" font-size="10.00">ASCENDING</text>
<polygon fill="#b2df8a" stroke="transparent" points="918.5,-605 918.5,-620 928.5,-620 928.5,-605 918.5,-605"/>
<text text-anchor="start" x="920.5" y="-610" font-family="Ubuntu" font-size="10.00">0</text>
<polygon fill="#b2df8a" stroke="transparent" points="845.5,-590 845.5,-605 918.5,-605 918.5,-590 845.5,-590"/>
<text text-anchor="start" x="847.5" y="-595" font-family="Ubuntu" font-size="10.00">DESCENDING</text>
<polygon fill="#b2df8a" stroke="transparent" points="918.5,-590 918.5,-605 928.5,-605 928.5,-590 918.5,-590"/>
<text text-anchor="start" x="920.5" y="-595" font-family="Ubuntu" font-size="10.00">1</text>
<polygon fill="none" stroke="black" points="844,-589.5 844,-636.5 929,-636.5 929,-589.5 844,-589.5"/>
</a>
</g>
</g>
<!-- Node_Ja_100 -->
<g id="node7" class="node">
<title>Node_Ja_100</title>
<g id="a_node7"><a xlink:title="AssetKind">
<polygon fill="#b2df8a" stroke="transparent" points="818,-396.5 818,-563.5 955,-563.5 955,-396.5 818,-396.5"/>
<polygon fill="#33a02c" stroke="transparent" points="819.5,-547 819.5,-562 954.5,-562 954.5,-547 819.5,-547"/>
<text text-anchor="start" x="875.5" y="-553" font-family="Ubuntu" font-size="10.00">enum </text>
<text text-anchor="start" x="903.5" y="-553" font-family="Ubuntu" font-weight="bold" font-size="10.00">AssetKind</text>
<polygon fill="#b2df8a" stroke="transparent" points="819.5,-532 819.5,-547 944.5,-547 944.5,-532 819.5,-532"/>
<text text-anchor="start" x="821.5" y="-537" font-family="Ubuntu" font-size="10.00">ASSET_UNKNOWN</text>
<polygon fill="#b2df8a" stroke="transparent" points="944.5,-532 944.5,-547 954.5,-547 954.5,-532 944.5,-532"/>
<text text-anchor="start" x="946.5" y="-537" font-family="Ubuntu" font-size="10.00">0</text>
<polygon fill="#b2df8a" stroke="transparent" points="819.5,-517 819.5,-532 944.5,-532 944.5,-517 819.5,-517"/>
<text text-anchor="start" x="821.5" y="-522" font-family="Ubuntu" font-size="10.00">ASSET_NODE</text>
<polygon fill="#b2df8a" stroke="transparent" points="944.5,-517 944.5,-532 954.5,-532 954.5,-517 944.5,-517"/>
<text text-anchor="start" x="946.5" y="-522" font-family="Ubuntu" font-size="10.00">1</text>
<polygon fill="#b2df8a" stroke="transparent" points="819.5,-502 819.5,-517 944.5,-517 944.5,-502 819.5,-502"/>
<text text-anchor="start" x="821.5" y="-507" font-family="Ubuntu" font-size="10.00">ASSET_OBJECTIVE</text>
<polygon fill="#b2df8a" stroke="transparent" points="944.5,-502 944.5,-517 954.5,-517 954.5,-502 944.5,-502"/>
<text text-anchor="start" x="946.5" y="-507" font-family="Ubuntu" font-size="10.00">2</text>
<polygon fill="#b2df8a" stroke="transparent" points="819.5,-487 819.5,-502 944.5,-502 944.5,-487 819.5,-487"/>
<text text-anchor="start" x="821.5" y="-492" font-family="Ubuntu" font-size="10.00">ASSET_DATA_SAMPLE</text>
<polygon fill="#b2df8a" stroke="transparent" points="944.5,-487 944.5,-502 954.5,-502 954.5,-487 944.5,-487"/>
<text text-anchor="start" x="946.5" y="-492" font-family="Ubuntu" font-size="10.00">3</text>
<polygon fill="#b2df8a" stroke="transparent" points="819.5,-472 819.5,-487 944.5,-487 944.5,-472 819.5,-472"/>
<text text-anchor="start" x="821.5" y="-477" font-family="Ubuntu" font-size="10.00">ASSET_DATA_MANAGER</text>
<polygon fill="#b2df8a" stroke="transparent" points="944.5,-472 944.5,-487 954.5,-487 954.5,-472 944.5,-472"/>
<text text-anchor="start" x="946.5" y="-477" font-family="Ubuntu" font-size="10.00">4</text>
<polygon fill="#b2df8a" stroke="transparent" points="819.5,-457 819.5,-472 944.5,-472 944.5,-457 819.5,-457"/>
<text text-anchor="start" x="821.5" y="-462" font-family="Ubuntu" font-size="10.00">ASSET_ALGO</text>
<polygon fill="#b2df8a" stroke="transparent" points="944.5,-457 944.5,-472 954.5,-472 954.5,-457 944.5,-457"/>
<text text-anchor="start" x="946.5" y="-462" font-family="Ubuntu" font-size="10.00">5</text>
<polygon fill="#b2df8a" stroke="transparent" points="819.5,-442 819.5,-457 944.5,-457 944.5,-442 819.5,-442"/>
<text text-anchor="start" x="821.5" y="-447" font-family="Ubuntu" font-size="10.00">ASSET_COMPUTE_TASK</text>
<polygon fill="#b2df8a" stroke="transparent" points="944.5,-442 944.5,-457 954.5,-457 954.5,-442 944.5,-442"/>
<text text-anchor="start" x="946.5" y="-447" font-family="Ubuntu" font-size="10.00">6</text>
<polygon fill="#b2df8a" stroke="transparent" points="819.5,-427 819.5,-442 944.5,-442 944.5,-427 819.5,-427"/>
<text text-anchor="start" x="821.5" y="-432" font-family="Ubuntu" font-size="10.00">ASSET_COMPUTE_PLAN</text>
<polygon fill="#b2df8a" stroke="transparent" points="944.5,-427 944.5,-442 954.5,-442 954.5,-427 944.5,-427"/>
<text text-anchor="start" x="946.5" y="-432" font-family="Ubuntu" font-size="10.00">7</text>
<polygon fill="#b2df8a" stroke="transparent" points="819.5,-412 819.5,-427 944.5,-427 944.5,-412 819.5,-412"/>
<text text-anchor="start" x="821.5" y="-417" font-family="Ubuntu" font-size="10.00">ASSET_MODEL</text>
<polygon fill="#b2df8a" stroke="transparent" points="944.5,-412 944.5,-427 954.5,-427 954.5,-412 944.5,-412"/>
<text text-anchor="start" x="946.5" y="-417" font-family="Ubuntu" font-size="10.00">8</text>
<polygon fill="#b2df8a" stroke="transparent" points="819.5,-397 819.5,-412 944.5,-412 944.5,-397 819.5,-397"/>
<text text-anchor="start" x="821.5" y="-402" font-family="Ubuntu" font-size="10.00">ASSET_PERFORMANCE</text>
<polygon fill="#b2df8a" stroke="transparent" points="944.5,-397 944.5,-412 954.5,-412 954.5,-397 944.5,-397"/>
<text text-anchor="start" x="946.5" y="-402" font-family="Ubuntu" font-size="10.00">9</text>
<polygon fill="none" stroke="black" points="818,-396.5 818,-563.5 955,-563.5 955,-396.5 818,-396.5"/>
</a>
</g>
</g>
<!-- Node_Ja_110 -->
<g id="node8" class="node">
<title>Node_Ja_110</title>
<g id="a_node8"><a xlink:title="orchestrator.GetComputeTaskModelsResponse">
<polygon fill="#fffaf0" stroke="transparent" points="373,-255 373,-287 540,-287 540,-255 373,-255"/>
<polygon fill="#e31a1c" stroke="transparent" points="374.5,-271 374.5,-286 539.5,-286 539.5,-271 374.5,-271"/>
<text text-anchor="start" x="376.5" y="-277" font-family="Ubuntu" font-weight="bold" font-size="10.00">GetComputeTaskModelsResponse</text>
<text text-anchor="start" x="409.5" y="-261" font-family="Ubuntu" font-size="10.00">[...]</text>
<text text-anchor="start" x="445.5" y="-261" font-family="Ubuntu" font-size="10.00">1</text>
<text text-anchor="start" x="455.5" y="-261" font-family="Ubuntu" font-size="10.00">models</text>
<polygon fill="#fb9a99" stroke="transparent" points="497.5,-256 497.5,-271 539.5,-271 539.5,-256 497.5,-256"/>
<text text-anchor="start" x="508.5" y="-262" font-family="Ubuntu" font-weight="bold" font-size="10.00">Model</text>
<polygon fill="none" stroke="black" points="373,-255 373,-287 540,-287 540,-255 373,-255"/>
</a>
</g>
</g>
<!-- Node_Ja_107 -->
<g id="node13" class="node">
<title>Node_Ja_107</title>
<g id="a_node13"><a xlink:title="orchestrator.Model">
<polygon fill="#fffaf0" stroke="transparent" points="592,-295.5 592,-402.5 766,-402.5 766,-295.5 592,-295.5"/>
<polygon fill="#e31a1c" stroke="transparent" points="593,-386 593,-401 765,-401 765,-386 593,-386"/>
<text text-anchor="start" x="734" y="-392" font-family="Ubuntu" font-weight="bold" font-size="10.00">Model</text>
<text text-anchor="start" x="599" y="-376" font-family="Ubuntu" font-size="10.00">1</text>
<text text-anchor="start" x="609" y="-376" font-family="Ubuntu" font-size="10.00">key</text>
<polygon fill="#a6cee3" stroke="transparent" points="694,-371 694,-386 765,-386 765,-371 694,-371"/>
<text text-anchor="start" x="738" y="-377" font-family="Ubuntu" font-style="italic" font-size="10.00">string</text>
<text text-anchor="start" x="599" y="-361" font-family="Ubuntu" font-size="10.00">2</text>
<text text-anchor="start" x="609" y="-361" font-family="Ubuntu" font-size="10.00">category</text>
<polygon fill="#b2df8a" stroke="transparent" points="694,-356 694,-371 765,-371 765,-356 694,-356"/>
<text text-anchor="start" x="696" y="-362" font-family="Ubuntu" text-decoration="underline" font-size="10.00">ModelCategory</text>
<text text-anchor="start" x="599" y="-346" font-family="Ubuntu" font-size="10.00">3</text>
<text text-anchor="start" x="609" y="-346" font-family="Ubuntu" font-size="10.00">compute_task_key</text>
<polygon fill="#a6cee3" stroke="transparent" points="694,-341 694,-356 765,-356 765,-341 694,-341"/>
<text text-anchor="start" x="738" y="-347" font-family="Ubuntu" font-style="italic" font-size="10.00">string</text>
<text text-anchor="start" x="599" y="-331" font-family="Ubuntu" font-size="10.00">4</text>
<text text-anchor="start" x="609" y="-331" font-family="Ubuntu" font-size="10.00">address</text>
<polygon fill="#fb9a99" stroke="transparent" points="694,-326 694,-341 765,-341 765,-326 694,-326"/>
<text text-anchor="start" x="704" y="-332" font-family="Ubuntu" font-weight="bold" font-size="10.00">Addressable</text>
<text text-anchor="start" x="599" y="-316" font-family="Ubuntu" font-size="10.00">5</text>
<text text-anchor="start" x="609" y="-316" font-family="Ubuntu" font-size="10.00">permissions</text>
<polygon fill="#fb9a99" stroke="transparent" points="694,-311 694,-326 765,-326 765,-311 694,-311"/>
<text text-anchor="start" x="704" y="-317" font-family="Ubuntu" font-weight="bold" font-size="10.00">Permissions</text>
<text text-anchor="start" x="599" y="-301" font-family="Ubuntu" font-size="10.00">6</text>
<text text-anchor="start" x="609" y="-301" font-family="Ubuntu" font-size="10.00">owner</text>
<polygon fill="#a6cee3" stroke="transparent" points="694,-296 694,-311 765,-311 765,-296 694,-296"/>
<text text-anchor="start" x="738" y="-302" font-family="Ubuntu" font-style="italic" font-size="10.00">string</text>
<polygon fill="none" stroke="black" points="592,-295.5 592,-402.5 766,-402.5 766,-295.5 592,-295.5"/>
</a>
</g>
</g>
<!-- Node_Ja_110&#45;&gt;Node_Ja_107 -->
<g id="edge2" class="edge">
<title>Node_Ja_110:e&#45;&gt;Node_Ja_107:header</title>
<g id="a_edge2"><a xlink:title="Ja_110 &#45;&#45;&gt; Ja_107">
<path fill="none" stroke="#000000" d="M540.5,-263C599.27,-263 537.86,-378.62 582.07,-392.62"/>
<polygon fill="#000000" stroke="#000000" points="581.61,-396.09 592,-394 582.58,-389.15 581.61,-396.09"/>
</a>
</g>
</g>
<!-- Node_Ja_114 -->
<g id="node9" class="node">
<title>Node_Ja_114</title>
<g id="a_node9"><a xlink:title="orchestrator.GetModelParam">
<polygon fill="#fffaf0" stroke="transparent" points="416,-521 416,-553 497,-553 497,-521 416,-521"/>
<polygon fill="#e31a1c" stroke="transparent" points="417.5,-537 417.5,-552 496.5,-552 496.5,-537 417.5,-537"/>
<text text-anchor="start" x="419.5" y="-543" font-family="Ubuntu" font-weight="bold" font-size="10.00">GetModelParam</text>
<text text-anchor="start" x="435.5" y="-527" font-family="Ubuntu" font-size="10.00">1</text>
<text text-anchor="start" x="445.5" y="-527" font-family="Ubuntu" font-size="10.00">key</text>
<polygon fill="#a6cee3" stroke="transparent" points="465.5,-522 465.5,-537 496.5,-537 496.5,-522 465.5,-522"/>
<text text-anchor="start" x="469.5" y="-528" font-family="Ubuntu" font-style="italic" font-size="10.00">string</text>
<polygon fill="none" stroke="black" points="416,-521 416,-553 497,-553 497,-521 416,-521"/>
</a>
</g>
</g>
<!-- Node_Ja_116 -->
<g id="node10" class="node">
<title>Node_Ja_116</title>
<g id="a_node10"><a xlink:title="orchestrator.QueryModelsResponse">
<polygon fill="#fffaf0" stroke="transparent" points="384.5,-371.5 384.5,-418.5 528.5,-418.5 528.5,-371.5 384.5,-371.5"/>
<polygon fill="#e31a1c" stroke="transparent" points="385.5,-402 385.5,-417 527.5,-417 527.5,-402 385.5,-402"/>
<text text-anchor="start" x="416.5" y="-408" font-family="Ubuntu" font-weight="bold" font-size="10.00">QueryModelsResponse</text>
<text text-anchor="start" x="387.5" y="-392" font-family="Ubuntu" font-size="10.00">[...]</text>
<text text-anchor="start" x="407.5" y="-392" font-family="Ubuntu" font-size="10.00">1</text>
<text text-anchor="start" x="417.5" y="-392" font-family="Ubuntu" font-size="10.00">models</text>
<polygon fill="#fb9a99" stroke="transparent" points="494.5,-387 494.5,-402 527.5,-402 527.5,-387 494.5,-387"/>
<text text-anchor="start" x="496.5" y="-393" font-family="Ubuntu" font-weight="bold" font-size="10.00">Model</text>
<text text-anchor="start" x="407.5" y="-377" font-family="Ubuntu" font-size="10.00">2</text>
<text text-anchor="start" x="417.5" y="-377" font-family="Ubuntu" font-size="10.00">next_page_token</text>
<polygon fill="#a6cee3" stroke="transparent" points="494.5,-372 494.5,-387 527.5,-387 527.5,-372 494.5,-372"/>
<text text-anchor="start" x="500.5" y="-378" font-family="Ubuntu" font-style="italic" font-size="10.00">string</text>
<polygon fill="none" stroke="black" points="384.5,-371.5 384.5,-418.5 528.5,-418.5 528.5,-371.5 384.5,-371.5"/>
</a>
</g>
</g>
<!-- Node_Ja_116&#45;&gt;Node_Ja_107 -->
<g id="edge12" class="edge">
<title>Node_Ja_116:e&#45;&gt;Node_Ja_107:header</title>
<g id="a_edge12"><a xlink:title="Ja_116 &#45;&#45;&gt; Ja_107">
<path fill="none" stroke="#000000" d="M528.5,-394C552.97,-394 561.53,-394 581.78,-394"/>
<polygon fill="#000000" stroke="#000000" points="582,-397.5 592,-394 582,-390.5 582,-397.5"/>
</a>
</g>
</g>
<!-- Node_Ja_109 -->
<g id="node11" class="node">
<title>Node_Ja_109</title>
<g id="a_node11"><a xlink:title="orchestrator.GetComputeTaskModelsParam">
<polygon fill="#fffaf0" stroke="transparent" points="381,-313 381,-345 532,-345 532,-313 381,-313"/>
<polygon fill="#e31a1c" stroke="transparent" points="382.5,-329 382.5,-344 531.5,-344 531.5,-329 382.5,-329"/>
<text text-anchor="start" x="384.5" y="-335" font-family="Ubuntu" font-weight="bold" font-size="10.00">GetComputeTaskModelsParam</text>
<text text-anchor="start" x="402.5" y="-319" font-family="Ubuntu" font-size="10.00">1</text>
<text text-anchor="start" x="412.5" y="-319" font-family="Ubuntu" font-size="10.00">compute_task_key</text>
<polygon fill="#a6cee3" stroke="transparent" points="499.5,-314 499.5,-329 531.5,-329 531.5,-314 499.5,-314"/>
<text text-anchor="start" x="504.5" y="-320" font-family="Ubuntu" font-style="italic" font-size="10.00">string</text>
<polygon fill="none" stroke="black" points="381,-313 381,-345 532,-345 532,-313 381,-313"/>
</a>
</g>
</g>
<!-- Node_Ja_118 -->
<g id="node12" class="node">
<title>Node_Ja_118</title>
<g id="a_node12"><a xlink:title="ModelService">
<polygon fill="#ffd700" stroke="transparent" points="8,-239.5 8,-466.5 321,-466.5 321,-239.5 8,-239.5"/>
<polygon fill="#ff7f50" stroke="transparent" points="9.5,-450 9.5,-465 320.5,-465 320.5,-450 9.5,-450"/>
<text text-anchor="start" x="254.5" y="-456" font-family="Ubuntu" font-weight="bold" font-size="10.00">ModelService</text>
<text text-anchor="start" x="11.5" y="-441" font-family="Ubuntu" font-weight="bold" font-size="10.00">RegisterModel</text>
<text text-anchor="start" x="271.5" y="-440" font-family="Ubuntu" font-size="10.00">NewModel</text>
<polygon fill="#ff7f50" stroke="transparent" points="159.5,-420 159.5,-435 163.5,-435 163.5,-420 159.5,-420"/>
<polygon fill="#ff7f50" stroke="transparent" points="163.5,-420 163.5,-435 320.5,-435 320.5,-420 163.5,-420"/>
<text text-anchor="start" x="291.5" y="-425" font-family="Ubuntu" font-size="10.00">Model</text>
<text text-anchor="start" x="11.5" y="-411" font-family="Ubuntu" font-weight="bold" font-size="10.00">GetModel</text>
<text text-anchor="start" x="247.5" y="-410" font-family="Ubuntu" font-size="10.00">GetModelParam</text>
<polygon fill="#ff7f50" stroke="transparent" points="159.5,-390 159.5,-405 163.5,-405 163.5,-390 159.5,-390"/>
<polygon fill="#ff7f50" stroke="transparent" points="163.5,-390 163.5,-405 320.5,-405 320.5,-390 163.5,-390"/>
<text text-anchor="start" x="291.5" y="-395" font-family="Ubuntu" font-size="10.00">Model</text>
<text text-anchor="start" x="11.5" y="-381" font-family="Ubuntu" font-weight="bold" font-size="10.00">QueryModels</text>
<text text-anchor="start" x="231.5" y="-380" font-family="Ubuntu" font-size="10.00">QueryModelsParam</text>
<polygon fill="#ff7f50" stroke="transparent" points="159.5,-360 159.5,-375 163.5,-375 163.5,-360 159.5,-360"/>
<polygon fill="#ff7f50" stroke="transparent" points="163.5,-360 163.5,-375 320.5,-375 320.5,-360 163.5,-360"/>
<text text-anchor="start" x="215.5" y="-365" font-family="Ubuntu" font-size="10.00">QueryModelsResponse</text>
<text text-anchor="start" x="11.5" y="-351" font-family="Ubuntu" font-weight="bold" font-size="10.00">GetComputeTaskOutputModels</text>
<text text-anchor="start" x="181.5" y="-350" font-family="Ubuntu" font-size="10.00">GetComputeTaskModelsParam</text>
<polygon fill="#ff7f50" stroke="transparent" points="159.5,-330 159.5,-345 163.5,-345 163.5,-330 159.5,-330"/>
<polygon fill="#ff7f50" stroke="transparent" points="163.5,-330 163.5,-345 320.5,-345 320.5,-330 163.5,-330"/>
<text text-anchor="start" x="165.5" y="-335" font-family="Ubuntu" font-size="10.00">GetComputeTaskModelsResponse</text>
<text text-anchor="start" x="11.5" y="-321" font-family="Ubuntu" font-weight="bold" font-size="10.00">GetComputeTaskInputModels</text>
<text text-anchor="start" x="181.5" y="-320" font-family="Ubuntu" font-size="10.00">GetComputeTaskModelsParam</text>
<polygon fill="#ff7f50" stroke="transparent" points="159.5,-300 159.5,-315 163.5,-315 163.5,-300 159.5,-300"/>
<polygon fill="#ff7f50" stroke="transparent" points="163.5,-300 163.5,-315 320.5,-315 320.5,-300 163.5,-300"/>
<text text-anchor="start" x="165.5" y="-305" font-family="Ubuntu" font-size="10.00">GetComputeTaskModelsResponse</text>
<text text-anchor="start" x="11.5" y="-291" font-family="Ubuntu" font-weight="bold" font-size="10.00">CanDisableModel</text>
<text text-anchor="start" x="212.5" y="-290" font-family="Ubuntu" font-size="10.00">CanDisableModelParam</text>
<polygon fill="#ff7f50" stroke="transparent" points="159.5,-270 159.5,-285 163.5,-285 163.5,-270 159.5,-270"/>
<polygon fill="#ff7f50" stroke="transparent" points="163.5,-270 163.5,-285 320.5,-285 320.5,-270 163.5,-270"/>
<text text-anchor="start" x="196.5" y="-275" font-family="Ubuntu" font-size="10.00">CanDisableModelResponse</text>
<text text-anchor="start" x="11.5" y="-261" font-family="Ubuntu" font-weight="bold" font-size="10.00">DisableModel</text>
<text text-anchor="start" x="230.5" y="-260" font-family="Ubuntu" font-size="10.00">DisableModelParam</text>
<polygon fill="#ff7f50" stroke="transparent" points="159.5,-240 159.5,-255 163.5,-255 163.5,-240 159.5,-240"/>
<polygon fill="#ff7f50" stroke="transparent" points="163.5,-240 163.5,-255 320.5,-255 320.5,-240 163.5,-240"/>
<text text-anchor="start" x="214.5" y="-245" font-family="Ubuntu" font-size="10.00">DisableModelResponse</text>
<polygon fill="none" stroke="black" points="8,-239.5 8,-466.5 321,-466.5 321,-239.5 8,-239.5"/>
</a>
</g>
</g>
<!-- Node_Ja_118&#45;&gt;Node_Ja_110 -->
<g id="edge14" class="edge">
<title>Node_Ja_118:e&#45;&gt;Node_Ja_110:header</title>
<g id="a_edge14"><a xlink:title="Ja_118 &#45;&#45;&gt; Ja_110">
<path fill="none" stroke="#000000" d="M321.5,-307C343.85,-307 346.81,-286.7 363.4,-280.67"/>
<polygon fill="#000000" stroke="#000000" points="364.2,-284.08 373.5,-279 363.06,-277.18 364.2,-284.08"/>
</a>
</g>
</g>
<!-- Node_Ja_118&#45;&gt;Node_Ja_110 -->
<g id="edge23" class="edge">
<title>Node_Ja_118:e&#45;&gt;Node_Ja_110:header</title>
<g id="a_edge23"><a xlink:title="Ja_118 &#45;&#45;&gt; Ja_110">
<path fill="none" stroke="#000000" d="M321.5,-337C352.2,-337 342.12,-291.4 363.58,-281.06"/>
<polygon fill="#000000" stroke="#000000" points="364.42,-284.46 373.5,-279 363,-277.61 364.42,-284.46"/>
</a>
</g>
</g>
<!-- Node_Ja_118&#45;&gt;Node_Ja_114 -->
<g id="edge17" class="edge">
<title>Node_Ja_118:e&#45;&gt;Node_Ja_114:header</title>
<g id="a_edge17"><a xlink:title="Ja_118 &#45;&#45;&gt; Ja_114">
<path fill="none" stroke="#000000" d="M321.5,-413C365.93,-413 337.47,-468.13 365,-503 380.95,-523.19 385.78,-540.08 406.28,-544.09"/>
<polygon fill="#000000" stroke="#000000" points="406.23,-547.6 416.5,-545 406.85,-540.63 406.23,-547.6"/>
</a>
</g>
</g>
<!-- Node_Ja_118&#45;&gt;Node_Ja_116 -->
<g id="edge13" class="edge">
<title>Node_Ja_118:e&#45;&gt;Node_Ja_116:header</title>
<g id="a_edge13"><a xlink:title="Ja_118 &#45;&#45;&gt; Ja_116">
<path fill="none" stroke="#000000" d="M321.5,-368C351.34,-368 351.34,-401.02 374.41,-408.51"/>
<polygon fill="#000000" stroke="#000000" points="374.09,-412 384.5,-410 375.12,-405.07 374.09,-412"/>
</a>
</g>
</g>
<!-- Node_Ja_118&#45;&gt;Node_Ja_109 -->
<g id="edge6" class="edge">
<title>Node_Ja_118:e&#45;&gt;Node_Ja_109:header</title>
<g id="a_edge6"><a xlink:title="Ja_118 &#45;&#45;&gt; Ja_109">
<path fill="none" stroke="#000000" d="M321.5,-322C345.23,-322 352.22,-333.18 371.37,-336.24"/>
<polygon fill="#000000" stroke="#000000" points="371.26,-339.74 381.5,-337 371.79,-332.76 371.26,-339.74"/>
</a>
</g>
</g>
<!-- Node_Ja_118&#45;&gt;Node_Ja_109 -->
<g id="edge18" class="edge">
<title>Node_Ja_118:e&#45;&gt;Node_Ja_109:header</title>
<g id="a_edge18"><a xlink:title="Ja_118 &#45;&#45;&gt; Ja_109">
<path fill="none" stroke="#000000" d="M321.5,-352C345.23,-352 352.22,-340.82 371.37,-337.76"/>
<polygon fill="#000000" stroke="#000000" points="371.79,-341.24 381.5,-337 371.26,-334.26 371.79,-341.24"/>
</a>
</g>
</g>
<!-- Node_Ja_118&#45;&gt;Node_Ja_107 -->
<g id="edge3" class="edge">
<title>Node_Ja_118:e&#45;&gt;Node_Ja_107:header</title>
<g id="a_edge3"><a xlink:title="Ja_118 &#45;&#45;&gt; Ja_107">
<path fill="none" stroke="#000000" d="M321.5,-428C385.81,-428 313.14,-527.97 365,-566 430.59,-614.1 483.76,-615.88 548,-566 607.41,-519.88 521.86,-405.42 582.03,-394.79"/>
<polygon fill="#000000" stroke="#000000" points="582.31,-398.28 592,-394 581.75,-391.31 582.31,-398.28"/>
</a>
</g>
</g>
<!-- Node_Ja_118&#45;&gt;Node_Ja_107 -->
<g id="edge21" class="edge">
<title>Node_Ja_118:e&#45;&gt;Node_Ja_107:header</title>
<g id="a_edge21"><a xlink:title="Ja_118 &#45;&#45;&gt; Ja_107">
<path fill="none" stroke="#000000" d="M321.5,-398C346.04,-398 341.8,-424.01 365,-432 441.9,-458.49 471.77,-460.36 548,-432 568.43,-424.4 567.31,-402.57 581.99,-395.94"/>
<polygon fill="#000000" stroke="#000000" points="582.85,-399.34 592,-394 581.52,-392.46 582.85,-399.34"/>
</a>
</g>
</g>
<!-- Node_Ja_111 -->
<g id="node14" class="node">
<title>Node_Ja_111</title>
<g id="a_node14"><a xlink:title="orchestrator.CanDisableModelParam">
<polygon fill="#fffaf0" stroke="transparent" points="397,-197 397,-229 516,-229 516,-197 397,-197"/>
<polygon fill="#e31a1c" stroke="transparent" points="398.5,-213 398.5,-228 515.5,-228 515.5,-213 398.5,-213"/>
<text text-anchor="start" x="400.5" y="-219" font-family="Ubuntu" font-weight="bold" font-size="10.00">CanDisableModelParam</text>
<text text-anchor="start" x="420.5" y="-203" font-family="Ubuntu" font-size="10.00">1</text>
<text text-anchor="start" x="430.5" y="-203" font-family="Ubuntu" font-size="10.00">model_key</text>
<polygon fill="#a6cee3" stroke="transparent" points="483.5,-198 483.5,-213 515.5,-213 515.5,-198 483.5,-198"/>
<text text-anchor="start" x="488.5" y="-204" font-family="Ubuntu" font-style="italic" font-size="10.00">string</text>
<polygon fill="none" stroke="black" points="397,-197 397,-229 516,-229 516,-197 397,-197"/>
</a>
</g>
</g>
<!-- Node_Ja_118&#45;&gt;Node_Ja_111 -->
<g id="edge24" class="edge">
<title>Node_Ja_118:e&#45;&gt;Node_Ja_111:header</title>
<g id="a_edge24"><a xlink:title="Ja_118 &#45;&#45;&gt; Ja_111">
<path fill="none" stroke="#000000" d="M321.5,-292C350.96,-292 342.74,-261.29 365,-242 374.95,-233.38 378.63,-225.65 387.53,-222.5"/>
<polygon fill="#000000" stroke="#000000" points="388.13,-225.95 397.5,-221 387.09,-219.03 388.13,-225.95"/>
</a>
</g>
</g>
<!-- Node_Ja_112 -->
<g id="node15" class="node">
<title>Node_Ja_112</title>
<g id="a_node15"><a xlink:title="orchestrator.CanDisableModelResponse">
<polygon fill="#fffaf0" stroke="transparent" points="388.5,-139 388.5,-171 524.5,-171 524.5,-139 388.5,-139"/>
<polygon fill="#e31a1c" stroke="transparent" points="389.5,-155 389.5,-170 523.5,-170 523.5,-155 389.5,-155"/>
<text text-anchor="start" x="391.5" y="-161" font-family="Ubuntu" font-weight="bold" font-size="10.00">CanDisableModelResponse</text>
<text text-anchor="start" x="425.5" y="-145" font-family="Ubuntu" font-size="10.00">1</text>
<text text-anchor="start" x="435.5" y="-145" font-family="Ubuntu" font-size="10.00">can_disable</text>
<polygon fill="#a6cee3" stroke="transparent" points="494.5,-140 494.5,-155 523.5,-155 523.5,-140 494.5,-140"/>
<text text-anchor="start" x="502.5" y="-146" font-family="Ubuntu" font-style="italic" font-size="10.00">bool</text>
<polygon fill="none" stroke="black" points="388.5,-139 388.5,-171 524.5,-171 524.5,-139 388.5,-139"/>
</a>
</g>
</g>
<!-- Node_Ja_118&#45;&gt;Node_Ja_112 -->
<g id="edge4" class="edge">
<title>Node_Ja_118:e&#45;&gt;Node_Ja_112:header</title>
<g id="a_edge4"><a xlink:title="Ja_118 &#45;&#45;&gt; Ja_112">
<path fill="none" stroke="#000000" d="M321.5,-277C376.48,-277 335.79,-177.22 378.44,-164.36"/>
<polygon fill="#000000" stroke="#000000" points="379.06,-167.81 388.5,-163 378.12,-160.87 379.06,-167.81"/>
</a>
</g>
</g>
<!-- Node_Ja_117 -->
<g id="node16" class="node">
<title>Node_Ja_117</title>
<g id="a_node16"><a xlink:title="orchestrator.DisableModelResponse">
<polygon fill="#fffaf0" stroke="transparent" points="397.5,-32.5 397.5,-49.5 515.5,-49.5 515.5,-32.5 397.5,-32.5"/>
<polygon fill="#e31a1c" stroke="transparent" points="398.5,-33 398.5,-48 514.5,-48 514.5,-33 398.5,-33"/>
<text text-anchor="start" x="401.5" y="-39" font-family="Ubuntu" font-weight="bold" font-size="10.00">DisableModelResponse</text>
<polygon fill="none" stroke="black" points="397.5,-32.5 397.5,-49.5 515.5,-49.5 515.5,-32.5 397.5,-32.5"/>
</a>
</g>
</g>
<!-- Node_Ja_118&#45;&gt;Node_Ja_117 -->
<g id="edge5" class="edge">
<title>Node_Ja_118:e&#45;&gt;Node_Ja_117:header</title>
<g id="a_edge5"><a xlink:title="Ja_118 &#45;&#45;&gt; Ja_117">
<path fill="none" stroke="#000000" d="M321.5,-247C403.37,-247 308.92,-127.65 365,-68 371.61,-60.97 379.93,-55.7 388.85,-51.74"/>
<polygon fill="#000000" stroke="#000000" points="390.24,-54.95 398.3,-48.07 387.71,-48.42 390.24,-54.95"/>
</a>
</g>
</g>
<!-- Node_Ja_108 -->
<g id="node17" class="node">
<title>Node_Ja_108</title>
<g id="a_node17"><a xlink:title="orchestrator.NewModel">
<polygon fill="#fffaf0" stroke="transparent" points="592,-554.5 592,-631.5 766,-631.5 766,-554.5 592,-554.5"/>
<polygon fill="#e31a1c" stroke="transparent" points="593,-615 593,-630 765,-630 765,-615 593,-615"/>
<text text-anchor="start" x="714" y="-621" font-family="Ubuntu" font-weight="bold" font-size="10.00">NewModel</text>
<text text-anchor="start" x="599" y="-605" font-family="Ubuntu" font-size="10.00">1</text>
<text text-anchor="start" x="609" y="-605" font-family="Ubuntu" font-size="10.00">key</text>
<polygon fill="#a6cee3" stroke="transparent" points="694,-600 694,-615 765,-615 765,-600 694,-600"/>
<text text-anchor="start" x="738" y="-606" font-family="Ubuntu" font-style="italic" font-size="10.00">string</text>
<text text-anchor="start" x="599" y="-590" font-family="Ubuntu" font-size="10.00">2</text>
<text text-anchor="start" x="609" y="-590" font-family="Ubuntu" font-size="10.00">category</text>
<polygon fill="#b2df8a" stroke="transparent" points="694,-585 694,-600 765,-600 765,-585 694,-585"/>
<text text-anchor="start" x="696" y="-591" font-family="Ubuntu" text-decoration="underline" font-size="10.00">ModelCategory</text>
<text text-anchor="start" x="599" y="-575" font-family="Ubuntu" font-size="10.00">3</text>
<text text-anchor="start" x="609" y="-575" font-family="Ubuntu" font-size="10.00">compute_task_key</text>
<polygon fill="#a6cee3" stroke="transparent" points="694,-570 694,-585 765,-585 765,-570 694,-570"/>
<text text-anchor="start" x="738" y="-576" font-family="Ubuntu" font-style="italic" font-size="10.00">string</text>
<text text-anchor="start" x="599" y="-560" font-family="Ubuntu" font-size="10.00">4</text>
<text text-anchor="start" x="609" y="-560" font-family="Ubuntu" font-size="10.00">address</text>
<polygon fill="#fb9a99" stroke="transparent" points="694,-555 694,-570 765,-570 765,-555 694,-555"/>
<text text-anchor="start" x="704" y="-561" font-family="Ubuntu" font-weight="bold" font-size="10.00">Addressable</text>
<polygon fill="none" stroke="black" points="592,-554.5 592,-631.5 766,-631.5 766,-554.5 592,-554.5"/>
</a>
</g>
</g>
<!-- Node_Ja_118&#45;&gt;Node_Ja_108 -->
<g id="edge16" class="edge">
<title>Node_Ja_118:e&#45;&gt;Node_Ja_108:header</title>
<g id="a_edge16"><a xlink:title="Ja_118 &#45;&#45;&gt; Ja_108">
<path fill="none" stroke="#000000" d="M321.5,-443C393.05,-443 310.43,-551.72 365,-598 439.76,-661.41 487.18,-625.65 581.78,-623.14"/>
<polygon fill="#000000" stroke="#000000" points="582.05,-626.63 592,-623 581.95,-619.63 582.05,-626.63"/>
</a>
</g>
</g>
<!-- Node_Ja_113 -->
<g id="node18" class="node">
<title>Node_Ja_113</title>
<g id="a_node18"><a xlink:title="orchestrator.DisableModelParam">
<polygon fill="#fffaf0" stroke="transparent" points="406.5,-81 406.5,-113 506.5,-113 506.5,-81 406.5,-81"/>
<polygon fill="#e31a1c" stroke="transparent" points="407.5,-97 407.5,-112 505.5,-112 505.5,-97 407.5,-97"/>
<text text-anchor="start" x="409.5" y="-103" font-family="Ubuntu" font-weight="bold" font-size="10.00">DisableModelParam</text>
<text text-anchor="start" x="415.5" y="-87" font-family="Ubuntu" font-size="10.00">1</text>
<text text-anchor="start" x="425.5" y="-87" font-family="Ubuntu" font-size="10.00">model_key</text>
<polygon fill="#a6cee3" stroke="transparent" points="475.5,-82 475.5,-97 505.5,-97 505.5,-82 475.5,-82"/>
<text text-anchor="start" x="478.5" y="-88" font-family="Ubuntu" font-style="italic" font-size="10.00">string</text>
<polygon fill="none" stroke="black" points="406.5,-81 406.5,-113 506.5,-113 506.5,-81 406.5,-81"/>
</a>
</g>
</g>
<!-- Node_Ja_118&#45;&gt;Node_Ja_113 -->
<g id="edge19" class="edge">
<title>Node_Ja_118:e&#45;&gt;Node_Ja_113:header</title>
<g id="a_edge19"><a xlink:title="Ja_118 &#45;&#45;&gt; Ja_113">
<path fill="none" stroke="#000000" d="M321.5,-262C384.96,-262 323.83,-174.29 365,-126 375.9,-113.22 382.84,-107.34 396.14,-105.59"/>
<polygon fill="#000000" stroke="#000000" points="396.72,-109.06 406.5,-105 396.32,-102.07 396.72,-109.06"/>
</a>
</g>
</g>
<!-- Node_Ja_115 -->
<g id="node19" class="node">
<title>Node_Ja_115</title>
<g id="a_node19"><a xlink:title="orchestrator.QueryModelsParam">
<polygon fill="#fffaf0" stroke="transparent" points="608,-660 608,-722 750,-722 750,-660 608,-660"/>
<polygon fill="#e31a1c" stroke="transparent" points="609,-706 609,-721 749,-721 749,-706 609,-706"/>
<text text-anchor="start" x="655" y="-712" font-family="Ubuntu" font-weight="bold" font-size="10.00">QueryModelsParam</text>
<text text-anchor="start" x="615" y="-696" font-family="Ubuntu" font-size="10.00">1</text>
<text text-anchor="start" x="625" y="-696" font-family="Ubuntu" font-size="10.00">category</text>
<polygon fill="#b2df8a" stroke="transparent" points="678,-691 678,-706 749,-706 749,-691 678,-691"/>
<text text-anchor="start" x="680" y="-697" font-family="Ubuntu" text-decoration="underline" font-size="10.00">ModelCategory</text>
<text text-anchor="start" x="615" y="-681" font-family="Ubuntu" font-size="10.00">2</text>
<text text-anchor="start" x="625" y="-681" font-family="Ubuntu" font-size="10.00">page_token</text>
<polygon fill="#a6cee3" stroke="transparent" points="678,-676 678,-691 749,-691 749,-676 678,-676"/>
<text text-anchor="start" x="722" y="-682" font-family="Ubuntu" font-style="italic" font-size="10.00">string</text>
<text text-anchor="start" x="615" y="-666" font-family="Ubuntu" font-size="10.00">3</text>
<text text-anchor="start" x="625" y="-666" font-family="Ubuntu" font-size="10.00">page_size</text>
<polygon fill="#a6cee3" stroke="transparent" points="678,-661 678,-676 749,-676 749,-661 678,-661"/>
<text text-anchor="start" x="720" y="-667" font-family="Ubuntu" font-style="italic" font-size="10.00">uint32</text>
<polygon fill="none" stroke="black" points="608,-660 608,-722 750,-722 750,-660 608,-660"/>
</a>
</g>
</g>
<!-- Node_Ja_118&#45;&gt;Node_Ja_115 -->
<g id="edge22" class="edge">
<title>Node_Ja_118:e&#45;&gt;Node_Ja_115:header</title>
<g id="a_edge22"><a xlink:title="Ja_118 &#45;&#45;&gt; Ja_115">
<path fill="none" stroke="#000000" d="M321.5,-383C350.62,-383 341.29,-415.1 365,-432 436.72,-483.11 490.12,-441.62 548,-508 608.22,-577.07 520.05,-703.62 597.69,-713.4"/>
<polygon fill="#000000" stroke="#000000" points="597.81,-716.91 608,-714 598.22,-709.92 597.81,-716.91"/>
</a>
</g>
</g>
<!-- Node_Ja_107&#45;&gt;Node_Ja_103 -->
<g id="edge20" class="edge">
<title>Node_Ja_107:e&#45;&gt;Node_Ja_103:header</title>
<g id="a_edge20"><a xlink:title="Ja_107 &#45;&#45;&gt; Ja_103">
<path fill="none" stroke="#000000" d="M766,-318C826.75,-318 769.54,-201.02 816.47,-187.31"/>
<polygon fill="#000000" stroke="#000000" points="817.04,-190.76 826.5,-186 816.13,-183.82 817.04,-190.76"/>
</a>
</g>
</g>
<!-- Node_Ja_107&#45;&gt;Node_Ja_102 -->
<g id="edge9" class="edge">
<title>Node_Ja_107:e&#45;&gt;Node_Ja_102:header</title>
<g id="a_edge9"><a xlink:title="Ja_107 &#45;&#45;&gt; Ja_102">
<path fill="none" stroke="#000000" d="M766,-333C788.73,-333 796.8,-332.26 815.41,-332.05"/>
<polygon fill="#000000" stroke="#000000" points="815.52,-335.55 825.5,-332 815.48,-328.55 815.52,-335.55"/>
</a>
</g>
</g>
<!-- Node_Ja_107&#45;&gt;Node_Ja_106 -->
<g id="edge8" class="edge">
<title>Node_Ja_107:e&#45;&gt;Node_Ja_106</title>
<g id="a_edge8"><a xlink:title="Ja_107 &#45;&#45;&gt; Ja_106">
<path fill="none" stroke="#008000" d="M766,-364C830.06,-364 767.23,-596.2 802,-650 805.66,-655.65 810.18,-660.78 815.22,-665.41"/>
<polygon fill="#008000" stroke="#008000" points="813,-668.12 822.93,-671.83 817.49,-662.74 813,-668.12"/>
</a>
</g>
</g>
<!-- Node_Ja_108&#45;&gt;Node_Ja_102 -->
<g id="edge10" class="edge">
<title>Node_Ja_108:e&#45;&gt;Node_Ja_102:header</title>
<g id="a_edge10"><a xlink:title="Ja_108 &#45;&#45;&gt; Ja_102">
<path fill="none" stroke="#000000" d="M766,-562C815.08,-562 778.7,-363.21 815.76,-335.25"/>
<polygon fill="#000000" stroke="#000000" points="817.12,-338.49 825.5,-332 814.91,-331.85 817.12,-338.49"/>
</a>
</g>
</g>
<!-- Node_Ja_108&#45;&gt;Node_Ja_106 -->
<g id="edge15" class="edge">
<title>Node_Ja_108:e&#45;&gt;Node_Ja_106</title>
<g id="a_edge15"><a xlink:title="Ja_108 &#45;&#45;&gt; Ja_106">
<path fill="none" stroke="#008000" d="M766,-592C796.34,-592 780.47,-628.62 802,-650 805.92,-653.89 810.19,-657.61 814.65,-661.15"/>
<polygon fill="#008000" stroke="#008000" points="812.78,-664.12 822.88,-667.31 816.97,-658.52 812.78,-664.12"/>
</a>
</g>
</g>
<!-- Node_Ja_115&#45;&gt;Node_Ja_106 -->
<g id="edge11" class="edge">
<title>Node_Ja_115:e&#45;&gt;Node_Ja_106</title>
<g id="a_edge11"><a xlink:title="Ja_115 &#45;&#45;&gt; Ja_106">
<path fill="none" stroke="#008000" d="M750,-699C770.33,-699 792.37,-699.23 812.65,-699.53"/>
<polygon fill="#008000" stroke="#008000" points="812.71,-703.03 822.76,-699.69 812.82,-696.03 812.71,-703.03"/>
</a>
</g>
</g>
</g>
</svg>
