<?xml version="1.0" encoding="UTF-8" standalone="no"?>
<!DOCTYPE svg PUBLIC "-//W3C//DTD SVG 1.1//EN"
 "http://www.w3.org/Graphics/SVG/1.1/DTD/svg11.dtd">
<!-- Generated by graphviz version 2.47.3 (20210619.1520)
 -->
<!-- Title: protodot Pages: 1 -->
<svg width="475pt" height="217pt"
 viewBox="0.00 0.00 475.00 217.00" xmlns="http://www.w3.org/2000/svg" xmlns:xlink="http://www.w3.org/1999/xlink">
<g id="graph0" class="graph" transform="scale(1 1) rotate(0) translate(4 213)">
<title>protodot</title>
<g id="a_graph0"><a xlink:title="orchestrator">
<text text-anchor="middle" x="233.5" y="-7.8" font-family="Times,serif" font-size="14.00">orchestrator</text>
</a>
</g>
<!-- Node_Ja_101 -->
<g id="node1" class="node">
<title>Node_Ja_101</title>
<g id="a_node1"><a xlink:title="orchestrator.GetAllNodesResponse">
<polygon fill="#fffaf0" stroke="transparent" points="238,-27 238,-59 350,-59 350,-27 238,-27"/>
<polygon fill="#e31a1c" stroke="transparent" points="239,-43 239,-58 349,-58 349,-43 239,-43"/>
<text text-anchor="start" x="241" y="-49" font-family="Ubuntu" font-weight="bold" font-size="10.00">GetAllNodesResponse</text>
<text text-anchor="start" x="251" y="-33" font-family="Ubuntu" font-size="10.00">[...]</text>
<text text-anchor="start" x="276" y="-33" font-family="Ubuntu" font-size="10.00">1</text>
<text text-anchor="start" x="286" y="-33" font-family="Ubuntu" font-size="10.00">nodes</text>
<polygon fill="#fb9a99" stroke="transparent" points="317,-28 317,-43 349,-43 349,-28 317,-28"/>
<text text-anchor="start" x="322" y="-34" font-family="Ubuntu" font-weight="bold" font-size="10.00">Node</text>
<polygon fill="none" stroke="black" points="238,-27 238,-59 350,-59 350,-27 238,-27"/>
</a>
</g>
</g>
<!-- Node_Ja_100 -->
<g id="node5" class="node">
<title>Node_Ja_100</title>
<g id="a_node5"><a xlink:title="orchestrator.Node">
<polygon fill="#fffaf0" stroke="transparent" points="402,-66 402,-98 459,-98 459,-66 402,-66"/>
<polygon fill="#e31a1c" stroke="transparent" points="403.5,-82 403.5,-97 458.5,-97 458.5,-82 403.5,-82"/>
<text text-anchor="start" x="431.5" y="-88" font-family="Ubuntu" font-weight="bold" font-size="10.00">Node</text>
<text text-anchor="start" x="409.5" y="-72" font-family="Ubuntu" font-size="10.00">1</text>
<text text-anchor="start" x="419.5" y="-72" font-family="Ubuntu" font-size="10.00">id</text>
<polygon fill="#a6cee3" stroke="transparent" points="429.5,-67 429.5,-82 458.5,-82 458.5,-67 429.5,-67"/>
<text text-anchor="start" x="431.5" y="-73" font-family="Ubuntu" font-style="italic" font-size="10.00">string</text>
<polygon fill="none" stroke="black" points="402,-66 402,-98 459,-98 459,-66 402,-66"/>
</a>
</g>
</g>
<!-- Node_Ja_101&#45;&gt;Node_Ja_100 -->
<g id="edge1" class="edge">
<title>Node_Ja_101:e&#45;&gt;Node_Ja_100:header</title>
<g id="a_edge1"><a xlink:title="Ja_101 &#45;&#45;&gt; Ja_100">
<path fill="none" stroke="#000000" d="M350,-35C379.83,-35 371.57,-77.86 392.48,-87.91"/>
<polygon fill="#000000" stroke="#000000" points="392,-91.39 402.5,-90 393.42,-84.53 392,-91.39"/>
</a>
</g>
</g>
<!-- Node_Ja_102 -->
<g id="node2" class="node">
<title>Node_Ja_102</title>
<g id="a_node2"><a xlink:title="orchestrator.RegisterNodeParam">
<polygon fill="#fffaf0" stroke="transparent" points="243,-182.5 243,-199.5 345,-199.5 345,-182.5 243,-182.5"/>
<polygon fill="#e31a1c" stroke="transparent" points="244,-183 244,-198 344,-198 344,-183 244,-183"/>
<text text-anchor="start" x="248" y="-189" font-family="Ubuntu" font-weight="bold" font-size="10.00">RegisterNodeParam</text>
<polygon fill="none" stroke="black" points="243,-182.5 243,-199.5 345,-199.5 345,-182.5 243,-182.5"/>
</a>
</g>
</g>
<!-- Node_Ja_103 -->
<g id="node3" class="node">
<title>Node_Ja_103</title>
<g id="a_node3"><a xlink:title="orchestrator.GetAllNodesParam">
<polygon fill="#fffaf0" stroke="transparent" points="245,-90.5 245,-107.5 343,-107.5 343,-90.5 245,-90.5"/>
<polygon fill="#e31a1c" stroke="transparent" points="246,-91 246,-106 342,-106 342,-91 246,-91"/>
<text text-anchor="start" x="250" y="-97" font-family="Ubuntu" font-weight="bold" font-size="10.00">GetAllNodesParam</text>
<polygon fill="none" stroke="black" points="245,-90.5 245,-107.5 343,-107.5 343,-90.5 245,-90.5"/>
</a>
</g>
</g>
<!-- Node_Ja_104 -->
<g id="node4" class="node">
<title>Node_Ja_104</title>
<g id="a_node4"><a xlink:title="NodeService">
<polygon fill="#ffd700" stroke="transparent" points="8,-91.5 8,-168.5 186,-168.5 186,-91.5 8,-91.5"/>
<polygon fill="#ff7f50" stroke="transparent" points="9,-152 9,-167 185,-167 185,-152 9,-152"/>
<text text-anchor="start" x="123" y="-158" font-family="Ubuntu" font-weight="bold" font-size="10.00">NodeService</text>
<text text-anchor="start" x="11" y="-143" font-family="Ubuntu" font-weight="bold" font-size="10.00">RegisterNode</text>
<text text-anchor="start" x="94" y="-142" font-family="Ubuntu" font-size="10.00">RegisterNodeParam</text>
<polygon fill="#ff7f50" stroke="transparent" points="77,-122 77,-137 81,-137 81,-122 77,-122"/>
<polygon fill="#ff7f50" stroke="transparent" points="81,-122 81,-137 185,-137 185,-122 81,-122"/>
<text text-anchor="start" x="159" y="-127" font-family="Ubuntu" font-size="10.00">Node</text>
<text text-anchor="start" x="11" y="-113" font-family="Ubuntu" font-weight="bold" font-size="10.00">GetAllNodes</text>
<text text-anchor="start" x="98" y="-112" font-family="Ubuntu" font-size="10.00">GetAllNodesParam</text>
<polygon fill="#ff7f50" stroke="transparent" points="77,-92 77,-107 81,-107 81,-92 77,-92"/>
<polygon fill="#ff7f50" stroke="transparent" points="81,-92 81,-107 185,-107 185,-92 81,-92"/>
<text text-anchor="start" x="83" y="-97" font-family="Ubuntu" font-size="10.00">GetAllNodesResponse</text>
<polygon fill="none" stroke="black" points="8,-91.5 8,-168.5 186,-168.5 186,-91.5 8,-91.5"/>
</a>
</g>
</g>
<!-- Node_Ja_104&#45;&gt;Node_Ja_101 -->
<g id="edge5" class="edge">
<title>Node_Ja_104:e&#45;&gt;Node_Ja_101:header</title>
<g id="a_edge5"><a xlink:title="Ja_104 &#45;&#45;&gt; Ja_101">
<path fill="none" stroke="#000000" d="M186,-99C213.52,-99 208.61,-62.25 228.03,-53.06"/>
<polygon fill="#000000" stroke="#000000" points="228.92,-56.45 238,-51 227.5,-49.6 228.92,-56.45"/>
</a>
</g>
</g>
<!-- Node_Ja_104&#45;&gt;Node_Ja_102 -->
<g id="edge2" class="edge">
<title>Node_Ja_104:e&#45;&gt;Node_Ja_102:header</title>
<g id="a_edge2"><a xlink:title="Ja_104 &#45;&#45;&gt; Ja_102">
<path fill="none" stroke="#000000" d="M186,-145C194.65,-145 239.86,-165.25 268.67,-178.59"/>
<polygon fill="#000000" stroke="#000000" points="267.55,-181.93 278.09,-182.97 270.5,-175.58 267.55,-181.93"/>
</a>
</g>
</g>
<!-- Node_Ja_104&#45;&gt;Node_Ja_103 -->
<g id="edge4" class="edge">
<title>Node_Ja_104:e&#45;&gt;Node_Ja_103:header</title>
<g id="a_edge4"><a xlink:title="Ja_104 &#45;&#45;&gt; Ja_103">
<path fill="none" stroke="#000000" d="M186,-114C206.13,-114 228.15,-111.2 246.96,-107.94"/>
<polygon fill="#000000" stroke="#000000" points="247.84,-111.33 257.04,-106.09 246.58,-104.45 247.84,-111.33"/>
</a>
</g>
</g>
<!-- Node_Ja_104&#45;&gt;Node_Ja_100 -->
<g id="edge3" class="edge">
<title>Node_Ja_104:e&#45;&gt;Node_Ja_100:header</title>
<g id="a_edge3"><a xlink:title="Ja_104 &#45;&#45;&gt; Ja_100">
<path fill="none" stroke="#000000" d="M186,-129C262.46,-129 286.15,-152.13 358,-126 378.17,-118.66 377.87,-98.08 392.57,-91.82"/>
<polygon fill="#000000" stroke="#000000" points="393.3,-95.25 402.5,-90 392.03,-88.36 393.3,-95.25"/>
</a>
</g>
</g>
</g>
</svg>
