<?xml version="1.0" encoding="UTF-8" standalone="no"?>
<!DOCTYPE svg PUBLIC "-//W3C//DTD SVG 1.1//EN"
 "http://www.w3.org/Graphics/SVG/1.1/DTD/svg11.dtd">
<!-- Generated by graphviz version 2.47.3 (20210619.1520)
 -->
<!-- Title: protodot Pages: 1 -->
<svg width="1095pt" height="776pt"
 viewBox="0.00 0.00 1095.00 775.50" xmlns="http://www.w3.org/2000/svg" xmlns:xlink="http://www.w3.org/1999/xlink">
<g id="graph0" class="graph" transform="scale(1 1) rotate(0) translate(4 771.5)">
<title>protodot</title>
<g id="a_graph0"><a xlink:title="orchestrator">
<text text-anchor="middle" x="543.5" y="-7.8" font-family="Times,serif" font-size="14.00">orchestrator</text>
</a>
</g>
<g id="clust1" class="cluster">
<title>cluster_17479c12eb21</title>
<g id="a_clust1"><a xlink:title="orchestrator">
<polygon fill="#caff70" stroke="black" points="509,-117.5 509,-405.5 678,-405.5 678,-117.5 509,-117.5"/>
<text text-anchor="middle" x="593.5" y="-390.3" font-family="Times,serif" font-size="14.00">orchestrator</text>
</a>
</g>
</g>
<g id="clust2" class="cluster">
<title>cluster_308971b5abce</title>
<g id="a_clust2"><a xlink:title="common.proto">
<polygon fill="#caff70" stroke="black" points="737,-428.5 737,-669.5 1079,-669.5 1079,-428.5 737,-428.5"/>
<text text-anchor="middle" x="908" y="-654.3" font-family="Times,serif" font-size="14.00">common.proto</text>
</a>
</g>
</g>
<!-- Node_Ja_101 -->
<g id="node1" class="node">
<title>Node_Ja_101</title>
<g id="a_node1"><a xlink:title="SortOrder">
<polygon fill="#b2df8a" stroke="transparent" points="551,-323 551,-370 636,-370 636,-323 551,-323"/>
<polygon fill="#33a02c" stroke="transparent" points="552.5,-353.5 552.5,-368.5 635.5,-368.5 635.5,-353.5 552.5,-353.5"/>
<text text-anchor="start" x="559.5" y="-359.5" font-family="Ubuntu" font-size="10.00">enum </text>
<text text-anchor="start" x="587.5" y="-359.5" font-family="Ubuntu" font-weight="bold" font-size="10.00">SortOrder</text>
<polygon fill="#b2df8a" stroke="transparent" points="552.5,-338.5 552.5,-353.5 625.5,-353.5 625.5,-338.5 552.5,-338.5"/>
<text text-anchor="start" x="554.5" y="-343.5" font-family="Ubuntu" font-size="10.00">ASCENDING</text>
<polygon fill="#b2df8a" stroke="transparent" points="625.5,-338.5 625.5,-353.5 635.5,-353.5 635.5,-338.5 625.5,-338.5"/>
<text text-anchor="start" x="627.5" y="-343.5" font-family="Ubuntu" font-size="10.00">0</text>
<polygon fill="#b2df8a" stroke="transparent" points="552.5,-323.5 552.5,-338.5 625.5,-338.5 625.5,-323.5 552.5,-323.5"/>
<text text-anchor="start" x="554.5" y="-328.5" font-family="Ubuntu" font-size="10.00">DESCENDING</text>
<polygon fill="#b2df8a" stroke="transparent" points="625.5,-323.5 625.5,-338.5 635.5,-338.5 635.5,-323.5 625.5,-323.5"/>
<text text-anchor="start" x="627.5" y="-328.5" font-family="Ubuntu" font-size="10.00">1</text>
<polygon fill="none" stroke="black" points="551,-323 551,-370 636,-370 636,-323 551,-323"/>
</a>
</g>
</g>
<!-- Node_Ja_100 -->
<g id="node2" class="node">
<title>Node_Ja_100</title>
<g id="a_node2"><a xlink:title="AssetKind">
<polygon fill="#b2df8a" stroke="transparent" points="525,-130 525,-297 662,-297 662,-130 525,-130"/>
<polygon fill="#33a02c" stroke="transparent" points="526.5,-280.5 526.5,-295.5 661.5,-295.5 661.5,-280.5 526.5,-280.5"/>
<text text-anchor="start" x="582.5" y="-286.5" font-family="Ubuntu" font-size="10.00">enum </text>
<text text-anchor="start" x="610.5" y="-286.5" font-family="Ubuntu" font-weight="bold" font-size="10.00">AssetKind</text>
<polygon fill="#b2df8a" stroke="transparent" points="526.5,-265.5 526.5,-280.5 651.5,-280.5 651.5,-265.5 526.5,-265.5"/>
<text text-anchor="start" x="528.5" y="-270.5" font-family="Ubuntu" font-size="10.00">ASSET_UNKNOWN</text>
<polygon fill="#b2df8a" stroke="transparent" points="651.5,-265.5 651.5,-280.5 661.5,-280.5 661.5,-265.5 651.5,-265.5"/>
<text text-anchor="start" x="653.5" y="-270.5" font-family="Ubuntu" font-size="10.00">0</text>
<polygon fill="#b2df8a" stroke="transparent" points="526.5,-250.5 526.5,-265.5 651.5,-265.5 651.5,-250.5 526.5,-250.5"/>
<text text-anchor="start" x="528.5" y="-255.5" font-family="Ubuntu" font-size="10.00">ASSET_NODE</text>
<polygon fill="#b2df8a" stroke="transparent" points="651.5,-250.5 651.5,-265.5 661.5,-265.5 661.5,-250.5 651.5,-250.5"/>
<text text-anchor="start" x="653.5" y="-255.5" font-family="Ubuntu" font-size="10.00">1</text>
<polygon fill="#b2df8a" stroke="transparent" points="526.5,-235.5 526.5,-250.5 651.5,-250.5 651.5,-235.5 526.5,-235.5"/>
<text text-anchor="start" x="528.5" y="-240.5" font-family="Ubuntu" font-size="10.00">ASSET_OBJECTIVE</text>
<polygon fill="#b2df8a" stroke="transparent" points="651.5,-235.5 651.5,-250.5 661.5,-250.5 661.5,-235.5 651.5,-235.5"/>
<text text-anchor="start" x="653.5" y="-240.5" font-family="Ubuntu" font-size="10.00">2</text>
<polygon fill="#b2df8a" stroke="transparent" points="526.5,-220.5 526.5,-235.5 651.5,-235.5 651.5,-220.5 526.5,-220.5"/>
<text text-anchor="start" x="528.5" y="-225.5" font-family="Ubuntu" font-size="10.00">ASSET_DATA_SAMPLE</text>
<polygon fill="#b2df8a" stroke="transparent" points="651.5,-220.5 651.5,-235.5 661.5,-235.5 661.5,-220.5 651.5,-220.5"/>
<text text-anchor="start" x="653.5" y="-225.5" font-family="Ubuntu" font-size="10.00">3</text>
<polygon fill="#b2df8a" stroke="transparent" points="526.5,-205.5 526.5,-220.5 651.5,-220.5 651.5,-205.5 526.5,-205.5"/>
<text text-anchor="start" x="528.5" y="-210.5" font-family="Ubuntu" font-size="10.00">ASSET_DATA_MANAGER</text>
<polygon fill="#b2df8a" stroke="transparent" points="651.5,-205.5 651.5,-220.5 661.5,-220.5 661.5,-205.5 651.5,-205.5"/>
<text text-anchor="start" x="653.5" y="-210.5" font-family="Ubuntu" font-size="10.00">4</text>
<polygon fill="#b2df8a" stroke="transparent" points="526.5,-190.5 526.5,-205.5 651.5,-205.5 651.5,-190.5 526.5,-190.5"/>
<text text-anchor="start" x="528.5" y="-195.5" font-family="Ubuntu" font-size="10.00">ASSET_ALGO</text>
<polygon fill="#b2df8a" stroke="transparent" points="651.5,-190.5 651.5,-205.5 661.5,-205.5 661.5,-190.5 651.5,-190.5"/>
<text text-anchor="start" x="653.5" y="-195.5" font-family="Ubuntu" font-size="10.00">5</text>
<polygon fill="#b2df8a" stroke="transparent" points="526.5,-175.5 526.5,-190.5 651.5,-190.5 651.5,-175.5 526.5,-175.5"/>
<text text-anchor="start" x="528.5" y="-180.5" font-family="Ubuntu" font-size="10.00">ASSET_COMPUTE_TASK</text>
<polygon fill="#b2df8a" stroke="transparent" points="651.5,-175.5 651.5,-190.5 661.5,-190.5 661.5,-175.5 651.5,-175.5"/>
<text text-anchor="start" x="653.5" y="-180.5" font-family="Ubuntu" font-size="10.00">6</text>
<polygon fill="#b2df8a" stroke="transparent" points="526.5,-160.5 526.5,-175.5 651.5,-175.5 651.5,-160.5 526.5,-160.5"/>
<text text-anchor="start" x="528.5" y="-165.5" font-family="Ubuntu" font-size="10.00">ASSET_COMPUTE_PLAN</text>
<polygon fill="#b2df8a" stroke="transparent" points="651.5,-160.5 651.5,-175.5 661.5,-175.5 661.5,-160.5 651.5,-160.5"/>
<text text-anchor="start" x="653.5" y="-165.5" font-family="Ubuntu" font-size="10.00">7</text>
<polygon fill="#b2df8a" stroke="transparent" points="526.5,-145.5 526.5,-160.5 651.5,-160.5 651.5,-145.5 526.5,-145.5"/>
<text text-anchor="start" x="528.5" y="-150.5" font-family="Ubuntu" font-size="10.00">ASSET_MODEL</text>
<polygon fill="#b2df8a" stroke="transparent" points="651.5,-145.5 651.5,-160.5 661.5,-160.5 661.5,-145.5 651.5,-145.5"/>
<text text-anchor="start" x="653.5" y="-150.5" font-family="Ubuntu" font-size="10.00">8</text>
<polygon fill="#b2df8a" stroke="transparent" points="526.5,-130.5 526.5,-145.5 651.5,-145.5 651.5,-130.5 526.5,-130.5"/>
<text text-anchor="start" x="528.5" y="-135.5" font-family="Ubuntu" font-size="10.00">ASSET_PERFORMANCE</text>
<polygon fill="#b2df8a" stroke="transparent" points="651.5,-130.5 651.5,-145.5 661.5,-145.5 661.5,-130.5 651.5,-130.5"/>
<text text-anchor="start" x="653.5" y="-135.5" font-family="Ubuntu" font-size="10.00">9</text>
<polygon fill="none" stroke="black" points="525,-130 525,-297 662,-297 662,-130 525,-130"/>
</a>
</g>
</g>
<!-- Node_Ja_105 -->
<g id="node3" class="node">
<title>Node_Ja_105</title>
<g id="a_node3"><a xlink:title="orchestrator.NewPermissions">
<polygon fill="#fffaf0" stroke="transparent" points="753,-514 753,-561 882,-561 882,-514 753,-514"/>
<polygon fill="#e31a1c" stroke="transparent" points="754.5,-544.5 754.5,-559.5 881.5,-559.5 881.5,-544.5 754.5,-544.5"/>
<text text-anchor="start" x="800.5" y="-550.5" font-family="Ubuntu" font-weight="bold" font-size="10.00">NewPermissions</text>
<text text-anchor="start" x="776.5" y="-534.5" font-family="Ubuntu" font-size="10.00">1</text>
<text text-anchor="start" x="786.5" y="-534.5" font-family="Ubuntu" font-size="10.00">public</text>
<polygon fill="#a6cee3" stroke="transparent" points="852.5,-529.5 852.5,-544.5 881.5,-544.5 881.5,-529.5 852.5,-529.5"/>
<text text-anchor="start" x="860.5" y="-535.5" font-family="Ubuntu" font-style="italic" font-size="10.00">bool</text>
<text text-anchor="start" x="756.5" y="-519.5" font-family="Ubuntu" font-size="10.00">[...]</text>
<text text-anchor="start" x="776.5" y="-519.5" font-family="Ubuntu" font-size="10.00">2</text>
<text text-anchor="start" x="786.5" y="-519.5" font-family="Ubuntu" font-size="10.00">authorized_ids</text>
<polygon fill="#a6cee3" stroke="transparent" points="852.5,-514.5 852.5,-529.5 881.5,-529.5 881.5,-514.5 852.5,-514.5"/>
<text text-anchor="start" x="854.5" y="-520.5" font-family="Ubuntu" font-style="italic" font-size="10.00">string</text>
<polygon fill="none" stroke="black" points="753,-514 753,-561 882,-561 882,-514 753,-514"/>
</a>
</g>
</g>
<!-- Node_Ja_102 -->
<g id="node4" class="node">
<title>Node_Ja_102</title>
<g id="a_node4"><a xlink:title="orchestrator.Addressable">
<polygon fill="#fffaf0" stroke="transparent" points="756.5,-587 756.5,-634 878.5,-634 878.5,-587 756.5,-587"/>
<polygon fill="#e31a1c" stroke="transparent" points="757.5,-617.5 757.5,-632.5 877.5,-632.5 877.5,-617.5 757.5,-617.5"/>
<text text-anchor="start" x="816.5" y="-623.5" font-family="Ubuntu" font-weight="bold" font-size="10.00">Addressable</text>
<text text-anchor="start" x="763.5" y="-607.5" font-family="Ubuntu" font-size="10.00">1</text>
<text text-anchor="start" x="773.5" y="-607.5" font-family="Ubuntu" font-size="10.00">checksum</text>
<polygon fill="#a6cee3" stroke="transparent" points="848.5,-602.5 848.5,-617.5 877.5,-617.5 877.5,-602.5 848.5,-602.5"/>
<text text-anchor="start" x="850.5" y="-608.5" font-family="Ubuntu" font-style="italic" font-size="10.00">string</text>
<text text-anchor="start" x="763.5" y="-592.5" font-family="Ubuntu" font-size="10.00">2</text>
<text text-anchor="start" x="773.5" y="-592.5" font-family="Ubuntu" font-size="10.00">storage_address</text>
<polygon fill="#a6cee3" stroke="transparent" points="848.5,-587.5 848.5,-602.5 877.5,-602.5 877.5,-587.5 848.5,-587.5"/>
<text text-anchor="start" x="850.5" y="-593.5" font-family="Ubuntu" font-style="italic" font-size="10.00">string</text>
<polygon fill="none" stroke="black" points="756.5,-587 756.5,-634 878.5,-634 878.5,-587 756.5,-587"/>
</a>
</g>
</g>
<!-- Node_Ja_104 -->
<g id="node5" class="node">
<title>Node_Ja_104</title>
<g id="a_node5"><a xlink:title="orchestrator.Permission">
<polygon fill="#fffaf0" stroke="transparent" points="934,-441 934,-488 1063,-488 1063,-441 934,-441"/>
<polygon fill="#e31a1c" stroke="transparent" points="935.5,-471.5 935.5,-486.5 1062.5,-486.5 1062.5,-471.5 935.5,-471.5"/>
<text text-anchor="start" x="1006.5" y="-477.5" font-family="Ubuntu" font-weight="bold" font-size="10.00">Permission</text>
<text text-anchor="start" x="957.5" y="-461.5" font-family="Ubuntu" font-size="10.00">1</text>
<text text-anchor="start" x="967.5" y="-461.5" font-family="Ubuntu" font-size="10.00">public</text>
<polygon fill="#a6cee3" stroke="transparent" points="1033.5,-456.5 1033.5,-471.5 1062.5,-471.5 1062.5,-456.5 1033.5,-456.5"/>
<text text-anchor="start" x="1041.5" y="-462.5" font-family="Ubuntu" font-style="italic" font-size="10.00">bool</text>
<text text-anchor="start" x="937.5" y="-446.5" font-family="Ubuntu" font-size="10.00">[...]</text>
<text text-anchor="start" x="957.5" y="-446.5" font-family="Ubuntu" font-size="10.00">2</text>
<text text-anchor="start" x="967.5" y="-446.5" font-family="Ubuntu" font-size="10.00">authorized_ids</text>
<polygon fill="#a6cee3" stroke="transparent" points="1033.5,-441.5 1033.5,-456.5 1062.5,-456.5 1062.5,-441.5 1033.5,-441.5"/>
<text text-anchor="start" x="1035.5" y="-447.5" font-family="Ubuntu" font-style="italic" font-size="10.00">string</text>
<polygon fill="none" stroke="black" points="934,-441 934,-488 1063,-488 1063,-441 934,-441"/>
</a>
</g>
</g>
<!-- Node_Ja_103 -->
<g id="node6" class="node">
<title>Node_Ja_103</title>
<g id="a_node6"><a xlink:title="orchestrator.Permissions">
<polygon fill="#fffaf0" stroke="transparent" points="757.5,-441 757.5,-488 877.5,-488 877.5,-441 757.5,-441"/>
<polygon fill="#e31a1c" stroke="transparent" points="758.5,-471.5 758.5,-486.5 876.5,-486.5 876.5,-471.5 758.5,-471.5"/>
<text text-anchor="start" x="815.5" y="-477.5" font-family="Ubuntu" font-weight="bold" font-size="10.00">Permissions</text>
<text text-anchor="start" x="764.5" y="-461.5" font-family="Ubuntu" font-size="10.00">1</text>
<text text-anchor="start" x="774.5" y="-461.5" font-family="Ubuntu" font-size="10.00">process</text>
<polygon fill="#fb9a99" stroke="transparent" points="818.5,-456.5 818.5,-471.5 876.5,-471.5 876.5,-456.5 818.5,-456.5"/>
<text text-anchor="start" x="820.5" y="-462.5" font-family="Ubuntu" font-weight="bold" font-size="10.00">Permission</text>
<text text-anchor="start" x="764.5" y="-446.5" font-family="Ubuntu" font-size="10.00">2</text>
<text text-anchor="start" x="774.5" y="-446.5" font-family="Ubuntu" font-size="10.00">download</text>
<polygon fill="#fb9a99" stroke="transparent" points="818.5,-441.5 818.5,-456.5 876.5,-456.5 876.5,-441.5 818.5,-441.5"/>
<text text-anchor="start" x="820.5" y="-447.5" font-family="Ubuntu" font-weight="bold" font-size="10.00">Permission</text>
<polygon fill="none" stroke="black" points="757.5,-441 757.5,-488 877.5,-488 877.5,-441 757.5,-441"/>
</a>
</g>
</g>
<!-- Node_Ja_103&#45;&gt;Node_Ja_104 -->
<g id="edge1" class="edge">
<title>Node_Ja_103:e&#45;&gt;Node_Ja_104:header</title>
<g id="a_edge1"><a xlink:title="Ja_103 &#45;&#45;&gt; Ja_104">
<path fill="none" stroke="#000000" d="M877.5,-448.5C902.51,-448.5 905.32,-471.81 924.43,-478"/>
<polygon fill="#000000" stroke="#000000" points="924.09,-481.49 934.5,-479.5 925.12,-474.57 924.09,-481.49"/>
</a>
</g>
</g>
<!-- Node_Ja_103&#45;&gt;Node_Ja_104 -->
<g id="edge14" class="edge">
<title>Node_Ja_103:e&#45;&gt;Node_Ja_104:header</title>
<g id="a_edge14"><a xlink:title="Ja_103 &#45;&#45;&gt; Ja_104">
<path fill="none" stroke="#000000" d="M877.5,-463.5C899.91,-463.5 906.41,-475.1 924.09,-478.55"/>
<polygon fill="#000000" stroke="#000000" points="924.22,-482.07 934.5,-479.5 924.86,-475.1 924.22,-482.07"/>
</a>
</g>
</g>
<!-- Node_Ja_108 -->
<g id="node7" class="node">
<title>Node_Ja_108</title>
<g id="a_node7"><a xlink:title="orchestrator.GetObjectiveParam">
<polygon fill="#fffaf0" stroke="transparent" points="306.5,-608.5 306.5,-640.5 402.5,-640.5 402.5,-608.5 306.5,-608.5"/>
<polygon fill="#e31a1c" stroke="transparent" points="307.5,-624.5 307.5,-639.5 401.5,-639.5 401.5,-624.5 307.5,-624.5"/>
<text text-anchor="start" x="309.5" y="-630.5" font-family="Ubuntu" font-weight="bold" font-size="10.00">GetObjectiveParam</text>
<text text-anchor="start" x="336.5" y="-614.5" font-family="Ubuntu" font-size="10.00">1</text>
<text text-anchor="start" x="346.5" y="-614.5" font-family="Ubuntu" font-size="10.00">key</text>
<polygon fill="#a6cee3" stroke="transparent" points="368.5,-609.5 368.5,-624.5 401.5,-624.5 401.5,-609.5 368.5,-609.5"/>
<text text-anchor="start" x="374.5" y="-615.5" font-family="Ubuntu" font-style="italic" font-size="10.00">string</text>
<polygon fill="none" stroke="black" points="306.5,-608.5 306.5,-640.5 402.5,-640.5 402.5,-608.5 306.5,-608.5"/>
</a>
</g>
</g>
<!-- Node_Ja_111 -->
<g id="node8" class="node">
<title>Node_Ja_111</title>
<g id="a_node8"><a xlink:title="orchestrator.LeaderboardQueryParam">
<polygon fill="#fffaf0" stroke="transparent" points="290.5,-351 290.5,-398 418.5,-398 418.5,-351 290.5,-351"/>
<polygon fill="#e31a1c" stroke="transparent" points="291.5,-381.5 291.5,-396.5 417.5,-396.5 417.5,-381.5 291.5,-381.5"/>
<text text-anchor="start" x="298.5" y="-387.5" font-family="Ubuntu" font-weight="bold" font-size="10.00">LeaderboardQueryParam</text>
<text text-anchor="start" x="297.5" y="-371.5" font-family="Ubuntu" font-size="10.00">1</text>
<text text-anchor="start" x="307.5" y="-371.5" font-family="Ubuntu" font-size="10.00">objective_key</text>
<polygon fill="#a6cee3" stroke="transparent" points="370.5,-366.5 370.5,-381.5 417.5,-381.5 417.5,-366.5 370.5,-366.5"/>
<text text-anchor="start" x="390.5" y="-372.5" font-family="Ubuntu" font-style="italic" font-size="10.00">string</text>
<text text-anchor="start" x="297.5" y="-356.5" font-family="Ubuntu" font-size="10.00">2</text>
<text text-anchor="start" x="307.5" y="-356.5" font-family="Ubuntu" font-size="10.00">sort_order</text>
<polygon fill="#b2df8a" stroke="transparent" points="370.5,-351.5 370.5,-366.5 417.5,-366.5 417.5,-351.5 370.5,-351.5"/>
<text text-anchor="start" x="372.5" y="-357.5" font-family="Ubuntu" text-decoration="underline" font-size="10.00">SortOrder</text>
<polygon fill="none" stroke="black" points="290.5,-351 290.5,-398 418.5,-398 418.5,-351 290.5,-351"/>
</a>
</g>
</g>
<!-- Node_Ja_111&#45;&gt;Node_Ja_101 -->
<g id="edge16" class="edge">
<title>Node_Ja_111:e&#45;&gt;Node_Ja_101</title>
<g id="a_edge16"><a xlink:title="Ja_111 &#45;&#45;&gt; Ja_101">
<path fill="none" stroke="#008000" d="M418.5,-358.5C456.51,-358.5 499.07,-355.62 532.59,-352.67"/>
<polygon fill="#008000" stroke="#008000" points="533.04,-356.15 542.69,-351.76 532.41,-349.18 533.04,-356.15"/>
</a>
</g>
</g>
<!-- Node_Ja_109 -->
<g id="node9" class="node">
<title>Node_Ja_109</title>
<g id="a_node9"><a xlink:title="orchestrator.QueryObjectivesResponse">
<polygon fill="#fffaf0" stroke="transparent" points="275,-424 275,-471 434,-471 434,-424 275,-424"/>
<polygon fill="#e31a1c" stroke="transparent" points="276.5,-454.5 276.5,-469.5 433.5,-469.5 433.5,-454.5 276.5,-454.5"/>
<text text-anchor="start" x="307.5" y="-460.5" font-family="Ubuntu" font-weight="bold" font-size="10.00">QueryObjectivesResponse</text>
<text text-anchor="start" x="278.5" y="-444.5" font-family="Ubuntu" font-size="10.00">[...]</text>
<text text-anchor="start" x="298.5" y="-444.5" font-family="Ubuntu" font-size="10.00">1</text>
<text text-anchor="start" x="308.5" y="-444.5" font-family="Ubuntu" font-size="10.00">objectives</text>
<polygon fill="#fb9a99" stroke="transparent" points="385.5,-439.5 385.5,-454.5 433.5,-454.5 433.5,-439.5 385.5,-439.5"/>
<text text-anchor="start" x="387.5" y="-445.5" font-family="Ubuntu" font-weight="bold" font-size="10.00">Objective</text>
<text text-anchor="start" x="298.5" y="-429.5" font-family="Ubuntu" font-size="10.00">2</text>
<text text-anchor="start" x="308.5" y="-429.5" font-family="Ubuntu" font-size="10.00">next_page_token</text>
<polygon fill="#a6cee3" stroke="transparent" points="385.5,-424.5 385.5,-439.5 433.5,-439.5 433.5,-424.5 385.5,-424.5"/>
<text text-anchor="start" x="406.5" y="-430.5" font-family="Ubuntu" font-style="italic" font-size="10.00">string</text>
<polygon fill="none" stroke="black" points="275,-424 275,-471 434,-471 434,-424 275,-424"/>
</a>
</g>
</g>
<!-- Node_Ja_106 -->
<g id="node12" class="node">
<title>Node_Ja_106</title>
<g id="a_node12"><a xlink:title="orchestrator.Objective">
<polygon fill="#fffaf0" stroke="transparent" points="486,-418 486,-585 701,-585 701,-418 486,-418"/>
<polygon fill="#e31a1c" stroke="transparent" points="487.5,-568.5 487.5,-583.5 700.5,-583.5 700.5,-568.5 487.5,-568.5"/>
<text text-anchor="start" x="654.5" y="-574.5" font-family="Ubuntu" font-weight="bold" font-size="10.00">Objective</text>
<text text-anchor="start" x="514.5" y="-558.5" font-family="Ubuntu" font-size="10.00">1</text>
<text text-anchor="start" x="524.5" y="-558.5" font-family="Ubuntu" font-size="10.00">key</text>
<polygon fill="#a6cee3" stroke="transparent" points="609.5,-553.5 609.5,-568.5 700.5,-568.5 700.5,-553.5 609.5,-553.5"/>
<text text-anchor="start" x="673.5" y="-559.5" font-family="Ubuntu" font-style="italic" font-size="10.00">string</text>
<text text-anchor="start" x="514.5" y="-543.5" font-family="Ubuntu" font-size="10.00">2</text>
<text text-anchor="start" x="524.5" y="-543.5" font-family="Ubuntu" font-size="10.00">name</text>
<polygon fill="#a6cee3" stroke="transparent" points="609.5,-538.5 609.5,-553.5 700.5,-553.5 700.5,-538.5 609.5,-538.5"/>
<text text-anchor="start" x="673.5" y="-544.5" font-family="Ubuntu" font-style="italic" font-size="10.00">string</text>
<text text-anchor="start" x="514.5" y="-528.5" font-family="Ubuntu" font-size="10.00">3</text>
<text text-anchor="start" x="524.5" y="-528.5" font-family="Ubuntu" font-size="10.00">data_manager_key</text>
<polygon fill="#a6cee3" stroke="transparent" points="609.5,-523.5 609.5,-538.5 700.5,-538.5 700.5,-523.5 609.5,-523.5"/>
<text text-anchor="start" x="673.5" y="-529.5" font-family="Ubuntu" font-style="italic" font-size="10.00">string</text>
<text text-anchor="start" x="489.5" y="-513.5" font-family="Ubuntu" font-size="10.00">[...]</text>
<text text-anchor="start" x="514.5" y="-513.5" font-family="Ubuntu" font-size="10.00">4</text>
<text text-anchor="start" x="524.5" y="-513.5" font-family="Ubuntu" font-size="10.00">data_sample_keys</text>
<polygon fill="#a6cee3" stroke="transparent" points="609.5,-508.5 609.5,-523.5 700.5,-523.5 700.5,-508.5 609.5,-508.5"/>
<text text-anchor="start" x="673.5" y="-514.5" font-family="Ubuntu" font-style="italic" font-size="10.00">string</text>
<text text-anchor="start" x="514.5" y="-498.5" font-family="Ubuntu" font-size="10.00">5</text>
<text text-anchor="start" x="524.5" y="-498.5" font-family="Ubuntu" font-size="10.00">description</text>
<polygon fill="#fb9a99" stroke="transparent" points="609.5,-493.5 609.5,-508.5 700.5,-508.5 700.5,-493.5 609.5,-493.5"/>
<text text-anchor="start" x="639.5" y="-499.5" font-family="Ubuntu" font-weight="bold" font-size="10.00">Addressable</text>
<text text-anchor="start" x="514.5" y="-483.5" font-family="Ubuntu" font-size="10.00">6</text>
<text text-anchor="start" x="524.5" y="-483.5" font-family="Ubuntu" font-size="10.00">metrics_name</text>
<polygon fill="#a6cee3" stroke="transparent" points="609.5,-478.5 609.5,-493.5 700.5,-493.5 700.5,-478.5 609.5,-478.5"/>
<text text-anchor="start" x="673.5" y="-484.5" font-family="Ubuntu" font-style="italic" font-size="10.00">string</text>
<text text-anchor="start" x="514.5" y="-468.5" font-family="Ubuntu" font-size="10.00">7</text>
<text text-anchor="start" x="524.5" y="-468.5" font-family="Ubuntu" font-size="10.00">metrics</text>
<polygon fill="#fb9a99" stroke="transparent" points="609.5,-463.5 609.5,-478.5 700.5,-478.5 700.5,-463.5 609.5,-463.5"/>
<text text-anchor="start" x="639.5" y="-469.5" font-family="Ubuntu" font-weight="bold" font-size="10.00">Addressable</text>
<text text-anchor="start" x="514.5" y="-453.5" font-family="Ubuntu" font-size="10.00">8</text>
<text text-anchor="start" x="524.5" y="-453.5" font-family="Ubuntu" font-size="10.00">permissions</text>
<polygon fill="#fb9a99" stroke="transparent" points="609.5,-448.5 609.5,-463.5 700.5,-463.5 700.5,-448.5 609.5,-448.5"/>
<text text-anchor="start" x="639.5" y="-454.5" font-family="Ubuntu" font-weight="bold" font-size="10.00">Permissions</text>
<text text-anchor="start" x="514.5" y="-438.5" font-family="Ubuntu" font-size="10.00">9</text>
<text text-anchor="start" x="524.5" y="-438.5" font-family="Ubuntu" font-size="10.00">metadata</text>
<polygon fill="#a6cee3" stroke="transparent" points="609.5,-433.5 609.5,-448.5 700.5,-448.5 700.5,-433.5 609.5,-433.5"/>
<text text-anchor="start" x="611.5" y="-439.5" font-family="Ubuntu" font-size="10.00">map&lt;string, </text>
<text text-anchor="start" x="666.5" y="-439.5" font-family="Ubuntu" font-style="italic" font-size="10.00">string</text>
<text text-anchor="start" x="691.5" y="-439.5" font-family="Ubuntu" font-size="10.00">&gt;</text>
<text text-anchor="start" x="509.5" y="-423.5" font-family="Ubuntu" font-size="10.00">10</text>
<text text-anchor="start" x="524.5" y="-423.5" font-family="Ubuntu" font-size="10.00">owner</text>
<polygon fill="#a6cee3" stroke="transparent" points="609.5,-418.5 609.5,-433.5 700.5,-433.5 700.5,-418.5 609.5,-418.5"/>
<text text-anchor="start" x="673.5" y="-424.5" font-family="Ubuntu" font-style="italic" font-size="10.00">string</text>
<polygon fill="none" stroke="black" points="486,-418 486,-585 701,-585 701,-418 486,-418"/>
</a>
</g>
</g>
<!-- Node_Ja_109&#45;&gt;Node_Ja_106 -->
<g id="edge11" class="edge">
<title>Node_Ja_109:e&#45;&gt;Node_Ja_106:header</title>
<g id="a_edge11"><a xlink:title="Ja_109 &#45;&#45;&gt; Ja_106">
<path fill="none" stroke="#000000" d="M434.5,-446.5C492.84,-446.5 432.8,-560.76 476.34,-575.04"/>
<polygon fill="#000000" stroke="#000000" points="476.1,-578.54 486.5,-576.5 477.1,-571.61 476.1,-578.54"/>
</a>
</g>
</g>
<!-- Node_Ja_113 -->
<g id="node10" class="node">
<title>Node_Ja_113</title>
<g id="a_node10"><a xlink:title="orchestrator.Leaderboard">
<polygon fill="#fffaf0" stroke="transparent" points="283,-278 283,-325 426,-325 426,-278 283,-278"/>
<polygon fill="#e31a1c" stroke="transparent" points="284.5,-308.5 284.5,-323.5 425.5,-323.5 425.5,-308.5 284.5,-308.5"/>
<text text-anchor="start" x="364.5" y="-314.5" font-family="Ubuntu" font-weight="bold" font-size="10.00">Leaderboard</text>
<text text-anchor="start" x="306.5" y="-298.5" font-family="Ubuntu" font-size="10.00">1</text>
<text text-anchor="start" x="316.5" y="-298.5" font-family="Ubuntu" font-size="10.00">objective</text>
<polygon fill="#fb9a99" stroke="transparent" points="372.5,-293.5 372.5,-308.5 425.5,-308.5 425.5,-293.5 372.5,-293.5"/>
<text text-anchor="start" x="379.5" y="-299.5" font-family="Ubuntu" font-weight="bold" font-size="10.00">Objective</text>
<text text-anchor="start" x="286.5" y="-283.5" font-family="Ubuntu" font-size="10.00">[...]</text>
<text text-anchor="start" x="306.5" y="-283.5" font-family="Ubuntu" font-size="10.00">2</text>
<text text-anchor="start" x="316.5" y="-283.5" font-family="Ubuntu" font-size="10.00">board_items</text>
<polygon fill="#fb9a99" stroke="transparent" points="372.5,-278.5 372.5,-293.5 425.5,-293.5 425.5,-278.5 372.5,-278.5"/>
<text text-anchor="start" x="374.5" y="-284.5" font-family="Ubuntu" font-weight="bold" font-size="10.00">BoardItem</text>
<polygon fill="none" stroke="black" points="283,-278 283,-325 426,-325 426,-278 283,-278"/>
</a>
</g>
</g>
<!-- Node_Ja_113&#45;&gt;Node_Ja_106 -->
<g id="edge17" class="edge">
<title>Node_Ja_113:e&#45;&gt;Node_Ja_106:header</title>
<g id="a_edge17"><a xlink:title="Ja_113 &#45;&#45;&gt; Ja_106">
<path fill="none" stroke="#000000" d="M426.5,-300.5C485.59,-300.5 430.97,-545.1 476.74,-573.77"/>
<polygon fill="#000000" stroke="#000000" points="475.93,-577.18 486.5,-576.5 477.81,-570.43 475.93,-577.18"/>
</a>
</g>
</g>
<!-- Node_Ja_112 -->
<g id="node15" class="node">
<title>Node_Ja_112</title>
<g id="a_node15"><a xlink:title="orchestrator.BoardItem">
<polygon fill="#fffaf0" stroke="transparent" points="527.5,-27 527.5,-104 659.5,-104 659.5,-27 527.5,-27"/>
<polygon fill="#e31a1c" stroke="transparent" points="528.5,-87.5 528.5,-102.5 658.5,-102.5 658.5,-87.5 528.5,-87.5"/>
<text text-anchor="start" x="607.5" y="-93.5" font-family="Ubuntu" font-weight="bold" font-size="10.00">BoardItem</text>
<text text-anchor="start" x="534.5" y="-77.5" font-family="Ubuntu" font-size="10.00">1</text>
<text text-anchor="start" x="544.5" y="-77.5" font-family="Ubuntu" font-size="10.00">algo_name</text>
<polygon fill="#a6cee3" stroke="transparent" points="629.5,-72.5 629.5,-87.5 658.5,-87.5 658.5,-72.5 629.5,-72.5"/>
<text text-anchor="start" x="631.5" y="-78.5" font-family="Ubuntu" font-style="italic" font-size="10.00">string</text>
<text text-anchor="start" x="534.5" y="-62.5" font-family="Ubuntu" font-size="10.00">3</text>
<text text-anchor="start" x="544.5" y="-62.5" font-family="Ubuntu" font-size="10.00">objective_key</text>
<polygon fill="#a6cee3" stroke="transparent" points="629.5,-57.5 629.5,-72.5 658.5,-72.5 658.5,-57.5 629.5,-57.5"/>
<text text-anchor="start" x="631.5" y="-63.5" font-family="Ubuntu" font-style="italic" font-size="10.00">string</text>
<text text-anchor="start" x="534.5" y="-47.5" font-family="Ubuntu" font-size="10.00">4</text>
<text text-anchor="start" x="544.5" y="-47.5" font-family="Ubuntu" font-size="10.00">compute_task_key</text>
<polygon fill="#a6cee3" stroke="transparent" points="629.5,-42.5 629.5,-57.5 658.5,-57.5 658.5,-42.5 629.5,-42.5"/>
<text text-anchor="start" x="631.5" y="-48.5" font-family="Ubuntu" font-style="italic" font-size="10.00">string</text>
<text text-anchor="start" x="534.5" y="-32.5" font-family="Ubuntu" font-size="10.00">5</text>
<text text-anchor="start" x="544.5" y="-32.5" font-family="Ubuntu" font-size="10.00">perf</text>
<polygon fill="#a6cee3" stroke="transparent" points="629.5,-27.5 629.5,-42.5 658.5,-42.5 658.5,-27.5 629.5,-27.5"/>
<text text-anchor="start" x="637.5" y="-33.5" font-family="Ubuntu" font-style="italic" font-size="10.00">float</text>
<polygon fill="none" stroke="black" points="527.5,-27 527.5,-104 659.5,-104 659.5,-27 527.5,-27"/>
</a>
</g>
</g>
<!-- Node_Ja_113&#45;&gt;Node_Ja_112 -->
<g id="edge18" class="edge">
<title>Node_Ja_113:e&#45;&gt;Node_Ja_112:header</title>
<g id="a_edge18"><a xlink:title="Ja_113 &#45;&#45;&gt; Ja_112">
<path fill="none" stroke="#000000" d="M426.5,-285.5C506.3,-285.5 423.23,-171.53 478,-113.5 491.56,-99.14 500.81,-96.2 517.43,-95.63"/>
<polygon fill="#000000" stroke="#000000" points="517.55,-99.13 527.5,-95.5 517.46,-92.13 517.55,-99.13"/>
</a>
</g>
</g>
<!-- Node_Ja_114 -->
<g id="node11" class="node">
<title>Node_Ja_114</title>
<g id="a_node11"><a xlink:title="ObjectiveService">
<polygon fill="#ffd700" stroke="transparent" points="8,-496 8,-633 223,-633 223,-496 8,-496"/>
<polygon fill="#ff7f50" stroke="transparent" points="9.5,-616.5 9.5,-631.5 222.5,-631.5 222.5,-616.5 9.5,-616.5"/>
<text text-anchor="start" x="141.5" y="-622.5" font-family="Ubuntu" font-weight="bold" font-size="10.00">ObjectiveService</text>
<text text-anchor="start" x="11.5" y="-607.5" font-family="Ubuntu" font-weight="bold" font-size="10.00">RegisterObjective</text>
<text text-anchor="start" x="158.5" y="-606.5" font-family="Ubuntu" font-size="10.00">NewObjective</text>
<polygon fill="#ff7f50" stroke="transparent" points="96.5,-586.5 96.5,-601.5 100.5,-601.5 100.5,-586.5 96.5,-586.5"/>
<polygon fill="#ff7f50" stroke="transparent" points="100.5,-586.5 100.5,-601.5 222.5,-601.5 222.5,-586.5 100.5,-586.5"/>
<text text-anchor="start" x="178.5" y="-591.5" font-family="Ubuntu" font-size="10.00">Objective</text>
<text text-anchor="start" x="11.5" y="-577.5" font-family="Ubuntu" font-weight="bold" font-size="10.00">GetObjective</text>
<text text-anchor="start" x="134.5" y="-576.5" font-family="Ubuntu" font-size="10.00">GetObjectiveParam</text>
<polygon fill="#ff7f50" stroke="transparent" points="96.5,-556.5 96.5,-571.5 100.5,-571.5 100.5,-556.5 96.5,-556.5"/>
<polygon fill="#ff7f50" stroke="transparent" points="100.5,-556.5 100.5,-571.5 222.5,-571.5 222.5,-556.5 100.5,-556.5"/>
<text text-anchor="start" x="178.5" y="-561.5" font-family="Ubuntu" font-size="10.00">Objective</text>
<text text-anchor="start" x="11.5" y="-547.5" font-family="Ubuntu" font-weight="bold" font-size="10.00">QueryObjectives</text>
<text text-anchor="start" x="118.5" y="-546.5" font-family="Ubuntu" font-size="10.00">QueryObjectivesParam</text>
<polygon fill="#ff7f50" stroke="transparent" points="96.5,-526.5 96.5,-541.5 100.5,-541.5 100.5,-526.5 96.5,-526.5"/>
<polygon fill="#ff7f50" stroke="transparent" points="100.5,-526.5 100.5,-541.5 222.5,-541.5 222.5,-526.5 100.5,-526.5"/>
<text text-anchor="start" x="102.5" y="-531.5" font-family="Ubuntu" font-size="10.00">QueryObjectivesResponse</text>
<text text-anchor="start" x="11.5" y="-517.5" font-family="Ubuntu" font-weight="bold" font-size="10.00">GetLeaderboard</text>
<text text-anchor="start" x="111.5" y="-516.5" font-family="Ubuntu" font-size="10.00">LeaderboardQueryParam</text>
<polygon fill="#ff7f50" stroke="transparent" points="96.5,-496.5 96.5,-511.5 100.5,-511.5 100.5,-496.5 96.5,-496.5"/>
<polygon fill="#ff7f50" stroke="transparent" points="100.5,-496.5 100.5,-511.5 222.5,-511.5 222.5,-496.5 100.5,-496.5"/>
<text text-anchor="start" x="166.5" y="-501.5" font-family="Ubuntu" font-size="10.00">Leaderboard</text>
<polygon fill="none" stroke="black" points="8,-496 8,-633 223,-633 223,-496 8,-496"/>
</a>
</g>
</g>
<!-- Node_Ja_114&#45;&gt;Node_Ja_108 -->
<g id="edge3" class="edge">
<title>Node_Ja_114:e&#45;&gt;Node_Ja_108:header</title>
<g id="a_edge3"><a xlink:title="Ja_114 &#45;&#45;&gt; Ja_108">
<path fill="none" stroke="#000000" d="M223.5,-579.5C263.51,-579.5 263.15,-623.78 296.22,-631.39"/>
<polygon fill="#000000" stroke="#000000" points="296.18,-634.91 306.5,-632.5 296.93,-627.95 296.18,-634.91"/>
</a>
</g>
</g>
<!-- Node_Ja_114&#45;&gt;Node_Ja_111 -->
<g id="edge13" class="edge">
<title>Node_Ja_114:e&#45;&gt;Node_Ja_111:header</title>
<g id="a_edge13"><a xlink:title="Ja_114 &#45;&#45;&gt; Ja_111">
<path fill="none" stroke="#000000" d="M223.5,-518.5C284.32,-518.5 232.75,-404.17 280.4,-390.78"/>
<polygon fill="#000000" stroke="#000000" points="281.02,-394.23 290.5,-389.5 280.14,-387.28 281.02,-394.23"/>
</a>
</g>
</g>
<!-- Node_Ja_114&#45;&gt;Node_Ja_109 -->
<g id="edge6" class="edge">
<title>Node_Ja_114:e&#45;&gt;Node_Ja_109:header</title>
<g id="a_edge6"><a xlink:title="Ja_114 &#45;&#45;&gt; Ja_109">
<path fill="none" stroke="#000000" d="M223.5,-533.5C258.64,-533.5 241.04,-476.19 265.47,-464.55"/>
<polygon fill="#000000" stroke="#000000" points="266.4,-467.93 275.5,-462.5 265,-461.07 266.4,-467.93"/>
</a>
</g>
</g>
<!-- Node_Ja_114&#45;&gt;Node_Ja_113 -->
<g id="edge20" class="edge">
<title>Node_Ja_114:e&#45;&gt;Node_Ja_113:header</title>
<g id="a_edge20"><a xlink:title="Ja_114 &#45;&#45;&gt; Ja_113">
<path fill="none" stroke="#000000" d="M223.5,-503.5C307.03,-503.5 205.69,-332.23 273.33,-317.51"/>
<polygon fill="#000000" stroke="#000000" points="273.89,-320.97 283.5,-316.5 273.2,-314 273.89,-320.97"/>
</a>
</g>
</g>
<!-- Node_Ja_114&#45;&gt;Node_Ja_106 -->
<g id="edge12" class="edge">
<title>Node_Ja_114:e&#45;&gt;Node_Ja_106:header</title>
<g id="a_edge12"><a xlink:title="Ja_114 &#45;&#45;&gt; Ja_106">
<path fill="none" stroke="#000000" d="M223.5,-563.5C337.1,-563.5 367.7,-575.75 476.44,-576.47"/>
<polygon fill="#000000" stroke="#000000" points="476.49,-579.97 486.5,-576.5 476.51,-572.97 476.49,-579.97"/>
</a>
</g>
</g>
<!-- Node_Ja_114&#45;&gt;Node_Ja_106 -->
<g id="edge19" class="edge">
<title>Node_Ja_114:e&#45;&gt;Node_Ja_106:header</title>
<g id="a_edge19"><a xlink:title="Ja_114 &#45;&#45;&gt; Ja_106">
<path fill="none" stroke="#000000" d="M223.5,-594.5C256.08,-594.5 237.92,-638.81 267,-653.5 336.42,-688.57 374.63,-692.37 442,-653.5 472.76,-635.75 452.26,-587.74 476.45,-578.17"/>
<polygon fill="#000000" stroke="#000000" points="477.21,-581.59 486.5,-576.5 476.06,-574.69 477.21,-581.59"/>
</a>
</g>
</g>
<!-- Node_Ja_107 -->
<g id="node13" class="node">
<title>Node_Ja_107</title>
<g id="a_node13"><a xlink:title="orchestrator.NewObjective">
<polygon fill="#fffaf0" stroke="transparent" points="488.5,-611.5 488.5,-763.5 698.5,-763.5 698.5,-611.5 488.5,-611.5"/>
<polygon fill="#e31a1c" stroke="transparent" points="489.5,-747.5 489.5,-762.5 697.5,-762.5 697.5,-747.5 489.5,-747.5"/>
<text text-anchor="start" x="631.5" y="-753.5" font-family="Ubuntu" font-weight="bold" font-size="10.00">NewObjective</text>
<text text-anchor="start" x="511.5" y="-737.5" font-family="Ubuntu" font-size="10.00">1</text>
<text text-anchor="start" x="521.5" y="-737.5" font-family="Ubuntu" font-size="10.00">key</text>
<polygon fill="#a6cee3" stroke="transparent" points="606.5,-732.5 606.5,-747.5 697.5,-747.5 697.5,-732.5 606.5,-732.5"/>
<text text-anchor="start" x="670.5" y="-738.5" font-family="Ubuntu" font-style="italic" font-size="10.00">string</text>
<text text-anchor="start" x="511.5" y="-722.5" font-family="Ubuntu" font-size="10.00">2</text>
<text text-anchor="start" x="521.5" y="-722.5" font-family="Ubuntu" font-size="10.00">name</text>
<polygon fill="#a6cee3" stroke="transparent" points="606.5,-717.5 606.5,-732.5 697.5,-732.5 697.5,-717.5 606.5,-717.5"/>
<text text-anchor="start" x="670.5" y="-723.5" font-family="Ubuntu" font-style="italic" font-size="10.00">string</text>
<text text-anchor="start" x="511.5" y="-707.5" font-family="Ubuntu" font-size="10.00">3</text>
<text text-anchor="start" x="521.5" y="-707.5" font-family="Ubuntu" font-size="10.00">data_manager_key</text>
<polygon fill="#a6cee3" stroke="transparent" points="606.5,-702.5 606.5,-717.5 697.5,-717.5 697.5,-702.5 606.5,-702.5"/>
<text text-anchor="start" x="670.5" y="-708.5" font-family="Ubuntu" font-style="italic" font-size="10.00">string</text>
<text text-anchor="start" x="491.5" y="-692.5" font-family="Ubuntu" font-size="10.00">[...]</text>
<text text-anchor="start" x="511.5" y="-692.5" font-family="Ubuntu" font-size="10.00">4</text>
<text text-anchor="start" x="521.5" y="-692.5" font-family="Ubuntu" font-size="10.00">data_sample_keys</text>
<polygon fill="#a6cee3" stroke="transparent" points="606.5,-687.5 606.5,-702.5 697.5,-702.5 697.5,-687.5 606.5,-687.5"/>
<text text-anchor="start" x="670.5" y="-693.5" font-family="Ubuntu" font-style="italic" font-size="10.00">string</text>
<text text-anchor="start" x="511.5" y="-677.5" font-family="Ubuntu" font-size="10.00">5</text>
<text text-anchor="start" x="521.5" y="-677.5" font-family="Ubuntu" font-size="10.00">description</text>
<polygon fill="#fb9a99" stroke="transparent" points="606.5,-672.5 606.5,-687.5 697.5,-687.5 697.5,-672.5 606.5,-672.5"/>
<text text-anchor="start" x="636.5" y="-678.5" font-family="Ubuntu" font-weight="bold" font-size="10.00">Addressable</text>
<text text-anchor="start" x="511.5" y="-662.5" font-family="Ubuntu" font-size="10.00">6</text>
<text text-anchor="start" x="521.5" y="-662.5" font-family="Ubuntu" font-size="10.00">metrics_name</text>
<polygon fill="#a6cee3" stroke="transparent" points="606.5,-657.5 606.5,-672.5 697.5,-672.5 697.5,-657.5 606.5,-657.5"/>
<text text-anchor="start" x="670.5" y="-663.5" font-family="Ubuntu" font-style="italic" font-size="10.00">string</text>
<text text-anchor="start" x="511.5" y="-647.5" font-family="Ubuntu" font-size="10.00">7</text>
<text text-anchor="start" x="521.5" y="-647.5" font-family="Ubuntu" font-size="10.00">metrics</text>
<polygon fill="#fb9a99" stroke="transparent" points="606.5,-642.5 606.5,-657.5 697.5,-657.5 697.5,-642.5 606.5,-642.5"/>
<text text-anchor="start" x="636.5" y="-648.5" font-family="Ubuntu" font-weight="bold" font-size="10.00">Addressable</text>
<text text-anchor="start" x="511.5" y="-632.5" font-family="Ubuntu" font-size="10.00">8</text>
<text text-anchor="start" x="521.5" y="-632.5" font-family="Ubuntu" font-size="10.00">new_permissions</text>
<polygon fill="#fb9a99" stroke="transparent" points="606.5,-627.5 606.5,-642.5 697.5,-642.5 697.5,-627.5 606.5,-627.5"/>
<text text-anchor="start" x="616.5" y="-633.5" font-family="Ubuntu" font-weight="bold" font-size="10.00">NewPermissions</text>
<text text-anchor="start" x="511.5" y="-617.5" font-family="Ubuntu" font-size="10.00">9</text>
<text text-anchor="start" x="521.5" y="-617.5" font-family="Ubuntu" font-size="10.00">metadata</text>
<polygon fill="#a6cee3" stroke="transparent" points="606.5,-612.5 606.5,-627.5 697.5,-627.5 697.5,-612.5 606.5,-612.5"/>
<text text-anchor="start" x="608.5" y="-618.5" font-family="Ubuntu" font-size="10.00">map&lt;string, </text>
<text text-anchor="start" x="663.5" y="-618.5" font-family="Ubuntu" font-style="italic" font-size="10.00">string</text>
<text text-anchor="start" x="688.5" y="-618.5" font-family="Ubuntu" font-size="10.00">&gt;</text>
<polygon fill="none" stroke="black" points="488.5,-611.5 488.5,-763.5 698.5,-763.5 698.5,-611.5 488.5,-611.5"/>
</a>
</g>
</g>
<!-- Node_Ja_114&#45;&gt;Node_Ja_107 -->
<g id="edge2" class="edge">
<title>Node_Ja_114:e&#45;&gt;Node_Ja_107:header</title>
<g id="a_edge2"><a xlink:title="Ja_114 &#45;&#45;&gt; Ja_107">
<path fill="none" stroke="#000000" d="M223.5,-609.5C260.51,-609.5 238.08,-657.41 267,-680.5 345.52,-743.2 382.1,-754.77 478.37,-755.46"/>
<polygon fill="#000000" stroke="#000000" points="478.49,-758.97 488.5,-755.5 478.51,-751.97 478.49,-758.97"/>
</a>
</g>
</g>
<!-- Node_Ja_110 -->
<g id="node14" class="node">
<title>Node_Ja_110</title>
<g id="a_node14"><a xlink:title="orchestrator.QueryObjectivesParam">
<polygon fill="#fffaf0" stroke="transparent" points="298,-497 298,-544 411,-544 411,-497 298,-497"/>
<polygon fill="#e31a1c" stroke="transparent" points="299.5,-527.5 299.5,-542.5 410.5,-542.5 410.5,-527.5 299.5,-527.5"/>
<text text-anchor="start" x="301.5" y="-533.5" font-family="Ubuntu" font-weight="bold" font-size="10.00">QueryObjectivesParam</text>
<text text-anchor="start" x="313.5" y="-517.5" font-family="Ubuntu" font-size="10.00">1</text>
<text text-anchor="start" x="323.5" y="-517.5" font-family="Ubuntu" font-size="10.00">page_token</text>
<polygon fill="#a6cee3" stroke="transparent" points="377.5,-512.5 377.5,-527.5 410.5,-527.5 410.5,-512.5 377.5,-512.5"/>
<text text-anchor="start" x="383.5" y="-518.5" font-family="Ubuntu" font-style="italic" font-size="10.00">string</text>
<text text-anchor="start" x="313.5" y="-502.5" font-family="Ubuntu" font-size="10.00">2</text>
<text text-anchor="start" x="323.5" y="-502.5" font-family="Ubuntu" font-size="10.00">page_size</text>
<polygon fill="#a6cee3" stroke="transparent" points="377.5,-497.5 377.5,-512.5 410.5,-512.5 410.5,-497.5 377.5,-497.5"/>
<text text-anchor="start" x="381.5" y="-503.5" font-family="Ubuntu" font-style="italic" font-size="10.00">uint32</text>
<polygon fill="none" stroke="black" points="298,-497 298,-544 411,-544 411,-497 298,-497"/>
</a>
</g>
</g>
<!-- Node_Ja_114&#45;&gt;Node_Ja_110 -->
<g id="edge5" class="edge">
<title>Node_Ja_114:e&#45;&gt;Node_Ja_110:header</title>
<g id="a_edge5"><a xlink:title="Ja_114 &#45;&#45;&gt; Ja_110">
<path fill="none" stroke="#000000" d="M223.5,-548.5C253.63,-548.5 262.75,-538.19 288.28,-535.93"/>
<polygon fill="#000000" stroke="#000000" points="288.66,-539.42 298.5,-535.5 288.36,-532.43 288.66,-539.42"/>
</a>
</g>
</g>
<!-- Node_Ja_106&#45;&gt;Node_Ja_102 -->
<g id="edge4" class="edge">
<title>Node_Ja_106:e&#45;&gt;Node_Ja_102:header</title>
<g id="a_edge4"><a xlink:title="Ja_106 &#45;&#45;&gt; Ja_102">
<path fill="none" stroke="#000000" d="M701.5,-500.5C758.4,-500.5 703.61,-610.36 746.55,-624.1"/>
<polygon fill="#000000" stroke="#000000" points="746.11,-627.57 756.5,-625.5 747.09,-620.64 746.11,-627.57"/>
</a>
</g>
</g>
<!-- Node_Ja_106&#45;&gt;Node_Ja_102 -->
<g id="edge15" class="edge">
<title>Node_Ja_106:e&#45;&gt;Node_Ja_102:header</title>
<g id="a_edge15"><a xlink:title="Ja_106 &#45;&#45;&gt; Ja_102">
<path fill="none" stroke="#000000" d="M701.5,-470.5C770.74,-470.5 692.56,-609.58 746.26,-624.25"/>
<polygon fill="#000000" stroke="#000000" points="746.15,-627.76 756.5,-625.5 747,-620.82 746.15,-627.76"/>
</a>
</g>
</g>
<!-- Node_Ja_106&#45;&gt;Node_Ja_103 -->
<g id="edge7" class="edge">
<title>Node_Ja_106:e&#45;&gt;Node_Ja_103:header</title>
<g id="a_edge7"><a xlink:title="Ja_106 &#45;&#45;&gt; Ja_103">
<path fill="none" stroke="#000000" d="M701.5,-455.5C724.77,-455.5 729.4,-473.22 747.43,-478.21"/>
<polygon fill="#000000" stroke="#000000" points="747.14,-481.7 757.5,-479.5 748.03,-474.76 747.14,-481.7"/>
</a>
</g>
</g>
<!-- Node_Ja_107&#45;&gt;Node_Ja_105 -->
<g id="edge10" class="edge">
<title>Node_Ja_107:e&#45;&gt;Node_Ja_105:header</title>
<g id="a_edge10"><a xlink:title="Ja_107 &#45;&#45;&gt; Ja_105">
<path fill="none" stroke="#000000" d="M698.5,-634.5C738.44,-634.5 714.89,-566.57 743.42,-554.37"/>
<polygon fill="#000000" stroke="#000000" points="744.3,-557.76 753.5,-552.5 743.03,-550.88 744.3,-557.76"/>
</a>
</g>
</g>
<!-- Node_Ja_107&#45;&gt;Node_Ja_102 -->
<g id="edge8" class="edge">
<title>Node_Ja_107:e&#45;&gt;Node_Ja_102:header</title>
<g id="a_edge8"><a xlink:title="Ja_107 &#45;&#45;&gt; Ja_102">
<path fill="none" stroke="#000000" d="M698.5,-679.5C729.87,-679.5 723.43,-636.67 746.53,-627.3"/>
<polygon fill="#000000" stroke="#000000" points="747.28,-630.72 756.5,-625.5 746.04,-623.83 747.28,-630.72"/>
</a>
</g>
</g>
<!-- Node_Ja_107&#45;&gt;Node_Ja_102 -->
<g id="edge9" class="edge">
<title>Node_Ja_107:e&#45;&gt;Node_Ja_102:header</title>
<g id="a_edge9"><a xlink:title="Ja_107 &#45;&#45;&gt; Ja_102">
<path fill="none" stroke="#000000" d="M698.5,-649.5C722.58,-649.5 727.52,-631.61 746.37,-626.72"/>
<polygon fill="#000000" stroke="#000000" points="746.99,-630.17 756.5,-625.5 746.15,-623.22 746.99,-630.17"/>
</a>
</g>
</g>
</g>
</svg>
