<?xml version="1.0" encoding="UTF-8" standalone="no"?>
<!DOCTYPE svg PUBLIC "-//W3C//DTD SVG 1.1//EN"
 "http://www.w3.org/Graphics/SVG/1.1/DTD/svg11.dtd">
<!-- Generated by graphviz version 2.47.3 (20210619.1520)
 -->
<!-- Title: protodot Pages: 1 -->
<svg width="567pt" height="218pt"
 viewBox="0.00 0.00 567.00 218.00" xmlns="http://www.w3.org/2000/svg" xmlns:xlink="http://www.w3.org/1999/xlink">
<g id="graph0" class="graph" transform="scale(1 1) rotate(0) translate(4 214)">
<title>protodot</title>
<g id="a_graph0"><a xlink:title="orchestrator">
<text text-anchor="middle" x="279.5" y="-7.8" font-family="Times,serif" font-size="14.00">orchestrator</text>
</a>
</g>
<!-- Node_Ja_103 -->
<g id="node1" class="node">
<title>Node_Ja_103</title>
<g id="a_node1"><a xlink:title="PerformanceService">
<polygon fill="#ffd700" stroke="transparent" points="8,-80 8,-157 323,-157 323,-80 8,-80"/>
<polygon fill="#ff7f50" stroke="transparent" points="9.5,-140.5 9.5,-155.5 322.5,-155.5 322.5,-140.5 9.5,-140.5"/>
<text text-anchor="start" x="226.5" y="-146.5" font-family="Ubuntu" font-weight="bold" font-size="10.00">PerformanceService</text>
<text text-anchor="start" x="11.5" y="-131.5" font-family="Ubuntu" font-weight="bold" font-size="10.00">RegisterPerformance</text>
<text text-anchor="start" x="244.5" y="-130.5" font-family="Ubuntu" font-size="10.00">NewPerformance</text>
<polygon fill="#ff7f50" stroke="transparent" points="153.5,-110.5 153.5,-125.5 157.5,-125.5 157.5,-110.5 153.5,-110.5"/>
<polygon fill="#ff7f50" stroke="transparent" points="157.5,-110.5 157.5,-125.5 322.5,-125.5 322.5,-110.5 157.5,-110.5"/>
<text text-anchor="start" x="264.5" y="-115.5" font-family="Ubuntu" font-size="10.00">Performance</text>
<text text-anchor="start" x="11.5" y="-101.5" font-family="Ubuntu" font-weight="bold" font-size="10.00">GetComputeTaskPerformance</text>
<text text-anchor="start" x="159.5" y="-100.5" font-family="Ubuntu" font-size="10.00">GetComputeTaskPerformanceParam</text>
<polygon fill="#ff7f50" stroke="transparent" points="153.5,-80.5 153.5,-95.5 157.5,-95.5 157.5,-80.5 153.5,-80.5"/>
<polygon fill="#ff7f50" stroke="transparent" points="157.5,-80.5 157.5,-95.5 322.5,-95.5 322.5,-80.5 157.5,-80.5"/>
<text text-anchor="start" x="264.5" y="-85.5" font-family="Ubuntu" font-size="10.00">Performance</text>
<polygon fill="none" stroke="black" points="8,-80 8,-157 323,-157 323,-80 8,-80"/>
</a>
</g>
</g>
<!-- Node_Ja_100 -->
<g id="node2" class="node">
<title>Node_Ja_100</title>
<g id="a_node2"><a xlink:title="orchestrator.NewPerformance">
<polygon fill="#fffaf0" stroke="transparent" points="397,-159 397,-206 529,-206 529,-159 397,-159"/>
<polygon fill="#e31a1c" stroke="transparent" points="398,-189.5 398,-204.5 528,-204.5 528,-189.5 398,-189.5"/>
<text text-anchor="start" x="446" y="-195.5" font-family="Ubuntu" font-weight="bold" font-size="10.00">NewPerformance</text>
<text text-anchor="start" x="404" y="-179.5" font-family="Ubuntu" font-size="10.00">1</text>
<text text-anchor="start" x="414" y="-179.5" font-family="Ubuntu" font-size="10.00">compute_task_key</text>
<polygon fill="#a6cee3" stroke="transparent" points="499,-174.5 499,-189.5 528,-189.5 528,-174.5 499,-174.5"/>
<text text-anchor="start" x="501" y="-180.5" font-family="Ubuntu" font-style="italic" font-size="10.00">string</text>
<text text-anchor="start" x="404" y="-164.5" font-family="Ubuntu" font-size="10.00">2</text>
<text text-anchor="start" x="414" y="-164.5" font-family="Ubuntu" font-size="10.00">performance_value</text>
<polygon fill="#a6cee3" stroke="transparent" points="499,-159.5 499,-174.5 528,-174.5 528,-159.5 499,-159.5"/>
<text text-anchor="start" x="507" y="-165.5" font-family="Ubuntu" font-style="italic" font-size="10.00">float</text>
<polygon fill="none" stroke="black" points="397,-159 397,-206 529,-206 529,-159 397,-159"/>
</a>
</g>
</g>
<!-- Node_Ja_103&#45;&gt;Node_Ja_100 -->
<g id="edge1" class="edge">
<title>Node_Ja_103:e&#45;&gt;Node_Ja_100:header</title>
<g id="a_edge1"><a xlink:title="Ja_103 &#45;&#45;&gt; Ja_100">
<path fill="none" stroke="#000000" d="M323.5,-133.5C363.09,-133.5 355.52,-186.97 387.01,-196.16"/>
<polygon fill="#000000" stroke="#000000" points="386.62,-199.64 397,-197.5 387.55,-192.7 386.62,-199.64"/>
</a>
</g>
</g>
<!-- Node_Ja_101 -->
<g id="node3" class="node">
<title>Node_Ja_101</title>
<g id="a_node3"><a xlink:title="orchestrator.Performance">
<polygon fill="#fffaf0" stroke="transparent" points="397,-27 397,-74 529,-74 529,-27 397,-27"/>
<polygon fill="#e31a1c" stroke="transparent" points="398,-57.5 398,-72.5 528,-72.5 528,-57.5 398,-57.5"/>
<text text-anchor="start" x="466" y="-63.5" font-family="Ubuntu" font-weight="bold" font-size="10.00">Performance</text>
<text text-anchor="start" x="404" y="-47.5" font-family="Ubuntu" font-size="10.00">1</text>
<text text-anchor="start" x="414" y="-47.5" font-family="Ubuntu" font-size="10.00">compute_task_key</text>
<polygon fill="#a6cee3" stroke="transparent" points="499,-42.5 499,-57.5 528,-57.5 528,-42.5 499,-42.5"/>
<text text-anchor="start" x="501" y="-48.5" font-family="Ubuntu" font-style="italic" font-size="10.00">string</text>
<text text-anchor="start" x="404" y="-32.5" font-family="Ubuntu" font-size="10.00">2</text>
<text text-anchor="start" x="414" y="-32.5" font-family="Ubuntu" font-size="10.00">performance_value</text>
<polygon fill="#a6cee3" stroke="transparent" points="499,-27.5 499,-42.5 528,-42.5 528,-27.5 499,-27.5"/>
<text text-anchor="start" x="507" y="-33.5" font-family="Ubuntu" font-style="italic" font-size="10.00">float</text>
<polygon fill="none" stroke="black" points="397,-27 397,-74 529,-74 529,-27 397,-27"/>
</a>
</g>
</g>
<!-- Node_Ja_103&#45;&gt;Node_Ja_101 -->
<g id="edge2" class="edge">
<title>Node_Ja_103:e&#45;&gt;Node_Ja_101:header</title>
<g id="a_edge2"><a xlink:title="Ja_103 &#45;&#45;&gt; Ja_101">
<path fill="none" stroke="#000000" d="M323.5,-117.5C359.76,-117.5 357.8,-74.79 386.9,-66.79"/>
<polygon fill="#000000" stroke="#000000" points="387.52,-70.23 397,-65.5 386.64,-63.29 387.52,-70.23"/>
</a>
</g>
</g>
<!-- Node_Ja_103&#45;&gt;Node_Ja_101 -->
<g id="edge4" class="edge">
<title>Node_Ja_103:e&#45;&gt;Node_Ja_101:header</title>
<g id="a_edge4"><a xlink:title="Ja_103 &#45;&#45;&gt; Ja_101">
<path fill="none" stroke="#000000" d="M323.5,-87.5C353.87,-87.5 361.4,-70.05 386.77,-66.23"/>
<polygon fill="#000000" stroke="#000000" points="387.28,-69.7 397,-65.5 386.78,-62.72 387.28,-69.7"/>
</a>
</g>
</g>
<!-- Node_Ja_102 -->
<g id="node4" class="node">
<title>Node_Ja_102</title>
<g id="a_node4"><a xlink:title="orchestrator.GetComputeTaskPerformanceParam">
<polygon fill="#fffaf0" stroke="transparent" points="375,-100.5 375,-132.5 551,-132.5 551,-100.5 375,-100.5"/>
<polygon fill="#e31a1c" stroke="transparent" points="376,-116.5 376,-131.5 550,-131.5 550,-116.5 376,-116.5"/>
<text text-anchor="start" x="378" y="-122.5" font-family="Ubuntu" font-weight="bold" font-size="10.00">GetComputeTaskPerformanceParam</text>
<text text-anchor="start" x="415" y="-106.5" font-family="Ubuntu" font-size="10.00">1</text>
<text text-anchor="start" x="425" y="-106.5" font-family="Ubuntu" font-size="10.00">compute_task_key</text>
<polygon fill="#a6cee3" stroke="transparent" points="515,-101.5 515,-116.5 550,-116.5 550,-101.5 515,-101.5"/>
<text text-anchor="start" x="523" y="-107.5" font-family="Ubuntu" font-style="italic" font-size="10.00">string</text>
<polygon fill="none" stroke="black" points="375,-100.5 375,-132.5 551,-132.5 551,-100.5 375,-100.5"/>
</a>
</g>
</g>
<!-- Node_Ja_103&#45;&gt;Node_Ja_102 -->
<g id="edge3" class="edge">
<title>Node_Ja_103:e&#45;&gt;Node_Ja_102:header</title>
<g id="a_edge3"><a xlink:title="Ja_103 &#45;&#45;&gt; Ja_102">
<path fill="none" stroke="#000000" d="M323.5,-102.5C344.5,-102.5 349.01,-118.16 364.85,-123.06"/>
<polygon fill="#000000" stroke="#000000" points="364.61,-126.56 375,-124.5 365.59,-119.63 364.61,-126.56"/>
</a>
</g>
</g>
</g>
</svg>
